<?xml version="1.0" encoding="utf-8"?>
<!-- Generator: Adobe Illustrator 27.5.0, SVG Export Plug-In . SVG Version: 6.00 Build 0)  -->
<svg version="1.1" xmlns="http://www.w3.org/2000/svg" xmlns:xlink="http://www.w3.org/1999/xlink" x="0px" y="0px"
	 viewBox="0 0 750 500" style="enable-background:new 0 0 750 500;" xml:space="preserve">
<g id="BACKGROUND">
	<g>
		<g>
			<rect style="fill:#CFECFF;" width="750" height="500"/>
			<path style="fill:#FFFFFF;" d="M320.667,78.333c-9.719,5.868-10,8,1.667,9.667C334,89.667,359,85.667,379,88
				s55.654-1.333,65.16-1c9.506,0.333,5.173-4.667-3.66-6.333c-8.833-1.667,7.5-3,18-2.333c10.5,0.667,27.833,5.333,43.167,3.333
				C517,79.667,523.578,75,514.122,73s-9.456-2-9.456-2l0,0c0,0-6.236-9.667-20.785-13C469.333,54.667,454,64.667,454,64.667
				s-17.804-13.333-28.236-12.333c-10.431,1-7.321,8.667-7.321,8.667s-8.443-4.333-19.777-3.333C387.333,58.667,371,78,371,78
				s-8.667-4.667-17.333-5.333C345,72,335.333,79,335.333,79S328.403,73.662,320.667,78.333z"/>
			<path style="fill:#FFFFFF;" d="M581.741,150.771c-5.328,3.217-5.482,4.386,0.914,5.299c6.396,0.914,20.101-1.279,31.065,0
				c10.964,1.279,30.51-0.731,35.722-0.548c5.211,0.183,2.836-2.558-2.007-3.472c-4.843-0.914,4.112-1.645,9.868-1.279
				c5.756,0.365,15.259,2.924,23.665,1.827c8.406-1.096,12.012-3.655,6.828-4.751c-5.184-1.096-5.184-1.096-5.184-1.096l0,0
				c0,0-3.419-5.299-11.395-7.127c-7.976-1.827-16.382,3.655-16.382,3.655s-9.761-7.309-15.479-6.761
				c-5.718,0.548-4.013,4.751-4.013,4.751s-4.629-2.376-10.842-1.827c-6.213,0.548-15.167,11.147-15.167,11.147
				s-4.751-2.558-9.502-2.924c-4.751-0.365-10.051,3.472-10.051,3.472S585.982,148.211,581.741,150.771z"/>
			<path style="fill:#FFFFFF;" d="M185.838,183.889c7.844,1.573,20.839,7.32,33.667,7.345s42.285-0.988,62.643,0
				c20.357,0.987,44.691-3.719,68.024-4.032c23.333-0.314,23.667-5.647,16.333-7.814c0,0-8.333-7.167-26.333-3.833
				c0,0-9.451-6.145-22.059-7.573c-12.608-1.427-22.275,6.573-22.275,6.573s-8-8-15.333-9c-7.333-1-25.445,8.333-25.445,8.333
				s-8.571-4.397-14.063-3.532c-5.492,0.865-11.492,6.944-11.492,6.944s-14.452-7.683-25.738,0
				C203.766,177.3,176.494,182.016,185.838,183.889z"/>
			<path style="fill:#FFFFFF;" d="M38.395,102.185c4.747,0.952,12.611,4.43,20.374,4.445c7.763,0.015,25.59-0.597,37.909,0
				c12.32,0.598,27.045-2.25,41.166-2.44c14.12-0.19,14.322-3.417,9.884-4.729c0,0-5.043-4.337-15.936-2.32
				c0,0-5.719-3.719-13.349-4.583c-7.63-0.864-13.48,3.978-13.48,3.978s-4.841-4.841-9.279-5.447
				c-4.438-0.605-15.398,5.043-15.398,5.043s-5.187-2.661-8.51-2.137s-6.955,4.202-6.955,4.202s-8.746-4.649-15.576,0
				C49.244,98.197,32.74,101.051,38.395,102.185z"/>
			<circle style="fill:#FFA96E;" cx="127.12" cy="93.648" r="28.648"/>
		</g>
		<g>
			<g>
				<path style="fill:#86BCD1;" d="M0,262.987c13.667,0.013,59.667,4.679,82,1.346c22.333-3.333,81-9.378,104.667-7.355
					c23.667,2.022,61.82,7.361,78.577,3.692S312,252.333,338.333,250c26.333-2.333,124.38-0.328,147.857,2.669
					c23.477,2.998,50.143-8.431,70.143-10.883s138-10.452,193.667-2.452V500H0V262.987z"/>
				<g>
					<g>
						<g>
							<path style="fill:#B9E0FF;" d="M24.98,280.687c4.704,3.751,9.91,6.126,15.943,6.562c5.773,0.417,11.579-1.101,17.153-2.383
								c6.875-1.581,13.404-2.995,20.373-1.129c5.647,1.512,10.93,4.308,16.884,4.43c2.59,0.053,5.4-1.086,7.779-1.978
								c3.104-1.165,6.108-2.569,9.237-3.672c7.137-2.514,14.994-2.016,22.452-2.016c6.959,0,13.874,0.023,20.71-1.413
								c6.55-1.376,13.075-3.641,19.83-3.649c9.683-0.012,18.37,5.89,27.866,7.171c9.893,1.335,19.931-2.255,29.592-3.793
								c0.635-0.101,0.365-1.065-0.266-0.964c-7.425,1.182-14.684,3.255-22.2,3.849c-7.494,0.592-14.155-1.62-21.108-4.095
								c-5.965-2.124-11.792-3.661-18.155-2.884c-6.394,0.781-12.558,2.877-18.892,3.997c-7.501,1.326-15.399,0.742-22.983,0.797
								c-7.057,0.051-13.417,0.522-20.027,3.128c-2.803,1.105-5.543,2.353-8.397,3.324c-3.447,1.173-6.611,1.391-10.171,0.601
								c-5.858-1.299-11.186-4.156-17.216-4.815c-7.53-0.822-15.478,2.318-22.793,3.714c-9.163,1.748-17.485,0.43-24.906-5.487
								C25.188,279.582,24.476,280.285,24.98,280.687L24.98,280.687z"/>
						</g>
					</g>
					<g>
						<g>
							<path style="fill:#B9E0FF;" d="M104.133,298.815c13.7-5.034,27.395-1.558,41.457-0.989c3.409,0.138,6.817-0.006,10.203-0.413
								c3.571-0.43,7.052-1.374,10.628-1.788c5.337-0.618,10.165,0.854,15.184,2.484c6.169,2.004,11.704,3.042,18.096,1.438
								c6.365-1.597,12.219-5.043,18.816-5.742c6.527-0.691,12.713,2.05,19.095,2.814c2.887,0.346,5.918,0.537,8.731-0.325
								c3.304-1.013,5.471-3.172,9.145-2.589c5.154,0.819,9.555,4.003,14.81,4.596c6.453,0.728,12.851-0.11,19.259-0.877
								c6.164-0.738,12.142-0.678,18.33-0.37c5.929,0.295,11.893,0.346,17.581-1.572c0.608-0.205,0.347-1.171-0.266-0.964
								c-7.353,2.479-15.122,1.587-22.724,1.277c-7.919-0.323-15.64,1.216-23.514,1.719c-3.909,0.249-7.972,0.171-11.783-0.797
								c-3.406-0.866-6.537-2.612-9.905-3.617c-2.073-0.618-4.295-0.906-6.32-0.01c-1.237,0.547-2.429,1.188-3.656,1.758
								c-2.075,0.964-4.231,1.062-6.482,1.034c-6.489-0.082-12.626-2.764-19.095-3.141c-6.39-0.372-12.385,2.472-18.259,4.578
								c-6.881,2.467-13.024,2.598-19.999,0.345c-4.782-1.544-9.504-3.288-14.594-3.208c-5.291,0.082-10.427,1.767-15.683,2.23
								c-5.516,0.485-11.074,0.018-16.564-0.548c-11.143-1.149-22.002-2.238-32.756,1.715
								C103.267,298.072,103.526,299.038,104.133,298.815L104.133,298.815z"/>
						</g>
					</g>
					<g>
						<g>
							<path style="fill:#B9E0FF;" d="M345.333,276.167c2.245-0.11,4.13-1,6.227-1.705c2.765-0.93,5.499,0.198,7.614,1.939
								c3.026,2.492,6.009,2.745,9.836,2.531c4.573-0.256,9.029-0.861,13.619-0.658c4.244,0.188,7.363-0.692,9.802-4.354
								c-0.288,0-0.576,0-0.863,0c2.459,3.308,4.712,5.766,9.016,5.257c1.515-0.179,3.745,0.093,5.105-0.572
								c2.251-1.099,3.824-3.495,6.621-2.043c1.986,1.031,3.722,2.527,5.647,3.667c2.439,1.444,5.59,1.821,8.365,2.042
								c7.219,0.575,14.338-2.19,20.596-5.506c0.57-0.302,0.065-1.165-0.505-0.863c-6.254,3.314-12.923,5.7-20.091,5.369
								c-3.012-0.139-6.189-0.844-8.761-2.454c-1.722-1.078-3.312-2.373-5.119-3.311c-1.074-0.557-2.556-0.584-3.653-0.089
								c-1.981,0.893-2.983,2.351-5.301,2.451c-1.627,0.071-3.227,0.458-4.859,0.433c-2.758-0.043-4.738-2.921-6.199-4.886
								c-0.228-0.306-0.641-0.334-0.863,0c-3.078,4.62-7.384,3.801-12.235,3.752c-4.288-0.043-8.551,0.809-12.843,0.853
								c-1.858,0.019-3.636-0.263-5.232-1.259c-1.371-0.856-2.429-2.041-3.887-2.782c-4.3-2.186-7.807,0.982-12.039,1.188
								C344.691,275.198,344.688,276.198,345.333,276.167L345.333,276.167z"/>
						</g>
					</g>
					<g>
						<g>
							<path style="fill:#B9E0FF;" d="M374.851,291.133c1.509,7.525,9.361,4.391,14.552,3.256c3.457-0.756,7.195,0.125,10.612,0.723
								c3.791,0.664,7.566,1.433,11.392,1.87c2.247,0.257,5.038,0.587,7.108-0.566c0.465-0.259,0.14,0.076,0.769,0.712
								c0.494,0.499,1.091,0.902,1.678,1.282c1.388,0.898,3.036,1.396,4.628,1.776c7.747,1.851,15.911,0.034,23.744-0.019
								c0.645-0.004,0.645-1.004,0-1c-5.212,0.035-10.397,0.72-15.612,0.756c-5.015,0.034-11.361-0.301-14.701-4.609
								c-0.174-0.225-0.523-0.163-0.707,0c-2.26,1.998-7.59,0.623-10.17,0.221c-4.145-0.645-8.246-1.546-12.405-2.106
								c-3.255-0.439-5.967-0.205-9.137,0.61c-4.226,1.086-9.64,2.545-10.786-3.172
								C375.689,290.235,374.725,290.503,374.851,291.133L374.851,291.133z"/>
						</g>
					</g>
					<g>
						<g>
							<path style="fill:#B9E0FF;" d="M563.081,252.765c2.872,1.882,5.822,2.535,9.057,1.192c3.308-1.373,5.83-4.113,9.22-5.353
								c4.508-1.648,8.169,2.868,12.609,2.967c4.198,0.094,7.666-3.089,11.838-3.385c2.375-0.168,4.274,2.374,6.186,3.454
								c1.541,0.869,3.338,0.499,4.898-0.093c2.636-0.999,4.213-2.403,7.239-1.787c2.369,0.482,4.488,1.775,6.87,2.26
								c4.284,0.872,9.006-2.129,13.15-2.921c2.998-0.573,5.502,0.092,8.352,0.88c1.789,0.495,3.419,0.184,5.085-0.547
								c0.589-0.259,0.08-1.12-0.505-0.863c-2.712,1.191-4.788,0.22-7.423-0.456c-1.887-0.484-3.877-0.266-5.775,0.021
								c-5.08,0.77-9.49,4.064-14.738,2.359c-3.635-1.181-6.578-2.874-10.292-1.045c-2.589,1.275-4.742,2.469-7.457,0.649
								c-1.279-0.857-3.037-2.969-4.729-2.93c-3.826,0.086-6.479,1.853-10.014,2.932c-5.147,1.57-8.453-2.655-13.319-2.932
								c-2.99-0.17-6.121,2.47-8.41,4.031c-3.809,2.598-7.261,3.376-11.337,0.704C563.045,251.547,562.544,252.413,563.081,252.765
								L563.081,252.765z"/>
						</g>
					</g>
					<g>
						<g>
							<path style="fill:#B9E0FF;" d="M633.867,259.482c3.137,0.953,6.645,0.836,9.885,0.851c3.895,0.018,7.852,0.032,11.74-0.22
								c5.004-0.324,9.951-1.217,14.951-1.588c5.962-0.443,11.786,0.286,17.424,2.29c0.609,0.217,0.869-0.75,0.266-0.964
								c-4.985-1.772-10.056-2.548-15.34-2.441c-5.249,0.106-10.451,1.078-15.669,1.572c-3.767,0.356-7.604,0.301-11.386,0.343
								c-3.763,0.042-7.963,0.3-11.606-0.807C633.514,258.33,633.252,259.295,633.867,259.482L633.867,259.482z"/>
						</g>
					</g>
				</g>
			</g>
			<g>
				<g>
					<path style="fill:#FFDDC7;" d="M0,341.425c24.5,1.075,82.418,7.976,127.876,8.609s99.82-29.946,132.222-32.49
						C292.5,315,360.825,307.643,390,315c29.175,7.357,85.098,2.65,111.5-3.182c26.402-5.832,99.643-28.988,139.572-27.153
						C681,286.5,750,306.164,750,306.164V500H0V341.425z"/>
					<g>
						<defs>
							<path id="SVGID_1_" d="M0,341.425c24.5,1.075,82.418,7.976,127.876,8.609s99.82-29.946,132.222-32.49
								C292.5,315,360.825,307.643,390,315c29.175,7.357,85.098,2.65,111.5-3.182c26.402-5.832,99.643-28.988,139.572-27.153
								C681,286.5,750,306.164,750,306.164V500H0V341.425z"/>
						</defs>
						<clipPath id="SVGID_00000007388170531743530620000011307065495746898822_">
							<use xlink:href="#SVGID_1_"  style="overflow:visible;"/>
						</clipPath>
						<g style="clip-path:url(#SVGID_00000007388170531743530620000011307065495746898822_);">
							<path style="fill:#FFE9DB;" d="M-18.667,414.152C4,404.333,34,396.47,56,398.735c22,2.265,50.59,18.57,62.628,15.417
								s9.289-15.8,24.997-15.809s17.375,9.324,39.208,11.99c21.833,2.667,41.167,9.088,32.5,14.877
								c-8.667,5.789-24.158,10.462-22.413,14.126c1.746,3.664,42.731,8.997,43.238,15.664S222.667,467,197,469.667
								c-25.667,2.667-69.441-8.667-90.554-8.667c-21.113,0-3.779,16-29.779,14.667C50.667,474.333-8,473.541-14,457.604
								C-20,441.667-18.667,417-18.667,417"/>
							<path style="fill:#FFE9DB;" d="M319.25,368.445c27.739,0.777,89.583,5.805,80.917,6.68c-8.667,0.875-32.167,0.625-46.667,0
								s-13,3.247-1,5.061c12,1.814,50,13.73,32.5,17.522c-17.5,3.792-79.5,6.792-94.5,4.792s-10.289-6.858,0-8.163
								s-10.106-1.721-20.738-5.44c-10.631-3.72-4.624-9.144,12.076-8.711c16.699,0.433,34.705-6.411,25.934-7.049
								C299,372.5,302.95,367.988,319.25,368.445z"/>
							<path style="fill:#FFE9DB;" d="M580.326,414.181c-18.331,1.091-48.607,5.63-50.085,13.819
								c-1.478,8.189,44.434,7.089,35.097,9.044c-9.337,1.956-21.306,8.669-10.072,12.312C566.5,453,610.383,464.5,626.691,463
								s31.809-9.851,51.809-10.676c20-0.824,49.5-8.236,43-15.28c-6.5-7.044-23.5-5.123-32-11.834s-5-9.616,9.5-11.163
								c14.5-1.547,26-3.77,20.5-10.908s-11.666-13.396,2.917-14.017C737,388.5,748,382.372,754.5,380.186
								c6.5-2.186,19-14.951,2.5-13.319c-16.5,1.632-32.5,9.311-58.5,3.222c-26-6.089-29.979-4.455-51.323-3.222
								c-21.344,1.233-46.677,6.505-55.677,13.319c-9,6.814,45.38,14.48,29.547,13.295c-15.833-1.186-17.306,1.634-44.177,0.745
								c-26.87-0.888-82.379,6.051-69.375,8.913c13.004,2.861,55.493,0.139,68.999,0S601.087,412.945,580.326,414.181z"/>
						</g>
					</g>
				</g>
				<g>
					<circle style="fill:#CEA893;" cx="305.48" cy="448.945" r="0.945"/>
					<path style="fill:#CEA893;" d="M227.333,437.044c0,0.522-0.423,0.945-0.945,0.945c-0.522,0-0.945-0.423-0.945-0.945
						c0-0.522,0.423-0.945,0.945-0.945C226.91,436.099,227.333,436.522,227.333,437.044z"/>
					<circle style="fill:#CEA893;" cx="143.5" cy="436.099" r="0.945"/>
					<path style="fill:#CEA893;" d="M177.279,485.055c0,0.522-0.423,0.945-0.945,0.945c-0.522,0-0.945-0.423-0.945-0.945
						s0.423-0.945,0.945-0.945C176.855,484.109,177.279,484.533,177.279,485.055z"/>
					<path style="fill:#CEA893;" d="M219.333,398.343c0,0.522-0.423,0.945-0.945,0.945c-0.522,0-0.945-0.423-0.945-0.945
						s0.423-0.945,0.945-0.945C218.91,397.398,219.333,397.821,219.333,398.343z"/>
					<path style="fill:#CEA893;" d="M26.279,485.055c0,0.522-0.423,0.945-0.945,0.945c-0.522,0-0.945-0.423-0.945-0.945
						s0.423-0.945,0.945-0.945C25.855,484.109,26.279,484.533,26.279,485.055z"/>
					<circle style="fill:#CEA893;" cx="126" cy="475.746" r="0.945"/>
					<circle style="fill:#CEA893;" cx="182.555" cy="385.776" r="0.945"/>
					<circle style="fill:#CEA893;" cx="181.609" cy="397.398" r="0.945"/>
					<circle style="fill:#CEA893;" cx="40" cy="376.391" r="0.945"/>
					<circle style="fill:#CEA893;" cx="116.945" cy="398.343" r="0.945"/>
					<circle style="fill:#CEA893;" cx="125.055" cy="448" r="0.945"/>
					<circle style="fill:#CEA893;" cx="380.67" cy="419.055" r="0.945"/>
					<circle style="fill:#CEA893;" cx="284.445" cy="407.937" r="0.945"/>
					<path style="fill:#CEA893;" d="M79.445,392.281c0,0.522-0.423,0.945-0.945,0.945s-0.945-0.423-0.945-0.945
						c0-0.522,0.423-0.945,0.945-0.945S79.445,391.759,79.445,392.281z"/>
					<circle style="fill:#CEA893;" cx="136.5" cy="379.945" r="0.945"/>
					<circle style="fill:#CEA893;" cx="16.555" cy="379" r="0.945"/>
					<circle style="fill:#CEA893;" cx="220.279" cy="378.055" r="0.945"/>
					<circle style="fill:#CEA893;" cx="283.5" cy="426.391" r="0.945"/>
					<circle style="fill:#CEA893;" cx="249.5" cy="349.661" r="0.945"/>
					<circle style="fill:#CEA893;" cx="100.555" cy="386.721" r="0.945"/>
					<circle style="fill:#CEA893;" cx="27.224" cy="419.055" r="0.945"/>
					<path style="fill:#CEA893;" d="M432.109,437.044c0,0.522-0.423,0.945-0.945,0.945c-0.522,0-0.945-0.423-0.945-0.945
						c0-0.522,0.423-0.945,0.945-0.945C431.686,436.099,432.109,436.522,432.109,437.044z"/>
					<circle style="fill:#CEA893;" cx="471.919" cy="472.279" r="0.945"/>
					<path style="fill:#CEA893;" d="M461.763,406.992c0,0.522-0.423,0.945-0.945,0.945c-0.522,0-0.945-0.423-0.945-0.945
						c0-0.522,0.423-0.945,0.945-0.945C461.34,406.046,461.763,406.47,461.763,406.992z"/>
					<circle style="fill:#CEA893;" cx="433.055" cy="379" r="0.945"/>
					<circle style="fill:#CEA893;" cx="390.445" cy="373.555" r="0.945"/>
					<circle style="fill:#CEA893;" cx="514.122" cy="424.5" r="0.945"/>
					<circle style="fill:#CEA893;" cx="546.055" cy="374.5" r="0.945"/>
					<path style="fill:#CEA893;" d="M193.866,368.552c0,0.522-0.423,0.945-0.945,0.945c-0.522,0-0.945-0.423-0.945-0.945
						c0-0.522,0.423-0.945,0.945-0.945C193.443,367.607,193.866,368.03,193.866,368.552z"/>
					<circle style="fill:#CEA893;" cx="170.945" cy="375.445" r="0.945"/>
					<circle style="fill:#CEA893;" cx="157.5" cy="357.555" r="0.945"/>
					<circle style="fill:#CEA893;" cx="362.667" cy="471.333" r="0.945"/>
					<path style="fill:#CEA893;" d="M269.193,369.497c0,0.522-0.423,0.945-0.945,0.945s-0.945-0.423-0.945-0.945
						c0-0.522,0.423-0.945,0.945-0.945S269.193,368.975,269.193,369.497z"/>
					<path style="fill:#CEA893;" d="M242.445,392.281c0,0.522-0.423,0.945-0.945,0.945c-0.522,0-0.945-0.423-0.945-0.945
						c0-0.522,0.423-0.945,0.945-0.945C242.022,391.335,242.445,391.759,242.445,392.281z"/>
					<path style="fill:#CEA893;" d="M384.945,343c0,0.522-0.423,0.945-0.945,0.945s-0.945-0.423-0.945-0.945
						s0.423-0.945,0.945-0.945S384.945,342.478,384.945,343z"/>
					<circle style="fill:#CEA893;" cx="476.555" cy="349.661" r="0.945"/>
					<path style="fill:#CEA893;" d="M332.609,348.716c0,0.522-0.423,0.945-0.945,0.945s-0.945-0.423-0.945-0.945
						c0-0.522,0.423-0.945,0.945-0.945S332.609,348.193,332.609,348.716z"/>
					<circle style="fill:#CEA893;" cx="283.5" cy="342.055" r="0.945"/>
					<circle style="fill:#CEA893;" cx="515.068" cy="471.333" r="0.945"/>
					<circle style="fill:#CEA893;" cx="490.442" cy="347.77" r="0.945"/>
					<circle style="fill:#CEA893;" cx="568.445" cy="330" r="0.945"/>
					<path style="fill:#CEA893;" d="M647.925,428.139c0,0.522-0.423,0.945-0.945,0.945c-0.522,0-0.945-0.423-0.945-0.945
						c0-0.522,0.423-0.945,0.945-0.945C647.502,427.194,647.925,427.617,647.925,428.139z"/>
					<path style="fill:#CEA893;" d="M568.833,416.238c0,0.522-0.423,0.945-0.945,0.945c-0.522,0-0.945-0.423-0.945-0.945
						c0-0.522,0.423-0.945,0.945-0.945C568.41,415.293,568.833,415.716,568.833,416.238z"/>
					<path style="fill:#CEA893;" d="M485.945,415.293c0,0.522-0.423,0.945-0.945,0.945c-0.522,0-0.945-0.423-0.945-0.945
						c0-0.522,0.423-0.945,0.945-0.945C485.522,414.347,485.945,414.771,485.945,415.293z"/>
					<path style="fill:#CEA893;" d="M518.779,464.248c0,0.522-0.423,0.945-0.945,0.945s-0.945-0.423-0.945-0.945
						c0-0.522,0.423-0.945,0.945-0.945S518.779,463.726,518.779,464.248z"/>
					<path style="fill:#CEA893;" d="M560.833,377.537c0,0.522-0.423,0.945-0.945,0.945c-0.522,0-0.945-0.423-0.945-0.945
						s0.423-0.945,0.945-0.945C560.41,376.591,560.833,377.015,560.833,377.537z"/>
					<path style="fill:#CEA893;" d="M367.779,464.248c0,0.522-0.423,0.945-0.945,0.945c-0.522,0-0.945-0.423-0.945-0.945
						c0-0.522,0.423-0.945,0.945-0.945C367.355,463.303,367.779,463.726,367.779,464.248z"/>
					<path style="fill:#CEA893;" d="M468.445,454.939c0,0.522-0.423,0.945-0.945,0.945c-0.522,0-0.945-0.423-0.945-0.945
						s0.423-0.945,0.945-0.945C468.022,453.994,468.445,454.417,468.445,454.939z"/>
					<circle style="fill:#CEA893;" cx="524.055" cy="364.97" r="0.945"/>
					<circle style="fill:#CEA893;" cx="523.109" cy="376.591" r="0.945"/>
					<path style="fill:#CEA893;" d="M382.445,355.585c0,0.522-0.423,0.945-0.945,0.945s-0.945-0.423-0.945-0.945
						c0-0.522,0.423-0.945,0.945-0.945S382.445,355.062,382.445,355.585z"/>
					<circle style="fill:#CEA893;" cx="458.445" cy="377.537" r="0.945"/>
					<circle style="fill:#CEA893;" cx="466.555" cy="427.194" r="0.945"/>
					<circle style="fill:#CEA893;" cx="722.17" cy="398.248" r="0.945"/>
					<path style="fill:#CEA893;" d="M626.891,387.131c0,0.522-0.423,0.945-0.945,0.945S625,387.653,625,387.131
						c0-0.522,0.423-0.945,0.945-0.945S626.891,386.609,626.891,387.131z"/>
					<path style="fill:#CEA893;" d="M420.945,371.474c0,0.522-0.423,0.945-0.945,0.945c-0.522,0-0.945-0.423-0.945-0.945
						s0.423-0.945,0.945-0.945C420.522,370.529,420.945,370.952,420.945,371.474z"/>
					<path style="fill:#CEA893;" d="M478.945,359.139c0,0.522-0.423,0.945-0.945,0.945c-0.522,0-0.945-0.423-0.945-0.945
						c0-0.522,0.423-0.945,0.945-0.945C478.522,358.194,478.945,358.617,478.945,359.139z"/>
					<circle style="fill:#CEA893;" cx="358.055" cy="358.194" r="0.945"/>
					<circle style="fill:#CEA893;" cx="561.779" cy="357.248" r="0.945"/>
					<path style="fill:#CEA893;" d="M625.945,405.585c0,0.522-0.423,0.945-0.945,0.945s-0.945-0.423-0.945-0.945
						c0-0.522,0.423-0.945,0.945-0.945S625.945,405.062,625.945,405.585z"/>
					<path style="fill:#CEA893;" d="M591.945,328.855c0,0.522-0.423,0.945-0.945,0.945s-0.945-0.423-0.945-0.945
						s0.423-0.945,0.945-0.945S591.945,328.333,591.945,328.855z"/>
					<path style="fill:#CEA893;" d="M443,365.915c0,0.522-0.423,0.945-0.945,0.945s-0.945-0.423-0.945-0.945
						c0-0.522,0.423-0.945,0.945-0.945S443,365.393,443,365.915z"/>
					<circle style="fill:#CEA893;" cx="368.724" cy="398.248" r="0.945"/>
					<circle style="fill:#CEA893;" cx="557.305" cy="453.089" r="0.945"/>
					<circle style="fill:#CEA893;" cx="598.06" cy="488.323" r="0.945"/>
					<circle style="fill:#CEA893;" cx="586.958" cy="423.036" r="0.945"/>
					<path style="fill:#CEA893;" d="M560.141,395.044c0,0.522-0.423,0.945-0.945,0.945s-0.945-0.423-0.945-0.945
						c0-0.522,0.423-0.945,0.945-0.945S560.141,394.522,560.141,395.044z"/>
					<path style="fill:#CEA893;" d="M732.891,352.748c0,0.522-0.423,0.945-0.945,0.945S731,353.271,731,352.748
						c0-0.522,0.423-0.945,0.945-0.945S732.891,352.226,732.891,352.748z"/>
					<path style="fill:#CEA893;" d="M641.209,440.544c0,0.522-0.423,0.945-0.945,0.945c-0.522,0-0.945-0.423-0.945-0.945
						c0-0.522,0.423-0.945,0.945-0.945C640.785,439.599,641.209,440.022,641.209,440.544z"/>
					<path style="fill:#CEA893;" d="M673.141,390.544c0,0.522-0.423,0.945-0.945,0.945s-0.945-0.423-0.945-0.945
						c0-0.522,0.423-0.945,0.945-0.945S673.141,390.022,673.141,390.544z"/>
					<circle style="fill:#CEA893;" cx="534.421" cy="347.746" r="0.945"/>
					<circle style="fill:#CEA893;" cx="512.445" cy="354.639" r="0.945"/>
					<path style="fill:#CEA893;" d="M499.945,336.748c0,0.522-0.423,0.945-0.945,0.945c-0.522,0-0.945-0.423-0.945-0.945
						c0-0.522,0.423-0.945,0.945-0.945C499.522,335.803,499.945,336.226,499.945,336.748z"/>
					<circle style="fill:#CEA893;" cx="704.167" cy="450.527" r="0.945"/>
					<circle style="fill:#CEA893;" cx="609.748" cy="348.691" r="0.945"/>
					<path style="fill:#CEA893;" d="M583.945,371.474c0,0.522-0.423,0.945-0.945,0.945s-0.945-0.423-0.945-0.945
						s0.423-0.945,0.945-0.945S583.945,370.952,583.945,371.474z"/>
					<path style="fill:#CEA893;" d="M726.445,322.194c0,0.522-0.423,0.945-0.945,0.945s-0.945-0.423-0.945-0.945
						c0-0.522,0.423-0.945,0.945-0.945S726.445,321.672,726.445,322.194z"/>
					<path style="fill:#CEA893;" d="M603.641,365.705c0,0.522-0.423,0.945-0.945,0.945s-0.945-0.423-0.945-0.945
						c0-0.522,0.423-0.945,0.945-0.945S603.641,365.183,603.641,365.705z"/>
					<path style="fill:#CEA893;" d="M674.109,327.909c0,0.522-0.423,0.945-0.945,0.945s-0.945-0.423-0.945-0.945
						s0.423-0.945,0.945-0.945S674.109,327.387,674.109,327.909z"/>
					<path style="fill:#CEA893;" d="M625.945,321.248c0,0.522-0.423,0.945-0.945,0.945s-0.945-0.423-0.945-0.945
						c0-0.522,0.423-0.945,0.945-0.945S625.945,320.726,625.945,321.248z"/>
					<path style="fill:#CEA893;" d="M642.154,487.378c0,0.522-0.423,0.945-0.945,0.945s-0.945-0.423-0.945-0.945
						s0.423-0.945,0.945-0.945S642.154,486.855,642.154,487.378z"/>
					<path style="fill:#CEA893;" d="M617.528,363.814c0,0.522-0.423,0.945-0.945,0.945c-0.522,0-0.945-0.423-0.945-0.945
						s0.423-0.945,0.945-0.945C617.104,362.869,617.528,363.292,617.528,363.814z"/>
					<path style="fill:#CEA893;" d="M695.531,346.044c0,0.522-0.423,0.945-0.945,0.945c-0.522,0-0.945-0.423-0.945-0.945
						c0-0.522,0.423-0.945,0.945-0.945C695.108,345.099,695.531,345.522,695.531,346.044z"/>
				</g>
			</g>
			<path style="fill:#FFFFFF;" d="M0,343c0,0,55.602,24.997,72,24.931c16.398-0.066,1.041-14.581,10-12.028
				c8.959,2.553,32.851,6.813,40.192,7.23c7.342,0.417,19.204-6.265,30.255-11.949c11.051-5.684,29.429-13.278,40.473-8.185
				c11.045,5.093,23.745,0.5,30.912,0c7.167-0.5-2.078-12.929,6.545-13.464c8.623-0.536,25.211-5.35,37.037-5.702
				c11.825-0.352,45.086-9.5,55.086-3.167c10,6.333,23.5,2.136,29.5,1.735c6-0.401,0.5-11.287,7-8.844
				c6.5,2.443,21.5,8.815,37,10.879c15.5,2.064,35.47,3.304,45.667-0.603c10.196-3.907,40.333-5.703,49.333-5.018
				c9,0.685,12.434-2.55,20.203-5.258s46.199-17.977,41.113-10.891c-5.086,7.087,3.35,7.977,11.017,4.405
				c7.667-3.572,2.408-7.718,13.537-10.145c11.13-2.427,18.066-1.018,32.403-1.216c14.337-0.198,23.334-9.661,40.03-3.186
				C666,299,677.93,290.564,689.34,297.588c11.41,7.023,17.326,9.74,26.993,8.576c9.667-1.164,24.462,3.034,26.814,4.685
				c2.352,1.651,6.852,0,6.852,0v-10.427c0,0-21.5-5.396-37-10.159c-15.5-4.763-30.057-8.049-40.028-8.906
				c-9.972-0.857,9.957,7.617,0,6.578c-9.957-1.038-12.363-7.179-23.667-8.307c-11.304-1.128-10.119-0.58-17.629,0
				c-7.509,0.58-37.401,8.634-49.788,7.253C569.5,285.5,575,283.333,560,287.667c-15,4.333-23.148,11.434-34.373,13.484
				c-11.225,2.05-23.895,7.905-38.011,6.127c-14.116-1.778-13.458-2.971-26.799-1.845c-13.34,1.127-4.317,4.679-11.317,7.123
				c-7,2.444-13.082,3.107-19.636-2.464c-6.554-5.571-13.435-2.449-24.649-3.02c-11.214-0.572,0.361,2.04-5.176,5.485
				c-5.537,3.445-5.59-3.001-20.314-5.278C365,305,366,301.722,352,304.611s-12.053,7.573-19.277,5.481
				c-7.223-2.092-11.346-3.158-18.473-3.928c-7.128-0.77-46.337-4.207-70.21,6.148c-23.873,10.355,0.319,4.815-7.867,6.503
				c-8.186,1.688-30.065,11.458-39.119,9.571C188,326.5,196.542,335.826,186,333.84c-10.542-1.985-9-2.16-20.5,0
				c-11.5,2.16,0.54,7.01-8.23,7.585c-8.77,0.575-22.939,10.038-40.605,3.119s-10.165-4.855-25.165-5.7
				c-15-0.844,6.103,5.605-1,7.38c-7.103,1.775-16-1.057-30.5-6.391c-14.5-5.333-18-7.731-26.5-6.532c-8.5,1.199,16,8.693,7.5,7.196
				c-8.5-1.497-41-4.828-41-4.828V343z"/>
		</g>
		<g>
			<g>
				<path style="fill:#8B6767;" d="M625.153,104.798c0,0,43.778,27.131,71.028,75.653s37,167.578,37,167.578s-7.25,3.142-17.5-1.707
					c-10.25-4.849-20-6.238-20-6.238s1.547-66.197-15.352-121.654c-16.898-55.457-62.963-106.936-62.963-106.936L625.153,104.798z"
					/>
				<path style="fill:#BC8EB9;" d="M668.319,142.16c-3.74,1.849-7.507,3.753-9.888,6.813c1.5,0,4.5,1.5,6,1.5c-1.5,1-3.5,4-4.5,4.5
					c1.557,0.389,10.387-2.252,15.874-4.149C673.318,147.794,670.813,144.905,668.319,142.16z"/>
				<g>
					<g>
						<g>
							<path style="fill:#BC8EB9;" d="M698.352,184.549c-0.654-0.21-1.329-0.407-2.049-0.572c-8.969-2.055-18.421,4.11-18.421,4.11
								s-6.999-5.239-13.094-7.036c2.604,5.038,5.091,10.223,7.395,15.508c2.548-0.176,5.814-0.216,8.473-0.047
								c5.862,0.372,15.176,2.756,23.902,2.29C702.607,193.669,700.539,188.887,698.352,184.549z"/>
						</g>
						<g>
							<path style="fill:#BC8EB9;" d="M673.297,199.157c0.346,0.822,0.688,1.646,1.025,2.472
								C675.755,201.164,675.131,200.082,673.297,199.157z"/>
						</g>
					</g>
				</g>
				<path style="fill:#BC8EB9;" d="M716.085,237.604c-7.426,1.53-15.308,1.765-22.154,5.368c3.5,0.5,7-0.5,9,2c-0.5,1-1.5,1-2,1.5
					c1,0.5,1.5,1,2.5,1.5c-3.5,1.5-7.5,1-10,3c3.5,1,8,0,12,0.5c3.5,0.5,7.5,3.5,11,3c1.096-0.11,2.172-0.377,3.208-0.761
					C718.531,248.317,717.349,242.924,716.085,237.604z"/>
				<path style="fill:#BC8EB9;" d="M727.38,298.602c-0.037-0.26-0.077-0.525-0.115-0.786c-8.476-2.075-20.499,2.568-26.834-0.844
					c2-2,3-3.5,5-6c-3.068-2.232-7.537-1.351-11.931-1.004c0.665,7.118,1.135,13.788,1.464,19.796
					c1.77-0.185,3.744-1.17,5.967-3.291C698.044,299.736,722.007,303.646,727.38,298.602z"/>
				<path style="fill:#BC8EB9;" d="M713.931,316.972c3.553,0,10.63,1.254,16.049,1.088c-0.486-3.934-1.03-8.149-1.637-12.589
					c-6.801,0.647-14.751,1.266-20.412,4.501c2.5,1.5,6.5,0.5,9.5,1.5c-1,1.5-1.5,2-3,3h2
					C715.931,314.972,714.431,315.972,713.931,316.972z"/>
			</g>
			<g>
				
					<ellipse transform="matrix(0.2287 -0.9735 0.9735 0.2287 348.4611 708.5657)" style="fill:#EA665C;" cx="621.406" cy="134.369" rx="10.366" ry="10.366"/>
				<circle style="fill:#FF9A92;" cx="619.763" cy="132.743" r="6.826"/>
			</g>
			<g>
				
					<ellipse transform="matrix(0.2287 -0.9735 0.9735 0.2287 388.1484 718.1987)" style="fill:#EA665C;" cx="647.329" cy="114.139" rx="10.366" ry="10.366"/>
				<circle style="fill:#FF9A92;" cx="645.686" cy="112.513" r="6.826"/>
			</g>
			<g>
				
					<ellipse transform="matrix(0.2466 -0.9691 0.9691 0.2466 358.6684 699.1409)" style="fill:#FF7767;" cx="628.996" cy="118.888" rx="13.366" ry="13.366"/>
				<circle style="fill:#FF9A92;" cx="626.878" cy="116.792" r="8.801"/>
			</g>
			<g>
				<g>
					<path style="fill:#BECC81;" d="M622.668,106.003c0,0-9.07,6.136-17.403,14.803c-8.333,8.667-23,24.667-19.667,24.667
						c3.333,0,10.957-3.333,12.312-2.667c1.355,0.667-10.281,16.333-12.796,21.667c-2.516,5.333,7.64,0.333,3.562,3.667
						c-4.078,3.333-8.744,18.458-9.744,23.563s5-1.896,3.333,2.771c-1.667,4.667-8.893,42-3.447,41.333
						c5.447-0.667,15.737-18.04,20.925-34.853s6.745-16.813,8.47-11.813c1.726,4.999,3.039-2.667,4.045-12.333
						c1.006-9.667,1.767,1.333,3.72-2.667s4.285-15,3.119-20.667c-1.166-5.667,1.641,5.333,3.571,2.333
						c1.93-3-1.263-19.667,0-22.333c1.263-2.667,6.263,7.667,8.597,4.667C633.598,135.139,622.668,106.003,622.668,106.003z"/>
					<path style="fill:none;stroke:#8AAA52;stroke-linecap:round;stroke-linejoin:round;stroke-miterlimit:10;" d="M584.598,213.898
						c0,0,3.14-55.03,38.07-107.894"/>
				</g>
				<g>
					<path style="fill:#BECC81;" d="M622.668,107.004c0,0-21.219-6.605-35.44-4.803c-14.221,1.803-27.221,8.136-23.221,10.136
						s-10.333,3.667-14.333,6.333c-4,2.667,0.333,4.333,5.333,4.333s-0.837,5.667-8.085,7.667s-17.248,14-14.248,13.667
						s7.667,0.333,3,2.333c-4.667,2-13.833,9-21.583,17.667c-7.75,8.667-11.092,15.957-4.254,12.312
						c6.838-3.645,28.504-17.022,33.504-20.5c5-3.478,0,1.855-2.333,7.522c-2.333,5.667-4.667,13.333,2,7
						c6.667-6.333,13-11,17.333-19.667c4.333-8.667,7.333-11.508,8.333-11.254c1,0.254-3,9.254,2.333,5.587
						c5.333-3.667,12.318-13,14.659-16.667c2.341-3.667-1.218,8.667,1.562,7.667c2.779-1,7.346-13.77,11.896-15.885
						c4.55-2.115-0.45,5.552,3.55,2.885C606.674,120.671,622.668,107.004,622.668,107.004z"/>
					<path style="fill:none;stroke:#8AAA52;stroke-linecap:round;stroke-linejoin:round;stroke-miterlimit:10;" d="M530.341,156.148
						c0,0,43.321-50.811,92.327-49.145"/>
				</g>
				<g>
					<path style="fill:#BECC81;" d="M622.668,106.964c0,0-6.75-10.991-17-20.241s-15.75-10.25-14.5-6.75s0.25,4.25-5,2
						s-18.25-6.75-22.75-7.5s6.75,5.5,3,4.5s-21.75-5.875-28-4.563c-6.25,1.313,5.75,5.563,7.25,6.563s-18.25,1.5-25.25,5.5
						s1.809,7,11.405,8.5c9.595,1.5,22.845-1.25,25.845-0.75s-5.75,6.5-2.25,5.5s13.75-3,20.25-4s-0.75,3.75,3.25,2.75
						S608.918,104.955,622.668,106.964z"/>
					<path style="fill:none;stroke:#8AAA52;stroke-linecap:round;stroke-linejoin:round;stroke-miterlimit:10;" d="M536.168,87.752
						c0,0,48.5-12.797,86.5,19.212"/>
				</g>
				<g>
					<path style="fill:#BECC81;" d="M621.43,105.859c-0.25-0.75-3.75-17.071,0-30.035s4.32-1.465,7.41-1.965
						c3.09-0.5,6.09-10,14.09-15.25s1.25,3.75,4,3s4-1,11.75-7s16.25-6,20.75-6s-9.25,6.25-7,5.75s10.25-5.5,23.5-5.75
						s19.5,3,14.25,5.25s-18.25,3.5-22.25,6.25s-13.75,8-10.25,7.75s13.75-1.75,9.25,0s-10.25,4-16.25,6.25s-1.5,5.25-10,8
						s-21.5,8.56-17.25,7.28s14.25-1.22,11.25,0S621.43,105.859,621.43,105.859z"/>
					<path style="fill:none;stroke:#8AAA52;stroke-linecap:round;stroke-linejoin:round;stroke-miterlimit:10;" d="M692.265,52.93
						c0,0-57.313,9.319-71.083,51.868"/>
				</g>
				<g>
					<path style="fill:#BECC81;" d="M621.182,106.966c0,0,16.5-9.492,32.75-14.492s23.5-4.794,21.5-1.897
						c-2,2.897-0.75,3.897,4.5,3.397s28.941,4.335,32.971,7.917c4.029,3.583-9.513,2.356-5.617,3.969
						c3.896,1.613,25.896,12.613,29.396,20.113c3.5,7.5,4.75,12.75-2.5,9.5s-24.292-11.25-26.896-12.75
						c-2.604-1.5,5.146,6.25,1.146,5.25c-4-1-12.833-7.75-20.916-11.25s-12.084-3.25-9.334-1s1,4-4.5,2.5
						S641.182,108.957,621.182,106.966z"/>
					<path style="fill:none;stroke:#8AAA52;stroke-linecap:round;stroke-linejoin:round;stroke-miterlimit:10;" d="M720.932,120.974
						c0,0-42.777-30.656-99.75-14.008"/>
				</g>
			</g>
		</g>
	</g>
</g>
<g id="OBJECTS">
	<g>
		<g>
			<path style="fill:#5F99C1;" d="M218.038,321.136c-1.971-15.107-12.726-32.534-12.726-32.534s-4.801-6.984-12.533,0.068
				c-7.732,7.052-25.873,47.72-22.816,58.274c4.605,15.896,34.278,16.433,41.299,8.916
				C217.061,349.649,220.009,336.243,218.038,321.136z M205.375,302.698c-1.598,2.095-13.547,0.709-15.317-0.708
				c-1.77-1.417,2.251-10.29,2.251-10.29c4.802-4.115,11.58,0.535,11.58,0.535S206.974,300.603,205.375,302.698z"/>
			<path style="fill:#407DA0;" d="M205.311,288.602c0,0-0.586-0.85-1.676-1.658c2.472,6.64,6.798,19.261,6.614,25.823
				c-0.257,9.165-6.256,16.229-8.21,18.808c-1.954,2.579,2.844,5.304,2.028,7.602c-0.817,2.298,3.014,4.31-0.238,5.161
				c-3.252,0.851-11.757,7.966-20.45,4.728c-5.109-1.903-10.028-6.619-13.217-10.186c-0.607,3.389-0.739,6.202-0.199,8.065
				c4.605,15.896,34.278,16.433,41.299,8.916c5.801-6.211,8.748-19.617,6.777-34.724
				C216.066,306.029,205.311,288.602,205.311,288.602z"/>
			<g>
				<g>
					<path style="fill:#FBF2F3;" d="M191.519,321.376c-0.877-0.136-1.389,0.496-2.741,2.082c-1.352,1.586-2.404,2.804-2.404,2.804
						l3.193,2.568l5.791-6.822L191.519,321.376z"/>
					<path style="fill:#F2D6D9;" d="M199,327.379c-0.216-0.626-0.823-2.363-1.273-3.498c-0.745-1.877-1.25-1.735-6.208-2.505
						c0,0,1.398,0.341,2.22,2.61c0.668,1.844,1.419,3.882,1.677,4.582l-1.732,0.575l4.512,2.054l2.387-4.345L199,327.379z"/>
				</g>
				<g>
					<path style="fill:#FBF2F3;" d="M202.478,338.567c0.573-0.678,0.299-1.444-0.352-3.424c-0.652-1.979-1.144-3.512-1.144-3.512
						l-3.854,1.391l2.813,8.495L202.478,338.567z"/>
					<path style="fill:#F2D6D9;" d="M193.46,341.834c0.647,0.141,2.446,0.526,3.649,0.732c1.991,0.341,2.132-0.165,5.368-3.999
						c0,0-1.019,1.016-3.384,0.538c-1.922-0.389-4.054-0.807-4.786-0.951l0.41-1.778l-4.101,2.785l2.469,4.298L193.46,341.834z"/>
				</g>
				<g>
					<path style="fill:#FBF2F3;" d="M182.226,339.314c0.335,0.822,1.141,0.935,3.197,1.275c2.056,0.34,3.642,0.614,3.642,0.614
						l0.554-4.06l-8.831-1.444L182.226,339.314z"/>
					<path style="fill:#F2D6D9;" d="M183.511,329.81c-0.425,0.508-1.6,1.923-2.34,2.894c-1.224,1.606-0.842,1.966,1.055,6.61
						c0,0-0.428-1.374,1.092-3.248c1.235-1.523,2.595-3.218,3.061-3.8l1.386,1.187l-0.567-4.925l-4.953,0.196L183.511,329.81z"/>
				</g>
			</g>
			<g>
				<path style="fill:none;stroke:#2C627A;stroke-linecap:round;stroke-linejoin:round;stroke-miterlimit:10;" d="M180.361,327.701
					c0,0,14.742-1.285,25.62,5.224"/>
				<path style="fill:none;stroke:#2C627A;stroke-linecap:round;stroke-linejoin:round;stroke-miterlimit:10;" d="M188.247,329.932
					c1.003,0.385,12.263,2.24,18.676,7.875"/>
			</g>
		</g>
		<g>
			<path style="fill:#5F99C1;" d="M307.869,289.463c-3.507-4.047-10.893-0.835-12.863,3.523c0,0-11.66,24.808-13.821,39.067
				c-2.161,14.258,4.493,27.33,15.662,29.347c11.169,2.018,26.802-0.513,31.195-14.325
				C332.433,333.263,311.375,293.51,307.869,289.463z M311.982,305.197c-0.302,1.646-14.529,5.177-16.708,3.897
				c-2.178-1.28,0.431-9.318,0.431-9.318c0.917-3.578,11.104-7.739,13.26-5.719C311.12,296.076,312.283,303.551,311.982,305.197z"/>
			<g>
				<path style="fill:#407DA0;" d="M307.144,338.932c0.138-0.022,0.301-0.083,0.478-0.168
					C306.841,338.932,306.547,339.029,307.144,338.932z"/>
				<path style="fill:#407DA0;" d="M315.825,318.981c-0.072,11.655-5.79,18.621-8.202,19.783c1.856-0.398,6.481-1.195,8.574-0.746
					c2.974,0.638-0.312,6.743-0.369,7.991c-0.058,1.249-1.979,4.914-8.019,5.636c-6.04,0.722-19.611,2.013-22.91-2.452
					c-1.661-2.25-3.079-6.526-4.078-10.217c0.53,11.351,6.702,20.74,16.026,22.424c11.169,2.018,26.802-0.513,31.195-14.325
					c3.098-9.742-6.462-32.377-13.597-46.298C315.179,306.343,315.861,313.129,315.825,318.981z"/>
			</g>
			<g>
				<g>
					<path style="fill:#FBF2F3;" d="M303.036,325.928c-0.872,0.163-1.146,0.929-1.894,2.874c-0.748,1.945-1.337,3.443-1.337,3.443
						l3.865,1.362l3.198-8.358L303.036,325.928z"/>
					<path style="fill:#F2D6D9;" d="M312.086,329.105c-0.412-0.518-1.561-1.955-2.362-2.876c-1.326-1.523-1.755-1.221-6.687-0.301
						c0,0,1.432-0.142,2.96,1.725c1.242,1.517,2.628,3.191,3.104,3.765l-1.443,1.118l4.938,0.439l0.808-4.891L312.086,329.105z"/>
				</g>
				<g>
					<path style="fill:#FBF2F3;" d="M319.081,338.504c0.315-0.83-0.197-1.462-1.469-3.113c-1.272-1.651-2.246-2.933-2.246-2.933
						l-3.174,2.592l5.475,7.078L319.081,338.504z"/>
					<path style="fill:#F2D6D9;" d="M311.66,344.58c0.657-0.082,2.482-0.316,3.686-0.521c1.991-0.34,1.956-0.864,3.736-5.554
						c0,0-0.623,1.297-3.013,1.631c-1.942,0.272-4.092,0.584-4.83,0.692l-0.204-1.813l-2.944,3.989l3.757,3.235L311.66,344.58z"/>
				</g>
				<g>
					<path style="fill:#FBF2F3;" d="M300.227,345.934c0.589,0.663,1.387,0.503,3.439,0.141c2.052-0.362,3.64-0.63,3.64-0.63
						l-0.826-4.014l-8.81,1.57L300.227,345.934z"/>
					<path style="fill:#F2D6D9;" d="M298.283,336.541c-0.232,0.62-0.871,2.345-1.246,3.507c-0.622,1.921-0.141,2.134,3.19,5.885
						c0,0-0.86-1.153-0.048-3.426c0.659-1.846,1.379-3.897,1.625-4.601l1.702,0.66l-2.17-4.457l-4.607,1.829L298.283,336.541z"/>
				</g>
			</g>
			<g>
				<path style="fill:none;stroke:#2C627A;stroke-linecap:round;stroke-linejoin:round;stroke-miterlimit:10;" d="M292.931,338.276
					c0,0,9.542-6.578,18.957-9.932"/>
				<path style="fill:none;stroke:#2C627A;stroke-linecap:round;stroke-linejoin:round;stroke-miterlimit:10;" d="M301.8,336.185
					c0,0,7.57-2.079,14.747-0.324"/>
			</g>
		</g>
		<path style="fill:#544FB2;" d="M254.162,115.292c0,0-7.347-2-10.899,6.424c-3.552,8.424-12.834,48.288-12.834,48.288
			s18.41,13.114,48.349,3.611c0,0-0.665-18.084-0.824-33.087C277.795,125.525,254.162,115.292,254.162,115.292z"/>
		<g>
			<path style="fill:#FFBEB8;" d="M248.596,160.803c0,0-0.256,11.514-2.939,13.816c-2.684,2.302-17.964,8.652-19.19,11.567
				c-1.226,2.915-6.08,28.619-8.456,35.081c-2.376,6.462-7.503,11.209-9.821,21.813c-2.317,10.604-7.288,28.025-7.288,28.025
				s-10.146,19.598-8.593,20.595c1.553,0.997,2.387-0.068,2.866,0.22c0.48,0.288,2.1,2.042,2.723,2.089
				c0.623,0.048,2.415-2.071,2.914-2.033c0.499,0.038,0.806,2.569,1.698,2.387c0.892-0.182,2.801-5.761,2.801-5.761
				s1.495,2.847,3.259,2.732c1.764-0.116-1.124-4.557,0.067-8.673c0.765-2.644,0.625-6.054-2.645-7.558
				c0,0,10.676-21.594,13.531-27.769c2.855-6.175,5.584-18.878,6.896-22.915c1.312-4.036,3.88-8.102,3.88-8.102
				s6.246,16.651,5.739,19.997c-0.507,3.346-7.895,16.319-10.136,24.297c-2.241,7.977-3.932,30.037-1.415,49.537
				c2.517,19.499,8.259,34.733,9.734,39.108c1.475,4.375,15.331,59.75,15.045,66.749c0,0-7.38-5.735-10.469-11.237
				c-3.089-5.502-5.675,2.072-7.17,5.217c-1.495,3.145-0.024,8.332,3.448,12.109c2.96,3.22,8.598,4.109,10.708,9.286
				c2.111,5.176,9.493,6.996,11.045,3.103c1.552-3.893-1.965-33.247-2.756-49.104c-0.79-15.857-3.594-31.617-6.262-39.344
				c-2.667-7.726-0.151-60.438-0.151-60.438s11.923,54.069,14.858,61.565c2.936,7.496,31.129,35.483,31.129,35.483
				s1.863,11.677,1.98,16.7c0.116,5.023-1.608,7.9-0.707,9.223c0.902,1.323,9.298-3.55,11.657-4.873
				c2.358-1.324-0.271-9.549-0.732-13.345c-0.461-3.796-0.038-12.548-2.627-14.753c-2.589-2.204-5.948-0.949-9.632-8.502
				c-3.684-7.553-7.771-19.651-17.092-28.891c0,0,1.486-35.741,1.348-50.294c-0.138-14.553-1.042-22.395-4.495-29.68
				c-3.453-7.285-9.478-23.543-9.478-23.543l7.875-20.96c0,0,10.353,17.629,11.907,23.515c1.555,5.886-0.582,21.733,10.965,37.912
				c0,0-1.99,16.145-4.443,18.715c-2.453,2.57,3.318,2.511,4.832-0.883c0,0-0.075,7.516,1.421,7.631
				c1.496,0.115,4.026-3.453,5.291-3.606c1.266-0.154,2.416,1.188,3.739,0.287c1.323-0.902,1.323-0.902,1.323-0.902
				s1.629-1.63,2.185-2.34c0.556-0.71-5.239-16.699-6.448-20.553c-1.209-3.854-8.918-34.173-10.089-38.525
				c-1.171-4.352-9.338-41.694-13.001-46.237c-3.663-4.543-16.758-12.317-16.758-12.317s-2.096-6.68-1.983-14.695L248.596,160.803z"
				/>
			<path style="fill:#CC7F7F;" d="M253.138,173.432c1.95-0.037,5.207-2.456,7.947-4.834c-0.259-2.059-0.434-4.4-0.399-6.869
				l-12.09-0.927c0,0-0.072,3.251-0.543,6.644C249.535,170.582,251.378,173.465,253.138,173.432z"/>
		</g>
		<path style="fill:#FFBEB8;" d="M260.706,122.602c-7.993-1.174-16.44,3.745-19.088,15.01c-2.648,11.265,1.82,25.611,10.276,26.753
			c8.456,1.142,17.683-3.563,21.98-18.005C278.17,131.918,269.407,123.88,260.706,122.602z"/>
		<path style="fill:#CC7F7F;" d="M249.71,248.52c-0.049,1.058-0.482,1.896-0.968,1.874c-0.486-0.022-0.84-0.898-0.791-1.955
			c0.049-1.057,0.482-1.896,0.968-1.874C249.405,246.587,249.759,247.463,249.71,248.52z"/>
		<g>
			<path style="fill:#CC7F7F;" d="M241.703,142.948c0,0-2.302-7.122-5.853-6.19c-3.551,0.932,0.231,15.272,5.997,15.582
				L241.703,142.948z"/>
			<path style="fill:none;stroke:#894949;stroke-linecap:round;stroke-linejoin:round;stroke-miterlimit:10;" d="M234.585,138.554
				c0,0,3.622-0.694,7.159,7.031"/>
			<path style="fill:none;stroke:#894949;stroke-linecap:round;stroke-linejoin:round;stroke-miterlimit:10;" d="M239.026,151.022
				c0,0-3.353-7.214-2.172-11.84"/>
		</g>
		<g>
			<path style="fill:#CC7F7F;" d="M271.758,149.001c0,0,4.728-5.803,7.699-3.647c2.971,2.156-5.753,14.149-11.239,12.347
				L271.758,149.001z"/>
			<path style="fill:none;stroke:#894949;stroke-linecap:round;stroke-linejoin:round;stroke-miterlimit:10;" d="M279.985,147.487
				c0,0-3.124-1.96-9.221,3.956"/>
			<path style="fill:none;stroke:#894949;stroke-linecap:round;stroke-linejoin:round;stroke-miterlimit:10;" d="M271.326,157.496
				c0,0,5.741-5.507,6.317-10.246"/>
		</g>
		<path style="fill:#6B60C0;" d="M272.934,147.731c0,0-18.492-6.023-18.773-32.439c0,0,20.058,2.679,22.53,5.671
			c2.472,2.992,0.632,23.974,0.632,23.974L272.934,147.731z"/>
		<path style="fill:none;stroke:#894949;stroke-linecap:round;stroke-linejoin:round;stroke-miterlimit:10;" d="M254.76,138.344
			c0,0,1.334,9.451-5.8,10.994l2.64,2.264"/>
		<path style="fill:#894949;" d="M250.231,142.043c-0.03,0.637-0.57,1.129-1.206,1.1c-0.637-0.03-1.129-0.57-1.1-1.206
			c0.029-0.637,0.569-1.129,1.206-1.1C249.768,140.867,250.26,141.407,250.231,142.043z"/>
		<path style="fill:#894949;" d="M262.965,143.941c-0.029,0.637-0.569,1.129-1.206,1.1c-0.637-0.029-1.129-0.569-1.1-1.206
			c0.029-0.637,0.57-1.129,1.206-1.1C262.502,142.764,262.995,143.304,262.965,143.941z"/>
		<path style="fill:none;stroke:#894949;stroke-linecap:round;stroke-linejoin:round;stroke-miterlimit:10;" d="M249.632,155
			c0,0,5.385,3.878,10.564-1.139"/>
		<path style="fill:#CC7F7F;" d="M250.065,145.133c-0.114,0.65-1.432,0.962-2.944,0.697c-1.512-0.266-2.645-1.008-2.53-1.658
			c0.114-0.65,1.432-0.962,2.944-0.697C249.047,143.74,250.18,144.483,250.065,145.133z"/>
		<path style="fill:#CC7F7F;" d="M266.058,147.021c-0.037,0.659-1.309,1.124-2.842,1.038s-2.745-0.69-2.708-1.349
			c0.037-0.659,1.309-1.124,2.842-1.038C264.882,145.758,266.094,146.362,266.058,147.021z"/>
		<g>
			<path style="fill:#FF7767;" d="M232.154,181.972L232.154,181.972c0,0-5.721,16.791-1.854,34.345c0,0,1.495,3.987,2.963,8.45
				c6.486-1.218,21.828-3.278,33.774,1.49l4.708-12.53c0,0-3.544-22.904,3.724-28.663c-3.348-2.652-7.641-5.441-10.307-7.11v0
				c0,0-8.805,14.397-16.401,16.299c0,0-6.977-8.522-6.759-17.426C239.157,178.337,235.318,180.209,232.154,181.972z"/>
			<path style="fill:#FFE5CC;" d="M268.15,179.87c-1.104-0.723-2.134-1.382-2.988-1.916v0c0,0-8.805,14.397-16.401,16.299
				c0,0-6.977-8.522-6.759-17.426c-0.792,0.421-1.664,0.871-2.574,1.337c0.327,5.032,2.029,13.48,9.141,20.251
				C248.569,198.414,259.656,193.245,268.15,179.87z"/>
			<path style="fill:#FFE5CC;" d="M232.042,221.164c0.386,1.11,0.804,2.335,1.221,3.602c6.486-1.218,21.828-3.278,33.774,1.49
				l1.08-2.874C254.6,217.143,237.568,219.984,232.042,221.164z"/>
			
				<line style="fill:none;stroke:#FFFFFF;stroke-linecap:round;stroke-miterlimit:10;" x1="271.176" y1="208.628" x2="265.367" y2="223.869"/>
		</g>
		<g>
			<path style="fill:#FF7767;" d="M277.843,287.909c-0.138-14.553-1.042-22.395-4.495-29.68c-0.726-1.532-1.566-3.462-2.44-5.553
				c-19.993,6.684-38.035,0.163-41.47-1.219c-1.455,3.245-2.785,6.48-3.536,9.154c-2.241,7.977-3.932,30.037-1.415,49.537
				c0.865,6.7,2.111,12.896,3.433,18.322l0,0c7.006,3.479,15.077,1.033,18.673-0.406c-0.097-18.035,1.068-42.466,1.068-42.466
				s4.21,19.095,8.243,36.163c11.214,1.501,17.943-1.792,21.353-4.38C277.598,306.885,277.91,294.932,277.843,287.909z"/>
			<path style="fill:none;stroke:#FFFFFF;stroke-linecap:round;stroke-miterlimit:10;" d="M269.605,253.092
				c0,0,3.863,13.044,4.536,23.753c0.673,10.709,1.214,41.811,1.214,41.811"/>
			
				<line style="fill:none;stroke:#FFFFFF;stroke-linecap:round;stroke-miterlimit:10;" x1="247.904" y1="286.692" x2="234.758" y2="275.025"/>
			<path style="fill:none;stroke:#FFFFFF;stroke-linecap:round;stroke-miterlimit:10;" d="M244.233,328.901
				c0,0-0.18-25.724,1.348-44.269"/>
			<g>
				<path style="fill:#FFE5CC;" d="M270.908,252.676c-19.993,6.684-38.035,0.163-41.47-1.219c-0.394,0.878-0.774,1.753-1.141,2.619
					c3.657,2.311,10.839,6.084,19.101,6.35c8.953,0.289,19.608-3.638,24.409-5.635C271.513,254.109,271.214,253.408,270.908,252.676
					z"/>
				<path style="fill:#FFE5CC;" d="M227.92,328.469c7.006,3.479,15.077,1.033,18.673-0.406c-0.006-1.165-0.007-2.357-0.003-3.567
					c-7.096,2.323-14.918,1.472-19.451,0.615C227.395,326.257,227.655,327.382,227.92,328.469z"/>
				<path style="fill:#FFE5CC;" d="M255.338,319.352c0.189,0.805,0.378,1.608,0.567,2.407c11.214,1.501,17.943-1.792,21.353-4.38
					c0.027-0.832,0.054-1.676,0.08-2.524C267.106,321.288,255.34,319.353,255.338,319.352z"/>
			</g>
		</g>
	</g>
	<g>
		<path style="fill:#C4887E;" d="M110.117,323.833c0,0-5.867,42.417-5.367,55.667s6.5,52,6.5,52s-5.25,11.25-8.75,14
			s-4.136,4.073-0.625,4.323s11.83-0.073,14.228-3.073s3.147-5,5.022-7c1.875-2,0.67-4.25-1.978-10.75
			c-2.648-6.5,2.272-33.846,0-43.667c-2.272-9.822,3.75-18.619,6.426-31.476C128.25,341,114.985,312.667,110.117,323.833z"/>
		<path style="fill:#C4887E;" d="M145.667,262.5c0,0,9.582,11.45,2.641,31l-34.566,1.35L125.987,263L145.667,262.5z"/>
		<path style="fill:#EDBDA2;" d="M144.5,325.471c0,0,1.057,37.904,1.25,54.029c0,0,5.421,13,5.25,25.5s2.75,25.75,2.75,25.75
			s5.5,9.25,2.75,11.5s-4.48,5.25-5.615,7.5c-1.135,2.25-15.341,3.5-13.738,1.75s9.644-12,9.999-17.5s-10.025-36.292-11.646-46.25
			c-1.621-9.958-8.763-33.904-8.763-33.904S130.5,325.192,144.5,325.471z"/>
		<path style="fill:#C4887E;" d="M125.987,263c0,0-5.097-0.625-9.104,6.875s-7.507,21.582-8.757,28.854
			c-1.25,7.271-0.625,31.928-0.625,31.928s2.125,1.021,3.625-1.443s4.64-24.985,5.757-32.287C118,289.625,125.987,263,125.987,263z"
			/>
		<g>
			<path style="fill:#6B60C0;" d="M125.987,263c0,0-4.612,6-7.362,13.875s-8.75,30.74-8.5,46.105c0,0,5.125,21.116,10.375,29.991
				c0,0,3.724,1,6.237,0.875c0,0,6.138-16,17.763-28.375c0,0-4.75-14.239-3.25-19.307s7.057-12.664,7.057-12.664l-2.557-31.125
				C145.75,262.375,133.849,260.875,125.987,263z"/>
			<g>
				<defs>
					<path id="SVGID_00000161613871450351627280000012398981495866956171_" d="M125.987,263c0,0-4.612,6-7.362,13.875
						s-8.75,30.74-8.5,46.105c0,0,5.125,21.116,10.375,29.991c0,0,3.724,1,6.237,0.875c0,0,6.138-16,17.763-28.375
						c0,0-4.75-14.239-3.25-19.307s7.057-12.664,7.057-12.664l-2.557-31.125C145.75,262.375,133.849,260.875,125.987,263z"/>
				</defs>
				<clipPath id="SVGID_00000083771482872596897760000003540639912493446534_">
					<use xlink:href="#SVGID_00000161613871450351627280000012398981495866956171_"  style="overflow:visible;"/>
				</clipPath>
				<g style="clip-path:url(#SVGID_00000083771482872596897760000003540639912493446534_);">
					<g>
						<path style="fill:#FF7767;" d="M129.628,283.63c0,0.998-0.809,1.807-1.807,1.807c-0.998,0-1.807-0.809-1.807-1.807
							c0-0.998,0.809-1.807,1.807-1.807C128.819,281.823,129.628,282.632,129.628,283.63z"/>
						<path style="fill:#FF7767;" d="M138.301,283.63c0,0.998-0.809,1.807-1.807,1.807c-0.998,0-1.807-0.809-1.807-1.807
							c0-0.998,0.809-1.807,1.807-1.807C137.492,281.823,138.301,282.632,138.301,283.63z"/>
						<path style="fill:#FF7767;" d="M146.974,283.63c0,0.998-0.809,1.807-1.807,1.807c-0.998,0-1.807-0.809-1.807-1.807
							c0-0.998,0.809-1.807,1.807-1.807C146.165,281.823,146.974,282.632,146.974,283.63z"/>
						<path style="fill:#FF7767;" d="M120.954,283.63c0,0.998-0.809,1.807-1.807,1.807c-0.998,0-1.807-0.809-1.807-1.807
							c0-0.998,0.809-1.807,1.807-1.807C120.146,281.823,120.954,282.632,120.954,283.63z"/>
					</g>
					<g>
						<path style="fill:#FF7767;" d="M126.47,277.64c0,0.998-0.809,1.807-1.807,1.807c-0.998,0-1.807-0.809-1.807-1.807
							c0-0.998,0.809-1.807,1.807-1.807C125.661,275.833,126.47,276.642,126.47,277.64z"/>
						<path style="fill:#FF7767;" d="M135.143,277.64c0,0.998-0.809,1.807-1.807,1.807c-0.998,0-1.807-0.809-1.807-1.807
							c0-0.998,0.809-1.807,1.807-1.807C134.335,275.833,135.143,276.642,135.143,277.64z"/>
						<path style="fill:#FF7767;" d="M143.816,277.64c0,0.998-0.809,1.807-1.807,1.807c-0.998,0-1.807-0.809-1.807-1.807
							c0-0.998,0.809-1.807,1.807-1.807C143.007,275.833,143.816,276.642,143.816,277.64z"/>
						<path style="fill:#FF7767;" d="M117.797,277.64c0,0.998-0.809,1.807-1.807,1.807c-0.998,0-1.807-0.809-1.807-1.807
							c0-0.998,0.809-1.807,1.807-1.807C116.988,275.833,117.797,276.642,117.797,277.64z"/>
					</g>
					<g>
						<path style="fill:#FF7767;" d="M129.628,272.246c0,0.998-0.809,1.807-1.807,1.807c-0.998,0-1.807-0.809-1.807-1.807
							c0-0.998,0.809-1.807,1.807-1.807C128.819,270.439,129.628,271.248,129.628,272.246z"/>
						<path style="fill:#FF7767;" d="M138.301,272.246c0,0.998-0.809,1.807-1.807,1.807c-0.998,0-1.807-0.809-1.807-1.807
							c0-0.998,0.809-1.807,1.807-1.807C137.492,270.439,138.301,271.248,138.301,272.246z"/>
						<path style="fill:#FF7767;" d="M146.974,272.246c0,0.998-0.809,1.807-1.807,1.807c-0.998,0-1.807-0.809-1.807-1.807
							c0-0.998,0.809-1.807,1.807-1.807C146.165,270.439,146.974,271.248,146.974,272.246z"/>
						<path style="fill:#FF7767;" d="M120.954,272.246c0,0.998-0.809,1.807-1.807,1.807c-0.998,0-1.807-0.809-1.807-1.807
							c0-0.998,0.809-1.807,1.807-1.807C120.146,270.439,120.954,271.248,120.954,272.246z"/>
					</g>
					<g>
						<path style="fill:#FF7767;" d="M126.47,266.257c0,0.998-0.809,1.807-1.807,1.807c-0.998,0-1.807-0.809-1.807-1.807
							c0-0.998,0.809-1.807,1.807-1.807C125.661,264.45,126.47,265.259,126.47,266.257z"/>
						<path style="fill:#FF7767;" d="M135.143,266.257c0,0.998-0.809,1.807-1.807,1.807c-0.998,0-1.807-0.809-1.807-1.807
							c0-0.998,0.809-1.807,1.807-1.807C134.335,264.45,135.143,265.259,135.143,266.257z"/>
						<path style="fill:#FF7767;" d="M143.816,266.257c0,0.998-0.809,1.807-1.807,1.807c-0.998,0-1.807-0.809-1.807-1.807
							c0-0.998,0.809-1.807,1.807-1.807C143.007,264.45,143.816,265.259,143.816,266.257z"/>
						<path style="fill:#FF7767;" d="M117.797,266.257c0,0.998-0.809,1.807-1.807,1.807c-0.998,0-1.807-0.809-1.807-1.807
							c0-0.998,0.809-1.807,1.807-1.807C116.988,264.45,117.797,265.259,117.797,266.257z"/>
					</g>
					<g>
						<path style="fill:#FF7767;" d="M121.621,308.669c0,0.998-0.809,1.807-1.807,1.807c-0.998,0-1.807-0.809-1.807-1.807
							c0-0.998,0.809-1.807,1.807-1.807C120.812,306.862,121.621,307.671,121.621,308.669z"/>
						<path style="fill:#FF7767;" d="M130.294,308.669c0,0.998-0.809,1.807-1.807,1.807c-0.998,0-1.807-0.809-1.807-1.807
							c0-0.998,0.809-1.807,1.807-1.807C129.485,306.862,130.294,307.671,130.294,308.669z"/>
						<path style="fill:#FF7767;" d="M138.967,308.669c0,0.998-0.809,1.807-1.807,1.807c-0.998,0-1.807-0.809-1.807-1.807
							c0-0.998,0.809-1.807,1.807-1.807C138.158,306.862,138.967,307.671,138.967,308.669z"/>
						<path style="fill:#FF7767;" d="M112.948,308.669c0,0.998-0.809,1.807-1.807,1.807c-0.998,0-1.807-0.809-1.807-1.807
							c0-0.998,0.809-1.807,1.807-1.807C112.139,306.862,112.948,307.671,112.948,308.669z"/>
					</g>
					<g>
						<path style="fill:#FF7767;" d="M118.464,302.68c0,0.998-0.809,1.807-1.807,1.807c-0.998,0-1.807-0.809-1.807-1.807
							c0-0.998,0.809-1.807,1.807-1.807C117.655,300.873,118.464,301.682,118.464,302.68z"/>
						<path style="fill:#FF7767;" d="M127.137,302.68c0,0.998-0.809,1.807-1.807,1.807c-0.998,0-1.807-0.809-1.807-1.807
							c0-0.998,0.809-1.807,1.807-1.807C126.328,300.873,127.137,301.682,127.137,302.68z"/>
						<path style="fill:#FF7767;" d="M135.81,302.68c0,0.998-0.809,1.807-1.807,1.807c-0.998,0-1.807-0.809-1.807-1.807
							c0-0.998,0.809-1.807,1.807-1.807C135.001,300.873,135.81,301.682,135.81,302.68z"/>
						<path style="fill:#FF7767;" d="M109.791,302.68c0,0.998-0.809,1.807-1.807,1.807c-0.998,0-1.807-0.809-1.807-1.807
							c0-0.998,0.809-1.807,1.807-1.807C108.982,300.873,109.791,301.682,109.791,302.68z"/>
					</g>
					<g>
						<path style="fill:#FF7767;" d="M121.621,297.286c0,0.998-0.809,1.807-1.807,1.807c-0.998,0-1.807-0.809-1.807-1.807
							c0-0.998,0.809-1.807,1.807-1.807C120.812,295.479,121.621,296.288,121.621,297.286z"/>
						<path style="fill:#FF7767;" d="M130.294,297.286c0,0.998-0.809,1.807-1.807,1.807c-0.998,0-1.807-0.809-1.807-1.807
							c0-0.998,0.809-1.807,1.807-1.807C129.485,295.479,130.294,296.288,130.294,297.286z"/>
						<path style="fill:#FF7767;" d="M138.967,297.286c0,0.998-0.809,1.807-1.807,1.807c-0.998,0-1.807-0.809-1.807-1.807
							c0-0.998,0.809-1.807,1.807-1.807C138.158,295.479,138.967,296.288,138.967,297.286z"/>
						<path style="fill:#FF7767;" d="M143.588,302.68c0,0.998-0.809,1.807-1.807,1.807c-0.998,0-1.807-0.809-1.807-1.807
							c0-0.998,0.809-1.807,1.807-1.807C142.779,300.873,143.588,301.682,143.588,302.68z"/>
						<path style="fill:#FF7767;" d="M146.745,297.286c0,0.998-0.809,1.807-1.807,1.807c-0.998,0-1.807-0.809-1.807-1.807
							c0-0.998,0.809-1.807,1.807-1.807C145.936,295.479,146.745,296.288,146.745,297.286z"/>
						<path style="fill:#FF7767;" d="M112.948,297.286c0,0.998-0.809,1.807-1.807,1.807c-0.998,0-1.807-0.809-1.807-1.807
							c0-0.998,0.809-1.807,1.807-1.807C112.139,295.479,112.948,296.288,112.948,297.286z"/>
					</g>
					<g>
						<path style="fill:#FF7767;" d="M126.47,291.296c0,0.998-0.809,1.807-1.807,1.807c-0.998,0-1.807-0.809-1.807-1.807
							c0-0.998,0.809-1.807,1.807-1.807C125.661,289.489,126.47,290.298,126.47,291.296z"/>
						<path style="fill:#FF7767;" d="M135.143,291.296c0,0.998-0.809,1.807-1.807,1.807c-0.998,0-1.807-0.809-1.807-1.807
							c0-0.998,0.809-1.807,1.807-1.807C134.335,289.489,135.143,290.298,135.143,291.296z"/>
						<path style="fill:#FF7767;" d="M143.816,291.296c0,0.998-0.809,1.807-1.807,1.807c-0.998,0-1.807-0.809-1.807-1.807
							c0-0.998,0.809-1.807,1.807-1.807C143.007,289.489,143.816,290.298,143.816,291.296z"/>
						<path style="fill:#FF7767;" d="M117.797,291.296c0,0.998-0.809,1.807-1.807,1.807c-0.998,0-1.807-0.809-1.807-1.807
							c0-0.998,0.809-1.807,1.807-1.807C116.988,289.489,117.797,290.298,117.797,291.296z"/>
					</g>
					<g>
						<path style="fill:#FF7767;" d="M126.47,339.833c0,0.998-0.809,1.807-1.807,1.807c-0.998,0-1.807-0.809-1.807-1.807
							c0-0.998,0.809-1.807,1.807-1.807C125.661,338.026,126.47,338.835,126.47,339.833z"/>
						<path style="fill:#FF7767;" d="M135.143,339.833c0,0.998-0.809,1.807-1.807,1.807c-0.998,0-1.807-0.809-1.807-1.807
							c0-0.998,0.809-1.807,1.807-1.807C134.335,338.026,135.143,338.835,135.143,339.833z"/>
						<path style="fill:#FF7767;" d="M143.816,339.833c0,0.998-0.809,1.807-1.807,1.807c-0.998,0-1.807-0.809-1.807-1.807
							c0-0.998,0.809-1.807,1.807-1.807C143.007,338.026,143.816,338.835,143.816,339.833z"/>
						<path style="fill:#FF7767;" d="M117.797,339.833c0,0.998-0.809,1.807-1.807,1.807c-0.998,0-1.807-0.809-1.807-1.807
							c0-0.998,0.809-1.807,1.807-1.807C116.988,338.026,117.797,338.835,117.797,339.833z"/>
					</g>
					<g>
						<path style="fill:#FF7767;" d="M121.621,332.138c0,0.998-0.809,1.807-1.807,1.807c-0.998,0-1.807-0.809-1.807-1.807
							c0-0.998,0.809-1.807,1.807-1.807C120.812,330.331,121.621,331.14,121.621,332.138z"/>
						<path style="fill:#FF7767;" d="M130.294,332.138c0,0.998-0.809,1.807-1.807,1.807c-0.998,0-1.807-0.809-1.807-1.807
							c0-0.998,0.809-1.807,1.807-1.807C129.485,330.331,130.294,331.14,130.294,332.138z"/>
						<path style="fill:#FF7767;" d="M138.967,332.138c0,0.998-0.809,1.807-1.807,1.807c-0.998,0-1.807-0.809-1.807-1.807
							c0-0.998,0.809-1.807,1.807-1.807C138.158,330.331,138.967,331.14,138.967,332.138z"/>
						<path style="fill:#FF7767;" d="M112.948,332.138c0,0.998-0.809,1.807-1.807,1.807c-0.998,0-1.807-0.809-1.807-1.807
							c0-0.998,0.809-1.807,1.807-1.807C112.139,330.331,112.948,331.14,112.948,332.138z"/>
					</g>
					<g>
						<path style="fill:#FF7767;" d="M121.621,347.925c0,0.998-0.809,1.807-1.807,1.807c-0.998,0-1.807-0.809-1.807-1.807
							c0-0.998,0.809-1.807,1.807-1.807C120.812,346.118,121.621,346.927,121.621,347.925z"/>
						<path style="fill:#FF7767;" d="M130.294,347.925c0,0.998-0.809,1.807-1.807,1.807c-0.998,0-1.807-0.809-1.807-1.807
							c0-0.998,0.809-1.807,1.807-1.807C129.485,346.118,130.294,346.927,130.294,347.925z"/>
						<path style="fill:#FF7767;" d="M138.967,347.925c0,0.998-0.809,1.807-1.807,1.807c-0.998,0-1.807-0.809-1.807-1.807
							c0-0.998,0.809-1.807,1.807-1.807C138.158,346.118,138.967,346.927,138.967,347.925z"/>
						<path style="fill:#FF7767;" d="M112.948,347.925c0,0.998-0.809,1.807-1.807,1.807c-0.998,0-1.807-0.809-1.807-1.807
							c0-0.998,0.809-1.807,1.807-1.807C112.139,346.118,112.948,346.927,112.948,347.925z"/>
					</g>
					<g>
						<path style="fill:#FF7767;" d="M118.464,326.148c0,0.998-0.809,1.807-1.807,1.807c-0.998,0-1.807-0.809-1.807-1.807
							c0-0.998,0.809-1.807,1.807-1.807C117.655,324.342,118.464,325.151,118.464,326.148z"/>
						<path style="fill:#FF7767;" d="M127.137,326.148c0,0.998-0.809,1.807-1.807,1.807c-0.998,0-1.807-0.809-1.807-1.807
							c0-0.998,0.809-1.807,1.807-1.807C126.328,324.342,127.137,325.151,127.137,326.148z"/>
						<path style="fill:#FF7767;" d="M135.81,326.148c0,0.998-0.809,1.807-1.807,1.807c-0.998,0-1.807-0.809-1.807-1.807
							c0-0.998,0.809-1.807,1.807-1.807C135.001,324.342,135.81,325.151,135.81,326.148z"/>
						<path style="fill:#FF7767;" d="M109.791,326.148c0,0.998-0.809,1.807-1.807,1.807c-0.998,0-1.807-0.809-1.807-1.807
							c0-0.998,0.809-1.807,1.807-1.807C108.982,324.342,109.791,325.151,109.791,326.148z"/>
					</g>
					<g>
						<path style="fill:#FF7767;" d="M121.621,320.755c0,0.998-0.809,1.807-1.807,1.807c-0.998,0-1.807-0.809-1.807-1.807
							c0-0.998,0.809-1.807,1.807-1.807C120.812,318.948,121.621,319.757,121.621,320.755z"/>
						<path style="fill:#FF7767;" d="M130.294,320.755c0,0.998-0.809,1.807-1.807,1.807c-0.998,0-1.807-0.809-1.807-1.807
							c0-0.998,0.809-1.807,1.807-1.807C129.485,318.948,130.294,319.757,130.294,320.755z"/>
						<path style="fill:#FF7767;" d="M138.967,320.755c0,0.998-0.809,1.807-1.807,1.807c-0.998,0-1.807-0.809-1.807-1.807
							c0-0.998,0.809-1.807,1.807-1.807C138.158,318.948,138.967,319.757,138.967,320.755z"/>
						<path style="fill:#FF7767;" d="M143.588,326.148c0,0.998-0.809,1.807-1.807,1.807c-0.998,0-1.807-0.809-1.807-1.807
							c0-0.998,0.809-1.807,1.807-1.807C142.779,324.342,143.588,325.151,143.588,326.148z"/>
						<path style="fill:#FF7767;" d="M146.745,320.755c0,0.998-0.809,1.807-1.807,1.807c-0.998,0-1.807-0.809-1.807-1.807
							c0-0.998,0.809-1.807,1.807-1.807C145.936,318.948,146.745,319.757,146.745,320.755z"/>
						<path style="fill:#FF7767;" d="M112.948,320.755c0,0.998-0.809,1.807-1.807,1.807c-0.998,0-1.807-0.809-1.807-1.807
							c0-0.998,0.809-1.807,1.807-1.807C112.139,318.948,112.948,319.757,112.948,320.755z"/>
					</g>
					<g>
						<path style="fill:#FF7767;" d="M126.47,314.765c0,0.998-0.809,1.807-1.807,1.807c-0.998,0-1.807-0.809-1.807-1.807
							c0-0.998,0.809-1.807,1.807-1.807C125.661,312.958,126.47,313.767,126.47,314.765z"/>
						<path style="fill:#FF7767;" d="M135.143,314.765c0,0.998-0.809,1.807-1.807,1.807c-0.998,0-1.807-0.809-1.807-1.807
							c0-0.998,0.809-1.807,1.807-1.807C134.335,312.958,135.143,313.767,135.143,314.765z"/>
						<path style="fill:#FF7767;" d="M143.816,314.765c0,0.998-0.809,1.807-1.807,1.807c-0.998,0-1.807-0.809-1.807-1.807
							c0-0.998,0.809-1.807,1.807-1.807C143.007,312.958,143.816,313.767,143.816,314.765z"/>
						<path style="fill:#FF7767;" d="M117.797,314.765c0,0.998-0.809,1.807-1.807,1.807c-0.998,0-1.807-0.809-1.807-1.807
							c0-0.998,0.809-1.807,1.807-1.807C116.988,312.958,117.797,313.767,117.797,314.765z"/>
					</g>
				</g>
			</g>
		</g>
		<g>
			<path style="fill:#DB874D;" d="M113,239.75c0,0-9.5,6.553-5.625,12.089c3.875,5.536,11.773,0.911,11.773,0.911
				s1.352,5,7.852,4.125s7.75-10.125,7.75-10.125s4,6.803,9.625,5.089c5.625-1.714,2.875-10.053,2.875-10.053s10,5.798,12.875-1.119
				c2.875-6.917-7-13.042-7-13.042s7.875-2.75,5.125-9.375s-7.136-9.535-13.131-6.83c-5.994,2.705-25.244,5.705-25.244,5.705
				L113,239.75z"/>
			<path style="fill:#EDBDA2;" d="M123.125,219.125c6.705-5.225,15.625-3.875,20.25,3.5s7.75,18.75,6,20.75S140.5,250,140.5,250
				s-3.25,7.5,0,12c0,0-2.75,7.125-7.75,7.25s-3.5-6.875-3.5-6.875s2.25-1.75,1.125-7.375s-13.5-18.75-13.5-18.75
				S113.5,226.625,123.125,219.125z"/>
			<path style="fill:none;stroke:#9B5950;stroke-linecap:round;stroke-linejoin:round;stroke-miterlimit:10;" d="M136.625,227.625
				c0,0,2.125,5.333,7,3.542c0,0-0.125,3.208-2.25,5.208"/>
			<path style="fill:none;stroke:#9B5950;stroke-linecap:round;stroke-linejoin:round;stroke-miterlimit:10;" d="M134,239.75
				c0,0,4.375,4.125,8.625,0"/>
			<path style="fill:#FFA96E;" d="M120.625,237.967c0,0,7.625-6.592,2.5-14.592c0,0,8.75,3.5,13.5-4.375c0,0,4.875,5,11.25,4.25
				s8.75-8.625,5.75-11.25s-7.125-2.5-8.75,0c0,0,2.25-4.5-0.5-7.5s-12.33-1.747-14.625,5.25c0,0-2.5-5.125-8.625-3.625
				c-6.125,1.5-13.375,11-9.125,22.375c0,0-7.875,1.125-8.25,6.5S112.5,245.558,120.625,237.967z"/>
			<path style="fill:#9B5950;" d="M134.458,232.083c0,0.506-0.41,0.917-0.917,0.917c-0.506,0-0.917-0.41-0.917-0.917
				c0-0.506,0.41-0.917,0.917-0.917C134.048,231.167,134.458,231.577,134.458,232.083z"/>
			<path style="fill:#9B5950;" d="M142.625,227.625c0,0.506-0.41,0.917-0.917,0.917c-0.506,0-0.917-0.41-0.917-0.917
				s0.41-0.917,0.917-0.917C142.215,226.708,142.625,227.119,142.625,227.625z"/>
			<path style="fill:#C4887E;" d="M135.541,234.391c0.219,0.581-0.703,1.467-2.059,1.979c-1.356,0.512-2.634,0.455-2.853-0.126
				c-0.219-0.581,0.702-1.467,2.059-1.979C134.044,233.754,135.321,233.81,135.541,234.391z"/>
			<path style="fill:#C4887E;" d="M147.569,228.101c0.219,0.581-0.703,1.467-2.059,1.979c-1.356,0.512-2.634,0.455-2.853-0.126
				c-0.219-0.581,0.702-1.467,2.059-1.979C146.073,227.463,147.35,227.52,147.569,228.101z"/>
			<path style="fill:#C4887E;" d="M137.625,259.75c0.518-0.061,1.068-0.321,1.636-0.726c-0.705-3.576,0.668-7.561,1.11-8.702
				c-3.382,1.458-7.428,2.457-11.286,1.516c0.65,1.187,1.113,2.269,1.291,3.161c0.136,0.68,0.221,1.301,0.268,1.871
				C133.141,258.554,136.028,259.938,137.625,259.75z"/>
			<g>
				<path style="fill:#C4887E;" d="M127.876,246.633l-6.751-7.935c0,0-6.61-2.781-6.749,2.507
					C114.237,246.493,123.005,249.555,127.876,246.633z"/>
				<path style="fill:none;stroke:#9B5950;stroke-linecap:round;stroke-linejoin:round;stroke-miterlimit:10;" d="M122.192,239.952
					c0,0-6.171-0.758-6.089,5.118"/>
				<path style="fill:none;stroke:#9B5950;stroke-linecap:round;stroke-linejoin:round;stroke-miterlimit:10;" d="M126.29,247.339
					c0,0-6.205,0.454-9.407-5.345"/>
			</g>
		</g>
		<g>
			<g>
				<path style="fill:#5F99C1;" d="M129.212,369.125c0.288-6.875-8.587-32.875-16.462-34.125h-7.5
					c-3.125,0.375-7.25,3.5-11.875,16.25s-10.25,33.5-4.375,40.375s26.125,10.5,34.5,2.75S128.925,376,129.212,369.125z M112.75,353
					c-2.375,0.875-12.125,1-13.774-1s1.279-9.878,1.279-9.878c2.63-3.503,12.935-3.275,12.935-3.275s1.768,0.875,2.29,2.414
					C116.004,342.801,115.125,352.125,112.75,353z"/>
				<g>
					<path style="fill:#407DA0;" d="M129.212,369.125c0.238-5.691-5.804-24.477-12.359-31.49c0.035,0.298,3.389,28.628,2.021,31.115
						c-1.375,2.5-7.625,3.857-7.625,3.857s9.875,3.143,9.125,9.393s-10.389,11.996-17.875,12.875
						c-4.63,0.543-11.373-5.179-15.845-9.625c0.309,2.647,1.044,4.853,2.345,6.375c5.875,6.875,26.125,10.5,34.5,2.75
						S128.925,376,129.212,369.125z"/>
					<g>
						<g>
							<path style="fill:#FBF2F3;" d="M102.967,371.551c-0.682,0.03-0.974,0.584-1.754,1.985c-0.78,1.401-1.391,2.479-1.391,2.479
								l2.797,1.456l3.341-6.022L102.967,371.551z"/>
							<path style="fill:#F2D6D9;" d="M109.519,374.951c-0.258-0.44-0.978-1.659-1.489-2.447c-0.845-1.304-1.205-1.12-5.063-0.953
								c0,0,1.106,0.047,2.069,1.635c0.782,1.29,1.657,2.715,1.957,3.205l-1.22,0.695l3.715,0.869l1.145-3.639L109.519,374.951z"/>
						</g>
						<g>
							<path style="fill:#FBF2F3;" d="M113.832,382.869c0.33-0.598,0.008-1.135-0.783-2.531c-0.79-1.395-1.393-2.477-1.393-2.477
								l-2.699,1.632l3.405,5.986L113.832,382.869z"/>
							<path style="fill:#F2D6D9;" d="M107.52,386.695c0.509,0.008,1.925,0.028,2.864,0.002c1.553-0.043,1.584-0.447,3.447-3.828
								c0,0-0.615,0.921-2.472,0.916c-1.509-0.003-3.181,0.003-3.755,0.005l0.041-1.404l-2.674,2.721l2.512,2.871L107.52,386.695z"
								/>
						</g>
						<g>
							<path style="fill:#FBF2F3;" d="M98.662,386.49c0.377,0.569,1.002,0.533,2.605,0.48c1.603-0.054,2.841-0.086,2.841-0.086
								l-0.195-3.147l-6.882,0.243L98.662,386.49z"/>
							<path style="fill:#F2D6D9;" d="M98.198,379.123c-0.244,0.448-0.917,1.693-1.329,2.537c-0.682,1.397-0.338,1.61,1.794,4.829
								c0,0-0.53-0.972,0.334-2.616c0.702-1.335,1.472-2.82,1.736-3.33l1.225,0.687l-1.171-3.631l-3.708,0.895L98.198,379.123z"/>
						</g>
					</g>
					<g>
						<path style="fill:none;stroke:#2C627A;stroke-linecap:round;stroke-linejoin:round;stroke-miterlimit:10;" d="M93.75,375.125
							c0,0,8.5-4.822,17.5-5.036"/>
						<path style="fill:none;stroke:#2C627A;stroke-linecap:round;stroke-linejoin:round;stroke-miterlimit:10;" d="
							M101.875,375.125c0,0,8.5-1.125,12.625,0"/>
					</g>
				</g>
			</g>
			<path style="fill:#EDBDA2;" d="M145.311,262.324c-4.338,1.617-6.516,21.426-12.226,31.051c0,0-4.949,3.25-10.892,12.25
				c-5.942,9-9.817,14.375-13.067,17S98.5,336,99,337.625s1,5.375,2.125,5.375s2.375-1.75,2.375-1.75s1.892,1.5,2.946,1.125
				c1.054-0.375,1.307-1.749,1.307-1.749s1.106,0.749,2.364,0.499c1.258-0.25,1.528-0.1,2.484-1.292
				c0.956-1.191,1.907-4.205,0.149-4.833c0,0,4.08-6.625,3.353-8.75c0,0-0.455-1.25,3.647-4.25c4.102-3,15.5-15.75,19.625-20.375
				S150,286,151.75,279S152.171,259.767,145.311,262.324z"/>
		</g>
	</g>
	<g>
		<g>
			<path style="fill:#7A3F31;" d="M472.631,326.605c0,0-12.802-0.035-27.863,9.131c-15.06,9.167-47.638,33.644-47.638,33.644
				s-13.713,2.233-16.047,5.82c-3.811,5.857,1.311,11.393,4.159,16.502c2.848,5.109,1.309,8.902,5.509,14.896
				c4.2,5.994,8.037,10.171,8.716,5.644c0.679-4.528-0.247-29.619,2.941-31.438c3.188-1.819,64.265-31.117,72.812-34.572
				C483.767,342.776,472.631,326.605,472.631,326.605z"/>
			<path style="fill:#24245B;" d="M434.459,342.464c0,0,6.458,24.897,12.779,27.98c0,0,32.624-23.886,35.774-28.773
				c3.15-4.888-37.663-56.453-37.663-56.453l-36.111,0.489l36.038,48.187C445.277,333.894,436.185,339.542,434.459,342.464z"/>
		</g>
		<g>
			<path style="fill:#996452;" d="M436.043,337.333c0,0-6.892,10.789-7.225,28.417c-0.333,17.628,2.87,58.25,2.87,58.25
				s-5.466,12.774-3.688,16.667c2.902,6.357,10.321,5,16.16,5.333c5.84,0.333,8.217,3.667,15.528,3.333
				C467,449,472.583,448,469.125,445c-3.458-3-25.137-15.667-24.965-19.333c0.173-3.667,8.176-70.933,9.84-80
				C455.664,336.599,436.043,337.333,436.043,337.333z"/>
			<path style="fill:#36337F;" d="M408.333,269.167c0,0-9.5,16.5-8.167,27.833c1.333,11.333,29.167,34.5,29.167,34.5
				s-1.333,2.41-0.833,2.872c0.5,0.461,3.5,0,3.5,0l-2.5,2.961l1.333,1.833c0,0-8,31-7.333,34c0.667,3,24.894,9.667,28.53,4.833
				c0,0,8.136-41.098,7.636-49.216c-0.5-8.118-23.247-37.284-23.624-37.784C435.667,290.5,408.333,269.167,408.333,269.167z"/>
		</g>
		<g>
			<path style="fill:#996452;" d="M513.911,257.853c4.578,2.289,7.261-0.462,10.037-1.057c3.719-0.797,8.41,3.873,8.233,0.703
				c-0.176-3.17-6.228-5.396-7.213-7.157c-0.985-1.761,1.161-6.515,1.513-6.867c0.352-0.352,7.396-2.289,9.685-2.817
				c2.289-0.528,5.283-4.402,2.113-3.522c-3.17,0.881-10.565,1.409-14.615,2.641c-4.05,1.233-13.716,11.018-13.716,11.018
				s-21.588,14.057-25.204,16.723c-3.616,2.667-8.233-29.168-10.678-38.167c-2.445-8.999-7.534-10.396-12.701-9.229
				c-1.864,0.421-7.329,8.556-3.157,26.562c4.325,18.667,11.288,36.473,17.748,40.195
				C482.417,290.603,513.911,257.853,513.911,257.853z"/>
			<path style="fill:#7A3F31;" d="M529.205,242.537c0,0,6.657,1.166,10.45,1.463c3.793,0.297,1.126,1.667-0.707,2.148
				c-1.833,0.482-8.333,0-8.333,0s3.5,3.315,5.833,4.815c2.333,1.5-1,1.833-2.833,1c0,0-0.167,1.226-2.667,0.446
				c-2.5-0.78-6.209-2.837-6.209-2.837L522.781,244L529.205,242.537z"/>
		</g>
		<path style="fill:#BECC81;" d="M441.667,215.083c-5.243,0.219-13,5.584-21.5,19.751c-8.5,14.167-20,46.167-20,46.167
			s19.333,17.457,31.333,17.729C443.5,299,451.333,295,451.333,295s7.333-25.5,9.167-29c1.833-3.5,6.667-10,9.5-17.167
			c2.833-7.167,2.27-18.898,0-25.167C468.19,218.667,459.667,214.332,441.667,215.083z"/>
		<g>
			<path style="fill:none;stroke:#8AAA52;stroke-linecap:round;stroke-linejoin:round;stroke-miterlimit:10;" d="M440.5,254.5
				c0,0,11.667-1.667,20.333,1.5"/>
			<path style="fill:none;stroke:#8AAA52;stroke-linecap:round;stroke-linejoin:round;stroke-miterlimit:10;" d="M449.5,256.87
				c0,0,6.036,1.152,9,4.297"/>
		</g>
		<path style="fill:none;stroke:#FFFFFF;stroke-linecap:round;stroke-miterlimit:10;" d="M444.16,216.588
			c0,0-5.327,1.412-9.494,8.079c-4.167,6.667-27.298,62.214-27.298,62.214"/>
		<g>
			<path style="fill:#996452;" d="M482.5,164.833c9.149,5.477,14.833,14.833,11,23c-3.833,8.167-16,23.833-19,23
				c-3-0.833-6.833-3.833-6.833-3.833s-3.598,4.799-1.431,12.299c0,0,5.638,19.475-3.216,25.701c0,0-1.136-12.25-4.52-20.75
				c-1.954-4.908-10.125-9.167-16.833-9.167c0,0,6.176-1.277,8.976-3.933c3.453-3.275,3.753-8.399,4.857-12.817
				c2-8,7.167-25.167,9.167-30.167S478.324,162.333,482.5,164.833z"/>
			<path style="fill:#56271E;" d="M486.19,190.784c0,0.637-0.517,1.154-1.154,1.154c-0.638,0-1.154-0.517-1.154-1.154
				c0-0.637,0.517-1.154,1.154-1.154C485.673,189.63,486.19,190.146,486.19,190.784z"/>
			<path style="fill:#56271E;" d="M476.667,185.5c0,0.637-0.517,1.154-1.154,1.154c-0.637,0-1.154-0.517-1.154-1.154
				s0.517-1.154,1.154-1.154C476.15,184.346,476.667,184.863,476.667,185.5z"/>
			<path style="fill:#7A3F31;" d="M487.568,195.663c-0.272,0.602-1.626,0.576-3.025-0.056c-1.398-0.633-2.311-1.633-2.039-2.235
				c0.272-0.602,1.626-0.576,3.025,0.056C486.927,194.061,487.84,195.062,487.568,195.663z"/>
			<path style="fill:#7A3F31;" d="M473.302,187.8c-0.272,0.602-1.626,0.576-3.025-0.057s-2.311-1.633-2.039-2.235
				c0.272-0.602,1.626-0.576,3.025,0.057C472.661,186.198,473.574,187.198,473.302,187.8z"/>
			<path style="fill:none;stroke:#56271E;stroke-linecap:round;stroke-linejoin:round;stroke-miterlimit:10;" d="M482.456,187.27
				c0,0-5.744,5.738-2.5,11.333h-4"/>
			<path style="fill:none;stroke:#56271E;stroke-linecap:round;stroke-linejoin:round;stroke-miterlimit:10;" d="M469.125,195.375
				c0,0,0.208,5.25,7.542,6.875"/>
			<path style="fill:#544FB2;" d="M460.833,179.671c0,0,7.134,0.704,13.525-8.171c0,0,11.517,10.625,21.892,10.5
				s12.5-6.951,12.5-6.951s-8,1.326-10.625-2.424c-5.577-7.967-22.348-21.003-31.913-14.753c-9.565,6.25-8.814,33.42-8.814,33.42
				L460.833,179.671z"/>
			<path style="fill:#7A3F31;" d="M456.414,194.841c-0.086,0.317-0.169,0.628-0.251,0.932c0.511,4.916,2.548,17.361,4.669,18.893
				c1.254,0.906,3.059,0.204,4.738-0.913c0.22-4.231,2.095-6.753,2.095-6.753S457.829,201.182,456.414,194.841z"/>
			<g>
				<path style="fill:#7A3F31;" d="M457.871,189.63l2.962-9.959c0,0-0.754-8.838-4.794-8.671
					C452,171.167,450.075,185.759,457.871,189.63z"/>
				<path style="fill:none;stroke:#56271E;stroke-linecap:round;stroke-linejoin:round;stroke-miterlimit:10;" d="M453.342,173.902
					c0,0,4.203-0.655,6.513,9.055"/>
				<path style="fill:none;stroke:#56271E;stroke-linecap:round;stroke-linejoin:round;stroke-miterlimit:10;" d="M455.041,187.3
					c0,0-1.294-9.299,0.998-12.25"/>
			</g>
		</g>
		<g>
			<g>
				<path style="fill:#FF7767;" d="M453.333,337.333l28.042-8.833c1.333-12.167-5.34-16.188-5.34-16.188l-28.042,8.833
					C447.993,321.145,445.333,329.5,453.333,337.333z"/>
				<path style="fill:#F2D6D9;" d="M454.475,327.949c1.23,3.597,1.133,6.887-0.217,7.348c-1.35,0.462-3.441-2.08-4.671-5.677
					c-1.23-3.597-1.133-6.887,0.217-7.348C451.154,321.81,453.245,324.352,454.475,327.949z"/>
			</g>
			<g>
				<path style="fill:#996452;" d="M451.242,315.784c1.104,1.104,0,4.573,1.262,6.306c1.262,1.732,5.204,3.314,6.623,4.576
					c1.419,1.262,2.523,5.362,3.312,6.939s2.996,0.158,3.942,0.631c0.946,0.473,2.05-1.735,3.154-1.577
					c1.104,0.158,2.05,2.05,3.154,0.789s0.473-10.25,0.473-10.25s2.681,2.365,3.469,5.046c0.788,2.681,2.208,5.992,3.312,5.992
					c1.104,0,0.473-5.204,0-7.727c-0.473-2.523-4.258-8.673-8.277-10.566c-4.019-1.892-15.063-5.204-15.063-5.204
					s-11.805-25.795-16.848-36.725c-5.043-10.929,2.542-20.396,5.876-32.646c3.333-12.25-2.794-30.13-12.667-22.042
					c-9.873,8.088-15.898,47.502-14.252,56.045C421.075,287.631,451.242,315.784,451.242,315.784z"/>
				<g>
					<path style="fill:none;stroke:#56271E;stroke-linecap:round;stroke-linejoin:round;stroke-miterlimit:10;" d="M463.02,322.401
						c0,0,2.314,1.896,2.48,3.914c0.167,2.018,0,8.056,0,8.056"/>
					<path style="fill:none;stroke:#56271E;stroke-linecap:round;stroke-linejoin:round;stroke-miterlimit:10;" d="M468.19,320.667
						c0.644,0.667,2.144,6.667,1.31,12"/>
				</g>
			</g>
		</g>
	</g>
	<g>
		<g>
			<path style="fill:#D8584E;" d="M601.068,366.253c0,0-3.5-2-4.333,5.833c-0.833,7.833-0.167,28.833,4.333,30.833
				s8.171,3.111,10.833,3.008s9.198-18.841,9.198-18.841L601.068,366.253z"/>
			<path style="fill:#C4887E;" d="M569.036,363.111c13.526-1.276,60.699,9.142,67.699,16.892s5.75,15.25,0,18.25
				s-47.693-8.578-57.291-11.75C569.845,383.331,557.556,364.194,569.036,363.111z"/>
			<path style="fill:#C4887E;" d="M579.047,366.394c0,0,19.93,17,23.95,26.5c4.019,9.5,13.42,35.109,13.42,35.109
				s11.641,14.876,7.067,15.249c-8.046,0.655-7.891,3.974-13.172,5.501c-4.322,1.25-14.217,0.25-16.883-0.25
				c-2.666-0.5-4.584-2.75,0-4c4.584-1.25,14.562-7,15.562-10s-23.167-29.75-32.583-41.75c-9.417-12-17.394-23.058-10.644-28.058
				S576.926,364.535,579.047,366.394z"/>
			<path style="fill:#FF7767;" d="M601.068,366.253c0,0,15.5,18.015,10.833,39.674c0,0,20-0.508,25-3.674
				c5-3.167,7.419-10.538,4.626-17.019c-2.793-6.481-13.851-12.981-22.489-15.481S601.068,366.253,601.068,366.253z"/>
		</g>
		<g>
			<g>
				<path style="fill:#EDBDA2;" d="M570.915,319.275c-3.411-0.347-32.326-13.355-32.326-13.355s-0.512-6.221-3.966-8.915
					c-3.454-2.693-8.389-4.188-10.631-7.079c-2.242-2.891-3.229,1.339-1.763,3.878c1.466,2.538,3.895,3.783,3.895,3.783
					s-6.652-5.129-8.685-3.948c-2.034,1.18-0.458,4.302-0.816,5.089c-0.358,0.787-3.054,3.012-2.221,4.473s-1.012,5.107,0.073,5.603
					c1.084,0.496-0.918,2.842,0.922,3.735c1.84,0.893,16.543,0.663,19.127,1.982c3.925,2.004,24.687,19.141,31.63,20.944
					c6.943,1.803,39.644-8.907,43.763-11.295c3.087-1.79,3.923-5.278,3.025-8.889c-0.898-3.61-1.945-7.341-13.243-5.218
					C591.942,311.522,572.199,319.406,570.915,319.275z"/>
				<path style="fill:none;stroke:#9B5950;stroke-linecap:round;stroke-linejoin:round;stroke-miterlimit:10;" d="M526.124,297.588
					c0,0,1.999,3.014-0.497,3.564c-2.496,0.55-0.333,2.843-1.767,3.501c-1.434,0.658,0.253,4.049-1.225,4.779
					c-1.478,0.73-3.662,1.418-3.662,1.418"/>
			</g>
			<path style="fill:#BECC81;" d="M584.75,312.312c0,0-1.75,14.14,6.5,23.039c0,0,22.782-6.799,24.016-12.95
				c1.234-6.151-1.848-15.151-5.557-15.401C606,306.75,584.75,312.312,584.75,312.312z"/>
		</g>
		<g>
			<path style="fill:#6B60C0;" d="M615.833,303.5c0,0-10.167,0.667-13.833,3.833c-3.667,3.167,0,23.167,4.167,31
				c4.167,7.833,14.88,15.5,14.88,15.5s4.953,13.833,5.786,18c0.833,4.167,28.75,28.833,43.917,19.667c0,0-3.917-29.75-9.25-48.75
				s-13.5-36.917-28.833-40.083L615.833,303.5z"/>
			<path style="fill:none;stroke:#36337F;stroke-linecap:round;stroke-linejoin:round;stroke-miterlimit:10;" d="M641.072,312.556
				c0,0,14.095,26.777,16.095,42.61c2,15.833,4.49,38.314,4.49,38.314"/>
		</g>
		<g>
			<path style="fill:#AEE0FF;" d="M576.304,338.177l0.383-3.11c0.109-0.885-0.52-1.69-1.404-1.8l-1.302-0.161
				c-0.885-0.109-1.69,0.52-1.8,1.404l-0.383,3.11c-2.253,1.129-5.383,3.674-6.068,9.229c-1.097,8.891-2.763,22.409-2.763,22.409
				s1.669,2.951,6.776,3.58c5.107,0.63,7.443-1.827,7.443-1.827s1.667-13.517,2.763-22.409
				C580.633,343.049,578.215,339.819,576.304,338.177z"/>
			<path style="fill:#5097FF;" d="M576.171,334.034c-0.034,0.278-0.766,0.416-1.634,0.309c-0.868-0.107-1.544-0.419-1.51-0.697
				c0.034-0.278,0.766-0.416,1.634-0.309C575.529,333.444,576.205,333.756,576.171,334.034z"/>
			<g>
				<path style="fill:none;stroke:#5097FF;stroke-width:0.5;stroke-linecap:round;stroke-miterlimit:10;" d="M565.337,350.034
					c0,0,6.563,3.656,14.218,1.753"/>
				<path style="fill:none;stroke:#5097FF;stroke-width:0.5;stroke-linecap:round;stroke-miterlimit:10;" d="M565.078,352.137
					c0,0,6.563,3.656,14.218,1.753"/>
				<path style="fill:none;stroke:#5097FF;stroke-width:0.5;stroke-linecap:round;stroke-miterlimit:10;" d="M564.755,354.753
					c0,0,6.563,3.656,14.218,1.753"/>
			</g>
			<path style="fill:none;stroke:#FFFFFF;stroke-linecap:round;stroke-miterlimit:10;" d="M575.787,340.497
				c0,0,2.696,2.13,2.522,5.985c-0.174,3.855-2.886,22.876-2.886,22.876"/>
			<path style="opacity:0.4;fill:none;stroke:#5097FF;stroke-width:0.5;stroke-linecap:round;stroke-miterlimit:10;" d="
				M576.494,370.55c0,0-5.325-3.757-12.792-1.232"/>
		</g>
		<g>
			<path style="fill:#EDBDA2;" d="M573.808,352.843c-2.23-1.722-6.886-6.01-9.053-5.51c-2.167,0.5-1.553,3.836-1.053,5.003
				c0.5,1.167-0.273,1.425-0.736,2.592c-0.463,1.167,1.236,4.072,0.736,5.739c-0.5,1.667-1.006,2.691-0.173,4.024
				c0.833,1.333,11.945,6.485,15.279,5.652c3.333-0.833,35.621,2.109,43.714-2.333c8.093-4.442,14.453-18.333,19.286-28.5
				c4.833-10.167,7.833-22.667,2.667-26.5c-5.167-3.833-13.167,9-16.667,17.333c-3.5,8.333-6.846,22.5-9.006,23.333
				c-1.917,0.74-26.66,6.331-33.609,6.999c0.128-0.348,0.259-0.705,0.394-1.07c1.1-2.969-3.392-6.721-3.912-11.162
				c-0.521-4.442-1.421-6.362-3.878-2.998s1.911,7.801-0.623,9.001L573.808,352.843z"/>
			<path style="fill:#BECC81;" d="M643.167,310.333c-4.549-1.915-14.194,7.717-20.361,23.717c0,0,10.027,9.45,21.361,8.617
				c0,0,4.096-12.945,5-20C650.071,315.612,646.333,311.667,643.167,310.333z"/>
		</g>
		<g>
			<path style="fill:#D8584E;" d="M631.333,374.5c0,0-3.5-2-4.333,5.833c-0.833,7.833-0.167,28.833,4.333,30.833
				s8.171,3.111,10.833,3.008c2.662-0.103,9.198-18.841,9.198-18.841L631.333,374.5z"/>
			<path style="fill:#C4887E;" d="M599.301,371.358C612.827,370.082,660,380.5,667,388.25s5.75,15.25,0,18.25
				s-47.693-8.578-57.291-11.75C600.111,391.578,587.821,372.441,599.301,371.358z"/>
			<path style="fill:#EDBDA2;" d="M609.313,374.641c0,0,19.93,17,23.949,26.5c4.019,9.5,13.421,35.109,13.421,35.109
				s11.641,14.876,7.067,15.249c-8.046,0.655-7.891,3.974-13.172,5.501c-4.322,1.25-14.217,0.25-16.883-0.25
				c-2.666-0.5-4.584-2.75,0-4c4.584-1.25,14.562-7,15.562-10S616.089,413,606.673,401c-9.417-12-17.394-23.058-10.644-28.058
				S607.191,372.782,609.313,374.641z"/>
			<path style="fill:#FF7767;" d="M631.333,374.5c0,0,15.5,18.015,10.833,39.674c0,0,20-0.508,25-3.674s7.419-10.538,4.626-17.019
				C669,387,657.941,380.5,649.304,378C640.667,375.5,631.333,374.5,631.333,374.5z"/>
		</g>
		<path style="fill:none;stroke:#FFFFFF;stroke-linecap:round;stroke-miterlimit:10;" d="M639.028,387.408
			c0,0,21.639,6.926,24.139,8.592s-0.5-3.926,0-4.296c0.5-0.371,2.333,2.637,2.667,2.633c0.333-0.004,0-7.857,0-7.857"/>
		<g>
			<path style="fill:#D8584E;" d="M597.333,261.167c0,0-8.833,0.833-9.667-10c0,0-8.667-9-7.167-12.167s3.667,0.167,5-1.333
				s0-5,2.5-6.833c2.5-1.833,5.682,5.407,15,6.833c9.318,1.426,9.318,1.426,9.318,1.426L607.833,256L597.333,261.167z"/>
			<path style="fill:#EDBDA2;" d="M612.487,249c-11.312-1.218-16.321,0.333-18.154,13.333c-1.833,13,1.167,25.667,5.333,26.833
				c4.167,1.167,13.167,0,13.167,0s4.5,9,3,14.333c0,0-4.333,17-0.667,17.167c3.667,0.167,17.5-18,17.5-18s-4.167-0.333-5.167-8.167
				s0.833-23.167,1.167-30.333C629,257,623.321,250.167,612.487,249z"/>
			<path style="fill:#9B5950;" d="M612.487,268.256c0,0.637-0.517,1.154-1.154,1.154s-1.154-0.517-1.154-1.154
				c0-0.637,0.517-1.154,1.154-1.154S612.487,267.618,612.487,268.256z"/>
			<path style="fill:#C4887E;" d="M615.266,272.054c-0.015,0.66-1.271,1.167-2.806,1.131c-1.534-0.035-2.766-0.599-2.751-1.259
				c0.015-0.66,1.271-1.167,2.806-1.131C614.049,270.83,615.281,271.393,615.266,272.054z"/>
			<path style="fill:#9B5950;" d="M599.301,267.522c0,0.637-0.517,1.154-1.154,1.154c-0.637,0-1.154-0.517-1.154-1.154
				c0-0.637,0.517-1.154,1.154-1.154C598.785,266.368,599.301,266.884,599.301,267.522z"/>
			<path style="fill:#C4887E;" d="M599.301,271.319c-0.015,0.66-1.272,1.167-2.806,1.131c-1.534-0.035-2.766-0.599-2.751-1.259
				s1.271-1.167,2.806-1.131C598.085,270.096,599.316,270.659,599.301,271.319z"/>
			<path style="fill:none;stroke:#9B5950;stroke-linecap:round;stroke-linejoin:round;stroke-miterlimit:10;" d="M602.167,263.166
				c0,0,0.833,9.167-4.833,11.667c0,0,2.833,2.833,5.667,2.667"/>
			<path style="fill:none;stroke:#9B5950;stroke-linecap:round;stroke-linejoin:round;stroke-miterlimit:10;" d="M603,281.332
				c0,0,3.833,2.5,8.333-2.833"/>
			<path style="fill:#FF7767;" d="M625.332,267.522c0,0-7.166-1.522-7.832-11.522c0,0-15.167,1.833-14.5-18.333
				c0,0,9.833,1.333,15.833,2.667c6,1.333,12.675,1.167,12.837,9.667c0.163,8.5-4.048,28.499-4.048,28.499L625.332,267.522z"/>
			<path style="fill:#C4887E;" d="M620.124,298.742c2.291-0.504,5.177-5.523,7.086-10.136c0.002-2.104,0.081-4.373,0.206-6.691
				c-0.001,0.001-0.001,0.001-0.002,0.002c-5.42,6.496-14.581,7.249-14.581,7.249s1.462,2.931,2.442,6.438
				C616.451,297.609,618.059,299.197,620.124,298.742z"/>
			<g>
				<path style="fill:#C4887E;" d="M624.166,280.208l1.167-12.687c0,0,1.333-4.523,6.333-3.188
					C636.666,265.668,632.332,281.417,624.166,280.208z"/>
				<path style="fill:none;stroke:#9B5950;stroke-linecap:round;stroke-linejoin:round;stroke-miterlimit:10;" d="M625.074,270.336
					c0,0,5.122-5.503,8.69-1.169"/>
				<path style="fill:none;stroke:#9B5950;stroke-linecap:round;stroke-linejoin:round;stroke-miterlimit:10;" d="M627.737,279.628
					c0,0,4.096-4.61,3.929-11.952"/>
			</g>
		</g>
		<g>
			<path style="fill:#5F99C1;" d="M523.927,304.611c0,0-5.593,17.389-11.927,32.722c-6.333,15.333-9.337,19.836-13.835,22.251
				c-4.498,2.415-1.739,8.972-3.452,8.86c-1.713-0.112-8.342-1.445-11.528-1.112c-3.185,0.333-21.852,10.294-22.352,19.147
				s10.833,32.853,40.167,37.187c29.333,4.333,45-0.972,45.333-9.486c0.333-8.514-5.039-16.431-2.186-16.473
				c2.853-0.042,7.512-2.059,9.901-6.313C556.438,387.14,523.927,304.611,523.927,304.611z"/>
			<path style="fill:#407DA0;" d="M510.218,361c2.884-3,16.664-40.333,16.664-40.333l1.262-5.232
				c-2.549-6.589-4.217-10.824-4.217-10.824S518.333,322,512,337.333c-6.333,15.333-9.337,19.836-13.835,22.251
				c-4.498,2.415-1.739,8.972-3.452,8.86c-1.713-0.112-8.342-1.445-11.528-1.112c-3.185,0.333-21.852,10.294-22.352,19.147
				s10.833,32.853,40.167,37.186c29.333,4.333,45-0.972,45.333-9.486c0.047-1.211-0.029-2.406-0.172-3.572
				c-12.016,10.604-38.458,8.418-47.996,5.391c-10.502-3.333-19.498-20-16.614-24.605c2.885-4.605,13.116-2.395,16.614-2.448
				c3.498-0.053-1.165-10.614,1.502-12.947c2.667-2.333,10.551,1.861,10.551,1.861s-6.218-11.527-6.551-12.95
				C503.333,363.488,507.333,364,510.218,361z"/>
			<path style="fill:#26586D;" d="M523.233,306.164c-1.546,6.141-1.804,34.005,3.648,53.421s14.785,34.424,23.119,33.753
				s9-15.838,6-27.588S526.8,291.995,523.233,306.164z"/>
			<path style="fill:#153E4C;" d="M522.831,334.573c0.646,8.42,1.905,17.369,4.051,25.011c4.14,14.742,10.517,26.936,16.995,31.662
				c1.285-8.982-2.269-25.172-5.876-35.343C535.058,347.609,528.079,339.69,522.831,334.573z"/>
			<g>
				<g>
					<path style="fill:#FBF2F3;" d="M506.435,375.015c-0.843-0.755-1.83-0.435-4.378,0.323c-2.547,0.758-4.519,1.33-4.519,1.33
						l1.632,4.965l10.932-3.275L506.435,375.015z"/>
					<path style="fill:#F2D6D9;" d="M510.269,386.63c0.203-0.82,0.761-3.099,1.067-4.626c0.507-2.525-0.133-2.724-4.901-6.99
						c0,0,1.258,1.336,0.561,4.334c-0.566,2.436-1.178,5.138-1.388,6.066l-2.252-0.587l3.4,5.33l5.57-2.991L510.269,386.63z"/>
				</g>
				<g>
					<path style="fill:#FBF2F3;" d="M506.219,401.013c1.083-0.328,1.323-1.337,2.001-3.907s1.215-4.551,1.215-4.551l-5.089-1.189
						l-2.89,11.04L506.219,401.013z"/>
					<path style="fill:#F2D6D9;" d="M494.304,398.245c0.595,0.6,2.251,2.261,3.395,3.318c1.893,1.746,2.395,1.303,8.519-0.549
						c0,0-1.795,0.379-3.993-1.775c-1.786-1.75-3.775-3.679-4.459-4.341l1.673-1.618l-6.321,0.131l-0.344,6.313L494.304,398.245z"/>
				</g>
				<g>
					<path style="fill:#FBF2F3;" d="M484.037,387.748c-0.212,1.112,0.571,1.793,2.534,3.584c1.963,1.792,3.47,3.186,3.47,3.186
						l3.412-3.958l-8.443-7.678L484.037,387.748z"/>
					<path style="fill:#F2D6D9;" d="M492.013,378.474c-0.807,0.249-3.047,0.946-4.513,1.471c-2.425,0.867-2.265,1.518-3.462,7.804
						c0,0,0.496-1.767,3.424-2.715c2.379-0.771,5.01-1.64,5.913-1.939l0.658,2.233l2.814-5.662l-5.434-3.231L492.013,378.474z"/>
				</g>
			</g>
			<g>
				<path style="fill:none;stroke:#2C627A;stroke-linecap:round;stroke-linejoin:round;stroke-miterlimit:10;" d="M498.165,371.251
					c1.835,0.082,16.042,7.325,24.105,17.87"/>
				<path style="fill:none;stroke:#2C627A;stroke-linecap:round;stroke-linejoin:round;stroke-miterlimit:10;" d="M507.496,380.186
					c0,0,10.504,8.897,13.171,17.522"/>
			</g>
		</g>
	</g>
</g>
</svg>
