<?xml version="1.0" encoding="utf-8"?>
<!-- Generator: Adobe Illustrator 27.5.0, SVG Export Plug-In . SVG Version: 6.00 Build 0)  -->
<svg version="1.1" id="Ñëîé_1" xmlns="http://www.w3.org/2000/svg" xmlns:xlink="http://www.w3.org/1999/xlink" x="0px" y="0px"
	 viewBox="0 0 2600 2000" style="enable-background:new 0 0 2600 2000;" xml:space="preserve">
<g>
	<rect id="_x39_" style="fill:#E1EDF9;" width="2600" height="2000"/>
	<polygon id="_x38_" style="fill:#C3DCFC;" points="2600,408.469 2600,1088.269 0,1088.269 0,484.789 160.102,484.789 
		160.102,626.638 258.553,626.638 258.553,741.359 291.873,741.359 291.873,332.379 349.964,332.379 349.964,289.029 
		368.314,289.029 368.314,251.988 379.104,251.988 379.104,183.499 388.974,183.499 388.974,251.988 399.774,251.988 
		399.774,289.029 418.125,289.029 418.125,332.379 476.215,332.379 476.215,741.359 642.097,741.359 643.937,514.039 
		713.498,514.039 713.498,409.259 820.149,409.259 820.149,514.039 887.14,514.039 886.75,669.609 1011.842,669.609 
		1011.842,594.888 1141.173,594.888 1141.173,669.609 1216.604,669.609 1216.604,291.309 1274.695,291.309 1274.695,247.958 
		1293.045,247.958 1293.045,210.919 1303.845,210.919 1303.845,142.428 1313.705,142.428 1313.705,210.919 1324.515,210.919 
		1324.515,247.958 1342.865,247.958 1342.865,291.309 1400.946,291.309 1400.946,669.609 1566.818,669.609 1566.818,394.458 
		1755.77,394.458 1755.77,547.938 1920.092,547.938 1920.092,352.638 1995.033,352.638 1995.033,303.638 2013.393,303.638 
		2013.393,266.629 2024.173,266.629 2024.173,198.118 2034.043,198.118 2034.043,266.629 2044.834,266.629 2044.834,303.638 
		2063.204,303.638 2063.204,352.638 2138.145,352.638 2138.145,547.938 2268.846,547.938 2268.846,165.018 2475.569,165.018 
		2475.569,408.469 	"/>
	<g id="_x37__3_">
		<path style="fill:#C5E2FF;" d="M2599.315,1198.406h-827.287c10.239-241.113,57.936-475.225,298.08-515.183
			c73.275-14.186,151.615-3.897,221.74-24.585c42.392-10.739,63.788-51.403,69.067-97.405
			c21.8-129.443,154.745-213.234,238.5-213.037L2599.315,1198.406z"/>
		<path style="fill:#C0DAFF;" d="M2600,921.31c0,0-16.696-277.092-120.392-277.092c-156.102,0-183.127,420.006-327.33,336.88
			c-142.862-82.353-273.233-110.332-303.719,217.304l750.678,0.004L2600,921.31z"/>
		<path style="fill:#C5E2FF;" d="M1234.258,1121.959c-2.395,26.814-7.466,53.171-15.45,78.26H0.069V498.229
			c5.622-2.451,100.743-39.632,168.331,55.993c76.382,106.354,202.598-144.534,347.83-9.191
			c57.112,50.884,35.694,116.837,81.939,157.828c26.566,25.452,69.166,29.682,101.243,14.823
			c50.329-19.434,99.452-62.494,158.671-38.064c42.061,17.557,65.818,42.562,79.527,76.456
			c28.031,57.272-6.604,138.243,50.492,176.844c40.031,21.902,96.732,11.895,142.567,18.964
			C1227.854,959.619,1240.589,1057.585,1234.258,1121.959z"/>
		<path style="fill:#C0DAFF;" d="M881.871,1120.367c0.931,20.974-6.754,65.78-11.868,79.853H0.069V663.731
			c5.903-6.221,83.166-21.932,120.156,42.794c58.015,85.072,147.921-125.122,259.131,5.229
			c32.05,44.713,16.785,112.781,81.025,125.757c50.04,7.773,92.711-55.437,145.534-37.687
			c79.176,27.382,71.188,108.015,76.427,156.715C705.482,1070.753,881.191,928.534,881.871,1120.367z"/>
		<path style="fill:#B3CBF4;" d="M1097.246,1202.825c19.457-339.898,342.407-67.751,432.908-289.372
			c38.794-84.466,98.013-141.414,198.071-122.132c100.058,19.282,89.848,92.814,222.578,90.772
			c132.73-2.043,120.075-103.832,244.231-79.298c124.155,24.534,166.792,170.564,145.061,394.548L1097.246,1202.825z"/>
		<path style="fill:#A3BCEF;" d="M2600,921.31l-0.764,277.096l-907.272,1.796c0,0,160.558-128.206,295.174-114.079
			c67.764-2.348,147.297-18.448,210.784-41.208c56.236-18.516,93.014-44.667,127.455-81.092
			C2401.601,887.38,2516.286,825.672,2600,921.31z"/>
		<path style="fill:#A3BCEF;" d="M1451.905,1202.826c-410.534-0.776-1041.264-1.559-1451.814-2.341
			c0.268-1.501-0.515-192.071,0.271-193.427c21.047-92.326,95.072-121.743,198.689-36.964
			c43.069,28.501,86.536,72.543,147.717,62.632c179.085-70.748,154.561,100.088,290.191,84.483
			c60.76-12.737,102.008-75.148,172.272-63.21c34.871,6.939,72.663,37.85,105.346,47.24c38.245,13.992,70.668,19.969,107.546,22.606
			C1124.518,1134.186,1356.902,1092.031,1451.905,1202.826z"/>
	</g>
	<g id="_x36_">
		<g>
			<path style="fill:#527FBF;" d="M2520.756,868.018c-46.104-76.25-30.206-151.212-44.515-194.105
				c-14.254-42.729-39.554-101.398-86.274-101.845v-0.011c-0.09,0-0.178,0.005-0.268,0.005c-0.09-0.001-0.178-0.005-0.268-0.005
				v0.011c-46.72,0.447-72.02,59.116-86.274,101.845c-14.308,42.893,1.59,117.855-44.515,194.105
				c-46.049,76.159-18.967,190.76,130.789,192.423v0.008c0.09-0.001,0.178-0.003,0.268-0.004c0.09,0.001,0.178,0.003,0.268,0.004
				v-0.008C2539.723,1058.779,2566.805,944.178,2520.756,868.018z"/>
			<path style="fill:#3B679B;" d="M2439.133,773.19c-2.329-2.33-6.101-2.33-8.43,0l-38.379,38.397v-90.009
				c0-3.294-2.668-5.965-5.961-5.965s-5.961,2.67-5.961,5.965v221.461l-29.488-29.503c-2.329-2.33-6.101-2.33-8.43,0
				c-2.329,2.33-2.329,6.104,0,8.434l37.918,37.938v263.837c0,3.295,2.669,5.964,5.961,5.964s5.961-2.67,5.961-5.964v-395.29
				l46.809-46.831C2441.462,779.297,2441.462,775.52,2439.133,773.19z"/>
		</g>
		<g>
			<path style="fill:#7689D6;" d="M736.78,900.81c-11.456-44.964,34.159-59.57,51.651-71.33
				c26.757-17.987,26.757-34.576,26.757-61.082c0-16.574,16.616-69.07,55.839-68.029c39.223-1.041,55.839,51.455,55.839,68.029
				c0,26.506,0,43.095,26.757,61.082c17.492,11.759,63.107,26.365,51.651,71.33c-13.019,51.1,29.511,70.221,24.551,109.852
				c-4.955,39.593-75.756,65.531-158.683,65.579v0.001c-0.039,0-0.077-0.001-0.115-0.001c-0.039,0-0.077,0.001-0.115,0.001v-0.001
				c-82.926-0.048-153.728-25.986-158.683-65.579C707.269,971.032,749.798,951.91,736.78,900.81z"/>
			<path style="fill:#3B679B;" d="M944.144,873.262c-2.419-2.239-6.192-2.085-8.423,0.333l-58.734,63.617V792.706
				c0-3.295-2.669-5.965-5.961-5.965c-3.293,0-5.961,2.67-5.961,5.965v223.125l-68.915-68.951c-2.329-2.33-6.101-2.33-8.43,0
				c-2.329,2.33-2.329,6.104,0,8.434l77.344,77.385v181.82c0,3.294,2.669,5.964,5.961,5.964c3.293,0,5.961-2.67,5.961-5.964v-259.73
				l67.49-73.1C946.713,879.271,946.564,875.496,944.144,873.262z"/>
		</g>
		<g>
			<path style="fill:#7689D6;" d="M139.737,877.898c46.104-76.25-8.742-123.197,0-209.908
				c7.458-73.977,59.112-124.529,127.214-119.898c43.001,2.924,77.816,58.639,83.768,113.087
				c4.914,44.951,3.607,91.887,49.711,168.138c46.049,76.159,16.543,217.501-133.212,219.164v0.008
				c-0.09-0.001-0.178-0.003-0.268-0.004c-0.09,0.001-0.178,0.003-0.268,0.004v-0.008
				C118.541,1063.867,93.687,954.058,139.737,877.898z"/>
			<path style="fill:#3B679B;" d="M314.166,901.574c-2.329-2.33-6.101-2.33-8.43,0l-29.488,29.505V709.616
				c0-3.294-2.669-5.965-5.961-5.965c-3.293,0-5.961,2.67-5.961,5.965v90.011l-38.379-38.399c-2.329-2.33-6.101-2.33-8.43,0
				c-2.329,2.33-2.329,6.104,0,8.434l46.809,46.833v395.288c0,3.295,2.669,5.964,5.961,5.964c3.293,0,5.961-2.67,5.961-5.964
				V947.948l37.918-37.94C316.495,907.678,316.495,903.902,314.166,901.574z"/>
		</g>
		<g>
			<g>
				<path style="fill:#7689D6;" d="M1956.13,807.503c14.679-56.05-35.28-82.984-57.695-97.642
					c-34.287-22.422-52.545-45.484-65.609-97.61c-24.334-97.093-118.013-87.606-122.229,49.743
					c-3.16,102.922-92.579,97.387-76.18,192.889c16.688,63.7-37.381,66.875-24.814,125.095
					c10.508,48.678,110.52,87.23,172.548,87.23c118.269,0,203.933-37.574,211.569-96.485
					C2003.197,897.617,1939.447,871.201,1956.13,807.503z"/>
			</g>
			<path style="fill:#3B679B;" d="M1838.921,773.19c-2.329-2.33-6.101-2.33-8.43,0l-38.379,38.397v-90.009
				c0-3.294-2.669-5.965-5.962-5.965c-3.293,0-5.961,2.67-5.961,5.965v221.461l-29.488-29.503c-2.329-2.33-6.101-2.33-8.43,0
				c-2.328,2.33-2.328,6.104,0,8.434l37.918,37.938v263.837c0,3.295,2.669,5.964,5.961,5.964c3.293,0,5.962-2.67,5.962-5.964
				v-395.29l46.809-46.831C1841.25,779.297,1841.25,775.52,1838.921,773.19z"/>
		</g>
		<g>
			<path style="fill:#527FBF;" d="M384.358,955.343c-9.606-37.705,28.644-49.953,43.312-59.813
				c22.437-15.083,22.437-28.994,22.437-51.22c0-13.899,13.934-57.919,46.824-57.046c32.891-0.872,46.824,43.148,46.824,57.046
				c0,22.227,0,36.137,22.437,51.22c14.668,9.861,52.918,22.109,43.312,59.813c-10.917,42.85,24.746,58.884,20.587,92.116
				c-4.155,33.201-63.525,54.951-133.064,54.991v0.001c-0.032,0-0.064-0.001-0.097-0.001c-0.032,0-0.064,0.001-0.097,0.001v-0.001
				c-69.538-0.04-128.909-21.79-133.064-54.991C359.612,1014.227,395.274,998.192,384.358,955.343z"/>
			<path style="fill:#3B679B;" d="M558.896,931.534c-2.417-2.237-6.192-2.083-8.423,0.333l-47.582,51.538V864.69
				c0-3.294-2.669-5.965-5.961-5.965c-3.293,0-5.961,2.67-5.961,5.965v184.779l-56.144-56.176c-2.329-2.33-6.101-2.33-8.43,0
				c-2.329,2.33-2.329,6.104,0,8.434l64.574,64.61v152.065c0,3.295,2.669,5.965,5.961,5.965c3.293,0,5.961-2.67,5.961-5.965
				v-217.419l56.337-61.022C561.465,937.541,561.316,933.769,558.896,931.534z"/>
		</g>
		<g>
			<path style="fill:#7689D6;" d="M2049.499,955.343c-9.606-37.705,28.644-49.953,43.312-59.813
				c22.437-15.083,22.437-28.994,22.437-51.22c0-13.899,13.933-57.919,46.824-57.046c32.891-0.872,46.824,43.148,46.824,57.046
				c0,22.227,0,36.137,22.437,51.22c14.668,9.861,52.918,22.109,43.312,59.813c-10.917,42.85,24.746,58.884,20.587,92.116
				c-4.155,33.201-63.525,54.951-133.063,54.991v0.001c-0.032,0-0.064-0.001-0.097-0.001c-0.032,0-0.064,0.001-0.097,0.001v-0.001
				c-69.538-0.04-128.909-21.79-133.064-54.991C2024.752,1014.227,2060.415,998.192,2049.499,955.343z"/>
			<path style="fill:#3B679B;" d="M2224.037,931.534c-2.417-2.237-6.192-2.083-8.423,0.333l-47.582,51.538V864.69
				c0-3.294-2.669-5.965-5.961-5.965s-5.961,2.67-5.961,5.965v184.779l-56.144-56.176c-2.329-2.33-6.101-2.33-8.43,0
				s-2.329,6.104,0,8.434l64.574,64.61v152.065c0,3.295,2.669,5.965,5.961,5.965s5.961-2.67,5.961-5.965v-217.419l56.337-61.022
				C2226.605,937.541,2226.456,933.769,2224.037,931.534z"/>
		</g>
	</g>
	<g id="_x35_">
		<path id="_x38__1_" style="fill:#FFFFFD;" d="M713.63,152.167c20.344,0,38.437,10.316,49.969,26.332
			c19.748-12.838,51.402-10.414,68.463,5.212c19.575-25.234,53.869-12.491,61.71,18.26c21.739-23.343,58.789-3.627,57.774,28.537
			H651.372C644.803,190.705,675.026,151.6,713.63,152.167z"/>
		<path id="_x37__1_" style="fill:#FFFFFD;" d="M1613.376,205.179c20.344,0,38.438,10.316,49.97,26.332
			c19.748-12.838,51.402-10.414,68.463,5.212c19.575-25.234,53.869-12.491,61.71,18.26c21.739-23.343,58.789-3.627,57.773,28.537
			h-300.174C1544.549,243.717,1574.772,204.613,1613.376,205.179z"/>
	</g>
	<g id="_x34_">
		<rect x="0.116" y="1179.383" style="fill:#C5E2FF;" width="2598.633" height="820.617"/>
		<rect y="1236.481" style="fill:#A3BCEF;" width="2600" height="763.519"/>
		<rect y="1850.434" style="fill:#C5E2FF;" width="2600" height="149.566"/>
	</g>
	<g id="_x33_">
		<path style="fill:#527FBF;" d="M1359.273,1999.998H0.009v-413.072c173.322-6.756,306.922,72.59,357.876,254.394
			c66.668,148.349,218.197-82.093,323.789-88.978c18.524-3.664,37.413-4.048,56.601,0.143
			c96.343,21.032,89.542,180.939,229.079,180.939c152.616,0,135.145-66.584,242.212-59.214
			C1324.842,1882.145,1359.273,1999.998,1359.273,1999.998z"/>
		<path style="fill:#7689D6;" d="M624.902,1920.784c-24.661,28.059-51.744,54.611-79.069,79.216H172.72
			c77.725-93.204,164.731-185.84,270.107-248.21C619.374,1642.18,780.129,1719.879,624.902,1920.784z"/>
		<path style="fill:#4867AA;" d="M624.902,1920.784c-3.745,4.378-7.712,8.768-11.679,12.993
			c-61.474-93.167-68.741-182.954-65.726-226.484c5.719-1.366,13.276-2.438,18.953-3.399
			C564.058,1747.25,566.12,1827.119,624.902,1920.784z"/>
		<path style="fill:#4867AA;" d="M509.852,2000h-18.762c-47.491-73.018-71.16-158.426-57.956-242.458
			c5.663-3.499,11.464-7.097,17.227-10.321C437.101,1835.604,460.182,1922.803,509.852,2000z"/>
		<path style="fill:#4867AA;" d="M343.742,2000h-17.377c-13.746-50.104-17.339-102.423-9.668-153.412
			c5.461-4.994,10.975-9.882,16.541-14.693c1.855,2.092,2.508,4.915,1.907,7.503c-3.815,21.307-5.592,43.321-5.278,65.412
			C329.962,1936.74,335.712,1968.654,343.742,2000z"/>
		<path style="fill:#4867AA;" d="M286.23,1363.998c-0.079,3.896-0.235,7.791-0.418,11.713
			c-2.822,58.876-16.619,121.621-36.896,185.229c-2.639,8.34-5.409,16.68-8.257,25.046C190.097,1733.489,108.335,1883.66,51.45,2000
			H0v-644.604c17.481-29.961,38.986-56.863,60.047-82.772c54.716-66.719,105.827-88.445,145.545-77.464
			c6.036,1.647,11.784,4.078,17.271,7.216c37.366,21.307,61.328,75.634,63.235,149.334
			C286.23,1355.736,286.256,1359.841,286.23,1363.998z"/>
		<path style="fill:#C5E2FF;" d="M126.156,1437.567c-21.845,58.039-42.749,117.177-62.372,176.262
			c30.703,0,115.312-24.575,185.132-52.889c-2.639,8.34-5.409,16.68-8.257,25.046c-77.946,36.811-161.824,47.608-184.035,49.673
			c-15.991,48.863-38.855,124.968-53.906,176.68c-0.94,3.242-1.855,6.379-2.718,9.412v-65.543
			c13.771-48.785,31.513-98.667,39.953-129.099c-14.345-23.817-27.724-50.954-39.953-80.941v-51.869
			c4.311,11.163,7.813,20.654,8.388,22.17c11.968,32.079,25.216,61.125,39.483,86.589c19.101-57.334,39.378-114.667,60.517-171.059
			c-24.013-48.785-40.188-118.144-48.341-159.373c2.012-2.353,3.998-4.654,5.984-6.876c2.718-3.085,5.461-6.091,8.231-9.046
			c10.949,37.752,20.617,100.052,43.428,150.745c45.336-118.745,80.664-196.576,87.902-212.288
			c6.036,1.647,11.784,4.078,17.271,7.216c-4.389,9.699-39.587,85.674-87.379,210.615c32.27-9.359,99.974-37.124,150.614-61.281
			c0.131,4.026,0.157,8.131,0.131,12.288c-0.079,3.896-0.235,7.791-0.418,11.713
			C225.764,1406.482,149.543,1430.508,126.156,1437.567z"/>
		<path style="fill:#C5E2FF;" d="M164.672,1768.94c-3.905,8.73-7.936,17.416-11.942,26.065
			c-44.373,20.118-107.57,36.905-152.73,43.451v-25.752c19.917-2.684,47.578-6.296,75.307-14.327
			c28.325-8.262,55.579-18.353,80.925-29.935C159.107,1767.136,162.164,1767.424,164.672,1768.94z"/>
		<path style="fill:#3B679B;" d="M383.357,1791.286c-33.977,71.746-80.27,145.807-123.984,208.711H11.841
			c38.604-102.27,105.361-287.454,193.505-368.747C327.371,1518.712,466.35,1607,383.357,1791.286z"/>
		<path style="fill:#7689D6;" d="M330.1,1768.078c-41.831,84.371-90.16,160.091-142.34,231.919H11.841
			c52.938-126.699,146.418-443.352,320.413-417.153C358.345,1586.773,368.433,1685.635,330.1,1768.078z"/>
	</g>
	<g id="_x32_">
		<path style="fill:#527FBF;" d="M1572.286,1999.998c0,0,39.06-126.132,127.001-134.946c87.94-8.814,120.221,73.014,207.388,47.174
			c87.167-25.841-3.355-164.164,120.463-205.901c123.818-41.737,572.863-19.416,572.863-19.416l-0.012,313.09H1572.286z"/>
		<path style="fill:#7689D6;" d="M2518.07,2000h-394.436c-68.83-63.22-131.521-138.599-164.195-225.659
			c-62.701-144.499,13.249-246.026,162.206-184.672v0.026c0.646,0.233,1.266,0.491,1.911,0.75c0,0.026,0,0.026,0,0.026
			c66.548,26.802,120.807,76.96,170.524,129.188v0.026C2370.756,1800.526,2453.79,1909.8,2518.07,2000z"/>
		<path style="fill:#C5E2FF;" d="M2345.066,2000h-24.589c-25.906-24.421-51.762-49.515-76.997-74.711
			c-59.713,11.77-139.003,8.797-191.238,1.034c-5.976-6.947-11.76-14.011-17.383-21.217c38.589,5.918,121.371,15.661,193.124,4.626
			c-39.466-39.798-78.417-80.758-115.972-122.029c-48.909,4.85-115.182-5.693-152.572-13.36c-3.275-6.779-5.824-13.602-8.04-20.393
			c32.312,6.771,96.659,18.662,145.192,16.775c-81.026-89.958-129.811-152.512-137.818-162.901
			c3.735-4.802,7.731-9.424,12.441-13.241c1.668,2.023,49.383,64.788,136.767,161.98c5.425-34.396,13.896-108.462,13.664-166.866
			c0.646,0.233,1.266,0.491,1.911,0.75c0,0.026,0,0.026,0,0.026c5.802,2.331,12.419,4.445,17.335,7.626
			c-0.259,68.767-13.306,150.841-17.49,175.495c38.64,42.46,78.727,84.635,119.408,125.57
			c12.881-28.951,30.041-117.439,36.109-195.164c5.104,5.178,10.075,10.371,15.161,15.661
			c-2.056,90.72-29.316,171.99-37.194,193.665C2284.032,1940.355,2317.222,1973.847,2345.066,2000z"/>
		<path style="fill:#3B679B;" d="M2530.444,1999.998h-160.047c-121.875-160.207-271.343-420.826-241.154-636.643
			c26.52-147.996,165.575-121.174,232.163-13.619C2476.486,1535.618,2511.17,1790.253,2530.444,1999.998z"/>
		<path style="fill:#7689D6;" d="M2530.444,1999.998h-95.834c-100.852-130.096-206.246-313.918-238.42-489.786
			c-15.186-97.824-23.482-201.594,62.926-244.576C2452.454,1316.754,2515.86,1829.729,2530.444,1999.998z"/>
		<path style="fill:#4867AA;" d="M2600,1304.651V2000h-80.562c-19.974-45.132-47.415-113.503-68.137-173.818h-0.026
			c-1.679-4.936-3.332-9.924-4.986-14.911c-41.73-125.939-78.854-265.558-68.163-399.554
			C2384.378,1264.698,2487.437,1145.512,2600,1304.651z"/>
		<path style="fill:#C5E2FF;" d="M2600,1381.513v20.795c-101.537-7.529-173.6-47.554-207.789-71.659
			c2.001-6.965,4.559-14.905,7.284-19.806C2434.287,1334.239,2497.786,1373.243,2600,1381.513z"/>
		<path style="fill:#C5E2FF;" d="M2600,1535.486v20.795c-85.402-5.705-160.621-33.678-223.641-86.126
			c-0.148-8.18-0.153-16.324,0.059-24.458C2441.497,1495.36,2512.386,1531.491,2600,1535.486z"/>
		<path style="fill:#C5E2FF;" d="M2600,1703.481v20.958c-75.292-12.327-145.775-44.121-203.838-92.214
			c-2.886-10.709-4.276-21.837-6.411-32.709C2448.349,1651.929,2521.272,1690.375,2600,1703.481z"/>
		<path style="fill:#C5E2FF;" d="M2600,1877.712v20.984c-48.895-8.632-99.288-30.546-143.197-56.828
			c-1.86-5.194-3.667-10.415-5.501-15.687h-0.026c-1.679-4.936-3.332-9.924-4.986-14.911c16.609,10.518,44.349,26.178,61.086,34.293
			C2536.977,1860.01,2569.754,1871.588,2600,1877.712z"/>
	</g>
	<g id="_x31_">
		<path style="fill:#662948;" d="M1225.312,327.654c0,0,53.043-12.547,82.838,50.734c19.501,41.419,2.009,39.559,33.429,84.575
			c37.506,53.735-28.936,88.185-55.422,94.905c-34.74,8.814-11.161,59.892-80.021,56.735
			C1137.276,611.446,984.753,376.312,1225.312,327.654z"/>
		<path style="fill:#F99370;" d="M1314.354,587.106c49.318,52.204,79.416,119.4,103.353,185.894
			c10.724,32.21,19.775,65.199,34.717,95.825c20.946,44.362,48.339,86.571,84.298,120.272c15.363,14.346-4.116,39.265-21.714,27.757
			c-17.149-10.82-32.945-23.701-47.878-37.329c-40.607-37.166-74.503-81.587-101.258-129.661
			c-33.264-63.825-68.266-131.375-125.138-177.004c-0.042,0.077,0.341,0.376,0.399,0.441
			C1184.971,625.152,1257.8,539.487,1314.354,587.106z"/>
		<path style="fill:#F99370;" d="M1442.524,1736.207l-142.266-3.305c6.984-40.62,0.367-131.644-4.339-174.875l81.726,1.899
			l-15.652,104.729c-1.846,12.35,5.278,24.323,17.053,28.508c26.072,10.703,56.417,6.415,72.712,27.677
			C1455.803,1727.734,1450.52,1736.392,1442.524,1736.207z"/>
		<path style="fill:#103663;" d="M1296.258,1719.13c0.467,4.815,1.685,9.511,3.997,13.774l143.577,3.335
			c6.974,0.162,12.133-6.587,9.974-13.214c-0.026-0.079-0.051-0.158-0.078-0.237c-5.003-15.17-23.609-38.1-89.479-43
			c0,0-22.664,6.169-59.509-1.382C1304.741,1678.405,1294.335,1699.608,1296.258,1719.13z"/>
		<path style="fill:#E8C0A6;" d="M1411.992,1716.97c1.018-0.1,1.952-0.734,2.388-1.738c5.621-12.973,15.436-16.702,15.534-16.738
			c1.508-0.553,2.283-2.222,1.726-3.729c-0.548-1.508-2.215-2.306-3.728-1.726c-0.498,0.182-12.261,4.645-18.866,19.877
			c-0.639,1.473,0.036,3.187,1.509,3.826C1411.024,1716.944,1411.52,1717.016,1411.992,1716.97z"/>
		<path style="fill:#E8C0A6;" d="M1389.468,1713.721c1.102-0.108,2.097-0.851,2.472-1.972c5-14.906,18.25-21.534,18.386-21.601
			c1.439-0.707,2.038-2.447,1.332-3.89c-0.706-1.444-2.438-2.039-3.89-1.332c-0.632,0.311-15.574,7.79-21.339,24.978
			c-0.51,1.518,0.31,3.169,1.833,3.678C1388.661,1713.716,1389.071,1713.76,1389.468,1713.721z"/>
		<path style="fill:#E8C0A6;" d="M1363.828,1709.964c1.066-0.104,2.035-0.8,2.437-1.876c5.796-15.46,18.535-23.662,18.661-23.741
			c1.358-0.858,1.765-2.651,0.907-4.009c-0.854-1.358-2.638-1.77-4-0.912c-0.591,0.37-14.505,9.261-21.009,26.623
			c-0.565,1.501,0.196,3.18,1.701,3.74C1362.955,1709.951,1363.396,1710.006,1363.828,1709.964z"/>
		<path style="fill:#0F2E54;" d="M1453.729,1722.787l-157.47-3.658c0.467,4.815,1.685,9.511,3.997,13.774l143.577,3.335
			c6.974,0.162,12.133-6.587,9.974-13.214C1453.781,1722.945,1453.755,1722.867,1453.729,1722.787z"/>
		<path style="fill:#EB5648;" d="M1515.702,967.379c0,0-18.338,4.892-26.302,31.194c-42.592,9.703-78.618-25.959-114.403-63.641
			c-102.864-93.462-105.917-241.457-113.151-365.925c0.025,0,0.025-0.025,0-0.049c-0.369-6.538-0.54-10.226-0.54-10.226s0,0,0.024,0
			v0.025c0.604,0.112,3.968,0.926,9.513,2.655v0.025c114.13,20.674,139.324,191.504,183.72,280.41
			C1480.884,894.756,1517.607,923.492,1515.702,967.379z"/>
		<path style="fill:#F99370;" d="M1064.698,1732.308l-123.188-71.174c25.65-32.274,63.603-115.291,80.257-155.472l70.766,40.887
			l-64.071,84.35c-7.556,9.947-7.063,23.867,1.252,33.19c17.722,21.9,46.397,32.702,50.469,59.172
			C1080.418,1731.25,1071.622,1736.308,1064.698,1732.308z"/>
		<path style="fill:#103663;" d="M944.623,1647.134c-1.905,4.447-3.094,9.151-3.116,14l124.323,71.83
			c6.039,3.489,13.808,0.044,15.1-6.804c0.015-0.082,0.03-0.163,0.045-0.245c2.905-15.707-2.393-44.749-57.809-80.659
			c0,0-22.843-5.466-51.529-29.772C971.639,1615.484,952.32,1629.088,944.623,1647.134z"/>
		<path style="fill:#CE3932;" d="M1336.079,634.941c0,0,42.096,36.525,45.525,70.146c3.429,33.621-21.048,72.533-6.613,110.19
			c14.435,37.657,48.044,89.988,23.394,122.505l-70.466-57.233L1336.079,634.941z"/>
		<path style="fill:#E8C0A6;" d="M1048.313,1701.012c0.624,0.004,1.253-0.2,1.785-0.611c11.065-8.595,21.263-7.289,21.688-7.218
			c1.545,0.217,3.055-0.872,3.286-2.462c0.23-1.585-0.855-3.055-2.44-3.29c-0.514-0.084-12.992-1.807-26.103,8.382
			c-1.266,0.983-1.497,2.812-0.51,4.078C1046.591,1700.627,1047.45,1701.012,1048.313,1701.012z"/>
		<path style="fill:#E8C0A6;" d="M1030.114,1687.352c0.704,0,1.413-0.253,1.971-0.771c11.482-10.601,26.369-10.127,26.519-10.127
			c1.484,0.004,2.954-1.178,3.024-2.781c0.071-1.599-1.169-2.954-2.767-3.029c-0.7-0.04-17.402-0.642-30.717,11.668
			c-1.182,1.09-1.253,2.927-0.164,4.11C1028.551,1687.041,1029.331,1687.352,1030.114,1687.352z"/>
		<path style="fill:#E8C0A6;" d="M1009.436,1671.751c0.673,0,1.35-0.23,1.895-0.704c12.584-10.84,27.626-11.859,27.777-11.868
			c1.603-0.093,2.825-1.47,2.728-3.073c-0.098-1.612-1.55-2.856-3.073-2.728c-0.695,0.04-17.172,1.156-31.222,13.267
			c-1.218,1.045-1.355,2.882-0.306,4.1C1007.806,1671.41,1008.621,1671.751,1009.436,1671.751z"/>
		<path style="fill:#0F2E54;" d="M1080.976,1725.915l-136.353-78.781c-1.905,4.447-3.094,9.151-3.116,14l124.323,71.83
			c6.039,3.489,13.808,0.044,15.1-6.804C1080.946,1726.079,1080.961,1725.997,1080.976,1725.915z"/>
		<path style="fill:#CE4ABF;" d="M1451.579,1596.16c-1.106,8.827-2.254,16.798-3.422,23.841
			c-106.739,41.172-221.741-9.192-221.741-9.192c0.824-3.36,1.628-6.719,2.41-10.058c1.148-4.873,2.264-9.724,3.339-14.555
			c56.437-253.418,15.139-452.57,15.139-452.57c-27.535,229.285-46.587,333.488-100.979,461.887h-0.01
			c-3.36,7.951-6.865,15.995-10.517,24.175c-118.811,14.972-214.771-61.664-214.771-61.664c4.539-7.137,8.89-14.211,13.074-21.233
			c155.653-262.047,64.106-451.244,158.439-635.382c116.15,35.058,293.213,10.903,293.213,10.903
			C1475.702,1090.43,1469.421,1453.518,1451.579,1596.16z"/>
		<path style="fill:#F99370;" d="M1261.285,558.691c3.405-29.664-1.24-72.445-5.381-90.066
			c-7.874-34.773-62.254-21.545-53.431,12.848c1.777-1.117,7.467,61.811,3.539,79.282
			C1154.28,576.259,1309.869,627.241,1261.285,558.691z"/>
		<path style="fill:#E57D61;" d="M1201.944,478.609c0.064,0.4,0.112,0.816,0.192,1.216c0.096,0.56,0.208,1.104,0.336,1.648
			c1.281-0.848,4.869,33.873,4.901,59.073c23.704,10.768,50.131,6.032,54.968,5.04c1.057-26.64-3.091-59.665-5.253-72.017
			c-0.641-2.896-1.105-4.592-1.185-4.944c-0.192-0.784-0.416-1.552-0.673-2.304c-2.643-7.904-8.633-13.904-15.969-16.8
			c-0.016,0-0.016,0-0.016,0c-5.093-2-10.811-2.496-16.529-1.12c-5.654,1.376-10.475,4.4-14.063,8.448
			c-0.16,0.16-0.305,0.336-0.448,0.496C1203.37,463.089,1200.903,470.753,1201.944,478.609z"/>
		<path style="fill:#A523A2;" d="M1243.142,937.958l-10.428-0.351c-0.051,1.501-5.489,152.521-42.515,355.004
			c-31.692,173.315-71.252,276.213-82.188,302.69c-12.918-0.674-25.136-1.942-36.649-3.662
			c15.353-36.872,55.018-138.61,80.064-261.21c31.379-153.595,48.934-389.896,49.108-392.266l-10.406-0.763
			c-0.173,2.362-17.678,237.995-48.924,390.94c-25.432,124.486-66.021,227.243-80.422,261.56
			c-19.126-3.435-36.136-8.082-50.999-13.21c9.236-15.884,25.947-46.447,43.719-87.862c24.567-57.253,56.293-147.636,67.923-253.088
			c22.09-200.299,42.164-303.13,42.363-304.145l-10.236-2.019c-0.201,1.019-20.353,104.215-42.498,305.019
			c-11.478,104.07-42.791,193.328-67.038,249.879c-18.27,42.61-35.37,73.542-44.196,88.594
			c-15.092-5.778-27.626-11.917-37.562-17.473c29.896-44.247,56.116-99.909,76.016-161.474
			c24.204-74.883,38.349-155.383,42.042-239.264c4.025-91.431,17.087-151.74,27.336-186.234
			c11.096-37.347,21.37-53.291,21.473-53.448l-8.714-5.739c-1.738,2.634-42.664,66.553-50.519,244.961
			c-6.623,150.421-50.131,297.85-116.645,395.906c-12.388-7.642-18.829-13.239-19.146-13.516
			c-4.184,7.022-8.535,14.096-13.074,21.233c0,0,95.961,76.637,214.771,61.664c3.652-8.18,7.157-16.225,10.517-24.175
			c-9.375,0.376-18.438,0.426-27.21,0.21c12.866-31.846,50.799-134.116,81.357-301.235
			C1237.636,1091.196,1243.091,939.467,1243.142,937.958z"/>
		<path style="fill:#A523A2;" d="M1426.762,1600.427c2.891-38.212,9.85-144.897,10.854-297.217
			c0.664-100.784-18.97-200.439-35.559-266.293c-17.969-71.333-36.364-119.57-36.548-120.049l-9.742,3.737
			c0.182,0.475,18.395,48.251,36.212,119.02c16.422,65.226,35.86,163.89,35.203,263.517
			c-1.022,155.229-8.239,262.888-10.997,298.771c-12.176,1.596-23.771,2.71-34.779,3.42c3.177-37.504,13.421-168.61,13.671-302.147
			c0.296-157.673-50.492-371.669-51.006-373.812l-10.146,2.429c0.51,2.131,51.012,214.945,50.719,371.364
			c-0.252,134.95-10.745,267.445-13.756,302.733c-13.292,0.572-25.664,0.558-37.097,0.113
			c5.496-32.642,17.117-114.063,24.209-252.868c9.505-186.025-38.451-414.165-38.937-416.447l-10.205,2.171
			c0.482,2.269,48.155,229.104,38.722,413.743c-7.169,140.306-18.947,221.537-24.277,252.865
			c-11.688-0.752-22.284-1.944-31.767-3.375c7.869-38.649,34.024-181.471,27.638-343.914
			c-7.447-189.459-36.135-311.24-36.424-312.448l-10.147,2.426c0.286,1.199,28.741,122.082,36.146,310.432
			c6.366,161.963-19.843,304.243-27.509,341.785c-12.746-2.338-23.054-5.031-30.873-7.44
			c61.155-233.637,20.916-491.494,20.916-491.494c-11.185,27.003-23.977,32.178-23.977,32.178s41.297,199.151-15.14,452.569l0,0
			c-0.758,3.402-1.543,6.819-2.335,10.24c-0.27,1.161-0.538,2.322-0.811,3.485c-0.849,3.619-1.711,7.245-2.603,10.888
			c0,0,115.002,50.364,221.741,9.192c1.169-7.043,2.316-15.014,3.422-23.841C1443.067,1597.808,1434.799,1599.219,1426.762,1600.427
			z"/>
		<path style="fill:#EB5648;" d="M1397.242,914.725c-38.002,67.561-333.963,42.816-319.708-16.934
			c1.974-21.957,23.477-46.557,23.349-70.823c-2.956-114.912,25.834-215.317,84.857-262.607c5.027-0.905,15.211-2.721,20.256-3.613
			c44.419,28.392,54.276,18.338,55.849,8.259c0.025,0,0.025-0.025,0-0.049c0.791-4.807-0.429-9.639-0.492-10.201c0,0,0,0,0.025,0
			c18.345,12.526,43.421,40.756,74.701,76.184c36.878,43.622,47.663,73.464,29.707,133.894
			c-12.16,40.924,17.911,83.945,28.703,115.459C1398.078,894.764,1399.626,904.867,1397.242,914.725z"/>
		<polygon style="fill:#163356;" points="1477.385,770.701 1411.654,773.296 1452.207,648.948 1517.939,646.353 		"/>
		<polygon style="fill:#2E619E;" points="1446.495,643.236 1452.207,648.948 1411.654,773.296 1405.942,767.584 		"/>
		<polygon style="fill:#2E619E;" points="1512.227,640.641 1517.939,646.353 1452.207,648.948 1446.495,643.236 		"/>
		<path style="fill:#F99370;" d="M1418.817,741.728c0.917-0.546,2.046-1.276,3.081-1.955c1.057-0.699,2.113-1.407,3.162-2.141
			c2.103-1.451,4.18-2.962,6.228-4.51c4.096-3.099,8.061-6.369,11.875-9.793c3.789-3.445,7.367-7.077,10.734-10.877
			c3.295-3.841,6.284-7.883,8.864-12.143l0.099-0.163c1.404-2.318,4.421-3.058,6.739-1.654c2.135,1.294,2.931,3.957,1.945,6.18
			c-2.317,5.242-5.112,10.211-8.222,14.924c-3.168,4.652-6.58,9.114-10.208,13.361c-3.649,4.221-7.469,8.279-11.452,12.17
			c-1.993,1.945-4.022,3.854-6.106,5.72c-1.035,0.938-2.094,1.861-3.161,2.78c-1.095,0.933-2.111,1.796-3.375,2.792l-0.065,0.051
			c-3.889,3.065-9.526,2.397-12.591-1.491c-3.065-3.889-2.397-9.526,1.492-12.591
			C1418.151,742.156,1418.502,741.919,1418.817,741.728z"/>
		<path style="fill:#F99370;" d="M1426.052,746.527c0.053,0.004,0.366-0.099,0.608-0.172c0.242-0.068,0.525-0.172,0.799-0.267
			c0.547-0.182,1.106-0.388,1.676-0.618c1.133-0.416,2.272-0.946,3.416-1.432c2.269-1.066,4.537-2.206,6.739-3.497
			c4.406-2.568,8.688-5.488,12.613-8.865c3.922-3.37,7.706-6.995,11.003-11.067c1.756-1.957,3.234-4.127,4.809-6.247
			c0.82-1.041,1.461-2.195,2.181-3.305l2.124-3.365l0.201-0.319c1.443-2.288,4.468-2.972,6.755-1.529
			c2.116,1.335,2.86,4.024,1.817,6.23l-1.872,3.973c-0.643,1.318-1.211,2.682-1.968,3.943c-1.447,2.558-2.823,5.183-4.51,7.615
			c-3.156,5.018-6.92,9.655-10.954,14.065c-4.04,4.419-8.561,8.409-13.385,12.066c-2.41,1.835-4.943,3.53-7.547,5.16
			c-1.337,0.781-2.644,1.586-4.051,2.317c-0.684,0.376-1.394,0.743-2.133,1.099c-0.365,0.18-0.719,0.359-1.128,0.539
			c-0.406,0.182-0.737,0.344-1.341,0.58l-3.062,1.197c-4.826,1.887-10.268-0.496-12.155-5.322
			c-1.887-4.826,0.496-10.268,5.323-12.155C1423.324,746.636,1424.73,746.444,1426.052,746.527z"/>
		<path style="fill:#F99370;" d="M1428.288,757.181c0.183-0.063,0.474-0.186,0.755-0.303l0.85-0.363
			c0.578-0.256,1.155-0.501,1.741-0.78c1.169-0.531,2.336-1.1,3.505-1.679c2.336-1.158,4.642-2.409,6.935-3.695
			c4.568-2.602,8.997-5.469,13.255-8.559c4.289-3.065,8.302-6.463,12.117-10.065l2.813-2.753c0.901-0.947,1.762-1.927,2.65-2.892
			l1.326-1.454l1.224-1.525l2.454-3.066l0.231-0.289c1.69-2.112,4.773-2.454,6.885-0.763c1.953,1.563,2.391,4.316,1.111,6.391
			l-2.296,3.731l-1.161,1.866l-1.262,1.785c-0.848,1.186-1.678,2.395-2.55,3.567l-2.728,3.417
			c-3.715,4.487-7.69,8.772-11.967,12.702c-4.254,3.962-8.719,7.693-13.389,11.168c-2.345,1.724-4.72,3.415-7.169,5.028
			c-1.224,0.806-2.458,1.607-3.725,2.382c-0.622,0.394-1.277,0.776-1.923,1.161l-0.997,0.579c-0.337,0.192-0.664,0.38-1.105,0.612
			l-0.454,0.239c-4.392,2.308-9.824,0.619-12.132-3.774c-2.308-4.392-0.619-9.824,3.773-12.132
			C1427.443,757.511,1427.887,757.323,1428.288,757.181z"/>
		<path style="fill:#F99370;" d="M1428.568,768.446c0.159-0.035,0.429-0.116,0.699-0.199l0.806-0.252
			c0.553-0.186,1.101-0.349,1.663-0.556c1.12-0.385,2.241-0.797,3.362-1.236c2.245-0.861,4.469-1.819,6.674-2.825
			c4.402-2.031,8.674-4.35,12.772-6.924c4.134-2.542,7.93-5.507,11.55-8.664c3.621-3.173,6.736-6.782,9.626-10.592l0.189-0.249
			c1.636-2.157,4.711-2.579,6.868-0.943c1.977,1.5,2.496,4.21,1.308,6.313c-2.732,4.846-5.842,9.529-9.499,13.703
			c-3.651,4.159-7.573,8.115-11.839,11.589c-4.241,3.514-8.7,6.747-13.351,9.683c-2.332,1.459-4.698,2.868-7.133,4.19
			c-1.212,0.667-2.445,1.314-3.701,1.941c-0.616,0.321-1.274,0.621-1.912,0.932l-0.994,0.461c-0.332,0.151-0.664,0.303-1.112,0.487
			l-0.618,0.253c-4.599,1.882-9.854-0.32-11.736-4.919c-1.883-4.599,0.32-9.854,4.919-11.736
			C1427.572,768.713,1428.093,768.554,1428.568,768.446z"/>
		<path style="fill:#F99370;" d="M1389.859,771.038c0,0,6.125-26.92,28-34.753c21.875-7.833,25.658-10.75,25.658-10.75l31.42,29.443
			c0,0-19.21,27.241-58.286,46.567L1389.859,771.038z"/>
		<path style="fill:#F99370;" d="M1389.859,771.038c0,0,9.976-41.822,32.165-52.963l-6.2,19.012L1389.859,771.038z"/>
		<path style="fill:#F99370;" d="M1220.316,661.054c-15.26,42.339-40.052,123.379-15.607,163.38
			c58.126,51.56,136.102-6.021,180.102-50.807c20.065-28.387,55.185-4.122,39.148,21.734c-6.35,8.902-13.214,17.546-20.334,25.81
			c-59.377,71.669-157.625,124.968-244.69,65.557c-74.037-53.344-60.599-173.306-48.671-252.213
			C1126.328,558.433,1240.297,585.803,1220.316,661.054z"/>
		<path style="fill:#F99370;" d="M1584.331,993.065c-3.678,7.847-17.47,0.147-24.807,2.918c6.938,9.679,16.802,17.167,16.801,17.251
			c13.194,6.418,26.719,12.049,40.542,17.037c12.98,17.867-38.03-2.32-44.356-3.376c-0.04,0.068-0.084,0.134-0.125,0.202
			c11.921,9.628,24.431,18.567,37.662,26.306c9.139,21.607-40.688-13.336-46.65-16.443c-0.031,0.024-0.062,0.048-0.092,0.072
			c9.558,11.092,20.568,20.935,32.546,29.366c7.299,22.725-40.454-16.944-45.129-21.839c-0.056,0.026-0.111,0.051-0.166,0.076
			c6.182,9.912,13.693,18.98,21.637,27.55c3.93,22.476-32.4-18.362-36.054-23.299c-3.735-1.878-22.795-18.207-34.476-42.106
			c-3.828-7.832,19.036-30.191,26.347-26.023c5.486,3.128,20.997,2.961,24.801,3.905
			C1561.618,985.545,1581.516,983.378,1584.331,993.065z"/>
		<path style="fill:#F99370;" d="M1285.947,525.363c-22.752,15.683-53.125,15.416-75.607,5.829c-1.274-0.547-2.571-1.093-3.78-1.697
			c-48.24-23.453-47.379-104.261-18.55-141.625c18.032-25.504,56.759-35.605,82.405-16.061
			c17.713,14.341,21.276,35.939,25.974,58.848c1.573,6.032,5.269,14.218,9.307,20.091
			C1321.098,473.797,1315.224,504.101,1285.947,525.363z"/>
		<path style="fill:#E57D61;" d="M1230.889,411.254c-43.398,5.303-45.208,39.212-45.208,39.212l-12.839-20.375l46.477-55.49
			l37.447-10.118c8.349,2.732,15.459,7.794,21.015,14.641C1277.782,379.125,1274.288,405.951,1230.889,411.254z"/>
		<path style="fill:#F9F8F3;" d="M1276.984,491.536l-27.909-21.877C1242.578,487.924,1259.852,503.768,1276.984,491.536z"/>
		<path style="fill:#C16256;" d="M1261.654,445.001c2.964-3.686-2.894-8.257-5.749-4.485
			C1252.941,444.203,1258.799,448.773,1261.654,445.001z"/>
		<path style="fill:#C16256;" d="M1292.722,445.808c2.964-3.687-2.894-8.257-5.749-4.485
			C1284.009,445.009,1289.867,449.58,1292.722,445.808z"/>
		<path style="fill:#C16256;" d="M1276.983,492.915c-1.056,0.253-27.902-21.867-28.76-22.17c-0.599-0.469-0.703-1.336-0.234-1.936
			c0.521-3.381,29.037,21.856,29.846,21.639C1278.871,491.202,1278.244,492.966,1276.983,492.915z"/>
		<path style="fill:#C16256;" d="M1278.776,475.04c-2.553-0.264-8.459-0.209-7.903-3.545c0.367-0.668,1.207-0.912,1.874-0.545
			c4.247,2.505,15.913,1.496,11.242-2.778c-6.846-5.295-12.517-28.566-6.55-22.242c0.023,0.151,2.262,15.135,8.304,20.112
			C1291.942,472.315,1284.637,474.867,1278.776,475.04z"/>
		<path style="fill:#F99370;" d="M1157.667,466.641c6.419,28.353,40.853,20.675,34.715-7.709
			C1185.963,430.58,1151.529,438.258,1157.667,466.641z"/>
		<path style="fill:#C16256;" d="M1166.849,472.414c0.88-0.095,1.474-1.004,1.198-1.848c-5.52-15.013,0.998-21.479,11.236-17.37
			c1.713,0.688,2.762-2.035,1.019-2.669c-11.979-4.771-21.578,2.918-14.979,20.899
			C1165.532,472.088,1166.182,472.491,1166.849,472.414z"/>
		<path style="fill:#C16256;" d="M1180.13,470.289c3.924-0.91-4.14-13.796-15.115-14.651c-0.782-0.048-1.462,0.556-1.508,1.344
			c-0.045,0.787,0.556,1.462,1.344,1.507C1176.054,459.543,1177.22,470.12,1180.13,470.289z"/>
		
			<ellipse transform="matrix(0.9816 -0.1909 0.1909 0.9816 -35.0732 236.4356)" style="fill:#662948;" cx="1209.354" cy="300.217" rx="47.509" ry="56.76"/>
		<path style="fill:#C16256;" d="M1246.651,435.374c-0.373,0-0.736-0.196-0.932-0.544c-0.29-0.514-0.108-1.166,0.406-1.455
			c0.442-0.249,10.918-6.059,19.811-3.105c0.56,0.186,0.863,0.791,0.677,1.351c-0.186,0.56-0.792,0.862-1.351,0.677
			c-8.004-2.659-17.988,2.882-18.088,2.939C1247.008,435.329,1246.828,435.374,1246.651,435.374z"/>
		<path style="fill:#C16256;" d="M1295.239,434.464c-0.169,0-0.34-0.04-0.5-0.125c-5.345-2.84-11.853-0.931-11.918-0.911
			c-0.566,0.171-1.161-0.149-1.332-0.713c-0.171-0.564,0.147-1.16,0.711-1.331c0.299-0.091,7.403-2.192,13.541,1.069
			c0.521,0.277,0.719,0.924,0.442,1.445C1295.991,434.258,1295.621,434.464,1295.239,434.464z"/>
		<path style="fill:#EB5648;" d="M1405.403,834.957c-0.958,19.518-12.488,52.802-52.605,74.36
			c-48.057,25.811-185.15,40.462-240.287-30.678c-55.137-71.115-51.941-207.986-21.312-261.059
			c31.956-55.407,104.276-54.94,104.276-54.94s43.486,36.283,28.318,104.473c-9.807,44.051-16.445,91.272-2.876,115.633
			c8.407,15.069,48.771,44.739,90.879,18.805c22.837-14.061,38.077-16.962,47.246-16.642c7.768,0.27,11.185,2.802,11.185,2.802
			c7.031,29.597,33.407,33.456,33.407,33.456C1404.912,823.723,1405.723,828.615,1405.403,834.957z"/>
		<path style="fill:#662948;" d="M1270.409,371.812c1.008-38.388-112.995-100.322-175.015,38.217
			c-31.641,70.679-85.648,74.42-39.824,127.84c25.667,29.922-26.144,45.25-4.854,68.41c21.291,23.159,54.96,9.377,48.056,53.62
			c-6.904,44.243,18.981,59.699,49.888,63.099c30.907,3.4,82.247-71.931,52.688-106.938c-29.559-35.007,4.343-52.1-5.174-92.763
			c-9.518-40.663-27.364-51.165-27.364-51.165l13.741-33.587C1191.89,394.737,1265.061,412.9,1270.409,371.812z"/>
		<path style="fill:#CE3932;" d="M1276.984,339.431c0,0-68.37-4.046-93.679,93.572l-5.674,3.222l-7.069-2.821
			c0,0,7.164-90.725,81.755-104.942C1252.317,328.463,1273.066,324.283,1276.984,339.431z"/>
		<path style="fill:#CE3932;" d="M1144.994,461.256c1.529,49.096,60.088,48.165,60.061-0.95
			C1203.526,411.212,1144.967,412.142,1144.994,461.256z"/>
		<path style="fill:#EB5648;" d="M1148.37,461.154c0.792,38.317,47.533,37.576,47.111-0.746
			C1194.689,422.093,1147.948,422.833,1148.37,461.154z"/>
		<path style="fill:#CE3932;" d="M1262.854,585.673c-5.998,3.687-14.307,4.769-22.615,3.589
			c-17.994-2.557-44.764-26.622-44.764-26.622v-0.025l10.522-1.868c44.419,28.392,54.276,18.338,55.849,8.259
			c0.025,0,0.025-0.025,0-0.049c-0.369-6.538-0.54-10.226-0.54-10.226s0,0,0.024,0c0,0,0,0,0.025,0.025c0,0,0,0,0.025,0
			c0.516,0.123,3.982,0.934,9.464,2.655v0.025c0.442,1.794,0.713,3.515,0.861,5.113
			C1272.563,575.742,1268.851,582.01,1262.854,585.673z"/>
		<path style="fill:#CE3932;" d="M1397.242,914.725c-0.934,3.884-2.507,7.743-4.793,11.578c-5.31,3.171-11.16,6.047-17.453,8.628
			c-86.504,35.693-256.56,19.075-290.287-17.305c-5.777-6.219-7.621-12.832-7.178-19.838c1.229,1.352,19.322,20.526,56.047,32.792
			C1171.483,943.264,1305.183,962.635,1397.242,914.725z"/>
		<path style="fill:#CE3932;" d="M1278.43,813.829c-10.003,0-20.479-1.927-29.617-5.581c-16.126-6.447-27.775-17.75-33.687-32.689
			c-12.748-32.211,2.751-93.011,3.417-95.584c0.341-1.315,1.682-2.103,2.996-1.764c1.314,0.34,2.104,1.682,1.764,2.996
			c-0.159,0.615-15.763,61.822-3.605,92.543c12.481,31.539,49.396,37.757,69.734,34.266c7.906-1.356,16.024-6.164,24.619-11.253
			c15.52-9.19,33.107-19.606,54.795-12.489c1.29,0.423,1.992,1.812,1.569,3.102c-0.423,1.29-1.81,1.994-3.103,1.569
			c-19.565-6.421-35.423,2.968-50.757,12.048c-8.996,5.328-17.493,10.359-26.293,11.869
			C1286.478,813.511,1282.493,813.829,1278.43,813.829z"/>
		<path style="fill:#CE3932;" d="M1241.794,932.773c-3.235,0-6.483-0.049-9.758-0.148c-53.807-1.625-87.995-22.704-107.2-40.102
			c-20.872-18.907-28.868-37.223-29.198-37.994c-0.535-1.248,0.043-2.693,1.291-3.228c1.248-0.534,2.692,0.043,3.228,1.291
			c0.122,0.28,8.061,18.308,28.164,36.453c18.579,16.769,51.679,37.089,103.864,38.665c67.49,2.033,126.905-17.342,155.057-50.576
			c13.451-15.878,18.593-34.211,14.871-53.017c-0.264-1.331,0.603-2.625,1.934-2.889c1.333-0.262,2.625,0.602,2.889,1.934
			c4.023,20.326-1.489,40.087-15.941,57.148C1363.278,913.032,1306.693,932.773,1241.794,932.773z"/>
		<path style="fill:#CE3932;" d="M1405.403,834.957c-42.969-7.301-46.165-46.41-46.362-50.048c7.768,0.27,11.185,2.802,11.185,2.802
			c7.031,29.597,33.407,33.456,33.407,33.456C1404.912,823.723,1405.723,828.615,1405.403,834.957z"/>
		<path style="fill:#CE3932;" d="M1515.702,967.379c0,0-18.338,4.892-26.302,31.194c0,0-5.236,2.065-14.503,1.844l0.049-0.418
			c0,0,2.557-36.185,40.044-49.188C1516.12,956.416,1516.415,961.922,1515.702,967.379z"/>
	</g>
</g>
</svg>
