<?xml version="1.0" encoding="utf-8"?>
<!-- Generator: Adobe Illustrator 27.5.0, SVG Export Plug-In . SVG Version: 6.00 Build 0)  -->
<svg version="1.1" id="Layer_1" xmlns="http://www.w3.org/2000/svg" xmlns:xlink="http://www.w3.org/1999/xlink" x="0px" y="0px"
	 viewBox="0 0 3839.804 2000" style="enable-background:new 0 0 3839.804 2000;" xml:space="preserve">
<g>
	<g>
		<linearGradient id="SVGID_1_" gradientUnits="userSpaceOnUse" x1="1889.5764" y1="-504.3087" x2="1929.1523" y2="1458.6592">
			<stop  offset="0" style="stop-color:#BCE3F1"/>
			<stop  offset="1" style="stop-color:#D0F7FF"/>
		</linearGradient>
		<rect x="0.009" style="fill:url(#SVGID_1_);" width="3839.791" height="1999.94"/>
		<path style="fill:#C1E6F7;" d="M2581.447,896.572c-1480.249,96.188-968.718-289.943-1798.274-546.431
			C189.339,166.536,6.438,399.441,0.009,421.814V1999.94h3839.593v-924.185C3782.258,650.852,2970.896,871.265,2581.447,896.572z"/>
		
			<linearGradient id="SVGID_00000163759794603315361450000001878291334652705416_" gradientUnits="userSpaceOnUse" x1="413.101" y1="717.4767" x2="1132.5745" y2="1742.2861">
			<stop  offset="0" style="stop-color:#A3BDD1"/>
			<stop  offset="1" style="stop-color:#689ADD"/>
		</linearGradient>
		<path style="opacity:0.61;fill:url(#SVGID_00000163759794603315361450000001878291334652705416_);" d="M2051.551,1195.738
			c-418.332,0-822.72-153.613-1073.719-326.429C770.303,726.425,272.34,507.869,0.001,644.373V1999.94h2062.329v-804.202H2051.551z"
			/>
		<path style="opacity:0.22;fill:#F9D4D9;" d="M2820.946,1149.818c0.117,19.18,0.237,38.358,0.355,57.537
			c-256.584-3.876-513.169-7.748-769.753-11.622c-418.328,0-822.71-153.609-1073.719-326.416c-1.581-1.094-3.163-2.168-4.752-3.28
			c108.743,3.421,224.404,6.038,329.926,35.337c102.708,28.518,186.054,102.439,286.722,138.003
			c251.111,88.714,532.084-42.376,793.012,10.949c147.914,30.229,288.678,119.315,438.202,98.452
			C2820.942,1149.125,2820.944,1149.472,2820.946,1149.818z"/>
		
			<linearGradient id="SVGID_00000022534378284285193920000000869884184437923987_" gradientUnits="userSpaceOnUse" x1="3271.9492" y1="1260.1149" x2="3607.6079" y2="1738.2228">
			<stop  offset="0" style="stop-color:#A3BDD1"/>
			<stop  offset="1" style="stop-color:#689ADD"/>
		</linearGradient>
		<path style="opacity:0.61;fill:url(#SVGID_00000022534378284285193920000000869884184437923987_);" d="M3666.34,1078.678
			c3.758-5.543,6.268-15.594,6.268-27.075c0-8.631-3.168-16.453-6.375-22.161c-3.301-5.835-5.986-8.643-6.61-9.475
			c-0.527,1.079-13.731,13.903-12.929,34.609c0.201,5.313,1.314,13.732,3.965,20.08c-7.596-1.912-15.197-3.767-22.801-5.563v-10.573
			c6.019-2.757,10.572-15.626,10.572-31.088c0-8.631-3.169-16.454-6.376-22.162c-3.3-5.834-5.986-8.642-6.61-9.473
			c-0.526,1.078-13.731,13.903-12.93,34.609c0.34,8.983,3.295,26.855,11.861,28.555v9.314
			c-43.278-10.127-86.605-18.362-129.284-24.168c-190.028-25.85-360.72,109.636-360.72,286.771v669.063H3839.8v-866.776
			C3783.672,1112.71,3725.262,1094.093,3666.34,1078.678z"/>
		<rect x="0.004" y="1494.557" style="fill:#ECCC47;" width="3839.789" height="505.387"/>
		
			<linearGradient id="SVGID_00000096765693312360711970000008767900327327957382_" gradientUnits="userSpaceOnUse" x1="266.8683" y1="840.6029" x2="264.2641" y2="1041.1166">
			<stop  offset="0" style="stop-color:#A3BDD1"/>
			<stop  offset="1" style="stop-color:#689ADD"/>
		</linearGradient>
		<path style="fill:url(#SVGID_00000096765693312360711970000008767900327327957382_);" d="M287.24,898.674
			c0-14.061-5.163-26.807-10.388-36.106l0,0c-5.376-9.506-9.753-14.082-10.771-15.435l0,0l0,0
			c-0.859,1.757-22.373,22.651-21.066,56.387c0.554,14.636,5.369,43.755,19.325,46.523v21.716h5.673v-22.433
			C279.821,944.836,287.24,923.866,287.24,898.674z"/>
		
			<linearGradient id="SVGID_00000173863116244919860880000010837735761526984329_" gradientUnits="userSpaceOnUse" x1="191.8098" y1="809.2903" x2="188.5154" y2="1062.9458">
			<stop  offset="0" style="stop-color:#A3BDD1"/>
			<stop  offset="1" style="stop-color:#689ADD"/>
		</linearGradient>
		<path style="fill:url(#SVGID_00000173863116244919860880000010837735761526984329_);" d="M217.581,882.752
			c0-17.788-6.531-33.912-13.141-45.676l0,0c-6.801-12.025-12.338-17.813-13.624-19.525l0,0l0,0
			c-1.087,2.222-28.302,28.654-26.648,71.331c0.7,18.516,6.791,55.352,24.447,58.854v27.472h7.177v-28.379
			C208.195,941.148,217.581,914.621,217.581,882.752z"/>
		
			<linearGradient id="SVGID_00000119803065284071833670000005029902174119764921_" gradientUnits="userSpaceOnUse" x1="482.7514" y1="971.0596" x2="1314.838" y2="1457.4203">
			<stop  offset="0" style="stop-color:#82AED1"/>
			<stop  offset="1" style="stop-color:#689ADD"/>
		</linearGradient>
		<path style="fill:url(#SVGID_00000119803065284071833670000005029902174119764921_);" d="M2062.329,1195.738h-10.778
			c-138.257,0-274.989-16.778-405.167-45.483c-102.142-22.523-205.74-37.915-310.004-46.245
			c-87.081-6.956-173.083-15.195-252.21-24.926v-16.174c9.806-6.222,17.226-35.273,17.226-70.175
			c0-19.482-5.163-37.14-10.388-50.023c-5.376-13.17-9.753-19.51-10.771-21.384c-0.859,2.434-22.373,31.381-21.065,78.12
			c0.553,20.277,5.368,60.62,19.325,64.455v14.481c-134.449-16.725-248.474-37.806-313.268-64.286
			c-88.689-36.245-217.419-49.245-348.195-50.699v-4.686c4.903-3.111,8.612-17.637,8.612-35.087c0-9.741-2.582-18.57-5.194-25.012
			c-2.688-6.585-4.877-9.755-5.385-10.692c-0.43,1.217-11.186,15.691-10.533,39.059c0.276,10.14,2.685,30.31,9.662,32.228v4.16
			c-8.112-0.079-16.233-0.115-24.35-0.11v-25.217c8.344-5.295,14.659-30.019,14.659-59.721c0-16.58-4.394-31.608-8.841-42.572
			c-4.575-11.208-8.3-16.604-9.165-18.199c-0.731,2.071-19.04,26.707-17.928,66.483c0.471,17.257,4.569,51.59,16.447,54.854v24.379
			c-14.043,0.038-28.074,0.198-42.045,0.465v-15.93c8.344-5.294,14.659-30.018,14.659-59.722c0-16.579-4.394-31.608-8.84-42.571
			c-4.575-11.208-8.301-16.604-9.166-18.199c-0.731,2.071-19.04,26.707-17.928,66.483c0.471,17.257,4.569,51.59,16.447,54.854
			v15.181c-131.544,2.752-257.36,14.91-338.135,24.374v399.286l2062.32-44.94V1195.738z"/>
		
			<linearGradient id="SVGID_00000034089831973769513040000004450149267326993548_" gradientUnits="userSpaceOnUse" x1="1718.5813" y1="2109.9956" x2="1988.1302" y2="1084.5344">
			<stop  offset="0" style="stop-color:#1E88B5"/>
			<stop  offset="1" style="stop-color:#3ADEFB"/>
		</linearGradient>
		<path style="fill:url(#SVGID_00000034089831973769513040000004450149267326993548_);" d="M0.009,1522.146
			c18.881,27.578,269.808,13.58,634.121,20.392c188.624,3.525,407.046,63.397,640.737,63.025
			c206.34-0.327,423.279-60.537,640.95-63.05c217.457-2.512,436.494,52.666,642.987,48.77
			c233.212-4.398,450.082-67.992,639.083-73.073c357.186-9.605,608.113,36.69,641.913,30.575v-409.392H0.009V1522.146z"/>
		<g style="opacity:0.44;">
			<path style="fill:#CCE7FE;" d="M3489.007,1202.838c-7.461-0.715-11.919,5.34-6.474,8.788c17.442,11.043,44.962,11.057,62.426,0
				c5.444-3.448,0.987-9.503-6.475-8.788C3522.393,1204.381,3505.102,1204.381,3489.007,1202.838z"/>
			<path style="fill:#CCE7FE;" d="M3638.121,1199.656c-11.941-1.145-19.073,8.546-10.358,14.063
				c27.911,17.673,71.951,17.694,99.899,0c8.713-5.518,1.58-15.208-10.359-14.063
				C3691.55,1202.125,3663.879,1202.126,3638.121,1199.656z"/>
			<path style="fill:#CCE7FE;" d="M1710.267,1203.03c-11.319-1.085-18.082,8.102-9.82,13.332c26.461,16.753,68.211,16.774,94.705,0
				c8.262-5.23,1.5-14.417-9.82-13.332C1760.918,1205.37,1734.687,1205.371,1710.267,1203.03z"/>
			<path style="fill:#CCE7FE;" d="M1466.518,1168.601c-8.503-0.814-13.583,6.087-7.377,10.017c19.877,12.585,51.24,12.602,71.143,0
				c6.206-3.93,1.126-10.831-7.377-10.017C1504.567,1170.36,1484.861,1170.36,1466.518,1168.601z"/>
			<path style="fill:#CCE7FE;" d="M1560.028,1224.609c-6.416-0.615-10.249,4.592-5.566,7.556c14.996,9.495,38.658,9.507,53.673,0
				c4.683-2.964,0.85-8.171-5.565-7.556C1588.734,1225.936,1573.867,1225.936,1560.028,1224.609z"/>
			<path style="fill:#CCE7FE;" d="M1353.143,1246.88c-4.719-0.453-7.538,3.378-4.094,5.559c11.032,6.985,28.437,6.993,39.483,0
				c3.444-2.181,0.625-6.012-4.094-5.559C1374.259,1247.855,1363.323,1247.856,1353.143,1246.88z"/>
			<path style="fill:#CCE7FE;" d="M1565.462,1163.128c-4.561-0.301-7.285,2.248-3.957,3.699c10.661,4.648,27.482,4.654,38.157,0
				c3.329-1.451,0.604-4-3.956-3.699C1585.87,1163.777,1575.301,1163.777,1565.462,1163.128z"/>
			<path style="fill:#CCE7FE;" d="M1619.19,1174.718c-4.561-0.302-7.285,2.247-3.957,3.698c10.661,4.648,27.483,4.654,38.157,0
				c3.328-1.451,0.604-4-3.957-3.698C1639.598,1175.366,1629.028,1175.367,1619.19,1174.718z"/>
			<path style="fill:#CCE7FE;" d="M1619.19,1163.128c-4.561-0.301-7.285,2.248-3.957,3.699c10.661,4.648,27.483,4.654,38.157,0
				c3.328-1.451,0.604-4-3.957-3.699C1639.598,1163.777,1629.028,1163.777,1619.19,1163.128z"/>
			<path style="fill:#CCE7FE;" d="M1669.65,1166.734c-4.561-0.301-7.285,2.247-3.956,3.699c10.661,4.648,27.482,4.654,38.157,0
				c3.328-1.452,0.604-4-3.957-3.699C1690.058,1167.383,1679.489,1167.385,1669.65,1166.734z"/>
			<path style="fill:#CCE7FE;" d="M1724.104,1159.522c-4.561-0.301-7.285,2.248-3.957,3.699c10.661,4.647,27.482,4.654,38.157,0
				c3.329-1.451,0.604-4-3.957-3.699C1744.511,1160.171,1733.942,1160.171,1724.104,1159.522z"/>
		</g>
		<g>
			<path style="opacity:0.44;fill:#CCE7FE;" d="M3522.634,1169.206c-7.461-0.716-11.919,5.34-6.473,8.788
				c17.442,11.043,44.96,11.057,62.425,0c5.445-3.448,0.987-9.504-6.473-8.788
				C3556.021,1170.748,3538.729,1170.749,3522.634,1169.206z"/>
			<path style="opacity:0.44;fill:#CCE7FE;" d="M3389.678,1199.745c-8.813-0.846-14.077,6.308-7.645,10.379
				c20.601,13.043,53.104,13.061,73.732,0c6.432-4.071,1.166-11.225-7.646-10.379
				C3429.113,1201.566,3408.689,1201.566,3389.678,1199.745z"/>
			<path style="opacity:0.44;fill:#CCE7FE;" d="M2274.229,1251.925c-4.748-0.455-7.583,3.397-4.118,5.591
				c11.097,7.025,28.604,7.035,39.717,0c3.463-2.193,0.627-6.046-4.12-5.591C2295.471,1252.906,2284.469,1252.906,2274.229,1251.925
				z"/>
			<path style="opacity:0.44;fill:#CCE7FE;" d="M2352.674,1229.233c-6.06-0.581-9.68,4.336-5.258,7.137
				c14.164,8.968,36.512,8.979,50.695,0c4.42-2.801,0.802-7.717-5.259-7.137C2379.786,1230.485,2365.743,1230.486,2352.674,1229.233
				z"/>
			<path style="opacity:0.44;fill:#CCE7FE;" d="M2431.446,1186.531c-6.058-0.581-9.678,4.336-5.256,7.137
				c14.164,8.968,36.512,8.979,50.692,0c4.423-2.801,0.803-7.718-5.256-7.137
				C2458.559,1187.784,2444.518,1187.784,2431.446,1186.531z"/>
			<path style="opacity:0.44;fill:#CCE7FE;" d="M2302.619,1193.492c-6.549-0.628-10.461,4.688-5.682,7.713
				c15.309,9.693,39.463,9.705,54.79,0c4.779-3.025,0.868-8.341-5.682-7.713C2331.922,1194.846,2316.745,1194.846,2302.619,1193.492
				z"/>
			<path style="opacity:0.44;fill:#CCE7FE;" d="M847.146,1199.746c-8.003-0.769-12.785,5.728-6.943,9.426
				c18.708,11.845,48.227,11.86,66.96,0c5.841-3.698,1.06-10.194-6.944-9.426C882.958,1201.399,864.411,1201.4,847.146,1199.746z"/>
			<path style="opacity:0.44;fill:#CCE7FE;" d="M372.979,1193.207c-7.316-0.702-11.687,5.236-6.348,8.617
				c17.103,10.829,44.087,10.842,61.212,0c5.34-3.38,0.969-9.319-6.347-8.617C405.717,1194.72,388.762,1194.72,372.979,1193.207z"/>
			<path style="opacity:0.44;fill:#CCE7FE;" d="M450.92,1177.541c-7.558-0.725-12.073,5.409-6.557,8.902
				c17.668,11.186,45.544,11.201,63.235,0c5.516-3.493,1.001-9.627-6.558-8.902C484.74,1179.104,467.224,1179.104,450.92,1177.541z"
				/>
			<path style="opacity:0.44;fill:#CCE7FE;" d="M820.517,1273.553c-6.088-0.584-9.725,4.357-5.282,7.169
				c14.23,9.011,36.683,9.022,50.931,0c4.443-2.812,0.807-7.753-5.28-7.169C847.756,1274.811,833.648,1274.811,820.517,1273.553z"/>
			<path style="opacity:0.44;fill:#CCE7FE;" d="M328.827,1170.541c-6.087-0.584-9.724,4.356-5.281,7.169
				c14.23,9.01,36.683,9.021,50.932,0c4.442-2.813,0.806-7.753-5.282-7.169C356.067,1171.799,341.96,1171.799,328.827,1170.541z"/>
			<path style="opacity:0.44;fill:#CCE7FE;" d="M255.796,1197.823c-7.316-0.701-11.688,5.236-6.347,8.617
				c17.102,10.828,44.087,10.843,61.211,0c5.34-3.381,0.969-9.317-6.347-8.616C288.533,1199.336,271.578,1199.336,255.796,1197.823z
				"/>
			<path style="opacity:0.44;fill:#CCE7FE;" d="M211.643,1175.156c-6.087-0.582-9.724,4.357-5.281,7.171
				c14.23,9.011,36.683,9.021,50.931,0c4.443-2.813,0.807-7.753-5.281-7.171C238.883,1176.416,224.775,1176.416,211.643,1175.156z"
				/>
			<path style="opacity:0.44;fill:#CCE7FE;" d="M122.81,1183.352c-5.994-0.574-9.575,4.29-5.2,7.06
				c14.011,8.871,36.118,8.882,50.147,0c4.374-2.77,0.794-7.634-5.2-7.06C149.63,1184.59,135.74,1184.59,122.81,1183.352z"/>
			<path style="opacity:0.44;fill:#CCE7FE;" d="M86.639,1164.782c-4.988-0.478-7.967,3.569-4.327,5.874
				c11.658,7.381,30.052,7.39,41.725,0c3.64-2.305,0.661-6.352-4.326-5.874C108.954,1165.813,97.396,1165.813,86.639,1164.782z"/>
			<path style="opacity:0.44;fill:#CCE7FE;" d="M899.76,1172.121c-6.088-0.583-9.725,4.357-5.281,7.171
				c14.23,9.01,36.683,9.021,50.931,0c4.443-2.813,0.806-7.754-5.281-7.171C927,1173.381,912.893,1173.381,899.76,1172.121z"/>
			<path style="opacity:0.44;fill:#CCE7FE;" d="M754.723,1188.215c-7.764-0.744-12.402,5.557-6.736,9.145
				c18.148,11.49,46.782,11.505,64.954,0c5.666-3.588,1.028-9.889-6.735-9.145C789.462,1189.819,771.471,1189.82,754.723,1188.215z"
				/>
		</g>
		<path style="opacity:0.36;fill:#59C5F4;" d="M2192.689,1417.951c-651.439,104.206-1616.901,61.914-2192.68,21.082v85.947
			c44.255,21.604,291.761,11.156,634.121,17.558c188.624,3.525,407.046,63.397,640.737,63.025
			c206.34-0.327,423.279-60.537,640.95-63.05c217.457-2.512,436.494,52.666,642.987,48.77
			c233.212-4.398,450.082-67.992,639.083-73.073c357.186-9.605,608.113,36.69,641.913,30.575v-180.582
			C3395.636,1340.59,2756.715,1327.727,2192.689,1417.951z"/>
		<path style="fill:#FFFFFF;" d="M1920.041,461.283c11.824-4.93,25.884-7.804,40.845-7.963
			c13.875-20.826,46.225-34.727,82.988-34.727c22.063,0,42.984,5.161,59.116,14.01c17.953-25.878,59.187-43.965,105.906-43.965
			c30.689,0,59.799,7.642,81.374,21.171c3.088-0.309,6.209-0.465,9.333-0.465c33.432,0,60.629,17.155,60.629,38.242
			c0,4.735-1.392,9.367-4.037,13.697H1920.041z"/>
		<path style="fill:#FFFFFF;" d="M2374.751,253.551c20.702-8.632,45.327-13.667,71.523-13.945
			c24.297-36.469,80.944-60.81,145.323-60.81c38.638,0,75.271,9.037,103.521,24.533c31.437-45.317,103.643-76.988,185.454-76.988
			c53.742,0,104.716,13.382,142.496,37.072c5.409-0.54,10.873-0.813,16.345-0.813c58.543,0,106.168,30.04,106.168,66.966
			c0,8.292-2.436,16.402-7.069,23.985H2374.751z"/>
		
			<linearGradient id="SVGID_00000173846641761644443490000009432106431502841271_" gradientUnits="userSpaceOnUse" x1="1018.35" y1="952.1922" x2="1015.7457" y2="1152.7081">
			<stop  offset="0" style="stop-color:#A3BDD1"/>
			<stop  offset="1" style="stop-color:#689ADD"/>
		</linearGradient>
		<path style="fill:url(#SVGID_00000173846641761644443490000009432106431502841271_);" d="M1038.722,1010.264
			c0-14.062-5.163-26.807-10.388-36.106l0,0c-5.376-9.506-9.753-14.082-10.771-15.435l0,0l0,0
			c-0.859,1.757-22.373,22.651-21.065,56.387c0.553,14.637,5.368,43.755,19.325,46.524v21.717h5.674v-22.434
			C1031.303,1056.426,1038.722,1035.456,1038.722,1010.264z"/>
		<path style="fill:#FFFFFF;" d="M141.76,218.239c11.848-4.939,25.937-7.82,40.928-7.979c13.903-20.868,46.317-34.796,83.156-34.796
			c22.107,0,43.071,5.171,59.235,14.038c17.989-25.931,59.305-44.053,106.118-44.053c30.753,0,59.92,7.657,81.538,21.213
			c3.094-0.309,6.222-0.465,9.353-0.465c33.499,0,60.749,17.189,60.749,38.318c0,4.745-1.392,9.385-4.043,13.724H141.76z"/>
		
			<linearGradient id="SVGID_00000112602853610462866870000009003154473449115040_" gradientUnits="userSpaceOnUse" x1="75.532" y1="477.0307" x2="72.9278" y2="677.5467">
			<stop  offset="0" style="stop-color:#A3BDD1"/>
			<stop  offset="1" style="stop-color:#689ADD"/>
		</linearGradient>
		<path style="opacity:0.61;fill:url(#SVGID_00000112602853610462866870000009003154473449115040_);" d="M91.554,561.299
			c0-11.393-4.184-21.72-8.417-29.254l0,0c-4.355-7.701-7.902-11.409-8.726-12.505l0,0l0,0
			c-0.696,1.424-18.127,18.352-17.067,45.685c0.448,11.858,4.349,35.45,15.657,37.693v17.595h4.597v-18.176
			C85.543,598.698,91.554,581.709,91.554,561.299z"/>
		
			<linearGradient id="SVGID_00000095313543118554642470000004293758451367912606_" gradientUnits="userSpaceOnUse" x1="122.0678" y1="477.6361" x2="119.4636" y2="678.1506">
			<stop  offset="0" style="stop-color:#A3BDD1"/>
			<stop  offset="1" style="stop-color:#689ADD"/>
		</linearGradient>
		<path style="opacity:0.61;fill:url(#SVGID_00000095313543118554642470000004293758451367912606_);" d="M142.439,535.708
			c0-14.061-5.163-26.808-10.388-36.107l0,0c-5.376-9.506-9.753-14.081-10.77-15.434l0,0l0,0
			c-0.859,1.757-22.373,22.651-21.065,56.387c0.553,14.636,5.369,43.755,19.325,46.523v21.717h5.674V586.36
			C135.02,581.869,142.439,560.9,142.439,535.708z"/>
	</g>
	<path style="fill:#007D28;" d="M3839.804,1813.852c0,0-22.099-44.674-71.358-21.365c-49.258,23.308-28.976,73.811-28.976,73.811
		s-29.459-22.823-52.157,0c-22.697,22.822-21.249,61.184-21.249,61.184s-30.907-21.366-50.225-10.683
		c-19.317,10.683-14.487,81.091-14.487,81.091h238.452V1813.852z"/>
	<path style="fill:#00A334;" d="M3402.383,2000c0,0-28.011-40.562-20.284-49.453c7.728-8.891,120.733,18.893,120.733,18.893
		s-39.6-53.346-10.624-67.794s100.45,42.233,100.45,42.233s-19.317-58.279,21.249-65.26c40.566-6.981,58.919,60.689,58.919,60.689
		s-10.358-46.932,25.379-59.156c35.736-12.226,79.899,75.951,79.899,75.951s-39.601-97.803-21.249-130.033
		c18.352-32.229,68.576,86.966,68.576,86.966s-15.569-72.489,14.372-92.494V2000h-238.452H3402.383z"/>
	<g>
		<g>
			<path style="fill:#F26E5A;" d="M2939.729,1340.661l121.92-88.724c-94.192-113.818-187.188-215.782-198.626-238.899
				c-25.332-51.202-1.783-183.955-20.918-190.422c-19.135-6.468-107.896,293.992-107.896,293.992s58.047,17.489,97.556,39.372
				C2853.869,1168.22,2897.302,1255.069,2939.729,1340.661z"/>
			<path style="fill:#1D6EB5;" d="M2856.294,1119.117c0.575,20.54-18.519,36.713-39.36,33.39
				c-44.63-7.119-109.463-18.537-111.234-25.061c-2.705-9.979,116.429-359.326,142.75-375.038
				c26.322-15.709,67.493,221.972,46.418,257.312C2876.122,1041.153,2853.703,1026.715,2856.294,1119.117z"/>
			<path style="opacity:0.65;fill:#F26E5A;" d="M2842.107,822.616c19.133,6.467-4.416,139.218,20.916,190.422
				c11.23,22.696,101.081,121.404,193.494,232.709l-77.33,56.278c-37.43-75.507-89.137-185.184-123.014-202.823
				c-7.209,0.716-76.623-10.462-110.804-19.622C2769.833,999.459,2827.174,817.569,2842.107,822.616z"/>
			<path style="fill:#FEEACB;" d="M2749.186,1140.561c-21.701-4.793-42.589-9.816-43.486-13.114
				c-2.705-9.979,114.79-361.542,140.147-376.989c3.958-2.414,9.202-0.189,13.671,7.999
				C2825.585,825.023,2769.072,1056.245,2749.186,1140.561z"/>
			<path style="fill:#E9E9E9;" d="M2859.518,758.456c-44.287,80.863-92.752,296.859-110.332,382.104
				C2817.867,897.479,2837.098,808.181,2859.518,758.456z"/>
		</g>
		<g>
			<path style="fill:#F26E5A;" d="M2988.869,1278.549l121.92-88.723c-94.191-113.816-187.187-215.782-198.626-238.897
				c-25.333-51.203-1.782-183.955-20.915-190.422c-19.135-6.468-107.9,293.992-107.9,293.992s58.051,17.489,97.558,39.37
				C2903.01,1106.109,2946.439,1192.962,2988.869,1278.549z"/>
			<path style="fill:#2282D6;" d="M2905.432,1057.01c0.574,20.538-18.518,36.709-39.357,33.388
				c-44.63-7.119-109.462-18.538-111.234-25.063c-2.705-9.977,116.43-359.327,142.752-375.035
				c26.322-15.709,67.49,221.97,46.415,257.312C2925.263,979.042,2902.843,964.605,2905.432,1057.01z"/>
			<path style="fill:#FFFFFF;" d="M2798.326,1078.449c-21.702-4.794-42.592-9.814-43.486-13.114
				c-2.705-9.977,114.789-361.54,140.146-376.987c3.961-2.414,9.201-0.192,13.67,8
				C2874.725,762.914,2818.213,994.136,2798.326,1078.449z"/>
			<path style="fill:#E9E9E9;" d="M2908.656,696.348c-44.286,80.862-92.753,296.859-110.33,382.102
				C2867.009,835.37,2886.237,746.071,2908.656,696.348z"/>
		</g>
		<path style="fill:#D1C0A4;" d="M2998.795,1185.302c0,0-166.689,0.562-146.285,36.828
			c6.664,11.845,128.928,279.885,128.928,300.519c0,20.633-297.068,22.313-297.068,22.313s393.451,198.409,497.7,122.744
			C3286.316,1592.042,2998.795,1185.302,2998.795,1185.302z"/>
		<path style="fill:#FEEACB;" d="M3063.249,1104.43c0,0,379.045,485.65,343.174,629.131
			c-35.87,143.48-825.181,61.372-825.181,61.372l-78.465-342.957c0,0,34.789-49.374,147.424-49.374
			c112.636,0,450.039,191.682,473.579,168.142s-195.046-385.441-195.046-385.441S3012.806,1093.221,3063.249,1104.43z"/>
		<g>
			<g>
				<path style="fill:#FFFAF3;" d="M3027.603,1189.651c1.549,0,3.132-0.431,4.54-1.329c3.924-2.506,5.076-7.725,2.561-11.662
					c-11.486-17.958-18.389-28.375-18.389-28.375c-2.537-3.895-7.78-4.98-11.693-2.378c-3.891,2.573-4.957,7.806-2.373,11.695
					c0.021,0.034,6.857,10.366,18.233,28.158C3022.096,1188.279,3024.811,1189.651,3027.603,1189.651z"/>
			</g>
			<g>
				<path style="fill:#FFFAF3;" d="M3096.316,1723.028c-19.894-0.077-41.897-0.759-65.395-2.032
					c-4.648-0.254-8.221-4.233-7.97-8.892c0.253-4.659,4.112-8.419,8.892-7.968c23.202,1.263,44.92,1.934,64.536,2.011
					c4.661,0.021,8.432,3.813,8.408,8.473c-0.021,4.65-3.792,8.408-8.44,8.408
					C3096.337,1723.028,3096.327,1723.028,3096.316,1723.028z M3152.85,1712.895c-0.43-4.648,2.979-8.758,7.616-9.199
					c26.299-2.461,46.72-6.802,60.688-12.891c4.244-1.847,9.232,0.088,11.111,4.363c1.858,4.275-0.087,9.254-4.362,11.111
					c-15.617,6.803-37.774,11.596-65.854,14.233c-0.274,0.021-0.539,0.031-0.803,0.031
					C3156.938,1720.544,3153.268,1717.27,3152.85,1712.895z M2965.805,1716.313c-21.389-1.857-43.129-4.045-64.877-6.474
					c-4.64-0.516-7.969-4.691-7.451-9.318c0.516-4.64,4.593-7.914,9.317-7.452c21.618,2.407,43.227,4.572,64.482,6.43
					c4.638,0.404,8.076,4.495,7.672,9.144c-0.386,4.396-4.067,7.703-8.397,7.703
					C2966.31,1716.346,2966.056,1716.337,2965.805,1716.313z M2836.248,1702.07c-21.947-2.847-43.576-5.814-64.536-8.848
					c-4.614-0.671-7.813-4.946-7.144-9.561c0.658-4.605,5.035-7.674,9.563-7.146c20.868,3.013,42.41,5.978,64.293,8.803
					c4.616,0.605,7.88,4.836,7.285,9.463c-0.55,4.254-4.187,7.354-8.363,7.354
					C2836.984,1702.137,2836.622,1702.115,2836.248,1702.07z M2707.343,1683.53c-23.226-3.66-44.864-7.212-64.274-10.52
					c-4.593-0.78-7.682-5.143-6.9-9.735c0.78-4.585,5.133-7.705,9.736-6.902c19.343,3.285,40.918,6.834,64.055,10.473
					c4.603,0.724,7.758,5.045,7.031,9.65c-0.658,4.164-4.252,7.132-8.332,7.132
					C2708.22,1683.628,2707.781,1683.594,2707.343,1683.53z M3244.664,1646.611c-0.858-16.211-5.298-36.815-13.178-61.248
					c-1.43-4.441,1.012-9.201,5.439-10.629c4.462-1.418,9.189,1.011,10.627,5.441c8.332,25.828,13.025,47.872,13.969,65.535
					c0.243,4.66-3.327,8.627-7.978,8.881c-0.153,0.011-0.307,0.011-0.462,0.011
					C3248.631,1654.603,3244.905,1651.106,3244.664,1646.611z M3208.647,1525.344c-7.748-18.091-16.847-37.817-27.058-58.646
					c-2.045-4.186-0.319-9.241,3.869-11.297c4.23-2.056,9.243-0.319,11.297,3.868c10.332,21.08,19.553,41.071,27.41,59.436
					c1.834,4.287-0.154,9.244-4.441,11.08c-1.075,0.461-2.207,0.68-3.318,0.68
					C3213.131,1530.465,3210.021,1528.555,3208.647,1525.344z M3152.07,1409.099c-10.234-19.202-20.74-38.269-31.213-56.798
					c-2.288-4.069-0.858-9.212,3.197-11.508c4.054-2.275,9.198-0.856,11.506,3.195c10.541,18.661,21.113,37.843,31.412,57.173
					c2.188,4.111,0.626,9.22-3.484,11.421c-1.265,0.671-2.615,0.988-3.957,0.988
					C3156.51,1413.57,3153.587,1411.945,3152.07,1409.099z M3088.379,1296.158c-11.836-19.999-23.168-38.729-33.519-55.546
					c-2.441-3.975-1.21-9.177,2.757-11.614c3.979-2.449,9.177-1.21,11.618,2.757c10.396,16.906,21.793,35.721,33.674,55.81
					c2.373,4.014,1.044,9.19-2.968,11.563c-1.351,0.801-2.824,1.176-4.286,1.176
					C3092.765,1300.304,3089.951,1298.821,3088.379,1296.158z"/>
			</g>
			<g>
				<path style="fill:#FFFAF3;" d="M2580.61,1661.933c4,0,7.552-2.846,8.3-6.923c0.835-4.585-2.212-8.979-6.794-9.825
					c-20.947-3.813-33.016-6.157-33.048-6.167c-4.429-0.912-9.003,2.09-9.893,6.683c-0.889,4.571,2.101,9,6.685,9.891
					c0,0,12.143,2.362,33.222,6.21C2579.601,1661.889,2580.105,1661.933,2580.61,1661.933z"/>
			</g>
		</g>
		<path style="fill:#FEEACB;" d="M2502.777,1451.976c0,0,3.297-4.67,11.126-11.135c48.16,14.735,159.162,50.297,170.466,227.985
			c2.969,46.68,0,104.988-10.057,134.351c-57.027-4.495-93.07-8.244-93.07-8.244L2502.777,1451.976z"/>
		<polygon style="fill:#CCDEEA;" points="1479.635,1741.688 1641.892,1800.537 1169.414,1805.942 1125.696,1741.688 		"/>
		<path style="fill:#20110C;" d="M1916.483,734.781c-26.818,18.721-55.141,35.288-87.204,41.749
			c-35.936,7.239-76.21,32.057-84.385,105.018c-15.383,137.262,54.431,158.561,16.565,224.825
			c-37.864,66.266-80.462,16.569-88.745,204.711c-8.285,188.145,461.483,294.643,536.031,153.829
			c74.546-140.813,146.781-77.654,208.26-104.13c110.639-47.643,89.65-289.396-58.262-276.38
			c-147.912,13.019-218.146,20.619-200.396-90.609c17.748-111.23-32.949-205.649-100.397-245.883
			C2009.234,718.854,1950.919,710.744,1916.483,734.781z"/>
		<path style="fill:#241A3C;" d="M1803.308,1362.249c0,0-40.354,262.302-96.403,277.993
			c-56.046,15.693-244.223,37.459-244.223,37.459l15.551,70.151c0,0,332.623,9.546,403.541-14.292
			c70.918-23.836,76.222-298.455,76.222-298.455L1803.308,1362.249z"/>
		<path style="fill:#2282D6;" d="M1010.529,1337.64c22.008,18.93,27.979,38.665,34.091,56.062
			c43.816,128.217,94.841,289.483,124.793,415.447c-161.605-387.517-120.963-466.269-220.86-484.666
			c-24.094-4.882-62.778-12.291-101.173-21.523C962.548,1310.436,984.243,1314.743,1010.529,1337.64z"/>
		<path style="fill:#241A3C;" d="M1641.892,1800.537v2.084c0,23.018-18.551,41.736-41.569,41.945l-430.909,3.893v-42.517
			L1641.892,1800.537z"/>
		<path style="fill:#241A3C;" d="M940.742,1741.688L940.742,1741.688c0,21.008,13.651,39.577,33.702,45.842l194.97,60.93v-42.517
			L940.742,1741.688z"/>
		<path style="fill:#302350;" d="M1871.71,1231.064c0,0,48.292-25.249,125.068-18.904c9.433,0.779,28.629-24.737,38.565-21.977
			c90.796,25.219,213.538,258.938,263.979,279.113c50.444,20.179,196.726-35.307,196.726-35.307s109.294,45.396,144.604,156.371
			c35.311,110.974-38.672,216.901-38.672,216.901s-327.876,15.134-496.02-40.353c-168.141-55.488-305.782-179.811-314.188-215.121
			c-8.409-35.31-16.519-133.598,8.702-205.9C1825.695,1273.59,1871.71,1231.064,1871.71,1231.064z"/>
		<path style="opacity:0.28;fill:#302350;" d="M2105.963,1766.91c-41.879-13.821-81.863-31.912-118.432-51.832
			c31.426-150.705,106.067-482.063,147.4-443.452c1.01,1.185,2.02,2.381,3.029,3.578c0.004,0.009,0.01,0.018,0.017,0.026
			c44.104,64.016,61.296,400.311,68.37,514.785C2169.736,1784.17,2135.4,1776.625,2105.963,1766.91z"/>
		<path style="fill:#B55344;" d="M1432.555,1683.679c0,0-57.169-30.265-103.405-23.54c-46.241,6.726-128.63,65.708-111.816,89.602
			s173.186-3.85,173.186-3.85L1432.555,1683.679z"/>
		<path style="fill:#F26E5A;" d="M1878.043,1078.143c0,0,6.858,109.084,0,134.018c-6.857,24.934-112.892,205.366-28.968,222.945
			c78.274,16.397,153.412-222.11,153.412-222.11c-18.727-18.726-14.889-199.344-14.889-199.344L1878.043,1078.143z"/>
		<path style="opacity:0.65;fill:#F26E5A;" d="M1878.046,1078.143l109.553-64.491c0,0-0.285,13.536-0.319,33.578
			c-23.697,79.569-70.271,125.647-106.405,135.873C1882.055,1141.932,1878.046,1078.143,1878.046,1078.143z"/>
		<path style="fill:#F26E5A;" d="M2012.321,953.135c0,0-9.97-80.109-66.425-109.174c-56.452-29.062-111.921-16.917-139.916,57.75
			c-27.992,74.665-10.542,199.24,21.462,240.123C1859.446,1182.712,1987.464,1123.515,2012.321,953.135z"/>
		<path style="fill:#F26E5A;" d="M1992.258,976.169c0,0,33.964-42.71,49.435-14.526c15.471,28.182-6.798,89.572-41.304,89.48
			C1965.883,1051.031,1992.258,976.169,1992.258,976.169z"/>
		<path style="fill:#F26E5A;" d="M1634.606,1716.467l-22.981-12.33c0,0-76.223,3.363-86.313,0
			c-10.089-3.364-72.86-35.311-98.642-35.311s-142.36,83.511-135.635,101.446c6.725,17.935,119.38,16.814,146.844,5.604
			c27.462-11.21,194.483,22.419,194.483,22.419L1634.606,1716.467z"/>
		<path style="fill:#A7CDEF;" d="M2114.814,1226.335c20.192,26.31,28.933,55.84,26.457,98.361
			c-5.961,102.394-70.62,502.745-134.513,502.745c-63.895,0-411.947-18.293-411.947-18.293s-26.904-80.352,12.331-109.496
			c0,0,256.696,24.66,279.113-8.969c22.419-33.627,54.026-409.595,81.527-453.164
			C2010.988,1169.072,2075.828,1175.536,2114.814,1226.335z"/>
		<path style="fill:#33356C;" d="M1031.689,1385.432l137.725,423.717l-228.672-67.461l-131.585-393.269
			c-8.255-24.678,12.496-49.359,38.224-45.46l106.015,16.062C989.957,1324.56,1020.258,1350.264,1031.689,1385.432z"/>
	</g>
	<path style="fill:#007D28;" d="M384.971,1827.104c-33.678-22.77-202.914,63.284-202.914,63.284s104.299-179.028,64.729-227.673
		c-39.571-48.644-96.478,37.623-96.478,37.623s78.02-143.666-7.858-193.345c-67.309-38.938-129.059,66.291-142.441,89.766v403.181
		h410.22C410.229,1999.94,418.648,1849.874,384.971,1827.104z"/>
	<path style="fill:#00A334;" d="M686.736,1925.55c-11.797-13.374-184.317,28.421-184.317,28.421s60.456-80.246,16.22-101.979
		c-44.237-21.734-153.352,63.527-153.352,63.527s29.491-87.663-32.44-98.165c-61.931-10.501-89.946,91.294-89.946,91.294
		s15.811-70.598-38.747-88.989c-54.558-18.389-121.978,114.251-121.978,114.251s60.456-147.117,32.44-195.599
		C86.6,1689.828,9.924,1869.126,9.924,1869.126s19.12-87.712-9.915-127.511v258.325h655.762
		C655.771,1999.94,698.532,1938.925,686.736,1925.55z"/>
</g>
</svg>
