<?xml version="1.0" encoding="utf-8"?>
<!-- Generator: Adobe Illustrator 27.5.0, SVG Export Plug-In . SVG Version: 6.00 Build 0)  -->
<svg version="1.1" id="Layer_1" xmlns="http://www.w3.org/2000/svg" xmlns:xlink="http://www.w3.org/1999/xlink" x="0px" y="0px"
	 viewBox="0 0 3491.902 2000" style="enable-background:new 0 0 3491.902 2000;" xml:space="preserve">
<g>
	<rect x="0" y="0" style="fill:#FFFFFF;" width="3491.902" height="2000"/>
	<g>
		<path style="fill:#E9F6FF;" d="M3247.956,1799.167c-0.013,0.106-0.027,0.212-0.053,0.318l-18.831-0.066l-890.458-2.898
			l-1373.018-4.5l-174.188-0.568l-495.091-1.615c0,0-0.291-0.504-0.834-1.496c-0.172-0.304-0.357-0.662-0.582-1.058
			c-7.834-14.398-46.766-88.729-76.051-195.52c-27.909-101.815-47.017-233.167-21.993-370.21
			c4.777-26.176,11.169-52.562,19.426-78.988c1.416-4.565,2.898-9.132,4.433-13.697c9.184-27.313,20.392-54.626,33.903-81.767
			l0.04-0.053c2.647-5.359,5.412-10.719,8.258-16.065c11.5-21.596,24.508-43.048,39.131-64.287c1.495-2.17,3.03-4.354,4.565-6.524
			c20.974-29.708,45.204-58.967,73.047-87.51c212.445-217.778,408.348-247.341,569.078-232.533
			c128.255,11.804,234.107,51.861,308.081,47.031c49.809-3.256,89.496-36.153,133.826-83.449
			c31.747-33.863,65.875-75.111,107.797-118.158c95.451-98.004,231.342-205.259,471.59-255.664
			c98.388-20.63,208.819-32.619,319.117-32.739c252.237-0.304,503.825,61.415,609.121,223.389
			c23.422,35.994,39.607,76.938,46.965,123.254c5.835,36.762,6.1,76.871,0.04,120.594c-4.263,30.886-11.726,63.559-22.643,98.124
			c-20.234,64.128-52.363,134.7-98.19,212.153c-9.633,16.29-17.811,31.693-24.628,46.29
			c-96.535,206.926,81.159,250.543,242.763,342.156c38.456,21.809,76.011,46.343,108.724,76.435
			c11.327,10.428,22.086,21.503,32.103,33.387c13.974,16.581,26.493,34.684,37.133,54.653
			C3255.842,1593.802,3270.359,1680.413,3247.956,1799.167z"/>
		<path style="opacity:0.5;fill:#F8FBFF;" d="M2945.275,664.386c-4.263,30.886-11.726,63.559-22.643,98.124
			c-20.234,64.128-52.363,134.7-98.19,212.153c-9.633,16.29-17.811,31.693-24.628,46.29L322.267,1332.911l-125.411-111.357
			c4.777-26.176,11.169-52.562,19.426-78.988l2681.986-722.027c23.422,35.994,39.607,76.938,46.965,123.254
			C2951.069,580.554,2951.334,620.663,2945.275,664.386z"/>
		<g style="opacity:0.3;">
			<rect x="1218.729" y="880.733" style="fill:#A2C5F9;" width="172.522" height="792.251"/>
			<rect x="1257.477" y="880.733" style="fill:#AFCDFB;" width="172.522" height="792.251"/>
			
				<rect x="1257.521" y="880.523" transform="matrix(-1 -1.224647e-16 1.224647e-16 -1 2687.5198 1806.826)" style="fill:#A2C5F9;" width="172.477" height="45.78"/>
			
				<rect x="1257.521" y="979.814" transform="matrix(-1 -1.224647e-16 1.224647e-16 -1 2687.5198 2005.4092)" style="fill:#A2C5F9;" width="172.477" height="45.78"/>
			
				<rect x="1257.521" y="1079.106" transform="matrix(-1 -1.224647e-16 1.224647e-16 -1 2687.5198 2203.9917)" style="fill:#A2C5F9;" width="172.477" height="45.78"/>
			
				<rect x="1257.521" y="1178.398" transform="matrix(-1 -1.224647e-16 1.224647e-16 -1 2687.5198 2402.575)" style="fill:#A2C5F9;" width="172.477" height="45.78"/>
			
				<rect x="1257.521" y="1277.689" transform="matrix(-1 -1.224647e-16 1.224647e-16 -1 2687.5198 2601.1584)" style="fill:#A2C5F9;" width="172.477" height="45.78"/>
			
				<rect x="1257.521" y="1376.981" transform="matrix(-1 -1.224647e-16 1.224647e-16 -1 2687.5198 2799.7429)" style="fill:#A2C5F9;" width="172.477" height="45.781"/>
			
				<rect x="1257.521" y="1476.272" transform="matrix(-1 -1.224647e-16 1.224647e-16 -1 2687.5198 2998.3259)" style="fill:#A2C5F9;" width="172.477" height="45.781"/>
			
				<rect x="1257.521" y="1575.564" transform="matrix(-1 -1.224647e-16 1.224647e-16 -1 2687.5198 3196.9092)" style="fill:#A2C5F9;" width="172.477" height="45.781"/>
			<rect x="1494.522" y="992.837" style="fill:#A2C5F9;" width="172.522" height="680.147"/>
			<rect x="1533.269" y="992.837" style="fill:#AFCDFB;" width="172.522" height="680.147"/>
			
				<rect x="1533.314" y="992.657" transform="matrix(-1 -1.224647e-16 1.224647e-16 -1 3239.1055 2024.616)" style="fill:#A2C5F9;" width="172.478" height="39.303"/>
			
				<rect x="1533.314" y="1077.898" transform="matrix(-1 -1.224647e-16 1.224647e-16 -1 3239.1055 2195.0996)" style="fill:#A2C5F9;" width="172.478" height="39.303"/>
			
				<rect x="1533.314" y="1163.14" transform="matrix(-1 -1.224647e-16 1.224647e-16 -1 3239.1055 2365.583)" style="fill:#A2C5F9;" width="172.478" height="39.303"/>
			
				<rect x="1533.314" y="1248.382" transform="matrix(-1 -1.224647e-16 1.224647e-16 -1 3239.1055 2536.0667)" style="fill:#A2C5F9;" width="172.478" height="39.303"/>
			
				<rect x="1533.314" y="1333.624" transform="matrix(-1 -1.224647e-16 1.224647e-16 -1 3239.1055 2706.55)" style="fill:#A2C5F9;" width="172.478" height="39.303"/>
			
				<rect x="1533.314" y="1418.865" transform="matrix(-1 -1.224647e-16 1.224647e-16 -1 3239.1055 2877.0337)" style="fill:#A2C5F9;" width="172.478" height="39.303"/>
			
				<rect x="1533.314" y="1504.107" transform="matrix(-1 -1.224647e-16 1.224647e-16 -1 3239.1055 3047.5171)" style="fill:#A2C5F9;" width="172.478" height="39.303"/>
			
				<rect x="1533.314" y="1589.35" transform="matrix(-1 -1.224647e-16 1.224647e-16 -1 3239.1055 3218.0017)" style="fill:#A2C5F9;" width="172.478" height="39.301"/>
			
				<rect x="1125.358" y="1648.683" transform="matrix(-1 -1.224647e-16 1.224647e-16 -1 2322.9597 3396.8496)" style="fill:#DCEAF9;" width="72.244" height="99.483"/>
			<path style="fill:#AFCDFB;" d="M295.483,1788.394l81.463,0.725l5.2,0.05h0.013h41.195h724.064v-1.788v-1.774v-37.438v-4.611
				V1723.4v-14.857v-20.157v-10.347v-5.049v-20.156v-4.15V1634.8v-36.377v-24.469v-60.995h-84.109v-317.423h-16.925h-2.223H979.2
				v0.026v39.339v19.17v39.338v19.17v39.351v15.558h-30.886h-37.199v0.012v63.27h-62.923H792.52v-36.74h-51.623v-145.87h-138.18
				v-1.774v-16.171v-15.333v-25.492v-16.283v-25.494v-16.271v-25.492v-17.595v-25.48v-22.394v-25.492v-16.883H493.464v16.883v25.492
				v22.394v25.48v17.595v25.492v0.088h-24.918v-0.088v-25.492v-17.595v-25.48v-17.532v-25.48v-0.088H359.294v0.088v127.85v25.494
				v16.283v2.436h-21.689h-77.322c0,0-30.383-51.984-39.566-26.192c-57.009,159.98-36.021,319.433-1.866,437.125
				c29.285,100.847,68.217,171.039,76.051,184.635L295.483,1788.394z"/>
			
				<rect x="493.463" y="1014.892" transform="matrix(-1 -1.224647e-16 1.224647e-16 -1 1096.2427 2055.271)" style="fill:#A2C5F9;" width="109.317" height="25.487"/>
			
				<rect x="493.463" y="1062.774" transform="matrix(-1 -1.224647e-16 1.224647e-16 -1 1096.2427 2151.0344)" style="fill:#A2C5F9;" width="109.317" height="25.487"/>
			
				<rect x="493.463" y="1105.852" transform="matrix(-1 -1.224647e-16 1.224647e-16 -1 1096.2427 2237.1919)" style="fill:#A2C5F9;" width="109.317" height="25.487"/>
			
				<rect x="359.323" y="1105.852" transform="matrix(-1 -1.224647e-16 1.224647e-16 -1 827.9629 2237.1919)" style="fill:#A2C5F9;" width="109.317" height="25.487"/>
			
				<rect x="359.323" y="1062.774" transform="matrix(-1 -1.224647e-16 1.224647e-16 -1 827.9629 2151.0344)" style="fill:#A2C5F9;" width="109.317" height="25.487"/>
			
				<rect x="359.323" y="1019.761" transform="matrix(-1 -1.224647e-16 1.224647e-16 -1 827.9629 2065.0095)" style="fill:#A2C5F9;" width="109.317" height="25.487"/>
			
				<rect x="359.291" y="1147.62" transform="matrix(-1 -1.224647e-16 1.224647e-16 -1 962.0708 2320.7288)" style="fill:#A2C5F9;" width="243.489" height="25.489"/>
			
				<rect x="359.291" y="1189.389" transform="matrix(-1 -1.224647e-16 1.224647e-16 -1 962.0708 2404.2654)" style="fill:#A2C5F9;" width="243.489" height="25.487"/>
			
				<rect x="978.426" y="1195.564" transform="matrix(-1 -1.224647e-16 1.224647e-16 -1 2041.7 2430.4717)" style="fill:#A2C5F9;" width="84.847" height="39.343"/>
			
				<rect x="978.426" y="1254.073" transform="matrix(-1 -1.224647e-16 1.224647e-16 -1 2041.7 2547.4895)" style="fill:#A2C5F9;" width="84.847" height="39.343"/>
			
				<rect x="978.426" y="1312.584" transform="matrix(-1 -1.224647e-16 1.224647e-16 -1 2041.7 2664.51)" style="fill:#A2C5F9;" width="84.847" height="39.343"/>
			
				<rect x="978.426" y="1373.915" transform="matrix(-1 -1.224647e-16 1.224647e-16 -1 2041.7 2787.1729)" style="fill:#A2C5F9;" width="84.847" height="39.343"/>
			
				<rect x="978.426" y="1433.346" transform="matrix(-1 -1.224647e-16 1.224647e-16 -1 2041.7 2906.0344)" style="fill:#A2C5F9;" width="84.847" height="39.343"/>
			
				<rect x="978.426" y="1492.778" transform="matrix(-1 -1.224647e-16 1.224647e-16 -1 2041.7 3024.8984)" style="fill:#A2C5F9;" width="84.847" height="39.343"/>
			
				<rect x="978.426" y="1554.954" transform="matrix(-1 -1.224647e-16 1.224647e-16 -1 2041.7 3149.2517)" style="fill:#A2C5F9;" width="84.847" height="39.343"/>
			
				<rect x="359.291" y="1230.211" transform="matrix(-1 -1.224647e-16 1.224647e-16 -1 962.0708 2476.6006)" style="fill:#A2C5F9;" width="243.489" height="16.179"/>
			<rect x="948.32" y="1195.564" style="fill:#A2C5F9;" width="31.284" height="171.932"/>
			<rect x="848.187" y="1367.496" style="fill:#A2C5F9;" width="62.929" height="63.28"/>
			<path style="fill:#A2C5F9;" d="M359.323,1019.76v25.491l-0.019,102.366l-0.01,25.49v18.721h-21.688v-170.038
				c0.98-0.682,1.95-1.355,2.919-2.029H359.323z"/>
			<rect x="480.131" y="998.005" style="fill:#A2C5F9;" width="13.332" height="133.335"/>
			<g style="opacity:0.8;">
				<g>
					<g>
						<g>
							
								<rect x="699.798" y="1273.255" transform="matrix(-1 -1.224647e-16 1.224647e-16 -1 1418.1173 2571.1638)" style="fill:#A2C5F9;" width="18.521" height="24.653"/>
							
								<rect x="665.162" y="1273.255" transform="matrix(-1 -1.224647e-16 1.224647e-16 -1 1348.8456 2571.1638)" style="fill:#A2C5F9;" width="18.522" height="24.653"/>
							
								<rect x="631.302" y="1273.255" transform="matrix(-1 -1.224647e-16 1.224647e-16 -1 1281.1259 2571.1638)" style="fill:#A2C5F9;" width="18.522" height="24.653"/>
							
								<rect x="599.197" y="1273.255" transform="matrix(-1 -1.224647e-16 1.224647e-16 -1 1216.9156 2571.1638)" style="fill:#A2C5F9;" width="18.521" height="24.653"/>
							
								<rect x="566.477" y="1273.255" transform="matrix(-1 -1.224647e-16 1.224647e-16 -1 1151.4749 2571.1638)" style="fill:#A2C5F9;" width="18.521" height="24.653"/>
						</g>
						<g>
							
								<rect x="533.38" y="1273.255" transform="matrix(-1 -1.224647e-16 1.224647e-16 -1 1085.2825 2571.1638)" style="fill:#A2C5F9;" width="18.522" height="24.653"/>
							
								<rect x="498.745" y="1273.255" transform="matrix(-1 -1.224647e-16 1.224647e-16 -1 1016.0108 2571.1638)" style="fill:#A2C5F9;" width="18.522" height="24.653"/>
							
								<rect x="464.885" y="1273.255" transform="matrix(-1 -1.224647e-16 1.224647e-16 -1 948.2909 2571.1638)" style="fill:#A2C5F9;" width="18.521" height="24.653"/>
							
								<rect x="432.78" y="1273.255" transform="matrix(-1 -1.224647e-16 1.224647e-16 -1 884.0822 2571.1638)" style="fill:#A2C5F9;" width="18.522" height="24.653"/>
							
								<rect x="400.059" y="1273.255" transform="matrix(-1 -1.224647e-16 1.224647e-16 -1 818.6401 2571.1638)" style="fill:#A2C5F9;" width="18.522" height="24.653"/>
						</g>
					</g>
					<g>
						<g>
							
								<rect x="365.961" y="1273.255" transform="matrix(-1 -1.224647e-16 1.224647e-16 -1 750.4435 2571.1638)" style="fill:#A2C5F9;" width="18.521" height="24.653"/>
							
								<rect x="331.325" y="1273.255" transform="matrix(-1 -1.224647e-16 1.224647e-16 -1 681.1719 2571.1638)" style="fill:#A2C5F9;" width="18.521" height="24.653"/>
							
								<rect x="297.465" y="1273.255" transform="matrix(-1 -1.224647e-16 1.224647e-16 -1 613.4521 2571.1638)" style="fill:#A2C5F9;" width="18.521" height="24.653"/>
							
								<rect x="265.36" y="1273.255" transform="matrix(-1 -1.224647e-16 1.224647e-16 -1 549.2419 2571.1638)" style="fill:#A2C5F9;" width="18.522" height="24.653"/>
							
								<rect x="232.64" y="1273.255" transform="matrix(-1 -1.224647e-16 1.224647e-16 -1 483.8011 2571.1638)" style="fill:#A2C5F9;" width="18.521" height="24.653"/>
						</g>
						<g>
							
								<rect x="199.544" y="1273.255" transform="matrix(-1 -1.224647e-16 1.224647e-16 -1 417.6088 2571.1638)" style="fill:#A2C5F9;" width="18.522" height="24.653"/>
						</g>
					</g>
				</g>
				<g>
					<g>
						<g>
							
								<rect x="699.798" y="1316.76" transform="matrix(-1 -1.224647e-16 1.224647e-16 -1 1418.1173 2658.1714)" style="fill:#A2C5F9;" width="18.521" height="24.652"/>
							
								<rect x="665.162" y="1316.76" transform="matrix(-1 -1.224647e-16 1.224647e-16 -1 1348.8456 2658.1714)" style="fill:#A2C5F9;" width="18.522" height="24.652"/>
							
								<rect x="631.302" y="1316.76" transform="matrix(-1 -1.224647e-16 1.224647e-16 -1 1281.1259 2658.1714)" style="fill:#A2C5F9;" width="18.522" height="24.652"/>
							
								<rect x="599.197" y="1316.76" transform="matrix(-1 -1.224647e-16 1.224647e-16 -1 1216.9156 2658.1714)" style="fill:#A2C5F9;" width="18.521" height="24.652"/>
							
								<rect x="566.477" y="1316.76" transform="matrix(-1 -1.224647e-16 1.224647e-16 -1 1151.4749 2658.1714)" style="fill:#A2C5F9;" width="18.521" height="24.652"/>
						</g>
						<g>
							
								<rect x="533.38" y="1316.76" transform="matrix(-1 -1.224647e-16 1.224647e-16 -1 1085.2825 2658.1714)" style="fill:#A2C5F9;" width="18.522" height="24.652"/>
							
								<rect x="498.745" y="1316.76" transform="matrix(-1 -1.224647e-16 1.224647e-16 -1 1016.0108 2658.1714)" style="fill:#A2C5F9;" width="18.522" height="24.652"/>
							
								<rect x="464.885" y="1316.76" transform="matrix(-1 -1.224647e-16 1.224647e-16 -1 948.2909 2658.1714)" style="fill:#A2C5F9;" width="18.521" height="24.652"/>
							
								<rect x="432.78" y="1316.76" transform="matrix(-1 -1.224647e-16 1.224647e-16 -1 884.0822 2658.1714)" style="fill:#A2C5F9;" width="18.522" height="24.652"/>
							
								<rect x="400.059" y="1316.76" transform="matrix(-1 -1.224647e-16 1.224647e-16 -1 818.6401 2658.1714)" style="fill:#A2C5F9;" width="18.522" height="24.652"/>
						</g>
					</g>
					<g>
						<g>
							
								<rect x="365.961" y="1316.76" transform="matrix(-1 -1.224647e-16 1.224647e-16 -1 750.4435 2658.1714)" style="fill:#A2C5F9;" width="18.521" height="24.652"/>
							
								<rect x="331.325" y="1316.76" transform="matrix(-1 -1.224647e-16 1.224647e-16 -1 681.1719 2658.1714)" style="fill:#A2C5F9;" width="18.521" height="24.652"/>
							
								<rect x="297.465" y="1316.76" transform="matrix(-1 -1.224647e-16 1.224647e-16 -1 613.4521 2658.1714)" style="fill:#A2C5F9;" width="18.521" height="24.652"/>
							
								<rect x="265.36" y="1316.76" transform="matrix(-1 -1.224647e-16 1.224647e-16 -1 549.2419 2658.1714)" style="fill:#A2C5F9;" width="18.522" height="24.652"/>
							
								<rect x="232.64" y="1316.76" transform="matrix(-1 -1.224647e-16 1.224647e-16 -1 483.8011 2658.1714)" style="fill:#A2C5F9;" width="18.521" height="24.652"/>
						</g>
						<g>
							
								<rect x="199.544" y="1316.76" transform="matrix(-1 -1.224647e-16 1.224647e-16 -1 417.6088 2658.1714)" style="fill:#A2C5F9;" width="18.522" height="24.652"/>
						</g>
					</g>
				</g>
				<g>
					<g>
						<g>
							
								<rect x="699.798" y="1359.596" transform="matrix(-1 -1.224647e-16 1.224647e-16 -1 1418.1173 2743.8447)" style="fill:#A2C5F9;" width="18.521" height="24.652"/>
							
								<rect x="665.162" y="1359.596" transform="matrix(-1 -1.224647e-16 1.224647e-16 -1 1348.8456 2743.8447)" style="fill:#A2C5F9;" width="18.522" height="24.652"/>
							
								<rect x="631.302" y="1359.596" transform="matrix(-1 -1.224647e-16 1.224647e-16 -1 1281.1259 2743.8447)" style="fill:#A2C5F9;" width="18.522" height="24.652"/>
							
								<rect x="599.197" y="1359.596" transform="matrix(-1 -1.224647e-16 1.224647e-16 -1 1216.9156 2743.8447)" style="fill:#A2C5F9;" width="18.521" height="24.652"/>
							
								<rect x="566.477" y="1359.596" transform="matrix(-1 -1.224647e-16 1.224647e-16 -1 1151.4749 2743.8447)" style="fill:#A2C5F9;" width="18.521" height="24.652"/>
						</g>
						<g>
							
								<rect x="533.38" y="1359.596" transform="matrix(-1 -1.224647e-16 1.224647e-16 -1 1085.2825 2743.8447)" style="fill:#A2C5F9;" width="18.522" height="24.652"/>
							
								<rect x="498.745" y="1359.596" transform="matrix(-1 -1.224647e-16 1.224647e-16 -1 1016.0108 2743.8447)" style="fill:#A2C5F9;" width="18.522" height="24.652"/>
							
								<rect x="464.885" y="1359.596" transform="matrix(-1 -1.224647e-16 1.224647e-16 -1 948.2909 2743.8447)" style="fill:#A2C5F9;" width="18.521" height="24.652"/>
							
								<rect x="432.78" y="1359.596" transform="matrix(-1 -1.224647e-16 1.224647e-16 -1 884.0822 2743.8447)" style="fill:#A2C5F9;" width="18.522" height="24.652"/>
							
								<rect x="400.059" y="1359.596" transform="matrix(-1 -1.224647e-16 1.224647e-16 -1 818.6401 2743.8447)" style="fill:#A2C5F9;" width="18.522" height="24.652"/>
						</g>
					</g>
					<g>
						<g>
							
								<rect x="365.961" y="1359.596" transform="matrix(-1 -1.224647e-16 1.224647e-16 -1 750.4435 2743.8447)" style="fill:#A2C5F9;" width="18.521" height="24.652"/>
							
								<rect x="331.325" y="1359.596" transform="matrix(-1 -1.224647e-16 1.224647e-16 -1 681.1719 2743.8447)" style="fill:#A2C5F9;" width="18.521" height="24.652"/>
							
								<rect x="297.465" y="1359.596" transform="matrix(-1 -1.224647e-16 1.224647e-16 -1 613.4521 2743.8447)" style="fill:#A2C5F9;" width="18.521" height="24.652"/>
							
								<rect x="265.36" y="1359.596" transform="matrix(-1 -1.224647e-16 1.224647e-16 -1 549.2419 2743.8447)" style="fill:#A2C5F9;" width="18.522" height="24.652"/>
							
								<rect x="232.64" y="1359.596" transform="matrix(-1 -1.224647e-16 1.224647e-16 -1 483.8011 2743.8447)" style="fill:#A2C5F9;" width="18.521" height="24.652"/>
						</g>
						<g>
							
								<rect x="199.544" y="1359.596" transform="matrix(-1 -1.224647e-16 1.224647e-16 -1 417.6088 2743.8447)" style="fill:#A2C5F9;" width="18.522" height="24.652"/>
						</g>
					</g>
				</g>
				<g>
					<g>
						<g>
							<g>
								
									<rect x="699.798" y="1405.109" transform="matrix(-1 -1.224647e-16 1.224647e-16 -1 1418.1173 2834.8706)" style="fill:#A2C5F9;" width="18.521" height="24.653"/>
								
									<rect x="665.162" y="1405.109" transform="matrix(-1 -1.224647e-16 1.224647e-16 -1 1348.8456 2834.8706)" style="fill:#A2C5F9;" width="18.522" height="24.653"/>
								
									<rect x="631.302" y="1405.109" transform="matrix(-1 -1.224647e-16 1.224647e-16 -1 1281.1259 2834.8706)" style="fill:#A2C5F9;" width="18.522" height="24.653"/>
								
									<rect x="599.197" y="1405.109" transform="matrix(-1 -1.224647e-16 1.224647e-16 -1 1216.9156 2834.8706)" style="fill:#A2C5F9;" width="18.521" height="24.653"/>
								
									<rect x="566.477" y="1405.109" transform="matrix(-1 -1.224647e-16 1.224647e-16 -1 1151.4749 2834.8706)" style="fill:#A2C5F9;" width="18.521" height="24.653"/>
							</g>
							<g>
								
									<rect x="533.38" y="1405.109" transform="matrix(-1 -1.224647e-16 1.224647e-16 -1 1085.2825 2834.8706)" style="fill:#A2C5F9;" width="18.522" height="24.653"/>
								
									<rect x="498.745" y="1405.109" transform="matrix(-1 -1.224647e-16 1.224647e-16 -1 1016.0108 2834.8706)" style="fill:#A2C5F9;" width="18.522" height="24.653"/>
								
									<rect x="464.885" y="1405.109" transform="matrix(-1 -1.224647e-16 1.224647e-16 -1 948.2909 2834.8706)" style="fill:#A2C5F9;" width="18.521" height="24.653"/>
								
									<rect x="432.78" y="1405.109" transform="matrix(-1 -1.224647e-16 1.224647e-16 -1 884.0822 2834.8706)" style="fill:#A2C5F9;" width="18.522" height="24.653"/>
								
									<rect x="400.059" y="1405.109" transform="matrix(-1 -1.224647e-16 1.224647e-16 -1 818.6401 2834.8706)" style="fill:#A2C5F9;" width="18.522" height="24.653"/>
							</g>
						</g>
						<g>
							<g>
								
									<rect x="365.961" y="1405.109" transform="matrix(-1 -1.224647e-16 1.224647e-16 -1 750.4435 2834.8706)" style="fill:#A2C5F9;" width="18.521" height="24.653"/>
								
									<rect x="331.325" y="1405.109" transform="matrix(-1 -1.224647e-16 1.224647e-16 -1 681.1719 2834.8706)" style="fill:#A2C5F9;" width="18.521" height="24.653"/>
								
									<rect x="297.465" y="1405.109" transform="matrix(-1 -1.224647e-16 1.224647e-16 -1 613.4521 2834.8706)" style="fill:#A2C5F9;" width="18.521" height="24.653"/>
								
									<rect x="265.36" y="1405.109" transform="matrix(-1 -1.224647e-16 1.224647e-16 -1 549.2419 2834.8706)" style="fill:#A2C5F9;" width="18.522" height="24.653"/>
								
									<rect x="232.64" y="1405.109" transform="matrix(-1 -1.224647e-16 1.224647e-16 -1 483.8011 2834.8706)" style="fill:#A2C5F9;" width="18.521" height="24.653"/>
							</g>
							<g>
								
									<rect x="199.544" y="1405.109" transform="matrix(-1 -1.224647e-16 1.224647e-16 -1 417.6088 2834.8706)" style="fill:#A2C5F9;" width="18.522" height="24.653"/>
							</g>
						</g>
					</g>
					<g>
						<g>
							<g>
								
									<rect x="699.798" y="1448.613" transform="matrix(-1 -1.224647e-16 1.224647e-16 -1 1418.1173 2921.8782)" style="fill:#A2C5F9;" width="18.521" height="24.652"/>
								
									<rect x="665.162" y="1448.613" transform="matrix(-1 -1.224647e-16 1.224647e-16 -1 1348.8456 2921.8782)" style="fill:#A2C5F9;" width="18.522" height="24.652"/>
								
									<rect x="631.302" y="1448.613" transform="matrix(-1 -1.224647e-16 1.224647e-16 -1 1281.1259 2921.8782)" style="fill:#A2C5F9;" width="18.522" height="24.652"/>
								
									<rect x="599.197" y="1448.613" transform="matrix(-1 -1.224647e-16 1.224647e-16 -1 1216.9156 2921.8782)" style="fill:#A2C5F9;" width="18.521" height="24.652"/>
								
									<rect x="566.477" y="1448.613" transform="matrix(-1 -1.224647e-16 1.224647e-16 -1 1151.4749 2921.8782)" style="fill:#A2C5F9;" width="18.521" height="24.652"/>
							</g>
							<g>
								
									<rect x="533.38" y="1448.613" transform="matrix(-1 -1.224647e-16 1.224647e-16 -1 1085.2825 2921.8782)" style="fill:#A2C5F9;" width="18.522" height="24.652"/>
								
									<rect x="498.745" y="1448.613" transform="matrix(-1 -1.224647e-16 1.224647e-16 -1 1016.0108 2921.8782)" style="fill:#A2C5F9;" width="18.522" height="24.652"/>
								
									<rect x="464.885" y="1448.613" transform="matrix(-1 -1.224647e-16 1.224647e-16 -1 948.2909 2921.8782)" style="fill:#A2C5F9;" width="18.521" height="24.652"/>
								
									<rect x="432.78" y="1448.613" transform="matrix(-1 -1.224647e-16 1.224647e-16 -1 884.0822 2921.8782)" style="fill:#A2C5F9;" width="18.522" height="24.652"/>
								
									<rect x="400.059" y="1448.613" transform="matrix(-1 -1.224647e-16 1.224647e-16 -1 818.6401 2921.8782)" style="fill:#A2C5F9;" width="18.522" height="24.652"/>
							</g>
						</g>
						<g>
							<g>
								
									<rect x="365.961" y="1448.613" transform="matrix(-1 -1.224647e-16 1.224647e-16 -1 750.4435 2921.8782)" style="fill:#A2C5F9;" width="18.521" height="24.652"/>
								
									<rect x="331.325" y="1448.613" transform="matrix(-1 -1.224647e-16 1.224647e-16 -1 681.1719 2921.8782)" style="fill:#A2C5F9;" width="18.521" height="24.652"/>
								
									<rect x="297.465" y="1448.613" transform="matrix(-1 -1.224647e-16 1.224647e-16 -1 613.4521 2921.8782)" style="fill:#A2C5F9;" width="18.521" height="24.652"/>
								
									<rect x="265.36" y="1448.613" transform="matrix(-1 -1.224647e-16 1.224647e-16 -1 549.2419 2921.8782)" style="fill:#A2C5F9;" width="18.522" height="24.652"/>
								
									<rect x="232.64" y="1448.613" transform="matrix(-1 -1.224647e-16 1.224647e-16 -1 483.8011 2921.8782)" style="fill:#A2C5F9;" width="18.521" height="24.652"/>
							</g>
							<g>
								
									<rect x="199.544" y="1448.613" transform="matrix(-1 -1.224647e-16 1.224647e-16 -1 417.6088 2921.8782)" style="fill:#A2C5F9;" width="18.522" height="24.652"/>
							</g>
						</g>
					</g>
					<g>
						<g>
							<g>
								
									<rect x="699.798" y="1491.45" transform="matrix(-1 -1.224647e-16 1.224647e-16 -1 1418.1173 3007.5515)" style="fill:#A2C5F9;" width="18.521" height="24.652"/>
								
									<rect x="665.162" y="1491.45" transform="matrix(-1 -1.224647e-16 1.224647e-16 -1 1348.8456 3007.5515)" style="fill:#A2C5F9;" width="18.522" height="24.652"/>
								
									<rect x="631.302" y="1491.45" transform="matrix(-1 -1.224647e-16 1.224647e-16 -1 1281.1259 3007.5515)" style="fill:#A2C5F9;" width="18.522" height="24.652"/>
								
									<rect x="599.197" y="1491.45" transform="matrix(-1 -1.224647e-16 1.224647e-16 -1 1216.9156 3007.5515)" style="fill:#A2C5F9;" width="18.521" height="24.652"/>
								
									<rect x="566.477" y="1491.45" transform="matrix(-1 -1.224647e-16 1.224647e-16 -1 1151.4749 3007.5515)" style="fill:#A2C5F9;" width="18.521" height="24.652"/>
							</g>
							<g>
								
									<rect x="533.38" y="1491.45" transform="matrix(-1 -1.224647e-16 1.224647e-16 -1 1085.2825 3007.5515)" style="fill:#A2C5F9;" width="18.522" height="24.652"/>
								
									<rect x="498.745" y="1491.45" transform="matrix(-1 -1.224647e-16 1.224647e-16 -1 1016.0108 3007.5515)" style="fill:#A2C5F9;" width="18.522" height="24.652"/>
								
									<rect x="464.885" y="1491.45" transform="matrix(-1 -1.224647e-16 1.224647e-16 -1 948.2909 3007.5515)" style="fill:#A2C5F9;" width="18.521" height="24.652"/>
								
									<rect x="432.78" y="1491.45" transform="matrix(-1 -1.224647e-16 1.224647e-16 -1 884.0822 3007.5515)" style="fill:#A2C5F9;" width="18.522" height="24.652"/>
								
									<rect x="400.059" y="1491.45" transform="matrix(-1 -1.224647e-16 1.224647e-16 -1 818.6401 3007.5515)" style="fill:#A2C5F9;" width="18.522" height="24.652"/>
							</g>
						</g>
						<g>
							<g>
								
									<rect x="365.961" y="1491.45" transform="matrix(-1 -1.224647e-16 1.224647e-16 -1 750.4435 3007.5515)" style="fill:#A2C5F9;" width="18.521" height="24.652"/>
								
									<rect x="331.325" y="1491.45" transform="matrix(-1 -1.224647e-16 1.224647e-16 -1 681.1719 3007.5515)" style="fill:#A2C5F9;" width="18.521" height="24.652"/>
								
									<rect x="297.465" y="1491.45" transform="matrix(-1 -1.224647e-16 1.224647e-16 -1 613.4521 3007.5515)" style="fill:#A2C5F9;" width="18.521" height="24.652"/>
								
									<rect x="265.36" y="1491.45" transform="matrix(-1 -1.224647e-16 1.224647e-16 -1 549.2419 3007.5515)" style="fill:#A2C5F9;" width="18.522" height="24.652"/>
								
									<rect x="232.64" y="1491.45" transform="matrix(-1 -1.224647e-16 1.224647e-16 -1 483.8011 3007.5515)" style="fill:#A2C5F9;" width="18.521" height="24.652"/>
							</g>
							<g>
								
									<rect x="199.544" y="1491.45" transform="matrix(-1 -1.224647e-16 1.224647e-16 -1 417.6088 3007.5515)" style="fill:#A2C5F9;" width="18.522" height="24.652"/>
							</g>
						</g>
					</g>
				</g>
			</g>
			
				<rect x="418.896" y="1568.686" transform="matrix(-1 -1.224647e-16 1.224647e-16 -1 1267.0833 3356.073)" style="fill:#A2C5F9;" width="429.29" height="218.702"/>
			
				<rect x="744.417" y="1678.037" transform="matrix(-1 -1.224647e-16 1.224647e-16 -1 1918.1241 3465.4243)" style="fill:#A2C5F9;" width="429.29" height="109.35"/>
			<path style="fill:#A2C5F9;" d="M384.476,1602.759v184.635h-89.575c-7.834-13.596-46.766-83.79-76.051-184.635H384.476z"/>
			
				<rect x="739.526" y="1594.297" transform="matrix(-1 -1.224647e-16 1.224647e-16 -1 1559.0356 3229.1001)" style="fill:#AFCDFB;" width="79.983" height="40.506"/>
			
				<rect x="636.856" y="1594.297" transform="matrix(-1 -1.224647e-16 1.224647e-16 -1 1353.6949 3229.1001)" style="fill:#AFCDFB;" width="79.983" height="40.506"/>
			
				<rect x="536.142" y="1594.297" transform="matrix(-1 -1.224647e-16 1.224647e-16 -1 1152.2671 3229.1001)" style="fill:#AFCDFB;" width="79.982" height="40.506"/>
			
				<rect x="437.364" y="1594.297" transform="matrix(-1 -1.224647e-16 1.224647e-16 -1 954.7103 3229.1001)" style="fill:#AFCDFB;" width="79.982" height="40.506"/>
			
				<rect x="382.154" y="1568.686" transform="matrix(-1 -1.224647e-16 1.224647e-16 -1 805.5121 3357.9568)" style="fill:#ADC9E0;" width="41.205" height="220.585"/>
			
				<rect x="1044.155" y="1178.443" transform="matrix(-1 -1.224647e-16 1.224647e-16 -1 2090.5413 2374.0071)" style="fill:#DCEAF9;" width="2.232" height="17.122"/>
			
				<rect x="963.984" y="1178.443" transform="matrix(-1 -1.224647e-16 1.224647e-16 -1 1930.2002 2374.0071)" style="fill:#DCEAF9;" width="2.232" height="17.122"/>
			<g>
				
					<rect x="1092.443" y="1598.419" transform="matrix(-1 -1.224647e-16 1.224647e-16 -1 2479.644 3384.0317)" style="fill:#AFCDFB;" width="294.757" height="187.194"/>
				
					<rect x="1092.443" y="1573.961" transform="matrix(-1 -1.224647e-16 1.224647e-16 -1 2479.644 3208.7642)" style="fill:#A2C5F9;" width="294.757" height="60.841"/>
				<g>
					<g>
						<g>
							
								<rect x="1351.993" y="1652.834" transform="matrix(-1 -1.224647e-16 1.224647e-16 -1 2719.1238 3325.8184)" style="fill:#A2C5F9;" width="15.138" height="20.15"/>
							
								<rect x="1323.684" y="1652.834" transform="matrix(-1 -1.224647e-16 1.224647e-16 -1 2662.5066 3325.8184)" style="fill:#A2C5F9;" width="15.138" height="20.15"/>
							
								<rect x="1296.009" y="1652.834" transform="matrix(-1 -1.224647e-16 1.224647e-16 -1 2607.1565 3325.8184)" style="fill:#A2C5F9;" width="15.138" height="20.15"/>
							
								<rect x="1269.769" y="1652.834" transform="matrix(-1 -1.224647e-16 1.224647e-16 -1 2554.6765 3325.8184)" style="fill:#A2C5F9;" width="15.138" height="20.15"/>
							
								<rect x="1243.026" y="1652.834" transform="matrix(-1 -1.224647e-16 1.224647e-16 -1 2501.1897 3325.8184)" style="fill:#A2C5F9;" width="15.138" height="20.15"/>
						</g>
						<g>
							
								<rect x="1215.976" y="1652.834" transform="matrix(-1 -1.224647e-16 1.224647e-16 -1 2447.0896 3325.8184)" style="fill:#A2C5F9;" width="15.138" height="20.15"/>
							
								<rect x="1187.667" y="1652.834" transform="matrix(-1 -1.224647e-16 1.224647e-16 -1 2390.4727 3325.8184)" style="fill:#A2C5F9;" width="15.138" height="20.15"/>
							
								<rect x="1159.992" y="1652.834" transform="matrix(-1 -1.224647e-16 1.224647e-16 -1 2335.123 3325.8184)" style="fill:#A2C5F9;" width="15.138" height="20.15"/>
							
								<rect x="1133.753" y="1652.834" transform="matrix(-1 -1.224647e-16 1.224647e-16 -1 2282.6431 3325.8184)" style="fill:#A2C5F9;" width="15.138" height="20.15"/>
							
								<rect x="1107.009" y="1652.834" transform="matrix(-1 -1.224647e-16 1.224647e-16 -1 2229.1563 3325.8184)" style="fill:#A2C5F9;" width="15.138" height="20.15"/>
						</g>
					</g>
					<g>
						<g>
							
								<rect x="1351.993" y="1688.391" transform="matrix(-1 -1.224647e-16 1.224647e-16 -1 2719.1238 3396.9314)" style="fill:#A2C5F9;" width="15.138" height="20.149"/>
							
								<rect x="1323.684" y="1688.391" transform="matrix(-1 -1.224647e-16 1.224647e-16 -1 2662.5066 3396.9314)" style="fill:#A2C5F9;" width="15.138" height="20.149"/>
							
								<rect x="1296.009" y="1688.391" transform="matrix(-1 -1.224647e-16 1.224647e-16 -1 2607.1565 3396.9314)" style="fill:#A2C5F9;" width="15.138" height="20.149"/>
							
								<rect x="1269.769" y="1688.391" transform="matrix(-1 -1.224647e-16 1.224647e-16 -1 2554.6765 3396.9314)" style="fill:#A2C5F9;" width="15.138" height="20.149"/>
							
								<rect x="1243.026" y="1688.391" transform="matrix(-1 -1.224647e-16 1.224647e-16 -1 2501.1897 3396.9314)" style="fill:#A2C5F9;" width="15.138" height="20.149"/>
						</g>
						<g>
							
								<rect x="1215.976" y="1688.391" transform="matrix(-1 -1.224647e-16 1.224647e-16 -1 2447.0896 3396.9314)" style="fill:#A2C5F9;" width="15.138" height="20.149"/>
							
								<rect x="1187.667" y="1688.391" transform="matrix(-1 -1.224647e-16 1.224647e-16 -1 2390.4727 3396.9314)" style="fill:#A2C5F9;" width="15.138" height="20.149"/>
							
								<rect x="1159.992" y="1688.391" transform="matrix(-1 -1.224647e-16 1.224647e-16 -1 2335.123 3396.9314)" style="fill:#A2C5F9;" width="15.138" height="20.149"/>
							
								<rect x="1133.753" y="1688.391" transform="matrix(-1 -1.224647e-16 1.224647e-16 -1 2282.6431 3396.9314)" style="fill:#A2C5F9;" width="15.138" height="20.149"/>
							
								<rect x="1107.009" y="1688.391" transform="matrix(-1 -1.224647e-16 1.224647e-16 -1 2229.1563 3396.9314)" style="fill:#A2C5F9;" width="15.138" height="20.149"/>
						</g>
					</g>
					<g>
						<g>
							
								<rect x="1351.993" y="1723.403" transform="matrix(-1 -1.224647e-16 1.224647e-16 -1 2719.1238 3466.9556)" style="fill:#A2C5F9;" width="15.138" height="20.149"/>
							
								<rect x="1323.684" y="1723.403" transform="matrix(-1 -1.224647e-16 1.224647e-16 -1 2662.5066 3466.9556)" style="fill:#A2C5F9;" width="15.138" height="20.149"/>
							
								<rect x="1296.009" y="1723.403" transform="matrix(-1 -1.224647e-16 1.224647e-16 -1 2607.1565 3466.9556)" style="fill:#A2C5F9;" width="15.138" height="20.149"/>
							
								<rect x="1269.769" y="1723.403" transform="matrix(-1 -1.224647e-16 1.224647e-16 -1 2554.6765 3466.9556)" style="fill:#A2C5F9;" width="15.138" height="20.149"/>
							
								<rect x="1243.026" y="1723.403" transform="matrix(-1 -1.224647e-16 1.224647e-16 -1 2501.1897 3466.9556)" style="fill:#A2C5F9;" width="15.138" height="20.149"/>
						</g>
						<g>
							
								<rect x="1215.976" y="1723.403" transform="matrix(-1 -1.224647e-16 1.224647e-16 -1 2447.0896 3466.9556)" style="fill:#A2C5F9;" width="15.138" height="20.149"/>
							
								<rect x="1187.667" y="1723.403" transform="matrix(-1 -1.224647e-16 1.224647e-16 -1 2390.4727 3466.9556)" style="fill:#A2C5F9;" width="15.138" height="20.149"/>
							
								<rect x="1159.992" y="1723.403" transform="matrix(-1 -1.224647e-16 1.224647e-16 -1 2335.123 3466.9556)" style="fill:#A2C5F9;" width="15.138" height="20.149"/>
							
								<rect x="1133.753" y="1723.403" transform="matrix(-1 -1.224647e-16 1.224647e-16 -1 2282.6431 3466.9556)" style="fill:#A2C5F9;" width="15.138" height="20.149"/>
							
								<rect x="1107.009" y="1723.403" transform="matrix(-1 -1.224647e-16 1.224647e-16 -1 2229.1563 3466.9556)" style="fill:#A2C5F9;" width="15.138" height="20.149"/>
						</g>
					</g>
				</g>
				
					<rect x="1351.993" y="1591.054" transform="matrix(-1 -1.224647e-16 1.224647e-16 -1 2716.7068 3202.8914)" style="fill:#ADC9E0;" width="12.721" height="20.784"/>
				
					<rect x="1225.701" y="1591.054" transform="matrix(-1 -1.224647e-16 1.224647e-16 -1 2464.1233 3202.8914)" style="fill:#ADC9E0;" width="12.721" height="20.784"/>
				
					<rect x="1125.237" y="1591.054" transform="matrix(-1 -1.224647e-16 1.224647e-16 -1 2263.196 3202.8914)" style="fill:#ADC9E0;" width="12.721" height="20.784"/>
			</g>
			<g>
				
					<rect x="1405.712" y="1598.419" transform="matrix(-1 -1.224647e-16 1.224647e-16 -1 3106.1807 3384.0317)" style="fill:#AFCDFB;" width="294.757" height="187.194"/>
				
					<rect x="1405.712" y="1573.961" transform="matrix(-1 -1.224647e-16 1.224647e-16 -1 3106.1807 3208.7642)" style="fill:#A2C5F9;" width="294.757" height="60.841"/>
				<g>
					<g>
						<g>
							
								<rect x="1665.262" y="1652.834" transform="matrix(-1 -1.224647e-16 1.224647e-16 -1 3345.6609 3325.8184)" style="fill:#A2C5F9;" width="15.137" height="20.15"/>
							
								<rect x="1636.953" y="1652.834" transform="matrix(-1 -1.224647e-16 1.224647e-16 -1 3289.0442 3325.8184)" style="fill:#A2C5F9;" width="15.138" height="20.15"/>
							
								<rect x="1609.278" y="1652.834" transform="matrix(-1 -1.224647e-16 1.224647e-16 -1 3233.6938 3325.8184)" style="fill:#A2C5F9;" width="15.138" height="20.15"/>
							
								<rect x="1583.038" y="1652.834" transform="matrix(-1 -1.224647e-16 1.224647e-16 -1 3181.2144 3325.8184)" style="fill:#A2C5F9;" width="15.138" height="20.15"/>
							
								<rect x="1556.295" y="1652.834" transform="matrix(-1 -1.224647e-16 1.224647e-16 -1 3127.7273 3325.8184)" style="fill:#A2C5F9;" width="15.138" height="20.15"/>
						</g>
						<g>
							
								<rect x="1529.245" y="1652.834" transform="matrix(-1 -1.224647e-16 1.224647e-16 -1 3073.6274 3325.8184)" style="fill:#A2C5F9;" width="15.138" height="20.15"/>
							
								<rect x="1500.936" y="1652.834" transform="matrix(-1 -1.224647e-16 1.224647e-16 -1 3017.0098 3325.8184)" style="fill:#A2C5F9;" width="15.138" height="20.15"/>
							
								<rect x="1473.261" y="1652.834" transform="matrix(-1 -1.224647e-16 1.224647e-16 -1 2961.6604 3325.8184)" style="fill:#A2C5F9;" width="15.138" height="20.15"/>
							
								<rect x="1447.021" y="1652.834" transform="matrix(-1 -1.224647e-16 1.224647e-16 -1 2909.1809 3325.8184)" style="fill:#A2C5F9;" width="15.138" height="20.15"/>
							
								<rect x="1420.277" y="1652.834" transform="matrix(-1 -1.224647e-16 1.224647e-16 -1 2855.6934 3325.8184)" style="fill:#A2C5F9;" width="15.138" height="20.15"/>
						</g>
					</g>
					<g>
						<g>
							
								<rect x="1665.262" y="1688.391" transform="matrix(-1 -1.224647e-16 1.224647e-16 -1 3345.6609 3396.9314)" style="fill:#A2C5F9;" width="15.137" height="20.149"/>
							
								<rect x="1636.953" y="1688.391" transform="matrix(-1 -1.224647e-16 1.224647e-16 -1 3289.0442 3396.9314)" style="fill:#A2C5F9;" width="15.138" height="20.149"/>
							
								<rect x="1609.278" y="1688.391" transform="matrix(-1 -1.224647e-16 1.224647e-16 -1 3233.6938 3396.9314)" style="fill:#A2C5F9;" width="15.138" height="20.149"/>
							
								<rect x="1583.038" y="1688.391" transform="matrix(-1 -1.224647e-16 1.224647e-16 -1 3181.2144 3396.9314)" style="fill:#A2C5F9;" width="15.138" height="20.149"/>
							
								<rect x="1556.295" y="1688.391" transform="matrix(-1 -1.224647e-16 1.224647e-16 -1 3127.7273 3396.9314)" style="fill:#A2C5F9;" width="15.138" height="20.149"/>
						</g>
						<g>
							
								<rect x="1529.245" y="1688.391" transform="matrix(-1 -1.224647e-16 1.224647e-16 -1 3073.6274 3396.9314)" style="fill:#A2C5F9;" width="15.138" height="20.149"/>
							
								<rect x="1500.936" y="1688.391" transform="matrix(-1 -1.224647e-16 1.224647e-16 -1 3017.0098 3396.9314)" style="fill:#A2C5F9;" width="15.138" height="20.149"/>
							
								<rect x="1473.261" y="1688.391" transform="matrix(-1 -1.224647e-16 1.224647e-16 -1 2961.6604 3396.9314)" style="fill:#A2C5F9;" width="15.138" height="20.149"/>
							
								<rect x="1447.021" y="1688.391" transform="matrix(-1 -1.224647e-16 1.224647e-16 -1 2909.1809 3396.9314)" style="fill:#A2C5F9;" width="15.138" height="20.149"/>
							
								<rect x="1420.277" y="1688.391" transform="matrix(-1 -1.224647e-16 1.224647e-16 -1 2855.6934 3396.9314)" style="fill:#A2C5F9;" width="15.138" height="20.149"/>
						</g>
					</g>
					<g>
						<g>
							
								<rect x="1665.262" y="1723.403" transform="matrix(-1 -1.224647e-16 1.224647e-16 -1 3345.6609 3466.9556)" style="fill:#A2C5F9;" width="15.137" height="20.149"/>
							
								<rect x="1636.953" y="1723.403" transform="matrix(-1 -1.224647e-16 1.224647e-16 -1 3289.0442 3466.9556)" style="fill:#A2C5F9;" width="15.138" height="20.149"/>
							
								<rect x="1609.278" y="1723.403" transform="matrix(-1 -1.224647e-16 1.224647e-16 -1 3233.6938 3466.9556)" style="fill:#A2C5F9;" width="15.138" height="20.149"/>
							
								<rect x="1583.038" y="1723.403" transform="matrix(-1 -1.224647e-16 1.224647e-16 -1 3181.2144 3466.9556)" style="fill:#A2C5F9;" width="15.138" height="20.149"/>
							
								<rect x="1556.295" y="1723.403" transform="matrix(-1 -1.224647e-16 1.224647e-16 -1 3127.7273 3466.9556)" style="fill:#A2C5F9;" width="15.138" height="20.149"/>
						</g>
						<g>
							
								<rect x="1529.245" y="1723.403" transform="matrix(-1 -1.224647e-16 1.224647e-16 -1 3073.6274 3466.9556)" style="fill:#A2C5F9;" width="15.138" height="20.149"/>
							
								<rect x="1500.936" y="1723.403" transform="matrix(-1 -1.224647e-16 1.224647e-16 -1 3017.0098 3466.9556)" style="fill:#A2C5F9;" width="15.138" height="20.149"/>
							
								<rect x="1473.261" y="1723.403" transform="matrix(-1 -1.224647e-16 1.224647e-16 -1 2961.6604 3466.9556)" style="fill:#A2C5F9;" width="15.138" height="20.149"/>
							
								<rect x="1447.021" y="1723.403" transform="matrix(-1 -1.224647e-16 1.224647e-16 -1 2909.1809 3466.9556)" style="fill:#A2C5F9;" width="15.138" height="20.149"/>
							
								<rect x="1420.277" y="1723.403" transform="matrix(-1 -1.224647e-16 1.224647e-16 -1 2855.6934 3466.9556)" style="fill:#A2C5F9;" width="15.138" height="20.149"/>
						</g>
					</g>
				</g>
				
					<rect x="1665.262" y="1591.054" transform="matrix(-1 -1.224647e-16 1.224647e-16 -1 3343.2446 3202.8914)" style="fill:#ADC9E0;" width="12.721" height="20.784"/>
				
					<rect x="1538.97" y="1591.054" transform="matrix(-1 -1.224647e-16 1.224647e-16 -1 3090.6604 3202.8914)" style="fill:#ADC9E0;" width="12.721" height="20.784"/>
				
					<rect x="1438.507" y="1591.054" transform="matrix(-1 -1.224647e-16 1.224647e-16 -1 2889.7339 3202.8914)" style="fill:#ADC9E0;" width="12.721" height="20.784"/>
			</g>
			<g>
				
					<rect x="1719.675" y="1598.419" transform="matrix(-1 -1.224647e-16 1.224647e-16 -1 3734.1067 3384.0317)" style="fill:#AFCDFB;" width="294.757" height="187.194"/>
				
					<rect x="1719.675" y="1573.961" transform="matrix(-1 -1.224647e-16 1.224647e-16 -1 3734.1067 3208.7642)" style="fill:#A2C5F9;" width="294.757" height="60.841"/>
				<g>
					<g>
						<g>
							
								<rect x="1979.224" y="1652.834" transform="matrix(-1 -1.224647e-16 1.224647e-16 -1 3973.5857 3325.8184)" style="fill:#A2C5F9;" width="15.138" height="20.15"/>
							
								<rect x="1950.915" y="1652.834" transform="matrix(-1 -1.224647e-16 1.224647e-16 -1 3916.9678 3325.8184)" style="fill:#A2C5F9;" width="15.138" height="20.15"/>
							
								<rect x="1923.241" y="1652.834" transform="matrix(-1 -1.224647e-16 1.224647e-16 -1 3861.6196 3325.8184)" style="fill:#A2C5F9;" width="15.138" height="20.15"/>
							
								<rect x="1897" y="1652.834" transform="matrix(-1 -1.224647e-16 1.224647e-16 -1 3809.1389 3325.8184)" style="fill:#A2C5F9;" width="15.138" height="20.15"/>
							
								<rect x="1870.256" y="1652.834" transform="matrix(-1 -1.224647e-16 1.224647e-16 -1 3755.6514 3325.8184)" style="fill:#A2C5F9;" width="15.138" height="20.15"/>
						</g>
						<g>
							
								<rect x="1843.206" y="1652.834" transform="matrix(-1 -1.224647e-16 1.224647e-16 -1 3701.551 3325.8184)" style="fill:#A2C5F9;" width="15.138" height="20.15"/>
							
								<rect x="1814.899" y="1652.834" transform="matrix(-1 -1.224647e-16 1.224647e-16 -1 3644.9355 3325.8184)" style="fill:#A2C5F9;" width="15.138" height="20.15"/>
							
								<rect x="1787.223" y="1652.834" transform="matrix(-1 -1.224647e-16 1.224647e-16 -1 3589.585 3325.8184)" style="fill:#A2C5F9;" width="15.138" height="20.15"/>
							
								<rect x="1760.983" y="1652.834" transform="matrix(-1 -1.224647e-16 1.224647e-16 -1 3537.1042 3325.8184)" style="fill:#A2C5F9;" width="15.138" height="20.15"/>
							
								<rect x="1734.24" y="1652.834" transform="matrix(-1 -1.224647e-16 1.224647e-16 -1 3483.6182 3325.8184)" style="fill:#A2C5F9;" width="15.137" height="20.15"/>
						</g>
					</g>
					<g>
						<g>
							
								<rect x="1979.224" y="1688.391" transform="matrix(-1 -1.224647e-16 1.224647e-16 -1 3973.5857 3396.9314)" style="fill:#A2C5F9;" width="15.138" height="20.149"/>
							
								<rect x="1950.915" y="1688.391" transform="matrix(-1 -1.224647e-16 1.224647e-16 -1 3916.9678 3396.9314)" style="fill:#A2C5F9;" width="15.138" height="20.149"/>
							
								<rect x="1923.241" y="1688.391" transform="matrix(-1 -1.224647e-16 1.224647e-16 -1 3861.6196 3396.9314)" style="fill:#A2C5F9;" width="15.138" height="20.149"/>
							
								<rect x="1897" y="1688.391" transform="matrix(-1 -1.224647e-16 1.224647e-16 -1 3809.1389 3396.9314)" style="fill:#A2C5F9;" width="15.138" height="20.149"/>
							
								<rect x="1870.256" y="1688.391" transform="matrix(-1 -1.224647e-16 1.224647e-16 -1 3755.6514 3396.9314)" style="fill:#A2C5F9;" width="15.138" height="20.149"/>
						</g>
						<g>
							
								<rect x="1843.206" y="1688.391" transform="matrix(-1 -1.224647e-16 1.224647e-16 -1 3701.551 3396.9314)" style="fill:#A2C5F9;" width="15.138" height="20.149"/>
							
								<rect x="1814.899" y="1688.391" transform="matrix(-1 -1.224647e-16 1.224647e-16 -1 3644.9355 3396.9314)" style="fill:#A2C5F9;" width="15.138" height="20.149"/>
							
								<rect x="1787.223" y="1688.391" transform="matrix(-1 -1.224647e-16 1.224647e-16 -1 3589.585 3396.9314)" style="fill:#A2C5F9;" width="15.138" height="20.149"/>
							
								<rect x="1760.983" y="1688.391" transform="matrix(-1 -1.224647e-16 1.224647e-16 -1 3537.1042 3396.9314)" style="fill:#A2C5F9;" width="15.138" height="20.149"/>
							
								<rect x="1734.24" y="1688.391" transform="matrix(-1 -1.224647e-16 1.224647e-16 -1 3483.6182 3396.9314)" style="fill:#A2C5F9;" width="15.137" height="20.149"/>
						</g>
					</g>
					<g>
						<g>
							
								<rect x="1979.224" y="1723.403" transform="matrix(-1 -1.224647e-16 1.224647e-16 -1 3973.5857 3466.9556)" style="fill:#A2C5F9;" width="15.138" height="20.149"/>
							
								<rect x="1950.915" y="1723.403" transform="matrix(-1 -1.224647e-16 1.224647e-16 -1 3916.9678 3466.9556)" style="fill:#A2C5F9;" width="15.138" height="20.149"/>
							
								<rect x="1923.241" y="1723.403" transform="matrix(-1 -1.224647e-16 1.224647e-16 -1 3861.6196 3466.9556)" style="fill:#A2C5F9;" width="15.138" height="20.149"/>
							
								<rect x="1897" y="1723.403" transform="matrix(-1 -1.224647e-16 1.224647e-16 -1 3809.1389 3466.9556)" style="fill:#A2C5F9;" width="15.138" height="20.149"/>
							
								<rect x="1870.256" y="1723.403" transform="matrix(-1 -1.224647e-16 1.224647e-16 -1 3755.6514 3466.9556)" style="fill:#A2C5F9;" width="15.138" height="20.149"/>
						</g>
						<g>
							
								<rect x="1843.206" y="1723.403" transform="matrix(-1 -1.224647e-16 1.224647e-16 -1 3701.551 3466.9556)" style="fill:#A2C5F9;" width="15.138" height="20.149"/>
							
								<rect x="1814.899" y="1723.403" transform="matrix(-1 -1.224647e-16 1.224647e-16 -1 3644.9355 3466.9556)" style="fill:#A2C5F9;" width="15.138" height="20.149"/>
							
								<rect x="1787.223" y="1723.403" transform="matrix(-1 -1.224647e-16 1.224647e-16 -1 3589.585 3466.9556)" style="fill:#A2C5F9;" width="15.138" height="20.149"/>
							
								<rect x="1760.983" y="1723.403" transform="matrix(-1 -1.224647e-16 1.224647e-16 -1 3537.1042 3466.9556)" style="fill:#A2C5F9;" width="15.138" height="20.149"/>
							
								<rect x="1734.24" y="1723.403" transform="matrix(-1 -1.224647e-16 1.224647e-16 -1 3483.6182 3466.9556)" style="fill:#A2C5F9;" width="15.137" height="20.149"/>
						</g>
					</g>
				</g>
				
					<rect x="1979.224" y="1591.054" transform="matrix(-1 -1.224647e-16 1.224647e-16 -1 3971.168 3202.8914)" style="fill:#ADC9E0;" width="12.721" height="20.784"/>
				
					<rect x="1852.933" y="1591.054" transform="matrix(-1 -1.224647e-16 1.224647e-16 -1 3718.5864 3202.8914)" style="fill:#ADC9E0;" width="12.721" height="20.784"/>
				
					<rect x="1752.469" y="1591.054" transform="matrix(-1 -1.224647e-16 1.224647e-16 -1 3517.6587 3202.8914)" style="fill:#ADC9E0;" width="12.721" height="20.784"/>
			</g>
		</g>
		<path style="fill:#F8FBFF;" d="M2081.07,375.93l-690.426,227.782c31.747-33.863,65.875-75.111,107.797-118.158L2081.07,375.93z"/>
		<path style="fill:#F8FBFF;" d="M2168.279,459.095c0-18.348,14.874-33.222,33.222-33.222s33.222,14.875,33.222,33.222
			c0,18.348-14.874,33.221-33.222,33.221S2168.279,477.442,2168.279,459.095z"/>
		<path style="fill:#A8D29F;" d="M2945.277,664.382c-3.839,30.903-10.537,63.567-20.329,98.069
			c-0.769,0.038-1.549,0.051-2.317,0.051c-6.545-0.051-12.991-1.586-19.31-4.771c-34.426-17.383-59.375-42.357-79.478-68.35
			c-2.643-37.398,4.67-84.563,4.67-84.563c-4.619,11.908-22.708,28.309-35.912,39.134c-27.994-43.691-49.343-78.735-88.728-69.848
			c-73.033,16.464-163.89-5.979-189.491-80.648c16.339-28.863,45.655-47.581,45.655-47.581c-21.437,2.09-41.615,10.549-56.657,18.68
			c-32.35-61.377-111.223-78.923-111.223-78.923c-3.625-1.008-7.136-2.14-10.535-3.399c0.214-44.345,11.404-86.186,11.404-86.186
			c-30.902,16.137-45.377,42.231-52.123,62.22c-51.17-44.962-55.99-123.483-51.761-161.12
			c308.304-0.365,615.616,91.901,656.084,346.646C2950.463,580.601,2950.714,620.73,2945.277,664.382z"/>
		<path style="fill:#82B378;" d="M836.321,1703c-0.894,14.123-4.078,26.824-8.698,38.127c-8.874,21.815-23.035,38.467-36.214,50.326
			l-495.09-1.625c0,0-187.175-329.414-75.6-660.955c28.02,14.274,61.691,34.804,93.701,62.874
			c-31.406,28.952-55.07,70.213-55.07,70.213c37.913-26.471,68.79-34.061,90.353-34.955c27.491,31.406,51.193,69.721,65.342,115.918
			c55.7,181.888,167.049,163.07,266.326,193.079c5.4,1.636,10.687,3.373,15.86,5.173c-30.663,25.048-63,65.933-63,65.933
			c61.754-29.896,106.767-33.194,133.704-30.689c17.61,12.336,32.212,26.283,43.351,41.627c-34.918-6.658-89.976,0.894-103.582,2.19
			c42.193-3.146,101.492,22.545,122.325,33.772C835.201,1669.392,837.391,1685.78,836.321,1703z"/>
		<path style="fill:#C5DDFF;" d="M3229.078,1799.421v0.066H963.112c0.724-2.5,1.558-4.991,2.49-7.46
			c22.282-58.563,102.983-104.628,102.983-104.628c254.193-105.375,495.244,92.396,672.972-36.237
			c177.738-128.622,420.061-124.991,515.958-86.702c95.895,38.287,264.953,148.929,513.747-40.701
			c97.702-74.468,238.031-110.415,380.044-84.213c27.154,24.969,50.982,53.768,69.236,88.041L3229.078,1799.421z"/>
		<path style="fill:#A8D29F;" d="M1127.536,1796.387H282.938c-1.965-4.67-4.154-9.97-6.52-15.859
			c-19.772-49.369-51.778-140.615-70.71-253.865c41.969,3.083,176.064,19.687,260.948,107.471
			c101.675,105.169,231.592,114.181,330.439,99.152c11.678-1.776,24.943-2.92,39.271-3.487
			C943.331,1725.619,1110.095,1753.993,1127.536,1796.387z"/>
		<g>
			<path style="fill:#A8D29F;" d="M948.74,640.139c-24.382,12.991-43.465,32.123-57.576,50.388
				c-17.874,23.136-27.768,44.874-30.373,50.979c-0.466,1.108-0.705,1.7-0.705,1.7c-0.214,1.662-0.441,3.31-0.693,4.947
				c-1.46,9.692-3.562,18.894-6.256,27.616c-56.732-11.089-98.409,7.867-98.409,7.867c36.064-2.366,67.129,16.93,82.335,28.536
				c-48.11,80.874-159.546,108.328-275.401,109.586c-0.516-12.55-3.99-31.821-19.234-42.659c0.214,0.755,7.112,24.357-6.911,42.646
				c-45.819,0.528-90.265,11.933-129.815,27.39c-0.013,0.013-0.025,0.013-0.025,0.013c-21.173,8.27-40.935,17.71-58.733,27.289
				c-0.617,0.328-1.234,0.668-1.85,0.995c-12.802,6.948-24.571,13.934-35.094,20.58c-21.449,13.557-37.737,25.653-47.09,32.967
				c11.505-21.587,24.508-43.049,39.134-64.284c1.498-2.177,3.021-4.343,4.557-6.52c20.984-29.706,45.214-58.972,73.058-87.508
				C592.099,654.879,788.011,625.323,948.74,640.139z"/>
		</g>
		<g>
			<path style="fill:#A2C5F9;" d="M2633.414,648.248h-10.855l0.096-0.852l3.275-28.952c0.111-0.933,0.896-1.638,1.836-1.638
				c0.118,0,0.228,0.007,0.345,0.023c0.609,0.073,1.167,0.338,1.609,0.734c0.513,0.47,0.859,1.124,0.932,1.866L2633.414,648.248z"/>
			<path style="fill:#AFCDFB;" d="M2623.606,641.679l-0.387,0.01l2.711-23.246c0.111-0.933,0.896-1.638,1.836-1.638
				c0.118,0,0.228,0.007,0.345,0.023c0.102,0.088,0.198,0.176,0.286,0.272c0.478,0.514,0.764,1.189,0.771,1.939l0.158,16.713
				C2629.359,638.956,2626.812,641.595,2623.606,641.679z"/>
			<rect x="2619.401" y="777.081" style="fill:#A2C5F9;" width="20.932" height="924.228"/>
			<rect x="2619.401" y="777.081" style="fill:#AFCDFB;" width="9.666" height="924.228"/>
			<rect x="2596.531" y="1553.821" style="fill:#A2C5F9;" width="66.667" height="244.539"/>
			<rect x="2596.531" y="1553.821" style="fill:#AFCDFB;" width="39.733" height="244.539"/>
			<path style="fill:#A2C5F9;" d="M2666.297,662.195c0,11.421-17.15,20.675-38.31,20.675c-1.616,0-3.202-0.052-4.767-0.162
				c-18.905-1.263-33.543-9.967-33.543-20.514c0-10.547,14.638-19.243,33.543-20.506c1.565-0.11,3.151-0.161,4.767-0.161
				C2649.147,641.528,2666.297,650.782,2666.297,662.195z"/>
			<path style="fill:#AFCDFB;" d="M2646.466,662.195c0,9.203-9.577,17.106-23.246,20.514c-18.905-1.263-33.543-9.967-33.543-20.514
				c0-10.547,14.638-19.243,33.543-20.506C2636.889,645.09,2646.466,652.993,2646.466,662.195z"/>
			<polygon style="fill:#AFCDFB;" points="2663.118,795.309 2596.454,795.309 2572.951,682.135 2683.024,682.135 			"/>
			<rect x="2567.004" y="673.609" style="fill:#A2C5F9;" width="121.965" height="10.855"/>
			<rect x="2567.004" y="673.609" style="fill:#AFCDFB;" width="76.671" height="10.855"/>
			<path style="fill:#A2C5F9;" d="M2607.451,1553.821h42.598l-6.234-18.909c-0.553-1.676-2.118-2.809-3.885-2.809h-19.958
				c-2.163,0-4.114,1.306-4.939,3.308L2607.451,1553.821z"/>
			<polygon style="fill:#C7DCF9;" points="2580.827,687.652 2674.839,687.652 2656.477,789.375 2602.493,789.375 			"/>
			<path style="fill:#C7DCF9;" d="M2592.211,663.414c0,0,7.162-15.644,21.299-15.166c0,0-8.997,8.006-8.17,15.166
				C2606.166,670.575,2592.211,663.414,2592.211,663.414z"/>
			<polygon style="fill:#A2C5F9;" points="2681.176,673.609 2574.797,673.609 2583.508,661.203 2672.907,661.203 			"/>
			<polygon style="fill:#AFCDFB;" points="2654.979,673.609 2574.797,673.609 2583.508,661.203 2646.708,661.203 			"/>
			<polygon style="fill:#D2E4F9;" points="2587.07,691.201 2608.614,691.201 2614.888,786.192 2608.614,786.192 			"/>
		</g>
		<path style="fill:#85B1E5;" d="M2276.132,1492.824l5.851-33.267h1.908v-3.258h-2.339l-2.482-3.724h-1.998
			c-0.265-3.027-4.552-5.485-10.043-5.854l-0.641-6.684c-0.022-0.223-0.125-0.418-0.28-0.559c-0.133-0.119-0.3-0.199-0.483-0.22
			c-0.035-0.005-0.068-0.007-0.103-0.007c-0.283,0-0.518,0.212-0.552,0.491l-0.814,6.977c-5.494,0.367-9.788,2.826-10.053,5.857
			h-1.865l-2.615,3.724h-2.339v3.258h1.93l6.909,33.267h6.887v221.146c-0.579,0.062-1.085,0.433-1.311,0.979l-2.275,5.526h-3.278
			v73.393h11.925h8.083v-73.393h-3.945l-1.872-5.676c-0.153-0.463-0.565-0.786-1.045-0.833v-221.142H2276.132z"/>
		<g>
			<path style="fill:#A8D29F;" d="M3247.958,1799.169l-619.971-1.909c6.572-17.608,32.09-74.733,93.449-98.407
				c7.999-3.094,16.599-5.606,25.847-7.395c3.171-0.614,6.43-1.141,9.764-1.58c3.828-0.504,7.767-0.877,11.816-1.119
				c4.082-0.252,8.283-0.362,12.594-0.328c109.17,0.844,143.004-205.044,401.948-215.501c13.966,16.577,26.495,34.69,37.135,54.657
				C3255.836,1593.806,3270.361,1680.41,3247.958,1799.169z"/>
			<path style="fill:#A8D29F;" d="M2792.541,1722.957c0,0-66.42-96.045-109.776-86.666
				C2639.411,1645.671,2792.541,1722.957,2792.541,1722.957z"/>
			<path style="fill:#A8D29F;" d="M2782.66,1704.894c0,0,6.017-81.848-16.522-75.295
				C2743.598,1636.152,2782.66,1704.894,2782.66,1704.894z"/>
		</g>
		<g>
			<path style="fill:#82B378;" d="M3135.795,1746.791c0,0,34.427-166.096-31.533-194.699
				C3038.303,1523.489,3135.795,1746.791,3135.795,1746.791z"/>
			<path style="fill:#82B378;" d="M3111.961,1728.729c0,0-33.452-94.444-83.713-115.24
				C2977.987,1592.692,3035.189,1679.492,3111.961,1728.729z"/>
			<path style="fill:#82B378;" d="M3155.664,1693.245c0,0,34.677-50.624,26.84-83
				C3174.667,1577.868,3152.34,1637.488,3155.664,1693.245z"/>
			<path style="fill:#82B378;" d="M3248.66,1792.056c-0.113,0.604-0.226,1.209-0.339,1.813h-466.593c0,0,62.446-98.611,147.6-44.534
				c22.683,14.4,44.774,18.327,61.994,18.39c17.685,0.05,34.779-6.394,48.297-17.811
				c128.644-108.529,178.479-103.192,216.719-100.864c0.012,0.152,0.038,0.315,0.05,0.467
				C3260.882,1691.08,3258.868,1738.219,3248.66,1792.056z"/>
		</g>
		<path style="fill:#A8D29F;" d="M2605.606,1798.36c0,0-16.658-37.598-92.819-38.938c-76.16-1.339-87.597,39.828-143.359,22.654
			c-55.763-17.174-102.719,14.263-102.719,14.263L2605.606,1798.36z"/>
		<path style="fill:#2E3552;" d="M3325.726,1802.853H166.176c-2.04,0-3.71-1.669-3.71-3.71v-1.564c0-2.041,1.67-3.711,3.711-3.711
			h3159.548c2.041,0,3.711,1.67,3.711,3.711v1.564C3329.436,1801.183,3327.766,1802.853,3325.726,1802.853z"/>
		<g>
			<polygon style="fill:#D36D1A;" points="1585.242,1452.02 445.653,1452.02 392.981,1184.172 1530.509,1184.172 			"/>
			<polygon style="fill:#F49540;" points="1604.708,1452.02 465.119,1452.02 412.449,1184.172 1549.975,1184.172 			"/>
			<path style="fill:#D36D1A;" d="M781.993,1484.814H470.582c-13.778,0-24.948-11.169-24.948-24.945v-7.843h336.358V1484.814z"/>
			<rect x="779.49" y="1452.027" style="fill:#FFA255;" width="1034.992" height="32.788"/>
			<g>
				<path style="fill:#FFA255;" d="M513.669,1484.814l-19.511,76.716c0,0.047,0,0.047,0,0.092l-57.756,227.268
					c-0.777,2.975-3.434,5.038-6.458,5.038c-5.863,0-10.306-5.36-9.159-11.084l51.525-265.101l6.412-32.93H513.669z"/>
			</g>
			<path style="fill:#D36D1A;" d="M494.157,1561.531c1.878-39.251-21.848-43.786-21.848-43.786l6.412-32.93h34.947L494.157,1561.531
				z"/>
			<g>
				<path style="fill:#FFA255;" d="M760.872,1484.814l-19.512,76.716c0,0.047,0,0.047,0,0.092l-57.756,227.268
					c-0.777,2.975-3.433,5.038-6.456,5.038c-5.863,0-10.307-5.36-9.161-11.084l51.525-265.101l6.412-32.93H760.872z"/>
			</g>
			<path style="fill:#D36D1A;" d="M741.36,1561.531c1.878-39.251-21.847-43.786-21.847-43.786l6.412-32.93h34.947L741.36,1561.531z"
				/>
			<g>
				<path style="fill:#FFA255;" d="M1720.032,1484.814l19.511,76.716c0,0.047,0,0.047,0,0.092l57.756,227.268
					c0.779,2.975,3.435,5.038,6.458,5.038c5.863,0,10.306-5.36,9.161-11.084l-51.527-265.101l-6.412-32.93H1720.032z"/>
			</g>
			<path style="fill:#D36D1A;" d="M1739.543,1561.531c-1.878-39.251,21.847-43.786,21.847-43.786l-6.412-32.93h-34.947
				L1739.543,1561.531z"/>
			<g>
				<path style="fill:#FFA255;" d="M1472.829,1484.814l19.511,76.716c0,0.047,0,0.047,0,0.092l57.756,227.268
					c0.779,2.975,3.435,5.038,6.458,5.038c5.863,0,10.305-5.36,9.16-11.084l-51.527-265.101l-6.412-32.93H1472.829z"/>
			</g>
			<path style="fill:#D36D1A;" d="M1492.34,1561.531c-1.878-39.251,21.847-43.786,21.847-43.786l-6.412-32.93h-34.947
				L1492.34,1561.531z"/>
		</g>
		<path style="fill:#82B378;" d="M2024.24,1793.868h-85.278c-4.57-3.876,3.162-12.679,11.241-13.27
			c3.51-0.266,7.946,0.468,13.016,1.54c1.174-15.587,7.876-85.656,33.133-82.841c28.399,3.152,0,30.858-8.029,47.261
			c-5.947,12.149-12.221,29.573-15.087,37.793c2.306,0.5,4.693,0.99,7.131,1.439c3.764-11.558,17.769-50.433,35.58-48.168
			c20.911,2.652,12.507,18.24-2.316,27.49c-10.875,6.804-24.228,16.475-30.572,21.147c5.376,0.877,10.986,1.469,16.678,1.337
			C2014.345,1787.248,2021.475,1791.552,2024.24,1793.868z"/>
		<g>
			<path style="fill:#FFB27D;" d="M1151.551,1153.776l121.865-26.396l7.177,17.494c0,0-134.466,80.013-147.064,76.095
				C1120.931,1217.051,1151.551,1153.776,1151.551,1153.776z"/>
			<path style="fill:#FFB27D;" d="M1040.757,1704.932c-3.052,3.499-3.441,7.407-1.93,11.581c0.001,0.017,0.011,0.042,0.029,0.058
				c2.793,7.719,12.023,16.34,22.743,24.948c1.37,1.107,2.588,2.112,3.65,3.043c0.279,0.245,0.558,0.489,0.82,0.735
				c0.216,0.189,0.424,0.387,0.631,0.569c9.997,9.215,6.235,11.327,24.194,30.026c20.479,21.307,34.578,21.69,38.589,19.749
				c3.393-1.654-3.501-12.955-11.14-25.656c-0.371-0.612-0.734-1.233-1.113-1.852c-1.018-1.688-2.028-3.403-3.038-5.1
				c-8.953-15.286-6.654-22.46-4.532-45.209c1.725-18.486,28.761-103.28,28.761-103.28l-39.244-6.76
				c0,0-11.818,67.521-24.839,77.919c-6.963,5.542-14.757,5.612-21.449,9.721c-0.473,0.286-0.938,0.578-1.392,0.879
				C1047.691,1698.823,1043.817,1701.425,1040.757,1704.932z"/>
			<path style="fill:#1C468A;" d="M1040.757,1704.932c-3.052,3.499-3.441,7.407-1.93,11.581c0.001,0.017,0.011,0.042,0.029,0.058
				c3.42,7.712,12.418,16.289,22.78,24.87c1.354,1.124,2.549,2.156,3.612,3.121c0.279,0.245,0.558,0.489,0.82,0.735
				c0.216,0.189,0.424,0.387,0.631,0.569c9.997,9.215,6.235,11.327,24.194,30.026c20.479,21.307,34.578,21.69,38.589,19.749
				c3.393-1.654-3.501-12.955-11.14-25.656c-3.987-1.461-22.504-8.983-36.504-26.898c-12.331-15.735-20.555-35.953-28.951-47.664
				c-0.473,0.286-0.938,0.578-1.392,0.879C1047.691,1698.823,1043.817,1701.425,1040.757,1704.932z"/>
			<path style="fill:#FFB27D;" d="M1357.199,1680.421c2.424,12.115,19.69,10.093,38.982,5.379
				c19.292-4.714,14.706,0.89,42.162-2.149c27.456-3.04,35.774-13.277,36.611-17.359c0.75-3.622-12.817-4.9-27.368-6.577
				c-1.83-0.205-3.668-0.431-5.506-0.659c-16.429-2.061-28.461-12.662-43.384-21.369c-14.135-8.248-35.23-41.849-35.23-41.849
				l-37.654,2.983c0,0,19.759,30.011,27.402,43.059c4.495,7.675,4.256,17.823,3.696,25.66
				C1356.618,1671.801,1356.34,1676.155,1357.199,1680.421z"/>
			<path style="fill:#1C468A;" d="M1396.181,1685.8c19.292-4.714,14.706,0.89,42.162-2.149c27.456-3.04,35.774-13.277,36.611-17.359
				c0.75-3.622-12.817-4.9-27.368-6.577l-0.136,0.28c0,0-16.466,11.675-39.32,12.222c-18.627,0.453-38.357-4.884-51.221-4.676
				c-0.291,4.259-0.569,8.614,0.29,12.88C1359.623,1692.536,1376.889,1690.514,1396.181,1685.8z"/>
			<path style="fill:#FFB27D;" d="M1273.416,1127.381c0,0,8.972-21.979,18.84-22.877c9.868-0.897,41.267-5.832,43.51-1.346
				c2.243,4.486,0,20.635-6.728,26.465c-6.728,5.832-48.445,15.251-48.445,15.251L1273.416,1127.381z"/>
			<path style="fill:#163560;" d="M1212.901,1439.654l-81.151,218.392c0,0-12.466,1.207-24.419-2.237
				c-10.998-3.169-23.601-11.493-23.601-11.493s20.131-209.694,57.037-253.311
				C1177.672,1347.389,1212.901,1439.654,1212.901,1439.654z"/>
			<path style="fill:#1C468A;" d="M891.929,1351.302c0,0,233.18-78.845,285.184-62.069c52.004,16.775,208.146,327.43,208.146,327.43
				s-3.52,4.687-13.142,8.295c-8.947,3.355-30.604,3.141-30.604,3.141s-140.915-120.784-157.69-156.013
				c-16.776-35.229-23.486-68.78-40.261-65.425c-10.913,2.183-75.396,29.467-146.234,42.841c-8.922,1.684-17.981,2.495-27.061,2.451
				c-21.267-0.103-45.568-0.121-64.582-0.055c-14.629,0.051-28.433-7.048-36.657-19.147c-31.875-46.886-20.614-98.861-20.614-98.861
				L891.929,1351.302z"/>
			<path style="fill:#2C3A64;" d="M1024.867,795.329c-10.079-5.73-22.158-6.355-30.607-5.855c2.176-2.246,6.454-3.064,6.454-3.064
				c-5.239-0.779-16.932,4.418-16.932,4.418c-72.875-28.081-84.33,79.223-82.798,104.152c1.519,24.927,1.704,53.621-34.675,75.979
				c-71.579,43.992-11.184,120.79-11.184,120.79c0.564,0.332,33.304,55.863,33.304,55.863
				c-1.839-20.146,91.111-126.456,139.606-158.294c11.805-17.38,16.001-48.082,16.315-50.498
				c-2.037,24.343-6.202,37.998-9.924,45.686C1075.49,946.712,1051.583,810.51,1024.867,795.329z"/>
			<path style="fill:#FFB27D;" d="M1025.164,990.902c0.243,0.109-23.415,12.394-41.209,7.526
				c-16.738-4.563-27.675-26.267-27.444-26.315c7.088-1.408,9.132-11.149,8.982-53.008l3.205,0.631l53.882,10.669
				c0,0-1.226,16.957-1.263,32.931C1021.28,976.749,1022.093,989.469,1025.164,990.902z"/>
			<path style="fill:#ED975D;" d="M1022.579,930.405c0,0-1.226,16.957-1.263,32.931c-30.151-0.85-46.089-28.355-52.619-43.6
				L1022.579,930.405z"/>
			<path style="fill:#2C3A64;" d="M963.132,913.869c0,0-15.801-24.967-19.593-46.314c-2.708-15.242,5.055-71.736,61.827-63.6
				c0,0,16.489,1.625,31.988,12.093c12.326,8.325,30.115,26.298,10.225,75.596l-5.167,16.654L963.132,913.869z"/>
			<path style="fill:#FFB27D;" d="M1032.648,945.531c0,0-71.338,1.177-71.387-43.26c-0.049-44.437-9.289-74.212,36.255-76.843
				c45.545-2.63,54.413,14.316,58.037,29.145C1059.179,869.401,1051.203,944.079,1032.648,945.531z"/>
			<path style="fill:#2C3A64;" d="M1030.008,824.34c0,0-19.532,52.133-49.508,59.841c-29.975,7.708-42.978-0.323-42.978-0.323
				s22.993-18.265,27.764-50.149C965.286,833.709,1015.274,799.527,1030.008,824.34z"/>
			<path style="fill:#2C3A64;" d="M1025.167,828.572c0,0,14.587,11.639,18.144,22.955c3.556,11.316,5.156,34.61,11.945,33.818
				c0,0,14.716-35.435-1.822-55.48C1035.897,808.61,1025.167,828.572,1025.167,828.572z"/>
			<path style="fill:#C65447;" d="M866.31,1182.823c-7.035-29.505,16.9-86.757,41.885-134.155
				c22.671-42.959,46.203-77.809,48.316-76.556c59.791,35.488,65.193,5.984,65.193,5.984l0.003,0.005
				c0.023,0.003,54.315,7.208,69.69,33.679c19.074,32.845,39.685,124.624,60.154,141.997c-3.144,9.619-1.795,14.745,1.537,26.664
				c0.716,2.557,1.502,4.985,2.369,7.285c3.085,8.387,6.945,15.19,10.276,21.103c-10.405,6.322-30.499,18.346-45.303,9.7
				c-22.569-13.208-40.177-53.42-50.089-69.432c-0.037-0.062-0.073-0.12-0.11-0.18c-21.541,121.934,7.749,149.702-7.078,162.559
				c-15.658,13.578-38.027-6.464-87.237,14.864c-32.278,14.002-77.071,34.246-107.224,37.769
				c-15.814,1.856-27.614-0.894-31.461-11.576C826.047,1321.496,879.731,1239.069,866.31,1182.823z"/>
			<path style="fill:#FFFFFF;" d="M1016.789,918.594c0,0,1.329,5.645,15.373,4.774c0,0,11.791-0.728,11.43-6.933
				C1043.593,916.435,1032.16,912.021,1016.789,918.594z"/>
			<path style="fill:#B2443B;" d="M837.23,1352.533c3.848,10.681,15.647,13.433,31.461,11.576
				c20.87-9.093,111.026-44.021,110.019-67.687c-1.498-35.041-17.336-36.159-6.151-79.409c8.981-34.727-74.323-99.297-87.61-113.334
				c-24.986,47.399-25.675,49.64-18.64,79.144C879.731,1239.069,826.047,1321.496,837.23,1352.533z"/>
			<path style="fill:#C65447;" d="M826.202,1225.33c4.274-3.384,46.446-9.188,57.402-15.159
				c4.577-56.204,54.287-116.349,54.287-129.605c0-13.42,18.617-108.46,18.617-108.46s-58.136,3.59-78.266,31.661
				C853.069,1038.876,797.45,1187.175,826.202,1225.33z"/>
			<path style="fill:#FFB27D;" d="M883.605,1210.171l88.708,81.597l-13.625,17.472c0,0-122.102-67.998-132.486-83.91
				C834.602,1219.034,866.565,1217.27,883.605,1210.171z"/>
			<path style="fill:#B2443B;" d="M1070.341,1149.097c9.912,16.012,27.52,56.223,50.089,69.432
				c14.804,8.646,34.898-3.378,45.303-9.7c-3.332-5.913-7.191-12.717-10.276-21.103c-8.305,1.9-18.44,4.328-24.974,6.299
				C1117.768,1197.871,1070.341,1149.097,1070.341,1149.097z"/>
			<path style="fill:#FFB27D;" d="M970.221,1290.031c0,0,36.799-9.136,45.407-6.441c8.607,2.693,37.727,23.363,33.37,28.578
				c-4.358,5.216-30.297-4.19-42.413-2.961c-12.116,1.23-21.638,6.879-30.282,5.31c-8.644-1.568-17.615-5.277-17.615-5.277
				L970.221,1290.031z"/>
			<path style="fill:#FFB27D;" d="M970.221,1290.031c0,0,18.137-8.587,23.382-13.639c0.661-0.637,1.741-0.464,2.207,0.327
				c1.291,2.189,2.429,6.371-3.962,10.286C982.648,1292.64,970.221,1290.031,970.221,1290.031z"/>
		</g>
		<g>
			<path style="fill:#2C3A64;" d="M2071.931,1130.24c-24.721,9.987-30.876-7.177-38.204-11.98
				c-14.258-9.346-14.643-19.319-10.361-29.576c7.03-16.842-15.298-24.199-9.068-46.896c6.23-22.695,13.351-18.691,16.012-37.604
				c2.127-15.121,22.505-21.795,33.552-22.317c14.149-0.667,29.962-13.731,46.578-10.171c16.616,3.56,19.732,9.791,27.298,11.127
				c7.565,1.334,23.213-0.76,46.728,22.695c22.976,22.921,13.964,31.942,16.634,43.508c2.672,11.564,4.229,38.822-6.007,44.607
				c-10.236,5.787-15.678,27.06-26.367,27.595c-20.027,1.001-22.364,13.287-34.714,15.436c-9.582,1.666-13.795-3.865-29.1,3.923
				C2096.738,1144.746,2082.945,1125.788,2071.931,1130.24z"/>
			<path style="fill:#A05A2B;" d="M2009.469,1417.907c0,0,43.19,306.346,38.208,344.169l27.258-3.308
				c0,0,34.113-133.728,30.011-171.148c-4.103-37.421,33.797-191.651-1.17-205.207
				C2068.808,1368.853,2009.469,1417.907,2009.469,1417.907z"/>
			<path style="fill:#BC6E39;" d="M2048.751,1418.275c0,0,61.612,306.631,58.967,344.691l26.963-6.23
				c0,0,26.213-137.851,19.815-174.948c-6.398-37.099,21.933-193.368-13.803-204.747
				C2104.957,1365.661,2048.751,1418.275,2048.751,1418.275z"/>
			<path style="fill:#2C3A64;" d="M2048.006,1756.694c0,0-6.478,11.894-18.818,14.655c-7.772,1.741-14.413,5.828-18.527,11.53
				c-3.476,4.82-0.05,11.551,5.894,11.516l62.709-0.357c5.34-0.03,9.481-4.662,8.917-9.971c-0.493-4.642-1.013-10.051-1.248-14.197
				c-0.515-9.055-10.325-17.19-10.325-17.19s-8.608,4.941-11.928,5.522C2057.455,1759.468,2048.006,1756.694,2048.006,1756.694z"/>
			<path style="fill:#35488B;" d="M2106.973,1756.694c0,0-6.478,11.894-18.817,14.655c-7.774,1.741-14.413,5.828-18.527,11.53
				c-3.478,4.82-0.049,11.551,5.894,11.516l62.709-0.357c5.34-0.03,9.481-4.662,8.917-9.971c-0.493-4.642-1.013-10.051-1.25-14.197
				c-0.515-9.055-10.324-17.19-10.324-17.19s-8.608,4.941-11.928,5.522C2116.422,1759.468,2106.973,1756.694,2106.973,1756.694z"/>
			<path style="fill:#BC6E39;" d="M2036.054,1152.515c0,0-40.978,69.092-49.243,125.422c0,0,19.931,26.891,28.037,8.008
				C2022.954,1267.063,2081.136,1165.977,2036.054,1152.515z"/>
			<path style="fill:#2C3A64;" d="M2043.856,1029.871c0.441-0.731,18.777-29.725,53.053-35.51
				c27.769-4.686,53.758,14.931,58.029,42.766c4.291,27.971-0.085,64.214-45.72,77.271L2043.856,1029.871z"/>
			<path style="fill:#BC6E39;" d="M2052.25,1154.507l51.642,30.677l13.632-36.307c0,0-6.566-13.291-8.307-34.48
				c-0.724-8.91-0.708-19.224,0.835-30.55l-44.906,19.502c0,0,0.781,4.086,1.098,10.065c0.332,6.459,0.113,15.126-2.233,23.222
				C2061.992,1143.588,2058.409,1150.118,2052.25,1154.507z"/>
			<path style="fill:#FFB27D;" d="M2179.492,1131.645l-16.544,5.374c0,0-26.281-8.705-49.264,22.113c0,0-7.194,11.474,1.663,20.213
				c8.157,8.046,9.747-10.912,25.449-7.132c15.703,3.778,26.338-2.125,33.347-11.711l11.562-6.911L2179.492,1131.645z"/>
			<path style="fill:#FFB93E;" d="M2170.941,1478.274c-4.82-55.193-12.016-127.756-16.542-157.542
				c-1.496-9.826-1.575-19.813-0.227-29.654l10.627-78.37l3.339-24.593c1.762-13.016-5.461-25.594-17.571-30.667
				c-11.041-4.606-19.132-5.673-33.043-8.572c-8.639,7.798-25.434,18.999-43.205,15.528c-13.351-2.617-16.002-9.223-15.283-16.887
				c-3.391,0.333-6.493,0.117-9.39,0.518c-11.195,1.518-20.841,7.735-26.966,16.609c0-0.006-0.01-0.04-0.01-0.04l-0.217,0.372
				c-0.961,1.424-1.835,2.908-2.608,4.459l-19.63,33.567c0,0,1.897,11.684,11.543,17.068
				c-9.644,106.217-20.812,346.053-11.805,349.124c58.343,19.906,161.867-7.783,175.885-21.174
				C2176.55,1547.338,2174.333,1517.099,2170.941,1478.274z"/>
			<path style="fill:#A05A2B;" d="M2064.012,1136.636c24.772,0.913,45.206-22.239,45.206-22.239l-42.973-0.983
				C2066.577,1119.873,2066.358,1128.54,2064.012,1136.636z"/>
			<path style="fill:#BC6E39;" d="M2052.894,1122.095c0,0,48.5,16.162,68.011-21.982c21.058-41.165,2.873-73.289-13.746-76.434
				c-33.14-6.274-53.354,5.23-60.081,18.319C2040.351,1055.088,2026.118,1113.42,2052.894,1122.095z"/>
			<path style="fill:#FFFFFF;" d="M2073.853,1101.256c0,0-2.387,4.957-15.219,1.272c0,0-10.772-3.09-9.167-8.763
				C2049.467,1093.765,2060.961,1092.019,2073.853,1101.256z"/>
			<path style="fill:#FFA412;" d="M2170.941,1478.274c-1.535-1.776-99.706-116.315-103.242-177.248
				c-3.552-61.415,49.251-106.287,49.251-106.287c21.041-1.388,36.581,5.501,47.85,17.97l-10.627,78.37
				c-1.348,9.84-1.269,19.828,0.227,29.654C2158.926,1350.518,2166.122,1423.08,2170.941,1478.274z"/>
			<path style="fill:#2C3A64;" d="M2086.875,1028.207c0,0-4.598,45.499,38.567,61.623c17.163,6.411,26.098-63.083-9.765-76.958
				c-35.863-13.876-71.23,2.603-75.458,26.861c-4.228,24.258-1.009,29.315-1.009,29.315S2055.998,1022.899,2086.875,1028.207z"/>
			<path style="fill:#BC6E39;" d="M2113.083,1177.047c0,0-19.795,78.292-20.565,109.436c0,0-43.444,75.873-45.994,81.268
				c-2.552,5.397,15.681,12.772,15.681,12.772s54.5-58.123,65.006-82.55c10.508-24.429,47.774-103.854,32.86-127.563
				C2145.158,1146.704,2113.083,1177.047,2113.083,1177.047z"/>
			<path style="fill:#BC6E39;" d="M1986.81,1277.938c0,0-3.891,53.332,34.065,95.349c0,0,10.361-12.472,9.054-16.344
				c-1.307-3.87-16.162-63.314-27.012-71.77C1992.066,1276.718,1986.81,1277.938,1986.81,1277.938z"/>
			<path style="fill:#BC6E39;" d="M2046.524,1367.752c0,0-24.295-0.177-25.649,5.535c-1.357,5.71,6.245,23.586,24.012,17.359
				c17.766-6.229,17.319-10.121,17.319-10.121L2046.524,1367.752z"/>
			<path style="fill:#BC6E39;" d="M2029.929,1356.943c0,0,19.516,9.02,12.885,18.631c-6.631,9.612-19.89,3.864-21.939-2.287
				C2018.824,1367.136,2029.929,1356.943,2029.929,1356.943z"/>
			<path style="fill:#FFB93E;" d="M2098.792,1218.356c0,0,25.476,23.698,64.756,20.027c0,0,19.357-68.603-11.685-77.025
				C2120.822,1152.937,2095.171,1193.595,2098.792,1218.356z"/>
		</g>
		<g>
			<path style="fill:#233862;" d="M2395.391,767.921c0,0-58.773,91.89-40.182,259.791c5.803,52.413-177.955,135.595-177.955,135.595
				s-13.799-10.797-7.887-30.149c0,0,102-101.807,112.366-114.307c9.196-11.09,34.093-129.225,44.829-168.549
				C2345.024,782.679,2395.391,767.921,2395.391,767.921z"/>
			<g>
				<path style="fill:#233862;" d="M2665.033,1700.658c0,0,20.12,18.36,16.194,31.407c-3.925,13.047-22.081,21.745-24.536,37.688
					c-2.453,15.947-12.267,24.643-21.1,24.643c-8.832,0-42.111,0-42.111,0s-6.502-11.22,9.2-14.602
					c15.704-3.382,21.624-22.121,20.644-39.514c-0.982-17.396,1.471-40.589,1.471-40.589l33.369-7.731L2665.033,1700.658z"/>
				<path style="fill:#233862;" d="M2418.202,1748.148c0,0,3.612,41.786-5.222,46.135l-113.042-0.233c0,0,0-13.047,18.156-15.945
					c18.158-2.899,50.054-13.53,55.452-37.204C2378.944,1717.222,2418.202,1748.148,2418.202,1748.148z"/>
				<path style="fill:#EE9849;" d="M2322.764,1157.878c0,0,5.961,73.247,12.968,161.294c9.527,119.604,20.98,266.518,22.113,294.35
					c1.958,48.329,9.819,125.634,9.819,125.634s18.637,18.366,55.943,10.625c0,0,33.24-110.355,42.736-227.12
					c0.147-1.913,0.294-3.841,0.441-5.768c8.833-118.864,22.568-369.161,22.568-369.161L2322.764,1157.878z"/>
				<path style="fill:#E58638;" d="M2322.764,1157.878c0,0,5.961,73.247,12.968,161.294l130.612,203.49
					c0.147-1.913,0.294-3.841,0.441-5.768c8.833-118.864,22.568-369.161,22.568-369.161L2322.764,1157.878z"/>
				<path style="fill:#EE9849;" d="M2349.992,1166.578c0,0,107.467,265.27,178.13,389.933
					c70.666,124.663,92.748,159.452,92.748,159.452s40.483-15.945,44.163-26.817c0,0-27.02-240.667-74.344-299.335
					c-26.739-33.152-58.15-132.637-59.623-167.426c-1.471-34.789-9.567-103.645-9.567-103.645L2349.992,1166.578z"/>
			</g>
			<path style="fill:#FFB27D;" d="M2491.388,757.774c0,0-72.714,35.083-114.634,22.067c0,0,10.32-13.018,28.377-22.703
				c-1.45-8.413-2.58-15.716-3.225-21.907c-1.773-14.289-1.773-22.386-1.773-22.386l28.054-22.063l26.604-21.116
				C2452.693,729.038,2491.388,757.774,2491.388,757.774z"/>
			<path style="fill:#2B478B;" d="M2318.174,1163.927c1.284,1.114,2.738,1.739,4.364,1.739c15.794-0.321,61.744,8.407,100.59,4.439
				c32.894-3.174,61.914-12.695,93.033-26.338c4.194-1.907,13.715-6.99,13.545-11.43c-0.17-5.083-0.642-12.223-1.284-21.444
				c-1.303-18.137-3.137-43.89-3.722-74.422c-0.434-22.635-0.189-47.895,1.454-74.649c0.096-1.794,0.189-3.607,0.266-5.421
				c0.472-9.806,0.699-19.688,0.699-29.344c0.17-31.117-2.079-60.8-6.594-87.306c-7.918-46.046-22.594-82.336-44.51-98.377
				c-2.908-2.23-21.126,6.76-37.886,14.866c-15.324,7.464-30.627,8.258-45.138,5.404l-14.51,12.697
				c-17.59,16.022-36.937,38.089-45.476,71.437c-7.085,28.264-11.279,79.373-13.547,132.406
				c-1.116,24.127-1.928,48.256-2.249,71.267v0.795c-0.17,2.379-0.17,4.779-0.17,7.16
				C2316.246,1116.296,2317.039,1163.134,2318.174,1163.927z"/>
			<path style="fill:#ED985F;" d="M2455.273,692.367c0,0-18.38,33.497-53.367,42.864c-1.773-14.289-1.773-22.386-1.773-22.386
				l28.054-22.063L2455.273,692.367z"/>
			<path style="fill:#FFB27D;" d="M2387.341,711.878c0,0,69.366,11.348,75.878-31.296c6.512-42.644,19.849-69.899-24.164-78.947
				c-44.014-9.047-55.123,5.946-60.813,19.66C2372.554,635.008,2369.464,707.827,2387.341,711.878z"/>
			<path style="fill:#2C3A64;" d="M2488.43,596.529c0.63-0.722,2.083-1.305,5.316-1.481c0,0-2.583-1.617-6.04-1.701
				c-0.675-4.496-3.067-12.451-10.802-14.384c0,0,4.156,2.216,4.701,6.993c-8.96-9.2-28.159-15.9-81.32-11.702
				c-70.062,5.53-46.972,50.387-37.9,55.735c9.071,5.348,31.9-9.313,48.799-7.972c16.901,1.341,20.114,25.761,25.847,29.11
				c5.732,3.351,3.479-2.574,11.235-6.08c7.758-3.506,8.495,9.347,6.254,17.705c-2.24,8.358,8.419,19.381,8.419,19.381
				s0,0,10.769-11.6c10.771-11.598,20.923-60.729,16.025-71.202C2489.299,598.407,2488.871,597.471,2488.43,596.529z"/>
			<path style="fill:#FFB27D;" d="M2155.51,1140.309c0,0-8.873-3.978-14.175,1.734c-5.302,5.712-17.693,9.65-16.628,12.635
				c2.2,6.183,13.629-0.788,25.706,2.969C2154.64,1158.961,2167.74,1150.872,2155.51,1140.309z"/>
			<path style="fill:#233862;" d="M2524.7,1036.471c-0.434-22.635-0.189-47.895,1.454-74.649c0.096-1.794,0.189-3.607,0.266-5.421
				c-6.594-32.668-16.57-61.651-31.25-62.596C2495.169,893.804,2451.43,962.54,2524.7,1036.471z"/>
			<path style="fill:#FFB27D;" d="M2582.555,1155.002c0,0-3.646,35.445-7.647,42.148c-3.999,6.705-21.032,28.13-28.287,32.334
				c-7.255,4.204,4.431-28.23,2.952-34.541c-1.477-6.311-5.971,11.516-9.168,11.936c-3.198,0.42-2.375-15.626-2.49-21.465
				c-0.114-5.841,15.557-20.256,21.083-32.691C2564.526,1140.289,2582.555,1155.002,2582.555,1155.002z"/>
			<path style="fill:#2B478B;" d="M2475.825,741.282c0,0,43.89,20.781,64.933,52.733c32.641,49.559,70.478,230.183,71.177,246.909
				c0.699,16.725-27.616,134.809-27.616,134.809s-28.719-1.891-36.125-16.387c0,0,5.738-121.327,2.102-129.127
				s-119.722-162.75-106.668-195.814C2456.681,801.341,2475.825,741.282,2475.825,741.282z"/>
		</g>
	</g>
</g>
</svg>
