<svg width="2600" height="2000" xmlns="http://www.w3.org/2000/svg" xmlns:svg="http://www.w3.org/2000/svg" enable-background="new 0 0 2600 2000" version="1.1" xml:space="preserve">
 <g class="layer">
  <title>Layer 1</title>
  <g id="svg_1">
   <rect fill="#2D5098" height="2000" id="_x31_1" width="2600" x="-2" y="1"/>
   <polygon fill="#3966C4" id="_x31_0" points="2578.511962890625,509.4620056152344 2578.511962890625,1299.2650146484375 6.866000175476074,1299.2650146484375 6.866000175476074,585.781982421875 165.2220001220703,585.781982421875 165.2220001220703,727.6329956054688 262.6000061035156,727.6329956054688 262.6000061035156,842.35302734375 295.5570068359375,842.35302734375 295.5570068359375,433.3710021972656 353.0140075683594,433.3710021972656 353.0140075683594,390.02099609375 371.16400146484375,390.02099609375 371.16400146484375,352.9809875488281 381.83599853515625,352.9809875488281 381.83599853515625,284.4909973144531 391.5989990234375,284.4909973144531 391.5989990234375,352.9809875488281 402.281005859375,352.9809875488281 402.281005859375,390.02099609375 420.4309997558594,390.02099609375 420.4309997558594,433.3710021972656 477.88800048828125,433.3710021972656 477.88800048828125,842.35302734375 641.9609985351562,842.35302734375 643.781005859375,615.031982421875 712.5830078125,615.031982421875 712.5830078125,510.25201416015625 818.0709838867188,510.25201416015625 818.0709838867188,615.031982421875 884.3319702148438,615.031982421875 883.9459838867188,770.60302734375 1007.6729736328125,770.60302734375 1007.6729736328125,695.8829956054688 1135.593994140625,695.8829956054688 1135.593994140625,770.60302734375 1210.2030029296875,770.60302734375 1210.2030029296875,392.3009948730469 1267.6600341796875,392.3009948730469 1267.6600341796875,348.95098876953125 1285.81005859375,348.95098876953125 1285.81005859375,311.9110107421875 1296.491943359375,311.9110107421875 1296.491943359375,243.4199981689453 1306.2449951171875,243.4199981689453 1306.2449951171875,311.9110107421875 1316.93701171875,311.9110107421875 1316.93701171875,348.95098876953125 1335.0870361328125,348.95098876953125 1335.0870361328125,392.3009948730469 1392.5340576171875,392.3009948730469 1392.5340576171875,770.60302734375 1556.5970458984375,770.60302734375 1556.5970458984375,495.4519958496094 1743.489013671875,495.4519958496094 1743.489013671875,648.9320068359375 1906.01904296875,648.9320068359375 1906.01904296875,453.6310119628906 1980.1419677734375,453.6310119628906 1980.1419677734375,404.6310119628906 1998.302001953125,404.6310119628906 1998.302001953125,367.6210021972656 2008.9649658203125,367.6210021972656 2008.9649658203125,299.1109924316406 2018.72705078125,299.1109924316406 2018.72705078125,367.6210021972656 2029.4000244140625,367.6210021972656 2029.4000244140625,404.6310119628906 2047.570068359375,404.6310119628906 2047.570068359375,453.6310119628906 2121.693115234375,453.6310119628906 2121.693115234375,648.9320068359375 2250.968994140625,648.9320068359375 2250.968994140625,266.010009765625 2455.43798828125,266.010009765625 2455.43798828125,509.4620056152344 "/>
   <g id="_x39_">
    <path d="m2598,349.43l0,949.44l-827.98,0c10.25,-269.38 57.93,-530.94 298.08,-575.58c73.29,-15.84 151.63,-4.34 221.75,-27.46c42.37,-12 63.77,-57.43 69.05,-108.82c20.96,-138.86 154.37,-230.68 239.1,-237.58z" fill="#C0DAFF" id="svg_2"/>
    <path d="m2597.99,989.3c0,0 -16.69,-309.58 -120.39,-309.58c-156.1,0 -183.13,469.25 -327.33,376.38c-142.86,-92.01 -273.23,-123.27 -303.72,242.78l750.68,0.01l0.76,-309.59z" fill="#B0D0F7" id="svg_3"/>
    <path d="m1232.25,1213.48c-2.39,29.94 -7.46,59.41 -15.45,87.42l-1218.8,0l0,-782.81l0,-1.47c5.63,-2.74 100.8,-44.29 168.41,62.55c76.36,118.82 202.59,-161.47 347.82,-10.28c57.12,56.87 35.71,130.54 81.94,176.35c26.57,28.42 69.16,33.17 101.23,16.55c50.35,-21.7 99.46,-69.82 158.69,-42.51c42.05,19.62 65.8,47.53 79.53,85.42c28.02,63.98 -6.62,154.45 50.47,197.56c40.05,24.47 96.74,13.3 142.57,21.19c97.2,8.66 109.94,118.11 103.59,190.03z" fill="#C0DAFF" id="svg_4"/>
    <path d="m879.87,1211.7c0.93,23.43 -6.75,73.49 -11.87,89.21l-870,0l0,-599.39c5.9,-6.95 83.23,-24.5 120.22,47.81c58.02,95.05 147.92,-139.79 259.13,5.85c32.05,49.95 16.79,126 81.03,140.5c50.04,8.68 92.71,-61.94 145.53,-42.11c79.18,30.59 71.19,120.68 76.43,175.09c23.14,127.61 198.85,-31.29 199.53,183.04z" fill="#B0D0F7" id="svg_5"/>
    <path d="m1095.24,1303.82c19.46,-379.75 342.41,-75.69 432.91,-323.3c38.79,-94.37 98.01,-157.99 198.07,-136.45c100.06,21.54 89.85,103.7 222.58,101.42c132.73,-2.29 120.07,-116.01 244.23,-88.6s166.79,190.56 145.06,440.81l-1242.85,6.12z" fill="#B3CBF4" id="svg_6"/>
    <path d="m2598,984.78l0,314.12l-908.05,1.98c0,0 160.57,-143.23 295.19,-127.44c67.76,-2.62 147.29,-20.61 210.78,-46.04c56.24,-20.68 93.01,-49.89 127.45,-90.6c74.12,-83.03 191.27,-146.76 274.63,-52.02z" fill="#A3BCEF" id="svg_7"/>
    <path d="m1449.9,1303.82c-410.53,-0.86 -1451.9,-2.61 -1451.9,-2.61l0,-216.11c21.05,-103.15 95.43,-136.01 199.05,-41.29c43.07,31.84 86.54,81.04 147.71,69.97c179.09,-79.04 154.57,111.82 290.19,94.39c60.76,-14.23 102.01,-83.96 172.28,-70.62c34.87,7.75 72.66,42.29 105.34,52.78c38.25,15.63 70.67,22.31 107.55,25.25c102.4,11.55 334.78,-35.54 429.78,88.24z" fill="#A3BCEF" id="svg_8"/>
   </g>
   <g id="_x38_">
    <g id="svg_9">
     <path d="m2518.76,969.01c-46.11,-76.25 -30.21,-151.21 -44.52,-194.1c-14.25,-42.73 -39.55,-101.4 -86.27,-101.85l0,-0.01c-0.09,0 -0.18,0.01 -0.27,0.01c-0.09,0 -0.18,-0.01 -0.27,-0.01l0,0.01c-46.72,0.45 -72.02,59.12 -86.27,101.85c-14.31,42.89 1.59,117.85 -44.52,194.1c-46.05,76.16 -18.96,190.77 130.79,192.43l0,0.01c0.09,0 0.18,-0.01 0.27,-0.01c0.09,0 0.18,0.01 0.27,0.01l0,-0.01c149.76,-1.66 176.84,-116.27 130.79,-192.43z" fill="#527FBF" id="svg_10"/>
     <path d="m2437.14,874.18c-2.33,-2.33 -6.11,-2.33 -8.43,0l-38.38,38.4l0,-90.01c0,-3.29 -2.67,-5.96 -5.96,-5.96s-5.97,2.67 -5.97,5.96l0,221.46l-29.48,-29.5c-2.33,-2.33 -6.11,-2.33 -8.43,0c-2.33,2.33 -2.33,6.1 0,8.43l37.91,37.94l0,263.84c0,3.3 2.67,5.96 5.97,5.96s5.96,-2.67 5.96,-5.96l0,-395.29l46.81,-46.83c2.32,-2.33 2.32,-6.11 0,-8.44z" fill="#3B679B" id="svg_11"/>
    </g>
    <g id="svg_12">
     <path d="m734.77,1001.81c-11.45,-44.97 34.16,-59.57 51.65,-71.33c26.76,-17.99 26.76,-34.58 26.76,-61.09c0,-16.57 16.62,-69.07 55.84,-68.03c39.22,-1.04 55.84,51.46 55.84,68.03c0,26.51 0,43.1 26.76,61.09c17.49,11.76 63.1,26.36 51.65,71.33c-13.02,51.1 29.51,70.22 24.55,109.85c-4.95,39.59 -75.76,65.53 -158.68,65.58l0,0c-0.04,0 -0.08,0 -0.12,0c-0.04,0 -0.08,0 -0.11,0l0,0c-82.93,-0.05 -153.73,-25.99 -158.69,-65.58c-4.96,-39.63 37.57,-58.75 24.55,-109.85z" fill="#7689D6" id="svg_13"/>
     <path d="m942.14,974.26c-2.42,-2.24 -6.19,-2.09 -8.42,0.33l-58.74,63.62l0,-144.51c0,-3.29 -2.67,-5.96 -5.96,-5.96c-3.29,0 -5.96,2.67 -5.96,5.96l0,223.13l-68.92,-68.95c-2.32,-2.33 -6.1,-2.33 -8.42,0c-2.33,2.33 -2.33,6.1 0,8.43l77.34,77.39l0,181.82c0,3.29 2.67,5.96 5.96,5.96c3.29,0 5.96,-2.67 5.96,-5.96l0,-259.73l67.49,-73.11c2.24,-2.41 2.09,-6.19 -0.33,-8.42z" fill="#3B679B" id="svg_14"/>
    </g>
    <g id="svg_15">
     <path d="m137.73,978.89c46.1,-76.25 -8.74,-123.19 0,-209.9c7.46,-73.98 59.11,-124.53 127.21,-119.9c43,2.92 77.82,58.64 83.77,113.08c4.92,44.96 3.61,91.89 49.71,168.14c46.05,76.16 16.55,217.5 -133.21,219.17l0,0.01c-0.09,-0.01 -0.18,-0.01 -0.27,-0.01c-0.09,0 -0.18,0 -0.27,0.01l0,-0.01c-148.14,15.38 -172.99,-94.43 -126.94,-170.59z" fill="#7689D6" id="svg_16"/>
     <path d="m312.16,1002.57c-2.33,-2.33 -6.1,-2.33 -8.43,0l-29.49,29.51l0,-221.47c0,-3.29 -2.67,-5.96 -5.96,-5.96c-3.29,0 -5.96,2.67 -5.96,5.96l0,90.01l-38.38,-38.4c-2.33,-2.33 -6.1,-2.33 -8.43,0c-2.33,2.33 -2.33,6.11 0,8.44l46.81,46.83l0,395.29c0,3.29 2.67,5.96 5.96,5.96c3.29,0 5.96,-2.67 5.96,-5.96l0,-263.84l37.92,-37.94c2.33,-2.33 2.33,-6.1 0,-8.43z" fill="#3B679B" id="svg_17"/>
    </g>
    <g id="svg_18">
     <g id="svg_19">
      <path d="m1904.13,908.5c14.68,-56.05 -35.28,-82.99 -57.7,-97.64c-34.28,-22.43 -52.54,-45.49 -65.6,-97.61c-24.34,-97.1 -118.02,-87.61 -122.23,49.74c-3.17,102.92 -92.58,97.39 -76.19,192.89c16.69,63.7 -37.38,66.87 -24.81,125.09c10.51,48.68 110.52,87.23 172.55,87.23c118.27,0 203.93,-37.57 211.57,-96.48c9.48,-73.11 -54.27,-99.52 -37.59,-163.22z" fill="#7689D6" id="svg_20"/>
     </g>
     <path d="m1786.92,874.18c-2.33,-2.33 -6.1,-2.33 -8.43,0l-38.38,38.4l0,-90.01c0,-3.29 -2.67,-5.96 -5.96,-5.96c-3.29,0 -5.96,2.67 -5.96,5.96l0,221.46l-29.49,-29.5c-2.33,-2.33 -6.1,-2.33 -8.43,0c-2.33,2.33 -2.33,6.1 0,8.43l37.92,37.94l0,263.84c0,3.3 2.67,5.96 5.96,5.96c3.29,0 5.96,-2.67 5.96,-5.96l0,-395.29l46.81,-46.83c2.33,-2.33 2.33,-6.11 0,-8.44z" fill="#3B679B" id="svg_21"/>
    </g>
    <g id="svg_22">
     <path d="m382.35,1056.34c-9.61,-37.71 28.64,-49.96 43.31,-59.82c22.44,-15.08 22.44,-28.99 22.44,-51.22c0,-13.9 13.93,-57.92 46.82,-57.04c32.89,-0.88 46.83,43.14 46.83,57.04c0,22.23 0,36.14 22.43,51.22c14.67,9.86 52.92,22.11 43.32,59.82c-10.92,42.85 24.74,58.88 20.58,92.11c-4.15,33.21 -63.52,54.96 -133.06,55l0,0c-0.03,0 -0.07,0 -0.1,0c-0.03,0 -0.06,0 -0.09,0l0,0c-69.54,-0.04 -128.91,-21.79 -133.07,-55c-4.16,-33.23 31.51,-49.26 20.59,-92.11z" fill="#527FBF" id="svg_23"/>
     <path d="m556.89,1032.53c-2.42,-2.24 -6.19,-2.08 -8.42,0.33l-47.59,51.54l0,-118.72c0,-3.29 -2.66,-5.96 -5.96,-5.96s-5.96,2.67 -5.96,5.96l0,184.78l-56.14,-56.17c-2.33,-2.33 -6.1,-2.33 -8.43,0c-2.33,2.33 -2.33,6.1 0,8.43l64.57,64.61l0,152.07c0,3.3 2.67,5.97 5.96,5.97s5.96,-2.68 5.96,-5.97l0,-217.42l56.34,-61.02c2.24,-2.42 2.09,-6.2 -0.33,-8.43z" fill="#3B679B" id="svg_24"/>
    </g>
    <g id="svg_25">
     <path d="m2027.5,1056.34c-9.61,-37.71 28.64,-49.96 43.31,-59.82c22.44,-15.08 22.44,-28.99 22.44,-51.22c0,-13.9 13.93,-57.92 46.82,-57.04c32.89,-0.88 46.83,43.14 46.83,57.04c0,22.23 0,36.14 22.43,51.22c14.67,9.86 52.92,22.11 43.31,59.82c-10.91,42.85 24.75,58.88 20.59,92.11c-4.15,33.21 -63.52,54.96 -133.06,55l0,0c-0.03,0 -0.06,0 -0.1,0c-0.03,0 -0.06,0 -0.1,0l0,0c-69.53,-0.04 -128.9,-21.79 -133.06,-55c-4.16,-33.23 31.5,-49.26 20.59,-92.11z" fill="#7689D6" id="svg_26"/>
     <path d="m2202.04,1032.53c-2.42,-2.24 -6.19,-2.08 -8.42,0.33l-47.59,51.54l0,-118.72c0,-3.29 -2.67,-5.96 -5.96,-5.96s-5.96,2.67 -5.96,5.96l0,184.78l-56.14,-56.17c-2.33,-2.33 -6.1,-2.33 -8.43,0c-2.33,2.33 -2.33,6.1 0,8.43l64.57,64.61l0,152.07c0,3.3 2.67,5.97 5.96,5.97s5.96,-2.68 5.96,-5.97l0,-217.42l56.34,-61.02c2.24,-2.42 2.09,-6.2 -0.33,-8.43z" fill="#3B679B" id="svg_27"/>
    </g>
   </g>
   <g id="_x37_">
    <path d="m711.62,153.16c20.35,0 38.44,10.31 49.97,26.33c19.75,-12.84 51.41,-10.41 68.47,5.21c19.57,-25.23 53.87,-12.49 61.71,18.26c21.74,-23.34 58.79,-3.62 57.77,28.54l-300.17,0c-6.57,-39.8 23.65,-78.91 62.25,-78.34z" fill="#A3BCEF" id="svg_28"/>
    <path d="m1611.37,206.17c20.35,0 38.44,10.32 49.97,26.33c19.75,-12.84 51.41,-10.41 68.47,5.21c19.57,-25.23 53.87,-12.49 61.71,18.26c21.74,-23.34 58.79,-3.62 57.77,28.54l-300.17,0c-6.57,-39.8 23.65,-78.91 62.25,-78.34z" fill="#A3BCEF" id="svg_29"/>
   </g>
   <g id="_x36_">
    <rect fill="#C5E2FF" height="631" id="svg_30" width="2598.63" x="-1.88" y="1370"/>
    <rect fill="#94B3EA" height="477" id="svg_31" width="2600" x="-2" y="1524"/>
    <rect fill="#A3BCEF" height="451.38" id="svg_32" width="2600" x="-2" y="1549.62"/>
    <rect fill="#94B3EA" height="72" id="svg_33" width="2600" x="-2" y="1298"/>
   </g>
   <path d="m2598,1208.06l0,-18.06l-2600,0l0,18.06l172.96,0l0,29.6l-172.96,0l0,18.07l172.96,0l0,28.93l-172.96,0l0,18.07l172.96,0l0,221.27l18.01,0l0,-221.27l185.37,0l0,221.27l18.01,0l0,-221.27l185.37,0l0,221.27l18.02,0l0,-221.27l185.37,0l0,221.27l18.01,0l0,-221.27l185.37,0l0,221.27l18.01,0l0,-221.27l185.37,0l0,221.27l18.01,0l0,-221.27l185.37,0l0,221.27l18.01,0l0,-221.27l185.37,0l0,221.27l18.01,0l0,-221.27l185.37,0l0,221.27l18.02,0l0,-221.27l185.37,0l0,221.27l18.01,0l0,-221.27l185.37,0l0,221.27l18.01,0l0,-221.27l185.37,0l0,221.27l18.01,0l0,-221.27l171.83,0l0,-18.07l-171.82,0l0,-28.93l171.82,0l0,-18.07l-171.82,0l0,-29.6l171.82,0zm-2002.26,0l185.37,0l0,29.6l-185.37,0l0,-29.6zm-18.02,29.6l-185.36,0l0,-29.6l185.36,0l0,29.6zm221.4,-29.6l185.37,0l0,29.6l-185.37,0l0,-29.6zm203.38,0l185.37,0l0,29.6l-185.37,0l0,-29.6zm203.38,0l185.37,0l0,29.6l-185.37,0l0,-29.6zm203.39,0l185.36,0l0,29.6l-185.36,0l0,-29.6zm203.38,0l185.37,0l0,29.6l-185.37,0l0,-29.6zm203.38,0l185.37,0l0,29.6l-185.37,0l0,-29.6zm203.38,0l185.37,0l0,29.6l-185.37,0l0,-29.6zm-1830.44,0l185.37,0l0,29.6l-185.37,0l0,-29.6zm0,76.6l0,-28.93l185.37,0l0,28.93l-185.37,0zm203.39,0l0,-28.93l185.36,0l0,28.93l-185.36,0zm203.38,0l0,-28.93l185.37,0l0,28.93l-185.37,0zm203.38,0l0,-28.93l185.37,0l0,28.93l-185.37,0zm203.38,0l0,-28.93l185.37,0l0,28.93l-185.37,0zm203.38,0l0,-28.93l185.37,0l0,28.93l-185.37,0zm203.39,0l0,-28.93l185.36,0l0,28.93l-185.36,0zm203.38,0l0,-28.93l185.37,0l0,28.93l-185.37,0zm203.38,0l0,-28.93l185.37,0l0,28.93l-185.37,0zm203.38,0l0,-28.93l185.37,0l0,28.93l-185.37,0zm388.75,0l-185.37,0l0,-28.93l185.37,0l0,28.93zm0,-47l-185.37,0l0,-29.6l185.37,0l0,29.6z" fill="#FFFFFD" id="_x35_"/>
   <g id="_x34_">
    <path d="m1357.28,2001l-1359.27,0l0,-413.08c173.32,-6.75 306.92,72.59 357.88,254.4c66.67,148.35 218.2,-82.09 323.79,-88.98c18.52,-3.66 37.41,-4.05 56.6,0.14c96.34,21.04 89.54,180.94 229.08,180.94c152.62,0 135.14,-66.58 242.21,-59.21c115.28,7.93 149.71,125.79 149.71,125.79z" fill="#527FBF" id="svg_34"/>
    <path d="m622.9,1921.78c-24.66,28.06 -51.74,54.62 -79.06,79.22l-373.12,0c77.73,-93.2 164.73,-185.84 270.11,-248.21c176.55,-109.61 337.3,-31.91 182.07,168.99z" fill="#7689D6" id="svg_35"/>
    <path d="m622.9,1921.78c-3.74,4.38 -7.71,8.77 -11.67,13c-61.48,-93.17 -68.75,-182.96 -65.73,-226.49c5.72,-1.36 13.27,-2.44 18.95,-3.4c-2.39,43.36 -0.33,123.23 58.45,216.89z" fill="#4867AA" id="svg_36"/>
    <path d="m507.85,2001l-18.76,0c-47.49,-73.02 -71.16,-158.43 -57.96,-242.46c5.67,-3.5 11.47,-7.1 17.23,-10.32c-13.26,88.38 9.82,175.58 59.49,252.78z" fill="#4867AA" id="svg_37"/>
    <path d="m341.74,2001l-17.37,0c-13.75,-50.11 -17.34,-102.42 -9.67,-153.41c5.46,-5 10.97,-9.89 16.54,-14.7c1.86,2.1 2.51,4.92 1.91,7.51c-3.82,21.3 -5.59,43.32 -5.28,65.41c0.09,31.93 5.84,63.84 13.87,95.19z" fill="#4867AA" id="svg_38"/>
    <path d="m284.23,1364.99c-0.08,3.9 -0.23,7.8 -0.42,11.72c-2.82,58.87 -16.62,121.62 -36.89,185.23c-2.64,8.34 -5.41,16.68 -8.26,25.04c-50.56,147.51 -132.32,297.68 -189.21,414.02l-51.45,0l0,-644.61c17.48,-29.96 38.99,-56.86 60.05,-82.77c54.71,-66.72 105.83,-88.44 145.54,-77.46c6.04,1.64 11.79,4.08 17.27,7.21c37.37,21.31 61.33,75.64 63.24,149.34c0.13,4.02 0.16,8.13 0.13,12.28z" fill="#4867AA" id="svg_39"/>
    <path d="m124.16,1438.56c-21.85,58.04 -42.75,117.18 -62.38,176.27c30.71,0 115.32,-24.58 185.14,-52.89c-2.64,8.34 -5.41,16.68 -8.26,25.04c-77.95,36.82 -161.83,47.61 -184.04,49.68c-15.99,48.86 -38.85,124.97 -53.9,176.68c-0.94,3.24 -1.86,6.38 -2.72,9.41l0,-65.54c13.77,-48.79 31.51,-98.67 39.95,-129.1c-14.35,-23.82 -27.72,-50.96 -39.95,-80.94l0,-51.87c4.31,11.16 7.81,20.65 8.39,22.17c11.96,32.08 25.21,61.12 39.48,86.59c19.1,-57.34 39.38,-114.67 60.52,-171.06c-24.01,-48.79 -40.19,-118.15 -48.34,-159.38c2.01,-2.35 4,-4.65 5.98,-6.87c2.72,-3.09 5.46,-6.1 8.23,-9.05c10.95,37.75 20.62,100.05 43.43,150.75c45.34,-118.75 80.66,-196.58 87.9,-212.29c6.04,1.64 11.79,4.07 17.28,7.21c-4.39,9.7 -39.59,85.68 -87.38,210.62c32.27,-9.36 99.97,-37.13 150.61,-61.28c0.13,4.02 0.16,8.13 0.13,12.29c-0.08,3.89 -0.23,7.79 -0.42,11.71c-60.05,30.77 -136.27,54.8 -159.65,61.85z" fill="#C5E2FF" id="svg_40"/>
    <path d="m162.67,1769.94c-3.9,8.73 -7.93,17.42 -11.94,26.07c-44.37,20.11 -107.57,36.9 -152.73,43.45l0,-25.76c19.92,-2.68 47.58,-6.29 75.31,-14.32c28.32,-8.26 55.58,-18.36 80.92,-29.94c2.88,-1.31 5.93,-1.02 8.44,0.5z" fill="#C5E2FF" id="svg_41"/>
    <path d="m381.36,1792.29c-33.98,71.74 -80.27,145.8 -123.99,208.71l-247.53,0c38.61,-102.27 105.36,-287.46 193.51,-368.75c122.02,-112.54 261,-24.25 178.01,160.04z" fill="#3B679B" id="svg_42"/>
    <path d="m328.1,1769.08c-41.83,84.37 -90.16,160.09 -142.34,231.92l-175.92,0c52.94,-126.7 146.42,-443.36 320.41,-417.16c26.1,3.93 36.19,102.79 -2.15,185.24z" fill="#7689D6" id="svg_43"/>
   </g>
   <g id="_x33_">
    <path d="m1570.28,2001c0,0 39.06,-126.13 127,-134.95c87.94,-8.81 120.22,73.02 207.39,47.18c87.17,-25.84 -3.35,-164.17 120.46,-205.91c123.82,-41.73 572.87,-19.41 572.87,-19.41l-0.01,313.09l-1027.71,0z" fill="#527FBF" id="svg_44"/>
    <path d="m2516.07,2001l-394.44,0c-68.83,-63.22 -131.52,-138.6 -164.19,-225.66c-62.71,-144.5 13.24,-246.03 162.2,-184.67l0,0.02c0.65,0.24 1.27,0.49 1.91,0.75c0,0.03 0,0.03 0,0.03c66.55,26.8 120.81,76.96 170.53,129.19l0,0.02c76.68,80.85 159.71,190.12 223.99,280.32z" fill="#7689D6" id="svg_45"/>
    <path d="m2343.07,2001l-24.6,0c-25.9,-24.42 -51.76,-49.52 -76.99,-74.71c-59.72,11.77 -139.01,8.8 -191.24,1.03c-5.98,-6.94 -11.76,-14.01 -17.38,-21.21c38.59,5.91 121.37,15.66 193.12,4.62c-39.47,-39.8 -78.42,-80.76 -115.97,-122.03c-48.91,4.85 -115.18,-5.69 -152.58,-13.36c-3.27,-6.78 -5.82,-13.6 -8.04,-20.39c32.32,6.77 96.66,18.66 145.2,16.77c-81.03,-89.96 -129.81,-152.51 -137.82,-162.9c3.73,-4.8 7.73,-9.42 12.44,-13.24c1.67,2.02 49.38,64.79 136.77,161.98c5.42,-34.4 13.9,-108.46 13.66,-166.87c0.65,0.24 1.27,0.5 1.91,0.75c0,0.03 0,0.03 0,0.03c5.81,2.33 12.42,4.45 17.34,7.63c-0.26,68.76 -13.31,150.84 -17.49,175.49c38.64,42.46 78.73,84.64 119.41,125.57c12.88,-28.95 30.04,-117.44 36.11,-195.16c5.1,5.18 10.07,10.37 15.16,15.66c-2.06,90.72 -29.32,171.99 -37.2,193.66c27.15,27.04 60.34,60.53 88.19,86.68z" fill="#C5E2FF" id="svg_46"/>
    <path d="m2528.44,2001l-160.04,0c-121.88,-160.21 -271.35,-420.83 -241.16,-636.65c26.52,-147.99 165.58,-121.17 232.16,-13.62c115.09,185.89 149.77,440.52 169.04,650.27z" fill="#3B679B" id="svg_47"/>
    <path d="m2528.44,2001l-95.83,0c-100.85,-130.1 -206.25,-313.92 -238.42,-489.79c-15.19,-97.82 -23.48,-201.59 62.93,-244.58c193.33,51.12 256.74,564.1 271.32,734.37z" fill="#7689D6" id="svg_48"/>
    <path d="m2598,1305.65l0,695.35l-80.56,0c-19.98,-45.13 -47.42,-113.5 -68.14,-173.82l-0.02,0c-1.68,-4.93 -3.34,-9.92 -4.99,-14.91c-41.73,-125.94 -78.85,-265.56 -68.16,-399.56c6.25,-147.02 109.31,-266.2 221.87,-107.06z" fill="#4867AA" id="svg_49"/>
    <path d="m2598,1382.51l0,20.8c-101.54,-7.53 -173.6,-47.56 -207.79,-71.67c2,-6.96 4.56,-14.9 7.28,-19.8c34.8,23.4 98.29,62.4 200.51,70.67z" fill="#C5E2FF" id="svg_50"/>
    <path d="m2598,1536.48l0,20.8c-85.4,-5.71 -160.62,-33.68 -223.64,-86.13c-0.15,-8.18 -0.15,-16.32 0.06,-24.46c65.08,49.67 135.97,85.8 223.58,89.79z" fill="#C5E2FF" id="svg_51"/>
    <path d="m2598,1704.48l0,20.96c-75.29,-12.33 -145.78,-44.12 -203.84,-92.22c-2.88,-10.71 -4.27,-21.83 -6.41,-32.71c58.6,52.42 131.52,90.86 210.25,103.97z" fill="#C5E2FF" id="svg_52"/>
    <path d="m2598,1878.71l0,20.99c-48.89,-8.64 -99.29,-30.55 -143.2,-56.83c-1.86,-5.2 -3.67,-10.42 -5.5,-15.69l-0.02,0c-1.68,-4.93 -3.34,-9.92 -4.99,-14.91c16.61,10.52 44.35,26.18 61.09,34.29c29.6,14.45 62.37,26.03 92.62,32.15z" fill="#C5E2FF" id="svg_53"/>
   </g>
   <g id="_x32_">
    <path d="m1481.2,1788.87l-122.32,-2.84c6.01,-34.93 0.32,-113.19 -3.73,-150.36l70.27,1.63l-13.46,90.05c-1.59,10.62 4.54,20.91 14.66,24.51c22.42,9.2 48.51,5.51 62.52,23.79c3.48,5.93 -1.07,13.38 -7.94,13.22z" fill="#F99370" id="svg_54"/>
    <path d="m1156.35,1785.52l-105.92,-61.2c22.05,-27.75 54.69,-99.13 69.01,-133.67l60.84,35.15l-55.09,72.52c-6.49,8.56 -6.07,20.53 1.08,28.54c15.24,18.83 39.89,28.12 43.39,50.88c0.2,6.87 -7.36,11.21 -13.31,7.78z" fill="#F99370" id="svg_55"/>
    <path d="m1294.44,577.8c0,0 45.61,-10.79 71.23,43.62c16.76,35.61 -9.3,32.76 27.78,61.97c68.72,54.15 5.38,134.12 -40.35,134.77c-30.81,0.43 -15.94,9.07 -75.14,6.36c-59.21,-2.72 -190.35,-204.88 16.48,-246.72z" fill="#662948" id="svg_56"/>
    <path d="m1371,800.88c42.4,44.88 68.28,102.66 88.86,159.83c9.22,27.69 17.01,56.06 29.85,82.39c18.01,38.14 41.56,74.43 72.48,103.41c13.21,12.33 -3.54,33.76 -18.67,23.86c-14.74,-9.3 -28.33,-20.37 -41.16,-32.09c-34.92,-31.96 -64.06,-70.15 -87.06,-111.48c-28.6,-54.88 -58.7,-112.96 -107.6,-152.19c-0.03,0.07 0.29,0.32 0.35,0.38c-48.29,-41.4 14.33,-115.06 62.95,-74.11z" fill="#F99370" id="svg_57"/>
    <path d="m1490.9,1777.53c-0.02,-0.07 -0.04,-0.13 -0.07,-0.2c-4.02,-12.21 -18.3,-30.27 -66.58,-35.98l4.97,-51.79c0.53,-5.59 -4.35,-10.22 -9.89,-9.31c-25.03,4.08 -46.64,0.74 -58.6,-2.07c-4.89,-1.14 -9.44,2.86 -8.97,7.86l6.08,64.36l0,0c-1.72,6.66 -3.22,15.4 -2.4,23.78c0.4,4.14 1.45,8.18 3.44,11.85l123.45,2.86c5.99,0.14 10.43,-5.66 8.57,-11.36z" fill="#EB5648" id="svg_58"/>
    <path d="m1126.11,1714.32l32.72,-45.07c2.99,-4.12 1.22,-9.94 -3.53,-11.74c-23.96,-9.09 -40.74,-22.57 -49.77,-31.16c-3.89,-3.7 -10.28,-2.35 -12.38,2.59l-27.4,64.46c-4.54,5.07 -9.58,11.71 -12.64,18.88c-1.64,3.83 -2.66,7.87 -2.68,12.04l106.89,61.76c5.19,3 11.87,0.04 12.98,-5.85c0.01,-0.07 0.03,-0.14 0.04,-0.21c2.4,-12.97 -1.71,-36.51 -44.23,-65.7z" fill="#EB5648" id="svg_59"/>
    <path d="m1490.83,1777.33l-135.39,-3.15c0.4,4.14 1.45,8.18 3.44,11.85l123.44,2.86c6,0.14 10.44,-5.66 8.58,-11.36c-0.02,-0.07 -0.04,-0.13 -0.07,-0.2z" fill="#CE3932" id="svg_60"/>
    <path d="m1544.12,1127.84c0,0 -15.77,4.2 -22.62,26.82c-9.98,2.27 -19.54,1.65 -28.79,-1.12c-9.18,-2.74 -18.06,-7.59 -26.74,-13.82c-14.66,-10.53 -28.77,-24.97 -42.83,-39.78c-88.44,-80.36 -91.06,-207.6 -97.28,-314.62c0.02,0 0.02,-0.02 0,-0.04c-0.32,-5.62 -0.47,-8.79 -0.47,-8.79s0,0 0.02,0l0,0.02c0.52,0.09 3.41,0.79 8.18,2.28l0,0.02c98.13,17.78 119.79,164.65 157.96,241.09c22.63,45.5 54.21,70.2 52.57,107.94z" fill="#CE4ABF" id="svg_61"/>
    <path d="m1170.34,1780.02l-117.23,-67.74c-1.64,3.83 -2.66,7.87 -2.68,12.04l106.89,61.76c5.19,3 11.87,0.04 12.98,-5.85c0.02,-0.07 0.03,-0.14 0.04,-0.21z" fill="#CE3932" id="svg_62"/>
    <path d="m1447.37,1649.02c-2.12,13.22 -3.49,20.52 -3.49,20.52c-31.36,14.82 -71.48,7.03 -94.32,0.36c-11.06,-3.22 -18.07,-6.18 -18.07,-6.18c0.6,-8.07 1.12,-16.13 1.57,-24.18c10.37,-187.03 -19.31,-366.36 -19.7,-368.75c-0.01,-0.01 -0.01,-0.02 -0.01,-0.02c-8.04,197.55 -80.7,317.38 -112.82,361.11c-9.26,12.61 -15.15,18.9 -15.15,18.9c-57.08,7.4 -89.69,-44.48 -89.69,-44.48c3.91,-6.42 7.55,-12.86 10.92,-19.33c78.27,-149.98 17.09,-312.68 48.37,-448.65c5.35,-23.24 13.4,-45.71 25.31,-67.2c50.58,-91.23 252.1,9.37 252.1,9.37c5.52,16.93 10.31,34.44 14.45,52.35c45.61,197.39 12.05,444.28 0.53,516.18z" fill="#1D3F70" id="svg_63"/>
    <path d="m1492.71,1153.54c-9.18,-2.74 -18.06,-7.59 -26.74,-13.82l-47.82,-154.96l-14.89,-136.75c0,0 39.05,40.81 39.99,79.61s-3.97,61.26 6.65,94.46c8.08,25.25 31.88,98.05 42.81,131.46z" fill="#A523A2" id="svg_64"/>
    <path d="m1277.85,778.22c0.77,-3.41 1.12,-8.82 1.15,-15.16c0.18,-21.57 -3.01,-53.75 -4.19,-53c-7.59,-29.57 45.29,-40.06 52.06,-10.17l-1.31,67.13l-0.19,9.42c41.77,58.94 -92,15.11 -47.52,1.78z" fill="#F99370" id="svg_65"/>
    <path d="m1326.87,699.9l-1.31,67.12c-11.41,2.3 -27.15,2.63 -46.56,-3.96c0.18,-21.57 -3.01,-53.75 -4.19,-53c-7.59,-29.57 45.29,-40.06 52.06,-10.16z" fill="#E57D61" id="svg_66"/>
    <path d="m1446.84,1132.84c-119.17,40.07 -245.97,21.96 -291.86,5.48c5.35,-23.24 13.4,-45.71 25.31,-67.2c50.58,-91.23 252.1,9.37 252.1,9.37c5.52,16.93 10.31,34.44 14.45,52.35z" fill="#163356" id="svg_67"/>
    <path d="m1442.27,1082.56c-32.68,58.09 -287.14,36.81 -274.89,-14.56c1.7,-18.88 20.19,-40.03 20.08,-60.89c-2.54,-98.8 22.21,-185.13 72.96,-225.79c4.32,-0.78 13.08,-2.34 17.41,-3.11c38.19,24.41 46.67,15.77 48.02,7.1c0.02,0 0.02,-0.02 0,-0.04c0.68,-4.13 -0.37,-8.29 -0.42,-8.77c0,0 0,0 0.02,0l8.14,2.3c14.54,12.67 34.29,38.51 56.09,63.2c31.71,37.51 40.98,63.17 25.54,115.12c-10.45,35.19 15.4,72.18 24.68,99.27c3.08,9.01 4.42,17.7 2.37,26.17z" fill="#FCB4B4" id="svg_68"/>
    <path d="m1268.79,779.84c0,0 52.16,119.15 25.65,255.67c-26.5,136.53 -43.24,264.62 -43.24,264.62s-99.71,6.47 -177.34,-34.93c0,0 82.77,-187.18 97.02,-252.74c14.25,-65.56 33.24,-207.32 97.91,-232.62z" fill="#CE4ABF" id="svg_69"/>
    <path d="m1333.59,778.78c0,0 62.44,76.79 67.62,139.92s-10.35,79.96 15.53,179.59c25.87,99.62 32.34,194.08 32.34,194.08s45.29,-5.18 71.17,-20.7c0,0 -67.31,-204.16 -77,-243.76c-9.69,-39.6 -9.74,-70.05 -8.47,-109.21c1.27,-39.15 -43.3,-91.95 -101.19,-139.92z" fill="#CE4ABF" id="svg_70"/>
    <path d="m1603.12,1149.92c-3.16,6.74 -15.02,0.12 -21.32,2.51c5.96,8.32 14.44,14.76 14.44,14.83c11.35,5.52 22.97,10.36 34.86,14.65c11.16,15.36 -32.7,-2 -38.14,-2.91c-0.03,0.06 -0.07,0.12 -0.11,0.18c10.25,8.27 21.01,15.96 32.39,22.61c7.85,18.58 -34.99,-11.46 -40.11,-14.13c-0.03,0.02 -0.06,0.04 -0.08,0.06c8.22,9.53 17.68,18 27.98,25.25c6.28,19.54 -34.78,-14.57 -38.8,-18.78c-0.05,0.02 -0.1,0.04 -0.14,0.07c5.31,8.52 11.77,16.32 18.6,23.68c3.38,19.33 -27.86,-15.78 -31,-20.03c-3.21,-1.61 -19.6,-15.65 -29.64,-36.2c-3.29,-6.73 16.37,-25.96 22.65,-22.37c4.72,2.69 18.05,2.54 21.33,3.35c7.57,0.76 24.67,-1.1 27.09,7.23z" fill="#F99370" id="svg_71"/>
    <path d="m1346.58,747.79c-19.57,13.48 -45.68,13.25 -65.01,5.01c-1.1,-0.47 -2.21,-0.94 -3.25,-1.46c-41.48,-20.16 -40.74,-89.64 -15.95,-121.77c15.5,-21.92 48.8,-30.61 70.85,-13.8c15.23,12.33 18.29,30.9 22.33,50.59c1.36,5.19 4.53,12.23 8.01,17.28c13.24,19.81 8.19,45.87 -16.98,64.15z" fill="#F99370" id="svg_72"/>
    <path d="m1299.24,649.68c-37.32,4.56 -38.87,33.71 -38.87,33.71l-11.04,-17.51l39.96,-47.71l32.2,-8.7c7.18,2.35 13.29,6.7 18.07,12.59c0,-0.01 -3.01,23.06 -40.32,27.62z" fill="#E57D61" id="svg_73"/>
    <path d="m1338.87,718.71l-24,-18.81c-5.58,15.7 9.27,29.32 24,18.81z" fill="#F9F8F3" id="svg_74"/>
    <path d="m1325.69,678.7c2.55,-3.17 -2.49,-7.1 -4.94,-3.86c-2.55,3.17 2.48,7.1 4.94,3.86z" fill="#C16256" id="svg_75"/>
    <path d="m1352.4,679.39c2.55,-3.17 -2.49,-7.1 -4.94,-3.86c-2.55,3.17 2.49,7.1 4.94,3.86z" fill="#C16256" id="svg_76"/>
    <path d="m1338.87,719.89c-0.91,0.22 -23.99,-18.8 -24.73,-19.06c-0.52,-0.4 -0.61,-1.15 -0.2,-1.66c0.45,-2.91 24.96,18.79 25.66,18.6c0.89,0.65 0.35,2.17 -0.73,2.12z" fill="#C16256" id="svg_77"/>
    <path d="m1340.41,704.52c-2.19,-0.22 -7.27,-0.18 -6.79,-3.04c0.31,-0.58 1.03,-0.79 1.61,-0.47c3.65,2.15 13.68,1.28 9.66,-2.39c-5.88,-4.56 -10.76,-24.56 -5.63,-19.13c0.02,0.13 1.94,13.02 7.14,17.29c5.33,5.4 -0.95,7.59 -5.99,7.74z" fill="#C16256" id="svg_78"/>
    <path d="m1313.52,672.1c-0.31,0.07 -0.65,-0.03 -0.88,-0.29c-0.34,-0.38 -0.31,-0.96 0.07,-1.29c0.33,-0.29 8.06,-7.1 16.07,-6.25c0.51,0.05 0.87,0.51 0.82,1.01c-0.05,0.51 -0.51,0.87 -1.01,0.82c-7.21,-0.77 -14.58,5.72 -14.65,5.79c-0.13,0.11 -0.27,0.18 -0.42,0.21z" fill="#C16256" id="svg_79"/>
    <path d="m1353.89,671.09c-0.14,-0.04 -0.27,-0.11 -0.38,-0.22c-3.74,-3.62 -9.57,-3.6 -9.63,-3.6c-0.51,0.01 -0.92,-0.4 -0.93,-0.91c-0.01,-0.5 0.4,-0.92 0.91,-0.93c0.27,0 6.63,-0.04 10.93,4.12c0.36,0.35 0.37,0.93 0.02,1.3c-0.25,0.25 -0.6,0.33 -0.92,0.24z" fill="#C16256" id="svg_80"/>
    <path d="m1326.72,799.64c-5.16,3.17 -12.3,4.1 -19.44,3.09c-15.47,-2.2 -38.49,-22.89 -38.49,-22.89l0,-0.02l9.04,-1.61c38.2,24.41 45.21,14.57 47.56,7.28c0.78,-2.42 0,-9.01 0,-9.01s0,0 0.02,0c0,0 0,0 0.02,0.02c0,0 0,0 0.02,0c0.44,0.11 3.43,0.8 8.14,2.28l0,0.02c0.38,1.55 0.61,3.03 0.74,4.4c0.74,7.91 -2.45,13.3 -7.61,16.44z" fill="#F49F9F" id="svg_81"/>
    <path d="m1268.79,779.84c0,0 -16.19,88.17 -32.13,147.79c-2.99,11.19 -5.97,21.37 -8.83,29.77c-1.64,4.8 -3.59,9.28 -5.84,13.45c-22.55,41.94 -73.76,52.26 -113.55,48.11c0,0 -31.99,-73.8 46.29,-193.92c41.61,-63.85 114.06,-45.2 114.06,-45.2z" fill="#CE4ABF" id="svg_82"/>
    <path d="m1265.13,947.97c0,0 21.59,-32.83 48.17,-34.93l-3.03,13.3l-45.14,21.63z" fill="#F99370" id="svg_83"/>
    <path d="m1147.61,978.62c33.63,-20.47 118.97,-32.08 118.97,-32.08c24.72,-16.8 45.68,13.33 24.96,29.31c-7.79,5.25 -15.93,10.14 -24.15,14.65c-35.8,20.52 -71.95,39.2 -112.02,37.27c0,0 -30.41,-35.36 -7.76,-49.15z" fill="#F99370" id="svg_84"/>
    <path d="m1333.22,615.77c3.67,-32.81 -97.57,-103.62 -158.44,19.95c-29.42,59.73 -65.68,76.89 -26.28,122.82c22.07,25.73 -22.72,39.66 -9.95,63.5c22.63,42.25 155.72,41.11 135.52,-15.61c-10.66,-29.93 -37.74,-30 -22.87,-57.17c14.95,-27.3 -5.34,-47.24 -5.34,-47.24l13.29,-23.46c2.97,-44.56 69.39,-21.06 74.07,-62.79z" fill="#662948" id="svg_85"/>
    <path d="m1236.28,697.3c5.52,24.38 35.13,17.78 29.85,-6.63c-5.52,-24.37 -35.13,-17.77 -29.85,6.63z" fill="#F99370" id="svg_86"/>
    <path d="m1244.18,702.26c0.75,-0.08 1.26,-0.86 1.03,-1.58c-4.75,-12.91 0.85,-18.47 9.66,-14.94c1.47,0.59 2.37,-1.75 0.87,-2.29c-10.3,-4.11 -18.55,2.51 -12.87,17.97c0.17,0.56 0.73,0.91 1.31,0.84z" fill="#C16256" id="svg_87"/>
    <path d="m1255.6,700.44c3.37,-0.79 -3.56,-11.86 -13,-12.6c-0.67,-0.04 -1.26,0.48 -1.3,1.16c-0.04,0.67 0.48,1.25 1.16,1.29c9.63,0.91 10.63,10 13.14,10.15z" fill="#C16256" id="svg_88"/>
    <path d="m1454.53,1090.41c-4.35,-10.23 -20.08,-3.15 -15.57,6.82c2.1,4.85 5.94,19.93 3.87,29.36c-0.69,3.14 -4.66,6.72 -8.04,7.83c-26.96,6.64 -33.65,-28.09 -39.54,-39.64c0,0 -212.95,-512.78 -212.95,-512.78l-7.86,-18.93c-3.75,-9.45 -19.01,-3.57 -14.83,6.14c11.98,28.79 225.75,549.25 232.82,561.46c10.74,18.56 30.27,25.2 48.44,19.33c29.22,-9.45 18.99,-50.39 13.66,-59.59z" fill="#3A72AA" id="svg_89"/>
    <path d="m1068.9,345.24l-1.99,-12.18c-0.26,-1.6 0.83,-3.11 2.43,-3.37c1.06,-0.18 2.08,0.24 2.73,1l7.95,9.44c2.26,2.68 1.91,6.69 -0.77,8.94c-2.68,2.26 -6.68,1.92 -8.94,-0.76c-0.76,-0.9 -1.23,-1.98 -1.41,-3.07z" fill="#3A72AA" id="svg_90"/>
    <path d="m1529.86,419.37c0,0 -111.64,45.16 -208.86,121.12c0,0 -81.94,5.11 -148.64,32.09c-67.07,27.13 -134.25,82.34 -134.25,82.34c-104.83,10.39 -233.92,57.99 -233.92,57.99c-4.51,-149.5 100.47,-301.53 270.27,-370.22c169.8,-68.69 352.52,-33.04 455.4,76.68z" fill="#EB5648" id="svg_91"/>
    <path d="m1321,540.49c0,0 -79.47,17.49 -146.17,44.47c-67.07,27.13 -136.72,69.96 -136.72,69.96c-28.95,-193.47 36.35,-312.23 36.35,-312.23c146.23,65.55 246.54,197.8 246.54,197.8z" fill="#CE3932" id="svg_92"/>
    <path d="m1271.43,945.98c0,0 11.79,-17.45 30.52,-24.39c15.25,-5.64 19.55,-5.64 19.55,-5.64l20.86,34.89c0,0 -14.09,22.09 -58.56,27.78l-12.37,-32.64z" fill="#F99370" id="svg_93"/>
    <path d="m1329.87,917.42c1.54,2.68 -0.44,6.72 -4.43,9.02s-8.48,2 -10.03,-0.68c-1.54,-2.67 0.44,-6.71 4.43,-9.02c3.99,-2.3 8.48,-2 10.03,0.68z" fill="#F99370" id="svg_94"/>
    <path d="m1339.24,935.96c1.54,2.68 -0.44,6.72 -4.43,9.03c-3.99,2.3 -8.48,2 -10.03,-0.68c-1.54,-2.68 0.44,-6.72 4.43,-9.02c3.99,-2.31 8.48,-2.01 10.03,0.67z" fill="#F99370" id="svg_95"/>
    <path d="m1342.94,945.44c1.55,2.68 -0.44,6.72 -4.43,9.02c-3.99,2.3 -8.48,2 -10.03,-0.68c-1.54,-2.68 0.44,-6.72 4.43,-9.02c3.99,-2.31 8.48,-2 10.03,0.68z" fill="#F99370" id="svg_96"/>
    <path d="m1335.14,926.56c1.55,2.68 -0.43,6.72 -4.42,9.02c-3.99,2.31 -8.48,2 -10.03,-0.68c-1.55,-2.68 0.43,-6.72 4.43,-9.02c3.99,-2.3 8.48,-2 10.02,0.68z" fill="#F99370" id="svg_97"/>
    <path d="m1349.56,1669.9c-11.06,-3.22 -18.07,-6.18 -18.07,-6.18c14.55,-195.44 -17.72,-390.44 -18.13,-392.93c0.55,1.03 27.29,51.1 37.39,178.44c6.96,87.73 2.41,174.39 -1.19,220.67z" fill="#163356" id="svg_98"/>
    <path d="m1200.53,1631.88c-9.26,12.61 -15.15,18.9 -15.15,18.9c-57.08,7.4 -89.7,-44.48 -89.7,-44.48c3.92,-6.42 7.55,-12.86 10.93,-19.33c16.93,19.05 47.66,43.69 93.92,44.91z" fill="#163356" id="svg_99"/>
    <path d="m1447.37,1649.02c-2.12,13.22 -3.49,20.52 -3.49,20.52c-31.36,14.82 -71.48,7.03 -94.32,0.36c-11.06,-3.22 -18.07,-6.18 -18.07,-6.18c0.6,-8.07 1.12,-16.13 1.57,-24.18c15.63,6.93 54.81,19.8 114.31,9.48z" fill="#163356" id="svg_100"/>
    <path d="m1236.66,927.63c-2.99,11.19 -5.97,21.37 -8.83,29.77c-1.64,4.8 -3.59,9.28 -5.84,13.45l-85.05,-9.85c38.12,-39.3 99.72,-33.37 99.72,-33.37z" fill="#A523A2" id="svg_101"/>
    <path d="m1254.48,851.62c0,0 -9.44,72.79 -15.57,96.35l-16.34,-1.8l31.91,-94.55z" fill="#A523A2" id="svg_102"/>
    <path d="m1260.17,947.49c0,0 -8.14,22.06 17.28,37.26c0,0 -3.56,37.33 -41.8,52.72c-38.23,15.39 -122.33,29.53 -128.8,-26.52c-6.47,-56.06 92.88,-74.93 112.75,-75.31c19.87,-0.39 41.76,2 40.57,11.85z" fill="#CE4ABF" id="svg_103"/>
    <path d="m1164.66,1053.12c-3.15,0 -4.96,-0.1 -5.04,-0.1c-1.11,-0.06 -1.95,-1.01 -1.89,-2.11c0.06,-1.1 0.99,-1.94 2.11,-1.88c0.39,0.02 39.83,1.98 75.01,-13.39c35.61,-15.56 40.57,-50.79 40.62,-51.15c0.14,-1.09 1.13,-1.87 2.24,-1.72c1.09,0.14 1.87,1.14 1.73,2.24c-0.05,0.38 -5.33,37.84 -42.98,54.3c-28.58,12.48 -59.83,13.81 -71.8,13.81z" fill="#A523A2" id="svg_104"/>
    <path d="m1260.17,949.49c-0.16,0 -0.32,-0.02 -0.47,-0.06c-1.07,-0.26 -1.72,-1.32 -1.49,-2.38c0.03,-0.13 0.32,-1.89 -1.29,-3.98c-2.15,-2.8 -7.76,-6.32 -22.22,-7.21c-1.1,-0.06 -1.94,-1.01 -1.87,-2.12c0.07,-1.1 1.02,-1.96 2.12,-1.87c12.98,0.8 21.49,3.81 25.29,8.95c2.63,3.57 1.96,6.78 1.87,7.13c-0.22,0.92 -1.04,1.54 -1.94,1.54z" fill="#A523A2" id="svg_105"/>
   </g>
   <g id="_x31_">
    <path d="m870.25,348.18c2.61,12.52 -0.99,17.91 -6.57,19.07c-5.58,1.17 -11.04,-2.32 -13.66,-14.84s4.18,-30.5 4.18,-30.5s13.43,13.75 16.05,26.27z" fill="#FFFFFF" id="svg_106"/>
    <path d="m138.65,651.92c2.62,12.52 -0.98,17.91 -6.56,19.08c-5.59,1.17 -11.04,-2.33 -13.66,-14.85c-2.62,-12.52 4.17,-30.5 4.17,-30.5s13.43,13.75 16.05,26.27z" fill="#FFFFFF" id="svg_107"/>
    <path d="m633.87,447.55c2.62,12.52 -0.98,17.9 -6.56,19.07c-5.59,1.17 -11.04,-2.32 -13.66,-14.85s4.17,-30.49 4.17,-30.49s13.43,13.74 16.05,26.27z" fill="#FFFFFF" id="svg_108"/>
    <path d="m438.46,699.48c2.62,12.52 -0.98,17.91 -6.57,19.07c-5.58,1.17 -11.04,-2.32 -13.65,-14.84c-2.62,-12.52 4.17,-30.5 4.17,-30.5s13.43,13.75 16.05,26.27z" fill="#FFFFFF" id="svg_109"/>
    <path d="m699.28,688.89c2.62,12.52 -0.98,17.9 -6.57,19.07c-5.58,1.17 -11.04,-2.32 -13.65,-14.84c-2.62,-12.53 4.17,-30.5 4.17,-30.5s13.43,13.74 16.05,26.27z" fill="#FFFFFF" id="svg_110"/>
    <path d="m659.44,909.15c2.62,12.52 -0.98,17.91 -6.56,19.07c-5.59,1.17 -11.04,-2.32 -13.66,-14.84c-2.62,-12.52 4.17,-30.5 4.17,-30.5s13.43,13.75 16.05,26.27z" fill="#FFFFFF" id="svg_111"/>
    <path d="m478.65,1624.73c2.62,12.52 -0.98,17.9 -6.57,19.07c-5.58,1.17 -11.04,-2.32 -13.65,-14.84c-2.62,-12.53 4.17,-30.5 4.17,-30.5s13.43,13.74 16.05,26.27z" fill="#FFFFFF" id="svg_112"/>
    <path d="m324.88,1079.15c2.62,12.52 -0.98,17.91 -6.56,19.07c-5.59,1.17 -11.04,-2.32 -13.66,-14.84c-2.62,-12.52 4.17,-30.5 4.17,-30.5s13.43,13.75 16.05,26.27z" fill="#FFFFFF" id="svg_113"/>
    <path d="m1142.18,316.13c2.62,12.52 -0.98,17.9 -6.56,19.07c-5.58,1.17 -11.04,-2.32 -13.66,-14.84c-2.62,-12.53 4.18,-30.5 4.18,-30.5s13.43,13.75 16.04,26.27z" fill="#FFFFFF" id="svg_114"/>
    <path d="m1279.76,128.71c2.62,12.52 -0.98,17.91 -6.56,19.07c-5.58,1.17 -11.04,-2.32 -13.66,-14.84c-2.62,-12.53 4.18,-30.5 4.18,-30.5s13.42,13.75 16.04,26.27z" fill="#FFFFFF" id="svg_115"/>
    <path d="m1512.2,250.83c2.62,12.52 -0.98,17.91 -6.56,19.08c-5.58,1.16 -11.04,-2.33 -13.66,-14.85c-2.62,-12.52 4.18,-30.5 4.18,-30.5s13.43,13.75 16.04,26.27z" fill="#FFFFFF" id="svg_116"/>
    <path d="m1366.04,370.96c2.62,12.52 -0.98,17.91 -6.56,19.07c-5.59,1.17 -11.04,-2.32 -13.66,-14.84c-2.62,-12.52 4.17,-30.5 4.17,-30.5s13.43,13.75 16.05,26.27z" fill="#FFFFFF" id="svg_117"/>
    <path d="m1604.82,118.08c2.62,12.52 -0.98,17.91 -6.56,19.08c-5.59,1.16 -11.04,-2.33 -13.66,-14.85c-2.62,-12.52 4.17,-30.5 4.17,-30.5s13.43,13.75 16.05,26.27z" fill="#FFFFFF" id="svg_118"/>
    <path d="m1677.39,416.51c2.62,12.53 -0.98,17.91 -6.57,19.08c-5.58,1.17 -11.04,-2.32 -13.65,-14.85c-2.62,-12.52 4.17,-30.5 4.17,-30.5s13.43,13.75 16.05,26.27z" fill="#FFFFFF" id="svg_119"/>
    <path d="m696.54,1452.19c2.62,12.52 -0.98,17.9 -6.56,19.07c-5.58,1.17 -11.04,-2.32 -13.66,-14.84c-2.62,-12.53 4.18,-30.5 4.18,-30.5s13.42,13.74 16.04,26.27z" fill="#FFFFFF" id="svg_120"/>
    <path d="m2503.85,492.97c2.62,12.53 -0.98,17.91 -6.56,19.08c-5.58,1.17 -11.04,-2.33 -13.66,-14.85c-2.62,-12.52 4.18,-30.5 4.18,-30.5s13.43,13.75 16.04,26.27z" fill="#FFFFFF" id="svg_126"/>
    <path d="m1781.6,1708.43c2.61,12.53 -0.98,17.91 -6.57,19.08c-5.58,1.17 -11.04,-2.33 -13.66,-14.85c-2.61,-12.52 4.18,-30.5 4.18,-30.5s13.43,13.75 16.05,26.27z" fill="#FFFFFF" id="svg_127"/>
    <path d="m1846.69,534.67c2.61,12.53 -0.98,17.91 -6.57,19.08c-5.58,1.17 -11.04,-2.33 -13.66,-14.85c-2.61,-12.52 4.18,-30.5 4.18,-30.5s13.43,13.75 16.05,26.27z" fill="#FFFFFF" id="svg_129"/>
    <path d="m2011.28,845.36c2.62,12.52 -0.98,17.91 -6.56,19.08c-5.59,1.16 -11.04,-2.33 -13.66,-14.85c-2.62,-12.52 4.18,-30.5 4.18,-30.5s13.42,13.75 16.04,26.27z" fill="#FFFFFF" id="svg_130"/>
    <path d="m1738.72,1452.19c2.62,12.52 -0.98,17.9 -6.56,19.07c-5.59,1.17 -11.04,-2.32 -13.66,-14.84c-2.62,-12.53 4.18,-30.5 4.18,-30.5s13.43,13.74 16.04,26.27z" fill="#FFFFFF" id="svg_131"/>
    <path d="m2050.3,629.14c2.62,12.53 -0.98,17.91 -6.57,19.08c-5.58,1.17 -11.04,-2.32 -13.65,-14.85c-2.62,-12.52 4.17,-30.5 4.17,-30.5s13.43,13.75 16.05,26.27z" fill="#FFFFFF" id="svg_132"/>
    <path d="m2314.28,592.18c2.62,12.52 -0.98,17.91 -6.56,19.07c-5.58,1.17 -11.04,-2.32 -13.66,-14.84c-2.62,-12.52 4.18,-30.5 4.18,-30.5s13.42,13.75 16.04,26.27z" fill="#FFFFFF" id="svg_133"/>
    <path d="m2232.51,776.32c2.62,12.52 -0.98,17.9 -6.56,19.07c-5.58,1.17 -11.04,-2.32 -13.66,-14.84c-2.62,-12.53 4.18,-30.5 4.18,-30.5s13.43,13.74 16.04,26.27z" fill="#FFFFFF" id="svg_134"/>
    <path d="m2466.11,1006.49c2.62,12.52 -0.98,17.9 -6.56,19.07c-5.58,1.17 -11.04,-2.32 -13.66,-14.84c-2.62,-12.53 4.18,-30.5 4.18,-30.5s13.43,13.75 16.04,26.27z" fill="#FFFFFF" id="svg_135"/>
    <path d="m1169.87,515.75c2.62,12.52 -0.98,17.91 -6.57,19.08c-5.58,1.17 -11.04,-2.33 -13.66,-14.85c-2.61,-12.52 4.18,-30.5 4.18,-30.5s13.43,13.75 16.05,26.27z" fill="#FFFFFF" id="svg_136"/>
    <path d="m1749.57,753.54c2.62,12.52 -0.98,17.91 -6.56,19.07c-5.59,1.17 -11.04,-2.32 -13.66,-14.84c-2.62,-12.52 4.17,-30.5 4.17,-30.5s13.43,13.75 16.05,26.27z" fill="#FFFFFF" id="svg_137"/>
    <path d="m890.92,1647.5c2.62,12.53 -0.98,17.91 -6.56,19.08c-5.59,1.17 -11.04,-2.33 -13.66,-14.85c-2.62,-12.52 4.17,-30.5 4.17,-30.5s13.43,13.75 16.05,26.27z" fill="#FFFFFF" id="svg_138"/>
    <path d="m1975.36,1051.34c2.62,12.52 -0.98,17.9 -6.57,19.07c-5.58,1.17 -11.04,-2.32 -13.66,-14.84s4.18,-30.5 4.18,-30.5s13.43,13.75 16.05,26.27z" fill="#FFFFFF" id="svg_139"/>
    <path d="m1017.56,186.42c2.62,12.52 -0.98,17.9 -6.57,19.07c-5.58,1.17 -11.04,-2.32 -13.65,-14.84c-2.62,-12.53 4.17,-30.5 4.17,-30.5s13.43,13.75 16.05,26.27z" fill="#FFFFFF" id="svg_140"/>
    <path d="m245.2,393.74c2.62,12.52 -0.98,17.9 -6.56,19.07c-5.59,1.17 -11.04,-2.32 -13.66,-14.84c-2.62,-12.53 4.17,-30.5 4.17,-30.5s13.43,13.74 16.05,26.27z" fill="#FFFFFF" id="svg_141"/>
    <path d="m278.57,158.64c2.62,12.53 -0.98,17.91 -6.57,19.08c-5.58,1.17 -11.04,-2.33 -13.66,-14.85c-2.61,-12.52 4.18,-30.5 4.18,-30.5s13.43,13.75 16.05,26.27z" fill="#FFFFFF" id="svg_142"/>
    <path d="m524.85,259.77c2.61,12.52 -0.98,17.91 -6.57,19.07c-5.58,1.17 -11.04,-2.32 -13.66,-14.84c-2.62,-12.52 4.18,-30.5 4.18,-30.5s13.43,13.75 16.05,26.27z" fill="#FFFFFF" id="svg_143"/>
    <path d="m750.04,95.3c2.62,12.53 -0.98,17.91 -6.57,19.08c-5.58,1.17 -11.04,-2.33 -13.65,-14.85c-2.62,-12.52 4.17,-30.5 4.17,-30.5s13.43,13.75 16.05,26.27z" fill="#FFFFFF" id="svg_144"/>
    <path d="m965.88,527.08c2.62,12.52 -0.98,17.9 -6.56,19.07c-5.59,1.17 -11.04,-2.32 -13.66,-14.85c-2.62,-12.52 4.17,-30.49 4.17,-30.49s13.43,13.74 16.05,26.27z" fill="#FFFFFF" id="svg_145"/>
   </g>
  </g>
 </g>
</svg>