<?xml version="1.0" encoding="utf-8"?>
<!-- Generator: Adobe Illustrator 27.5.0, SVG Export Plug-In . SVG Version: 6.00 Build 0)  -->
<svg version="1.1" xmlns="http://www.w3.org/2000/svg" xmlns:xlink="http://www.w3.org/1999/xlink" x="0px" y="0px"
	 viewBox="0 0 500 500" style="enable-background:new 0 0 500 500;" xml:space="preserve">
<g id="BACKGROUND">
	<linearGradient id="SVGID_1_" gradientUnits="userSpaceOnUse" x1="250" y1="418.6595" x2="250" y2="2.875">
		<stop  offset="0" style="stop-color:#DFECF1"/>
		<stop  offset="1" style="stop-color:#E9F7FF"/>
	</linearGradient>
	<rect style="fill:url(#SVGID_1_);" width="500" height="500"/>
</g>
<g id="OBJECTS">
	<g>
		<g>
			<path style="fill:#FFFFFF;" d="M500,175.085v15.958c-49.25,2.74-99.201-5.789-148.49-1.234
				c-11.265,1.041-21.765-1.144-25.914-2.979c-3.015-1.333-3.607-5.416,0.783-5.013c13.578,1.247,21.908-2.072,28.132-4.051
				c10.016-3.185,37.683,10.427,55.213,5.76c5-1.328-7.355-4.363-3.798-8.138c5.202-5.521,44.515,5.458,61.975,7.507
				c3.49,0.41,7.08,0.63,10.55,0.122c5.31-0.767-7.386-9.424,1.486-12.846C485.725,167.937,497.936,173.745,500,175.085z"/>
		</g>
		<g>
			<path style="fill:#FFFFFF;" d="M447.135,76.936c-4.508,15.555-68.74,2.61-102.88,7.34c-10.92,1.52-21.75,4.21-32.76,4.03
				c-10.28-0.17-20.37-2.85-30.64-3.19c-14.55-0.48-28.89,3.76-43.45,3.96c-19.03,0.25-37.57-6.41-56.6-6.87
				c-12.74-0.3-25.24,2.17-37.54,5.67v-9.16c6.94-1.12,14.28-0.67,21.37-0.24c32.03,1.93,42.251-0.545,74.311-1.815
				c7.526-0.58,5.234-7.404,11.362-10.34c6.511-3.574,23.497,5.106,30.798,7.206c8.116,1.479,7.888-1.118,2.139-5.801
				c-4.04-3.291-12.255-9.319-10.979-15.319c1.056-4.965,17.234-7.149,59.234,19.787c7.061,2.223,13.277-11.106,19.149-14.808
				c7.787-3.83,26.128,10.979,37.404,11.106c13.975,0.638-11.993-14.655-14.283-18.511C363.159,32.107,451.116,46.15,447.135,76.936
				z"/>
		</g>
		<g>
			<path style="fill:#FFFFFF;" d="M90.36,245.38c-0.385,1.073-2.04,1.639-3.46,2.008c-2.628,0.677-24.501-1.381-45.857-1.743
				c-15.213-0.258-30.67-0.047-41.043,0.57v-8.926c5.08,0.14,10.497,1.774,15.479,2.521c11.451,1.715,12.812-3.303,5.911-8.826
				c-6.199-4.961-3.518-10.834,0.01-12.352c4.419-1.902,9.8,0.436,13.85,2.577c9.22,4.888,16.94,11.503,27.35,14.833
				c0.7,0.221,1.45,0.428,2.2,0.318c2.11-0.325,1.554-9.253,2.55-10.772C71.394,219.419,92.649,239,90.36,245.38z"/>
		</g>
	</g>
	<g>
		<path style="fill:#CEE6EF;" d="M0,333.403h40.277v64.321h15.319V314.87H81.83v-26.762h24.83v85.867h16.909v-43.882
			c0-8.82,3.283-17.422,9.515-23.664c4.37-4.377,10.448-7.958,18.64-7.958v47.194h17.438v-20.451h33.919v67.26h11.777v-81.169
			h28.581v46.462h16.686v21.83h25.26v21.83h23.021v-56.659h20.661v-20.32h26.784v40.309h31.021v-46.819h40.749v46.819v60.798H0
			V333.403z"/>
		<rect x="172.763" y="318.979" style="fill:#CEE6EF;" width="26.715" height="6.234"/>
		<rect x="176.102" y="314.303" style="fill:#CEE6EF;" width="20.037" height="4.675"/>
		<rect x="179.134" y="311.043" style="fill:#CEE6EF;" width="13.973" height="3.261"/>
		<g>
			<rect x="61.592" y="318.979" style="fill:#DFEFF4;" width="42.227" height="4.894"/>
			<rect x="61.592" y="327.787" style="fill:#DFEFF4;" width="42.227" height="4.894"/>
			<rect x="61.592" y="336.596" style="fill:#DFEFF4;" width="42.227" height="4.894"/>
			<rect x="61.592" y="345.404" style="fill:#DFEFF4;" width="42.227" height="4.894"/>
			<rect x="61.592" y="354.213" style="fill:#DFEFF4;" width="42.227" height="4.894"/>
			<rect x="61.592" y="363.021" style="fill:#DFEFF4;" width="42.227" height="4.894"/>
			<rect x="61.592" y="371.83" style="fill:#DFEFF4;" width="42.227" height="4.894"/>
			<rect x="61.592" y="380.638" style="fill:#DFEFF4;" width="42.227" height="4.894"/>
			<rect x="61.592" y="389.447" style="fill:#DFEFF4;" width="42.227" height="4.894"/>
			<rect x="61.592" y="398.255" style="fill:#DFEFF4;" width="42.227" height="4.894"/>
		</g>
		<g>
			<rect x="333.661" y="322.277" style="fill:#DFEFF4;" width="3.891" height="98.681"/>
			<rect x="340.61" y="322.277" style="fill:#DFEFF4;" width="3.891" height="98.681"/>
			<rect x="347.558" y="322.277" style="fill:#DFEFF4;" width="3.891" height="98.681"/>
		</g>
		<g>
			<g>
				<rect x="216.772" y="382.139" style="fill:#DFEFF4;" width="6.152" height="6.152"/>
				<rect x="226.251" y="382.139" style="fill:#DFEFF4;" width="6.152" height="6.152"/>
				<rect x="235.729" y="382.139" style="fill:#DFEFF4;" width="6.152" height="6.152"/>
			</g>
			<g>
				<rect x="216.772" y="390.711" style="fill:#DFEFF4;" width="6.152" height="6.152"/>
				<rect x="226.251" y="390.711" style="fill:#DFEFF4;" width="6.152" height="6.152"/>
				<rect x="235.729" y="390.711" style="fill:#DFEFF4;" width="6.152" height="6.152"/>
			</g>
			<g>
				<rect x="216.772" y="313.565" style="fill:#DFEFF4;" width="6.152" height="6.152"/>
				<rect x="226.251" y="313.565" style="fill:#DFEFF4;" width="6.152" height="6.152"/>
				<rect x="235.729" y="313.565" style="fill:#DFEFF4;" width="6.152" height="6.152"/>
			</g>
			<g>
				<rect x="216.772" y="322.137" style="fill:#DFEFF4;" width="6.152" height="6.152"/>
				<rect x="226.251" y="322.137" style="fill:#DFEFF4;" width="6.152" height="6.152"/>
				<rect x="235.729" y="322.137" style="fill:#DFEFF4;" width="6.152" height="6.152"/>
			</g>
			<g>
				<rect x="216.772" y="330.709" style="fill:#DFEFF4;" width="6.152" height="6.152"/>
				<rect x="226.251" y="330.709" style="fill:#DFEFF4;" width="6.152" height="6.152"/>
				<rect x="235.729" y="330.709" style="fill:#DFEFF4;" width="6.152" height="6.152"/>
			</g>
			<g>
				<rect x="216.772" y="339.28" style="fill:#DFEFF4;" width="6.152" height="6.152"/>
				<rect x="226.251" y="339.28" style="fill:#DFEFF4;" width="6.152" height="6.152"/>
				<rect x="235.729" y="339.28" style="fill:#DFEFF4;" width="6.152" height="6.152"/>
			</g>
			<g>
				<rect x="216.772" y="347.852" style="fill:#DFEFF4;" width="6.152" height="6.152"/>
				<rect x="226.251" y="347.852" style="fill:#DFEFF4;" width="6.152" height="6.152"/>
				<rect x="235.729" y="347.852" style="fill:#DFEFF4;" width="6.152" height="6.152"/>
			</g>
			<g>
				<rect x="216.772" y="356.424" style="fill:#DFEFF4;" width="6.152" height="6.152"/>
				<rect x="226.251" y="356.424" style="fill:#DFEFF4;" width="6.152" height="6.152"/>
				<rect x="235.729" y="356.424" style="fill:#DFEFF4;" width="6.152" height="6.152"/>
			</g>
			<g>
				<rect x="216.772" y="364.996" style="fill:#DFEFF4;" width="6.152" height="6.152"/>
				<rect x="226.251" y="364.996" style="fill:#DFEFF4;" width="6.152" height="6.152"/>
				<rect x="235.729" y="364.996" style="fill:#DFEFF4;" width="6.152" height="6.152"/>
			</g>
			<g>
				<rect x="216.772" y="373.568" style="fill:#DFEFF4;" width="6.152" height="6.152"/>
				<rect x="226.251" y="373.568" style="fill:#DFEFF4;" width="6.152" height="6.152"/>
				<rect x="235.729" y="373.568" style="fill:#DFEFF4;" width="6.152" height="6.152"/>
			</g>
		</g>
		<rect x="143.167" y="288.108" style="fill:#DFEFF4;" width="3.83" height="86.169"/>
		<rect x="5.507" y="330.957" style="fill:#DFEFF4;" width="29.447" height="7.362"/>
		<rect x="61.592" y="301.468" style="fill:#DFEFF4;" width="2.489" height="13.402"/>
		<rect x="184.876" y="297.641" style="fill:#DFEFF4;" width="2.489" height="13.402"/>
		<rect x="390.843" y="321.064" style="fill:#DFEFF4;" width="32.805" height="4.404"/>
		<rect x="390.843" y="334.787" style="fill:#DFEFF4;" width="32.805" height="4.404"/>
		<rect x="390.843" y="348.511" style="fill:#DFEFF4;" width="32.805" height="4.404"/>
		<rect x="390.843" y="362.234" style="fill:#DFEFF4;" width="32.805" height="4.404"/>
		<rect x="390.843" y="375.957" style="fill:#DFEFF4;" width="32.805" height="4.404"/>
		<rect x="390.843" y="389.681" style="fill:#DFEFF4;" width="32.805" height="4.404"/>
		<rect x="390.843" y="403.404" style="fill:#DFEFF4;" width="32.805" height="4.404"/>
		<rect x="151.723" y="345.664" style="fill:#DFEFF4;" width="17.438" height="79.889"/>
		<rect x="260.124" y="379.596" style="fill:#DFEFF4;" width="19.128" height="45.958"/>
	</g>
	<g>
		<g>
			<g>
				<path style="fill:#16A1C5;" d="M14.745,118.591c-9.128,12.835-5.872,43.473,28.264,44.226
					c0.829,13.006,8.46,25.76,20.286,31.235c5.86,2.713,12.42,3.6,18.878,3.626c15.249,0.061,31.348-4.592,45.205-15.773
					c3.727,2.888,9.097,3.481,13.364,1.475c4.267-2.006,7.237-6.519,7.391-11.232c7.178,4.423,15.255,7.796,23.684,7.993
					c8.429,0.196,17.235-3.199,22.1-10.085c4.206-5.953,5.027-13.589,5.528-20.861c8.16,3.488,18.562,0.563,23.709-6.666
					c6.671-9.37,3.7-23.032-3.712-31.826s-18.223-13.857-28.685-18.638"/>
			</g>
			<path style="fill:#93BFE1;" d="M219.894,114.209c0,0-9.574,19.642-32.22,40.422c-2.438,2.237-6.282,5.376-10.909,8.994
				c4.251-12.19,8.278-42.076,8.278-42.076h-3.83c0,0-7.658,27.239-12.051,39.239c-4.381,11.965-14.888,19.796-14.95,19.842
				c-8.167,6.015-16.148,11.787-22.047,16.027c2.03-32.385,4.239-53.55,4.239-53.55l-22.998-0.201
				c-0.014,8.107-1.802,32.885-5.797,65.807c-9.582-17.641-27.286-43.322-42.62-66.927h-4.088c0,0,17.824,28.561,31.769,62.492
				c7.909,19.244,8.499,48.98,5.818,75.17c-3.586,35.029-11.106,85.309-22.979,134.426l59.728-2.416
				c-7.032-52.824-7.237-114.887-5.46-166.014c0.502-14.435,6.475-28.128,16.727-38.302c16.026-15.905,39.741-39.481,48.877-48.778
				c19.947-20.298,30.245-44.153,30.245-44.153H219.894z"/>
			<g>
				<path style="fill:#20ABC4;" d="M308.37,12.82c-0.47,8.58-6.95,17.29-15.53,17.6c7.64,6.39,8.99,19.01,2.89,26.88
					c-6.1,7.87-18.66,9.69-26.75,3.88c3.24,18.34-0.35,38.84-13.52,52.02c-13.16,13.17-36.99,15.91-50.27,2.85
					c-0.71,7.57-5.75,14.59-12.71,17.67c-6.95,3.08-15.53,2.1-21.62-2.47c-1.81,8.96-15.49,12.41-21.34,5.39
					c-10.48,22.3-37.76,33.76-62.1,29.86c-7.91-1.27-15.77-4.03-21.88-9.22s-10.25-13.06-9.66-21.05c-7.3,4.59-18.5,0.17-20.69-8.17
					C16.149,137.17,1.979,120.319,0,111.32V0h305.99C307.64,4.11,308.61,8.41,308.37,12.82z"/>
			</g>
		</g>
		<g>
			<path style="fill:#5DBDCC;" d="M364.024,421.63c0,0-10.982-7.961-8.173-14.332c2.809-6.371,15.319,0,15.319,0
				s-2.298-4.192,1.532-7.025c3.83-2.833,10.979,1.743,10.979,1.743s-9.552-13.354-2.298-24.19
				c7.532-11.251,23.745-5.013,29.362-1.526c0,0-1.532-4.371,1.787-6.653c3.319-2.282,6.638,0,6.638,0s-4.587-14.083,6.128-20.18
				c15.702-8.936,28.596,11.142,28.596,11.142s-4.065-18.392,8.234-27.206c12.319-8.828,29.298-0.219,37.723,8.699v83.451
				L364.024,421.63z"/>
			<path style="fill:#5DBDCC;" d="M30.319,418.747c0,0,74.808-13.787,145.404-14.553c70.596-0.766,180.128,14.553,180.128,14.553
				H30.319z"/>
			<rect y="416.595" style="fill:#FFFFFF;" width="500" height="27.32"/>
			<polygon style="fill:#5DBDCC;" points="500,421.55 416.068,427.872 0,420.957 0,500 500,500 			"/>
			<path style="fill:#5DBDCC;" d="M112.277,411.457c0,0-1.532-25.412-15.064-36.935c0,0,15.064,6.605,24.255,21.159
				c0,0-4.34-21.958-10.979-34.979c0,0,12.766,9.447,19.659,27.83c0,0,1.787-14.042,7.915-26.298c0,0,0.255,13.639,1.532,20.99
				c0,0,8.426-18.871,19.915-27.718c0,0-9.191,23.324-10.723,40.685c0,0,9.957-14.817,18.638-22.217c0,0-9.702,20.322-9.957,37.482
				H112.277z"/>
		</g>
		<g>
			<path style="fill:#FFFFFF;" d="M257.775,451.34c-68.562,0-124.146,3.43-124.146,7.66s55.584,7.66,124.146,7.66
				c68.573,0,124.146-3.43,124.146-7.66S326.348,451.34,257.775,451.34z"/>
			<path style="fill:#FFFFFF;" d="M167.425,472.253c0,1.468-16.689,2.658-37.277,2.658s-37.277-1.19-37.277-2.658
				c0-1.468,16.689-2.658,37.277-2.658S167.425,470.786,167.425,472.253z"/>
			<path style="fill:#FFFFFF;" d="M104.62,453.34c0,1.47-31.77,2.66-70.95,2.66c-12.18,0-23.65-0.12-33.67-0.32V451
				c10.02-0.2,21.49-0.32,33.67-0.32C72.85,450.68,104.62,451.87,104.62,453.34z"/>
			<path style="fill:#FFFFFF;" d="M398.642,440.118c0,0.925-9.67,1.674-21.599,1.674s-21.599-0.749-21.599-1.674
				c0-0.925,9.67-1.674,21.599-1.674S398.642,439.194,398.642,440.118z"/>
			<path style="fill:#FFFFFF;" d="M500,477.706v7.585c-12.5,0.168-26.06,0.259-40.23,0.259c-62.89,0-113.88-1.813-113.88-4.052
				c0-2.239,50.99-4.052,113.88-4.052C473.94,477.447,487.5,477.538,500,477.706z"/>
		</g>
		<path style="fill:#008898;" d="M459.222,500c0,0-14.407-11.982-40.052-11.982c0,0,25.069-11.982,50.426,0
			c0,0-14.695-21.323-32.272-29.679c0,0,26.509,4.442,42.934,23.052c0,0-6.915-21.611-13.255-27.662
			c0,0,17.577,11.882,24.492,25.391c0,0-7.492-29.112-13.543-40.65c0,0,14.407,14.575,21.899,30.765V500H459.222z"/>
	</g>
	<g>
		<path style="fill:#FFFFFF;" d="M199.867,120.675c0,0-4.66-7.181-6.482-5.348C191.793,116.927,198.048,119.239,199.867,120.675z"/>
		<path style="fill:#FFFFFF;" d="M201.581,120.025c0,0,0.6-4.699,2.786-5.776c1.65-0.814,2.416,0.814,0.725,1.963
			C203.696,117.158,202.363,118.461,201.581,120.025z"/>
		<path style="fill:#FFFFFF;" d="M282.481,84.652c0,0,0.6-4.699,2.786-5.777c1.65-0.814,2.416,0.814,0.725,1.963
			C284.597,81.786,283.263,83.088,282.481,84.652z"/>
		<path style="fill:#FFFFFF;" d="M340.228,114.495c0,0,5.76-3.505,8.9-2.03c2.371,1.114,1.24,3.411-1.54,2.549
			C345.296,114.303,342.663,113.976,340.228,114.495z"/>
		<path style="fill:#FFFFFF;" d="M339.248,112.625c0,0,2.571-8.556,6.971-9.884c3.322-1.003,4.243,2.262,0.741,3.876
			C344.072,107.948,341.187,109.958,339.248,112.625z"/>
		<path style="fill:#FFFFFF;" d="M243.25,100.736c0,0,2.004-6.438,5.335-7.408c2.515-0.732,3.186,1.739,0.53,2.931
			C246.925,97.242,244.733,98.738,243.25,100.736z"/>
		<path style="fill:#FFFFFF;" d="M198.368,121.549c0,0-0.906-0.868-2.023-1.352c-1.104-0.478-2.561-0.627-2.749,0.156
			C193.329,121.465,196.788,120.854,198.368,121.549z"/>
		<path style="fill:#FFFFFF;" d="M222.106,188.297c0,0,0.891,3.842,0.891,6.81c0,2.968-1.915,7.787,0,7.851
			c2.055,0.068-0.196-7.979,1.195-12.319"/>
		<path style="fill:#FFFFFF;" d="M175.761,448.849c0,0-1.557-2.98-3.925-4.934c-2.522-2.081-6.339-3.328-7.085-1.385
			C163.633,445.436,175.761,448.849,175.761,448.849z"/>
		<path style="fill:#FFFFFF;" d="M222.205,450.161c0,0-0.287-2.746-3.862-5.651c-2.37-1.926-6.766-2.521-7.149-0.669
			c-0.257,1.244,2.332,2.008,5.449,3.158C219.843,448.181,222.205,450.161,222.205,450.161z"/>
		<path style="fill:#FFFFFF;" d="M222.879,445.545c0,0,0.759-2.053-0.762-5.371c-1.009-2.2-3.924-4.166-4.847-2.983
			c-0.619,0.794,0.953,2.245,2.765,4.156C221.895,443.309,222.879,445.545,222.879,445.545z"/>
		<path style="fill:#FFFFFF;" d="M344.942,449.777c0,0,6.287-11.17,10.085-8.043c0.863,0.711,1.034,2.457-2.043,3.981
			C348.241,448.065,344.942,449.777,344.942,449.777z"/>
	</g>
	<g>
		<g>
			<path style="fill:#262B67;" d="M284.986,303.509c3.924-7.099,16.086-4.949,20.144-3.876c1.836,0.522,13.245,48.687,12.473,72.001
				c-0.038,1.129-0.376,30.176,4.201,71.027c-3.267,0.822-10.241,1.933-13.702,1.596c-4.278-19.115-17.613-54.702-11.174-70.277
				c-1.514-3.608-13.522-36.957-13.874-39.078C281.566,325.578,280.898,310.954,284.986,303.509z"/>
			<path style="fill:#262B67;" d="M262.975,302.085c-6.25,5.445-11.243,20.84-10.842,32.876c0.106,3.172,3.049,28.701,2.584,36.672
				c-11.837,7.58-17.278,38.09-27.001,70.999l12.738,4.327c4.376-10.126,21.377-48.398,33.394-70.672
				c1.896-4.654,6.901-26.276,9.676-37.415l5.745-36.787H262.975z"/>
			<path style="fill:#F2BB00;" d="M300.3,232.455c0,0,4.738-0.093,11.44,17.12c5.212,13.385,4.8,22.532,3.805,24.191
				c-0.996,1.66-16-9.319-16.732-11.234C298.081,260.617,300.3,232.455,300.3,232.455z"/>
			<path style="fill:#F2BB00;" d="M304.248,248.844c0,0,2.706,7.433,4.429,13.56l-6.824-1.34L304.248,248.844"/>
			<path style="fill:#FFFFFF;" d="M307.341,303.84c0,0,1.295,2.778,0.869,4.927c0,0-6.728,5.314-21.362,5.435
				c-28.647,0.239-29.072-4.834-29.072-4.834s0-3.78,2.825-5.151"/>
			<path style="fill:#F2BB00;" d="M307.341,303.84c-1.111,1.772-13.66,4.38-19.98,4.38c-7.1,0-24.39-1.16-26.6-3.73
				c-0.99-1.14,1.19-4.09,1.19-8.03s0.16-19.56-0.85-26.19c-4.7-30.9-6.006-32.053-3.38-35.87c2.701-3.925,7.984-4.533,12.797-6.498
				c0.411-0.708,1.919-1.617,3.113-1.132c6.09,0.11,11.18,1.03,14.08,0.49c0.788-0.627,2.899,0.075,3.405,0.901
				c4.241,1.163,9.092,2.789,10.155,4.289c1.15,1.33,3.29,4.29,3.44,35.23c0.01,1.68,0.04,3.34,0.09,4.98
				c0.11,3.53,0.32,6.95,0.56,10.14C306.241,294.14,309.028,301.149,307.341,303.84z"/>
			<path style="fill:#F2BB00;" d="M258.567,235.34c0,0,2.141,1.156,3.319,5.68c1.641,6.304-2.681,17.214-2.681,17.214"/>
			<path style="fill:#F2BB00;" d="M305.361,282.8c-6.75-2.87-10.28-7.95-14.09-10.92c-3.8-2.97-4.86-7.15-4.86-7.15l18.39,7.93
				C304.911,276.19,305.121,279.61,305.361,282.8z"/>
			<g>
				<path style="fill:#F8A297;" d="M290.431,202.62c0,0-0.39,2.23-0.92,5.49c-0.29,1.85-0.64,4.02-0.99,6.32
					c-0.67,4.65-0.81,12.83-0.81,12.83s-6.77,5.09-14.08-0.49c0,0,0.29-1.25,0.7-3.04v-0.01c0.33-1.43,0.74-3.21,1.14-4.95
					c0.47-2.03,0.93-4.02,1.26-5.37l0.71-0.57l11.66-9.17L290.431,202.62z"/>
				<path style="opacity:0.5;fill:#F8A297;" d="M284.371,215.44c0,0-4.01,6.48-10.04,8.29v-0.01c0.33-1.43,0.74-3.21,1.14-4.95
					L284.371,215.44z"/>
				<path style="fill:#1F2654;" d="M266.685,195.652c0,0-1.564,4.675,2.06,7.833l1.268-7.585L266.685,195.652z"/>
				<path style="fill:#F8A297;" d="M281.252,218.251c-6.864,5.264-12.053,1.807-12.053,1.807c-3.224-3.133-2.83-11.428-2.158-16.793
					c0.26-2.171,0.625-4.059,0.902-5.383c0.258-1.196,0.458-1.91,0.458-1.91c0.012-0.052,0.016-0.09,0.028-0.142
					c1.275-6.927,10.531-7.168,16.899-3.268c0.376,0.231,0.728,0.468,1.077,0.743c1.77,1.269,3.233,2.907,4.107,4.82
					c1.494,3.271,0.578,6.992-0.951,10.156c-0.084,0.168-0.167,0.336-0.251,0.503C288.6,210.199,285.602,214.915,281.252,218.251z"
					/>
				<path style="fill:#1F2654;" d="M287.537,189.569c-0.211-2.592-1.748-4.325-3.322-5.14c-6.327-3.276-11.028,4.005-18.096,1.335
					c-3.8-1.436-3.455,9.312,1.263,11.733c5.034,2.583,9.35,2.017,12.609,0.622c-0.081,1.162,0.004,2.462,0.571,3.383
					c0.488,0.792,1.912,1.706,2.712,2.178c-0.136,1.187-0.278,2.702-0.374,3.671l1.604,0.096c0.144-0.55,0.295-0.979,0.626-1.724
					c0,0,1.312-3.465,3.271-2.636c2.326,0.985,0.414,8.046,0.124,11.33c0,0,1.247-0.227,1.903-0.939
					c1.528-1.658,3.444-5.579,4.68-12.752C296.692,191.602,291.405,187.282,287.537,189.569z"/>
			</g>
			<path style="fill:#4D89F5;" d="M308.102,444.255c0,0-1.067,2.575-1.085,5.125c-0.018,2.595,0.807,5.061,1.484,6.643
				c0.456,1.065,1.493,1.761,2.651,1.761h28.306c0.916,0,1.788-0.427,2.319-1.174c0.69-0.97,1.499-2.457,1.549-4.141
				c0.087-2.962-15.882-7.148-16.969-8.693c-2.042-2.904-0.055-4.002-1.723-3.926c-1.491,0.068-6.894,1.126-8.474,3.383
				C311.453,444.654,308.102,444.255,308.102,444.255z"/>
			<path style="fill:#4D89F5;" d="M257.868,451.277c-0.893-0.51-9.065-3.179-9.074-3.181c-1.592-1.766-2.799-3.185-2.883-3.755
				c-0.5-3.52,1.43-4.312-0.09-5.002c-1.36-0.62-6.32-1.408-8.75-0.108c-4.84-0.87-7.65-2.75-7.65-2.75s-2.12,1.81-3.29,4.08
				c-1.19,2.3-1.58,4.88-1.69,6.59c-0.08,1.16,0.53,2.25,1.56,2.77l12.854,6.543c1.7,0.865,3.581,1.317,5.488,1.317h10.693
				c0.719,0,1.416-0.309,1.858-0.876C258.393,454.983,258.627,451.71,257.868,451.277z"/>
		</g>
		<g>
			<path style="fill:#F8A297;" d="M219.239,303.836c0,0-6.563,9.51-9.51,25.584c-2.947,16.074-5.462,39.278-5.462,39.278
				s-6.526,4.663-9.973,15.558c-4.344,13.731-10.037,60.045-10.037,60.045s5.728,3.082,10.292,2.827
				c0,0,16.276-52.272,24.383-65.362c12.255-19.787,19.729-48.328,19.729-48.328s9.176,19.687,13.462,27.456
				c4.286,7.769,8.4,14.388,8.4,14.388s-4.241,5.849,1.797,22.854c6.255,17.617,20.412,48,20.412,48l9.775-2.861
				c0,0-8.98-33.806-12.443-58.033c-0.664-4.648-0.996-7.959-1.161-10.107c-0.175-2.272-0.647-4.504-1.386-6.66
				c-3.801-11.079-15.333-45.59-18.229-64.639H219.239z"/>
			<g>
				<path style="fill:#1F2654;" d="M226.474,197.253c0,0-4.468,1.258-1.914,11.236c1.009,3.943,2.603,6.386,2.299,8.062
					c-0.304,1.676-3.37,12.484-4.009,15.783c-0.639,3.3,19.383,2.912,26.395,1.791c7.013-1.121,3.73-4.484,0.617-13.583
					c-3.113-9.1-14.607-17.458-14.607-17.458"/>
				<path style="fill:#FFFFFF;" d="M206.711,336.269c0,0-0.736,6.79,0.253,10.761c0,0,41.33,9.396,62.728-2.545
					c0,0,0.225-3.123-1.426-9.227C267.499,332.42,206.711,336.269,206.711,336.269z"/>
				<path style="fill:#4D89F5;" d="M267.691,336.19c-11.61,11.49-59.49,2.34-59.49,2.34c-9.19-9.56,9.09-43.83,9.97-49.98
					c0.79-5.5,0.92-10.42,0.51-17.16c-0.21-3.19-0.53-6.78-0.97-11.04c-0.26-2.42-0.54-5.05-0.87-7.95
					c-0.57-5.08-4.49-11.41-2.56-14.12c4.33-6.12,12.58-7.9,12.58-7.9s12.89-1.24,21.97-0.71c0.68,0.45,1.57,1,2.57,1.47
					c0.3,0.14,0.6,0.27,0.91,0.39c1.54,0.59,3.36,1.1,5.56,2.42c4.55,3.56,2.8,36.43,4.92,62.91
					C264.091,313.06,274.331,326.23,267.691,336.19z"/>
				<g>
					<path style="fill:#F8A297;" d="M251.404,231.14c-0.85,1.86-3.22,5.31-9.35,6.17c-7.9-0.19-13.38-5.07-15.19-6.93
						c1.06-0.4,2.14-0.9,3.32-1.65c1.6-1.03,2.63-3.57,2.63-3.57s3.29-8.17-0.61-18.64l15.99,7.27c-0.87,0.64-1.78,1.4-1.78,1.4
						s0,0.06,0,0.16c0,0.61,0.04,2.92,0.25,5.33c0.03,0.23,0.04,0.45,0.06,0.68c0,0.02,0,0.05,0.02,0.07h-0.02l-1.17,0.5
						c0,0,0.24,2.71,0.91,4.85c0.31,1.04,0.83,1.78,1.09,1.97c0,0,0.01,0.01,0.03,0.02c0.11,0.09,0.57,0.44,1.25,0.9
						C249.514,230.12,250.404,230.67,251.404,231.14z"/>
					<path style="opacity:0.5;fill:#F8A297;" d="M246.725,221.43l-1.174,0.499c0,0,0.237,2.71,0.911,4.846
						c-6.582-2.897-10.036-9.468-10.036-9.468l10.298,4.048V221.43z"/>
					<path style="fill:#F8A297;" d="M235.202,216.04c1.936,2.249,7.669,7.086,12.84,6.681c2.396-0.188,6.371-4.415,7.255-7.814
						c0.426-1.637,0.427-2.736,0.771-7.085c0.385-4.875,0.797-9.272,0.122-12.66c-0.705-3.534-2.592-10.258-12.015-9.218
						C234.804,186.977,222.769,201.601,235.202,216.04z"/>
				</g>
				<path style="fill:#1F2654;" d="M259.955,189.618c-2.439-5.236-10.127-7.567-16.47-5.898c-4.393,1.156-6.85,4.285-7.946,6.101
					c-0.361-0.121-0.733-0.205-1.124-0.202c-4.158,0.025-8.03,2.186-8.178,10.569s7.79,15.904,7.79,15.904s-2.431-6.875-0.817-8.26
					c0.981-0.842,3.107-2.227,5.214-3.738c4.248,0.248,10.679-1.49,11.645-5.357c0.629,0.493,1.848,4.022,1.19,6.504
					c1.869-0.882,3.735-3.119,4.632-4.853c0.232,1.809,0.12,3.432-0.483,5.28c0,0,2.246-0.773,3.243-1.81
					C261.203,201.201,263.093,196.354,259.955,189.618z"/>
			</g>
			<path style="fill:#F8A297;" d="M224.485,299.872c0,0,3.511,3.766,5.298,5.426c1.787,1.659-3.702,5.809-4.723,6
				c-1.021,0.191-7.34-4.395-7.34-4.395S223.145,303,224.485,299.872z"/>
			<path style="fill:#393975;" d="M228.84,303.396c-0.816,1.896-3.05,5.869-8.054,7.993c-3.034,1.287-5.005,4.325-4.577,7.593
				c0.005,0.039,0.01,0.079,0.016,0.118c0.434,3.105,7.406,10.767,15.44,6.974c8.857-4.181,10.438-14.138,5.826-19.044
				c-2.263-2.408-5.367-3.736-7.051-4.323C229.805,302.487,229.105,302.779,228.84,303.396z"/>
			<path style="fill:#F2BB00;" d="M281.234,443.218c0,0,0.884-0.485,3.878-0.342c3.589,0.171,2.623-1.397,3.564-2.253
				s3.051-1.426,3.992-1.255c0.941,0.171,2.766,2.224,3.792,2.737c1.027,0.513,8.44-0.143,11.72,0.171
				c3.322,0.318,5.732,3.704,5.733,5.161c0.001,1.711-4.221,2.595-6.446,3.365c-2.553,0.884-19.436,6.161-23.365,7.387
				c-0.469,0.146-0.967-0.083-1.16-0.535c-0.549-1.285-1.613-3.877-2.108-5.797c-0.407-1.577,0.07-3.699,0.114-5.661
				C280.979,444.858,280.521,443.931,281.234,443.218z"/>
			<path style="fill:#F2BB00;" d="M209.247,458.107h-11.485c-0.432,0-0.847-0.105-1.274-0.169
				c-6.335-0.948-10.669-2.403-17.105-5.443c-0.594-0.28-1.027-0.795-0.911-1.438c0.241-1.447,0.724-3.976,1.296-5.736
				c0.509-1.546,2.055-3.074,3.154-4.7c0.742-1.117,0.858-2.144,1.85-2.359c0,0,1.001,0.072,3.449,1.805
				c2.931,2.082,3.726,0.357,4.986,0.143c1.251-0.205,3.181,0.42,3.886,1.072c0.697,0.652,1.126,3.359,1.716,4.351
				c0.59,0.983,1.986,2,4.577,4.028c5.11,1.277,7.19,4.781,7.286,7.039C210.703,457.48,210.026,458.107,209.247,458.107z"/>
			<path style="fill:#FFFFFF;" d="M224.021,298.429c0,0,1.44,1.188,1.437,2.72c-0.005,3.216-3.638,5.697-5.984,6.798
				c-2.346,1.101-5.138-1.437-5.138-1.437L224.021,298.429z"/>
			<path style="fill:#4D89F5;" d="M225.991,255.11c0,0-2,9.93-7.31,16.28c-0.21-3.19-0.53-6.78-0.97-11.04L225.991,255.11z"/>
			<path style="fill:#4D89F5;" d="M218.811,233.947c0,0-27.454,18.034-25.667,41.543c1.529,20.107,14.201,31.787,19.26,31.404
				c5.059-0.383,13.676-6.894,11.761-12.064c-1.915-5.17-10.979-21.064-10.979-21.064s10.518-13.551,14.458-21.785
				C231.585,243.747,225.268,233.918,218.811,233.947z"/>
		</g>
		<path style="fill:#F8A297;" d="M224.968,231.26c-0.514,0.101-1.667,0.009-2.51-0.109c-1.558-0.219-2.136-0.595-2.869-0.661
			c-1.64-0.147-5.429,0.803-6.433,1.405c-0.53,0.318-2.577,2.576-4.116,4.885c-0.306,0.46-0.591,0.992-0.854,1.555l-0.004-0.001
			c0,0-0.02,0.046-0.056,0.126c-0.116,0.255-0.229,0.515-0.334,0.781c-0.405,0.965-0.999,2.451-1.134,3.181
			c-0.089,0.483-0.088,1.025-0.058,1.548c-0.035,0.512-0.007,0.912,0.095,1.151c0.023,0.248,0.041,0.472,0.044,0.655
			c0.014,0.985,1.069,1.085,1.634,0.566c0.345-0.316,0.502-1.058,0.643-1.981c0.049,0.538,0.102,1.023,0.108,1.379
			c0.017,1.179,1.281,1.299,1.957,0.678c0.578-0.531,0.718-2.066,0.982-3.795c0.401-0.633,0.784-1.279,1.113-1.854
			c-0.038,0.146-0.076,0.291-0.1,0.42c-0.251,1.355,0.083,3.104,0.096,4.016c0.017,1.18,1.281,1.299,1.958,0.678
			c0.82-0.753,0.753-3.513,1.419-6.002c0-0.001,0-0.003,0.001-0.004c1.419-2.233,2.763-4.73,2.763-4.73s5.73-0.331,6.759-2.339
			C226.394,232.18,226.413,230.975,224.968,231.26z"/>
		<g>
			<path style="fill:#393975;" d="M236.962,98.443L236.962,98.443c-0.539,0.13-0.875,0.666-0.758,1.208l2.477,11.479
				c0.121,0.561,0.681,0.912,1.239,0.777l0.57-0.138c0.558-0.135,0.895-0.703,0.746-1.258l-3.047-11.34
				C238.045,98.636,237.5,98.313,236.962,98.443z"/>
			<g>
				<path style="fill:#D7DDDD;" d="M148.022,176.989c0,0,13.457,0.776,24.379,12.568l32.116-56.439
					C204.517,133.118,165.718,146.167,148.022,176.989z"/>
				<path style="fill:#E08F00;" d="M223.581,191.816c0,0-30.954-9.915-51.18-2.259c0,0,10.31-60.019,67.284-79.867L223.581,191.816z
					"/>
				<path style="fill:#D7DDDD;" d="M351.978,127.615c0,0-11.612,6.845-15.931,22.327l-54.373-35.502
					C281.673,114.439,322.144,108.299,351.978,127.615z"/>
				<path style="fill:#E08F00;" d="M291.566,175.358c0,0,22.992-22.975,44.48-25.417c0,0-36.618-48.658-96.362-40.251
					L291.566,175.358z"/>
				<g>
					<g>
						<path style="fill:#393975;" d="M336.046,150.346c-0.122,0-0.243-0.056-0.323-0.161c-0.364-0.485-37.159-48.369-95.983-40.094
							c-0.22,0.032-0.425-0.123-0.456-0.344c-0.031-0.221,0.123-0.425,0.344-0.456c59.288-8.353,96.373,39.92,96.742,40.408
							c0.134,0.179,0.098,0.432-0.08,0.566C336.216,150.319,336.131,150.346,336.046,150.346z"/>
					</g>
				</g>
				<path style="fill:#D7DDDD;" d="M239.684,109.69c0,0-26.167,27.4-16.103,82.126c0,0,3.181-4.258,11.8-9.385
					c12.458-7.411,26.93-10.915,41.399-10.022c10.01,0.618,14.786,2.949,14.786,2.949
					C275.486,122.089,239.684,109.69,239.684,109.69z"/>
				<g>
					<g>
						<path style="fill:#393975;" d="M223.581,192.22c-0.191,0-0.361-0.136-0.397-0.331c-9.986-54.3,15.945-82.202,16.208-82.478
							c0.108-0.115,0.273-0.156,0.424-0.103c0.36,0.124,36.181,13.077,52.136,65.933c0.064,0.213-0.057,0.439-0.27,0.503
							c-0.216,0.064-0.439-0.057-0.504-0.27c-15.131-50.123-48.182-64.068-51.38-65.31c-2.276,2.567-25.29,30.085-15.82,81.578
							c0.04,0.22-0.105,0.43-0.324,0.471C223.63,192.218,223.605,192.22,223.581,192.22z"/>
					</g>
				</g>
				<g>
					<g>
						<path style="fill:#393975;" d="M172.402,189.961c-0.023,0-0.046-0.002-0.069-0.006c-0.22-0.038-0.368-0.247-0.33-0.467
							c0.104-0.603,11.004-60.482,67.549-80.18c0.211-0.076,0.441,0.038,0.514,0.249c0.074,0.21-0.038,0.441-0.249,0.515
							c-56.086,19.538-66.915,78.955-67.018,79.553C172.765,189.822,172.594,189.961,172.402,189.961z"/>
					</g>
				</g>
			</g>
			<g>
				
					<rect x="257.145" y="122.53" transform="matrix(0.9719 -0.2353 0.2353 0.9719 -36.9021 66.1059)" style="fill:#393975;" width="2.845" height="130.325"/>
				<g>
					<g>
						<path style="fill:#393975;" d="M173.29,152.11c-0.18,0-0.335-0.136-0.354-0.319c-0.02-0.195,0.122-0.37,0.318-0.39
							l73.108-7.461l-31.846-10.824c-0.186-0.063-0.286-0.266-0.223-0.451c0.064-0.186,0.269-0.284,0.451-0.223l33.391,11.349
							c0.159,0.054,0.258,0.211,0.239,0.377c-0.019,0.166-0.151,0.297-0.317,0.314l-74.73,7.628
							C173.315,152.11,173.302,152.11,173.29,152.11z"/>
					</g>
				</g>
				<g>
					<g>
						<path style="fill:#393975;" d="M248.021,144.483c-0.116,0-0.229-0.057-0.296-0.158c-0.093-0.139-0.076-0.324,0.04-0.444
							l24.503-25.364c0.136-0.141,0.362-0.145,0.503-0.009c0.141,0.137,0.145,0.362,0.009,0.503l-23.369,24.191l68.425-26.801
							c0.186-0.072,0.39,0.019,0.461,0.201c0.071,0.183-0.018,0.389-0.201,0.461l-69.944,27.396
							C248.109,144.475,248.065,144.483,248.021,144.483z"/>
					</g>
				</g>
			</g>
			<path style="fill:#393975;" d="M287.247,278.2c-5.068,0.559-9.692-3.003-10.891-7.959l-4.848-20.024
				c-0.097-0.402,0.15-0.807,0.552-0.905l2.691-0.652c0.402-0.097,0.807,0.15,0.905,0.552l4.869,20.114
				c0.708,2.925,3.474,5.026,6.454,4.605c3.419-0.483,5.607-3.794,4.814-7.068l-1.827-7.545c-0.277-1.145,0.427-2.299,1.572-2.576
				l0,0c1.145-0.277,2.299,0.426,2.576,1.572l1.827,7.545C297.345,271.658,293.378,277.524,287.247,278.2z"/>
			<g>
				<path style="fill:#FFFFFF;" d="M216.392,115.329c0,0-51.073,17.348-68.37,61.66c0,0,12.869-24.451,50.709-35.204
					L216.392,115.329z"/>
				<path style="fill:#F2BB00;" d="M238.64,105.374c-36.098,8.739-39.908,36.411-39.908,36.411
					c15.909-9.265,44.569-17.159,44.569-17.159s29.097-6.089,47.482-5.125C290.782,119.501,274.738,96.635,238.64,105.374z"/>
				<path style="fill:#FFFFFF;" d="M262.977,104.051c0,0,53.353-7.932,89.001,23.563c0,0-22.627-15.858-61.196-8.114
					L262.977,104.051z"/>
			</g>
		</g>
		<g>
			<path style="fill:#F8A297;" d="M269.152,238.601c0,0,8.34,1.538,10.49,4.478c2.15,2.94,10.156,9.405,10.156,9.405l-4.345,6.64
				c0,0-3.517-2.66-5.257-3.372c-1.038-0.425-3.855-0.316-6.602-1.913c-2.748-1.597-2.57-3.632-2.57-3.632s-1.016-1.113-1.267-2.165
				c-0.252-1.051,0.326-1.73,0.326-1.73s-1.378-0.697-1.581-2.028c-0.204-1.331,0.192-1.807,0.192-1.807s-0.928-1.372-0.934-2.006
				C267.75,239.836,268.189,238.309,269.152,238.601z"/>
			<path style="fill:#F2BB00;" d="M287.622,250.326c0,0-2.719,1.533-5.309,6.436c0,0-1.449,2.938,2.889,5.34
				c1.748,5.734,6.583,6.486,11.592,11.306s10.083,6.982,13.485,6.762c5.858-0.38,6.959-8.213,4.812-13.36
				c-2.291-5.492-17.867-13.911-21.743-14.5C293.349,252.308,291.033,249.638,287.622,250.326z"/>
		</g>
	</g>
	<g>
		
			<line style="fill:none;stroke:#FFFFFF;stroke-width:0.75;stroke-linecap:round;stroke-linejoin:round;stroke-miterlimit:10;" x1="222.363" y1="27.069" x2="222.363" y2="72.83"/>
		
			<line style="fill:none;stroke:#FFFFFF;stroke-width:0.75;stroke-linecap:round;stroke-linejoin:round;stroke-miterlimit:10;" x1="30.319" y1="133.918" x2="30.319" y2="179.679"/>
		
			<line style="fill:none;stroke:#FFFFFF;stroke-width:0.75;stroke-linecap:round;stroke-linejoin:round;stroke-miterlimit:10;" x1="334.883" y1="72.83" x2="334.883" y2="118.591"/>
		
			<line style="fill:none;stroke:#FFFFFF;stroke-width:0.75;stroke-linecap:round;stroke-linejoin:round;stroke-miterlimit:10;" x1="364.024" y1="237.172" x2="364.024" y2="346.915"/>
		
			<line style="fill:none;stroke:#FFFFFF;stroke-width:0.75;stroke-linecap:round;stroke-linejoin:round;stroke-miterlimit:10;" x1="301.181" y1="218.125" x2="301.181" y2="248.639"/>
		
			<line style="fill:none;stroke:#FFFFFF;stroke-width:0.75;stroke-linecap:round;stroke-linejoin:round;stroke-miterlimit:10;" x1="32.234" y1="308.649" x2="32.234" y2="364.181"/>
		
			<line style="fill:none;stroke:#FFFFFF;stroke-width:0.75;stroke-linecap:round;stroke-linejoin:round;stroke-miterlimit:10;" x1="428.362" y1="386.107" x2="428.362" y2="441.638"/>
		
			<line style="fill:none;stroke:#FFFFFF;stroke-width:0.75;stroke-linecap:round;stroke-linejoin:round;stroke-miterlimit:10;" x1="103.085" y1="401.426" x2="103.085" y2="437.643"/>
		
			<line style="fill:none;stroke:#FFFFFF;stroke-width:0.75;stroke-linecap:round;stroke-linejoin:round;stroke-miterlimit:10;" x1="477.638" y1="97.144" x2="477.638" y2="142.905"/>
		
			<line style="fill:none;stroke:#FFFFFF;stroke-width:0.75;stroke-linecap:round;stroke-linejoin:round;stroke-miterlimit:10;" x1="486.064" y1="337.176" x2="486.064" y2="382.937"/>
		
			<line style="fill:none;stroke:#FFFFFF;stroke-width:0.75;stroke-linecap:round;stroke-linejoin:round;stroke-miterlimit:10;" x1="81.83" y1="230.377" x2="81.83" y2="276.138"/>
		
			<line style="fill:none;stroke:#FFFFFF;stroke-width:0.75;stroke-linecap:round;stroke-linejoin:round;stroke-miterlimit:10;" x1="138.319" y1="70.34" x2="138.319" y2="179.679"/>
		
			<line style="fill:none;stroke:#FFFFFF;stroke-width:0.75;stroke-linecap:round;stroke-linejoin:round;stroke-miterlimit:10;" x1="157.468" y1="265.227" x2="157.468" y2="310.988"/>
		
			<line style="fill:none;stroke:#FFFFFF;stroke-width:0.75;stroke-linecap:round;stroke-linejoin:round;stroke-miterlimit:10;" x1="182.207" y1="206.503" x2="182.207" y2="232.726"/>
		
			<line style="fill:none;stroke:#FFFFFF;stroke-width:0.75;stroke-linecap:round;stroke-linejoin:round;stroke-miterlimit:10;" x1="391.851" y1="304.906" x2="391.851" y2="350.666"/>
		
			<line style="fill:none;stroke:#FFFFFF;stroke-width:0.75;stroke-linecap:round;stroke-linejoin:round;stroke-miterlimit:10;" x1="428.362" y1="252.331" x2="428.362" y2="270.83"/>
		
			<line style="fill:none;stroke:#FFFFFF;stroke-width:0.75;stroke-linecap:round;stroke-linejoin:round;stroke-miterlimit:10;" x1="466.915" y1="327.166" x2="466.915" y2="345.664"/>
		
			<line style="fill:none;stroke:#FFFFFF;stroke-width:0.75;stroke-linecap:round;stroke-linejoin:round;stroke-miterlimit:10;" x1="338.489" y1="373.974" x2="338.489" y2="392.473"/>
		
			<line style="fill:none;stroke:#FFFFFF;stroke-width:0.75;stroke-linecap:round;stroke-linejoin:round;stroke-miterlimit:10;" x1="302.261" y1="372.89" x2="302.261" y2="391.389"/>
		
			<line style="fill:none;stroke:#FFFFFF;stroke-width:0.75;stroke-linecap:round;stroke-linejoin:round;stroke-miterlimit:10;" x1="488.617" y1="252.331" x2="488.617" y2="311.304"/>
		
			<line style="fill:none;stroke:#FFFFFF;stroke-width:0.75;stroke-linecap:round;stroke-linejoin:round;stroke-miterlimit:10;" x1="127.596" y1="355.506" x2="127.596" y2="374.005"/>
		
			<line style="fill:none;stroke:#FFFFFF;stroke-width:0.75;stroke-linecap:round;stroke-linejoin:round;stroke-miterlimit:10;" x1="379.596" y1="95.71" x2="379.596" y2="114.209"/>
		
			<line style="fill:none;stroke:#FFFFFF;stroke-width:0.75;stroke-linecap:round;stroke-linejoin:round;stroke-miterlimit:10;" x1="70.915" y1="40.7" x2="70.915" y2="59.199"/>
		
			<line style="fill:none;stroke:#FFFFFF;stroke-width:0.75;stroke-linecap:round;stroke-linejoin:round;stroke-miterlimit:10;" x1="103.085" y1="10.799" x2="103.085" y2="29.298"/>
		
			<line style="fill:none;stroke:#FFFFFF;stroke-width:0.75;stroke-linecap:round;stroke-linejoin:round;stroke-miterlimit:10;" x1="35.681" y1="23.82" x2="35.681" y2="42.319"/>
		
			<line style="fill:none;stroke:#FFFFFF;stroke-width:0.75;stroke-linecap:round;stroke-linejoin:round;stroke-miterlimit:10;" x1="101.553" y1="140.711" x2="101.553" y2="159.21"/>
		
			<line style="fill:none;stroke:#FFFFFF;stroke-width:0.75;stroke-linecap:round;stroke-linejoin:round;stroke-miterlimit:10;" x1="199.867" y1="86.461" x2="199.867" y2="104.96"/>
		
			<line style="fill:none;stroke:#FFFFFF;stroke-width:0.75;stroke-linecap:round;stroke-linejoin:round;stroke-miterlimit:10;" x1="314.49" y1="287.642" x2="314.49" y2="333.403"/>
		
			<line style="fill:none;stroke:#FFFFFF;stroke-width:0.75;stroke-linecap:round;stroke-linejoin:round;stroke-miterlimit:10;" x1="452.362" y1="174.928" x2="452.362" y2="220.688"/>
		
			<line style="fill:none;stroke:#FFFFFF;stroke-width:0.75;stroke-linecap:round;stroke-linejoin:round;stroke-miterlimit:10;" x1="407.245" y1="27.069" x2="407.245" y2="72.83"/>
	</g>
</g>
</svg>
