<?xml version="1.0" encoding="utf-8"?>
<!-- Generator: Adobe Illustrator 27.5.0, SVG Export Plug-In . SVG Version: 6.00 Build 0)  -->
<svg version="1.1" xmlns="http://www.w3.org/2000/svg" xmlns:xlink="http://www.w3.org/1999/xlink" x="0px" y="0px"
	 viewBox="0 0 500 500" style="enable-background:new 0 0 500 500;" xml:space="preserve">
<g id="Background_Complete">
	<g>
		<rect y="382.398" style="fill:#EBEBEB;" width="500" height="0.25"/>
		<rect x="416.779" y="398.494" style="fill:#EBEBEB;" width="33.122" height="0.25"/>
		<rect x="322.527" y="401.208" style="fill:#EBEBEB;" width="8.693" height="0.25"/>
		<rect x="396.586" y="389.208" style="fill:#EBEBEB;" width="19.192" height="0.25"/>
		<rect x="52.459" y="390.888" style="fill:#EBEBEB;" width="43.193" height="0.25"/>
		<rect x="104.556" y="390.888" style="fill:#EBEBEB;" width="6.333" height="0.25"/>
		<rect x="131.471" y="395.111" style="fill:#EBEBEB;" width="93.676" height="0.25"/>
		<path style="fill:#EBEBEB;" d="M237.014,337.8H43.915c-3.147,0-5.708-2.561-5.708-5.708V60.66c0-3.147,2.561-5.708,5.708-5.708
			h193.099c3.146,0,5.707,2.561,5.707,5.708v271.432C242.721,335.239,240.16,337.8,237.014,337.8z M43.915,55.203
			c-3.01,0-5.458,2.448-5.458,5.458v271.432c0,3.01,2.448,5.458,5.458,5.458h193.099c3.009,0,5.457-2.448,5.457-5.458V60.66
			c0-3.009-2.448-5.458-5.457-5.458H43.915z"/>
		<path style="fill:#EBEBEB;" d="M453.31,337.8H260.212c-3.147,0-5.707-2.561-5.707-5.708V60.66c0-3.147,2.561-5.708,5.707-5.708
			H453.31c3.148,0,5.708,2.561,5.708,5.708v271.432C459.019,335.239,456.458,337.8,453.31,337.8z M260.212,55.203
			c-3.009,0-5.457,2.448-5.457,5.458v271.432c0,3.01,2.448,5.458,5.457,5.458H453.31c3.01,0,5.458-2.448,5.458-5.458V60.66
			c0-3.009-2.448-5.458-5.458-5.458H260.212z"/>
	</g>
	<g>
		<path style="fill:#E0E0E0;" d="M422.066,363.447c0.237-2.857-0.152-6.559-3.487-7.659c-5.652-1.864-9.005-6.241-8.816-11.192
			c0.189-4.951-5.76-9.768-10.222-5.128c-4.462,4.64-3.867-3.568-9.817-5.562c-5.949-1.995-10.992,2.844-9.363,7.267
			c1.629,4.422-4.242,7.185-11.272,3.424c-7.03-3.761-14.764,3.081-13.277,8.436s0.27,5.949-4.178,4.164
			c-3.594-1.442-9.476,1.584-10.132,6.251H422.066z"/>
		<path style="fill:#E0E0E0;" d="M121.542,363.447c0.275-2.263,0.153-5.564-2.653-6.49c-4.388-1.447-6.991-4.845-6.844-8.688
			c0.147-3.843-4.472-7.583-7.936-3.981c-3.464,3.602-3.002-2.77-7.621-4.318c-4.618-1.548-8.533,2.208-7.269,5.641
			c1.265,3.433-3.293,5.577-8.75,2.658c-5.457-2.919-11.461,2.392-10.307,6.548c1.155,4.157,0.209,4.619-3.244,3.233
			c-2.927-1.174-7.79,1.472-7.894,5.397H121.542z"/>
		<path style="fill:#E0E0E0;" d="M62.808,363.447H165.52c1.445-4.82-2.292-10.601-6.361-11.415c-5-1-10.026-9.798-10.263-15.399
			c-0.237-5.601-9.237-22.829-23.237-12.19s-9.745,1.567-19.873-1.422c-10.127-2.989-16.516,5.611-12.072,12.061
			c0,0-10.174-2.55-14.365,6.95c-4.191,9.5,0,15.4,0,15.4S66.49,357.057,62.808,363.447z"/>
		<path style="fill:#F5F5F5;" d="M295.692,93.876c0-2.668,2.163-4.83,4.83-4.83c0.482,0,0.947,0.073,1.387,0.205
			c-0.07-0.484-0.108-0.979-0.108-1.483c0-5.649,4.58-10.229,10.229-10.229c0.644,0,1.273,0.062,1.884,0.176
			c1.572-2.573,4.398-4.296,7.634-4.296c4.898,0,8.871,3.935,8.943,8.816c0.05-0.001,0.099-0.007,0.149-0.007
			c4.551,0,8.24,3.689,8.24,8.24c0,4.551-3.689,8.24-8.24,8.24H300.38l0.006-0.007C297.782,98.626,295.692,96.497,295.692,93.876z"
			/>
		<path style="fill:#F5F5F5;" d="M217.936,141.182c0-2.668,2.163-4.83,4.83-4.83c0.482,0,0.947,0.073,1.387,0.204
			c-0.07-0.484-0.108-0.979-0.108-1.483c0-5.649,4.58-10.229,10.229-10.229c0.644,0,1.273,0.062,1.884,0.176
			c1.572-2.573,4.398-4.296,7.634-4.296c4.898,0,8.871,3.935,8.944,8.816c0.05-0.001,0.099-0.008,0.149-0.008
			c4.551,0,8.24,3.689,8.24,8.24c0,4.551-3.689,8.24-8.24,8.24h-30.261l0.006-0.007
			C220.027,145.933,217.936,143.804,217.936,141.182z"/>
		<path style="fill:#F5F5F5;" d="M152.816,90.92c0-1.659,1.345-3.003,3.003-3.003c0.3,0,0.589,0.045,0.862,0.127
			c-0.044-0.301-0.067-0.609-0.067-0.922c0-3.512,2.847-6.359,6.359-6.359c0.4,0,0.792,0.039,1.172,0.11
			c0.977-1.6,2.734-2.671,4.746-2.671c3.045,0,5.515,2.447,5.56,5.481c0.031-0.001,0.061-0.005,0.093-0.005
			c2.829,0,5.123,2.294,5.123,5.123c0,2.829-2.294,5.123-5.123,5.123H155.73l0.004-0.004
			C154.115,93.873,152.816,92.55,152.816,90.92z"/>
		<path style="fill:#F5F5F5;" d="M63.877,111.425c0-1.659,1.345-3.003,3.003-3.003c0.3,0,0.589,0.045,0.862,0.127
			c-0.044-0.301-0.067-0.609-0.067-0.922c0-3.512,2.847-6.359,6.359-6.359c0.4,0,0.792,0.039,1.172,0.109
			c0.977-1.6,2.734-2.671,4.746-2.671c3.045,0,5.515,2.447,5.56,5.481c0.031,0,0.061-0.005,0.093-0.005
			c2.829,0,5.123,2.294,5.123,5.123s-2.294,5.123-5.123,5.123H66.792l0.004-0.004C65.176,114.378,63.877,113.055,63.877,111.425z"/>
		<path style="fill:#F5F5F5;" d="M394.053,125.582c0-1.659,1.345-3.003,3.003-3.003c0.3,0,0.589,0.045,0.862,0.127
			c-0.044-0.301-0.067-0.609-0.067-0.922c0-3.512,2.847-6.359,6.359-6.359c0.4,0,0.792,0.039,1.171,0.109
			c0.977-1.6,2.734-2.671,4.746-2.671c3.045,0,5.515,2.447,5.56,5.481c0.031-0.001,0.061-0.005,0.093-0.005
			c2.829,0,5.123,2.294,5.123,5.123s-2.294,5.123-5.123,5.123h-18.813l0.004-0.004C395.353,128.536,394.053,127.212,394.053,125.582
			z"/>
		<g>
			<path style="fill:#EBEBEB;" d="M72.884,206.261c-0.152-0.551-0.243-1.182-0.284-1.878c-0.231-3.895-3.949-3.277-7.112-3.806
				c-2.471-0.413,4.072-6.655-0.91-8.669c-0.925-0.374-1.931-0.797-2.404-1.676c-0.626-1.162,0.007-2.692,1.085-3.455
				c1.078-0.762,2.463-0.924,3.783-0.948c0.813-0.988,0.152-2.475-0.635-3.484c-0.786-1.009-1.75-2.157-1.451-3.401
				c0.45-1.878,3.075-1.946,4.972-1.581c0.701-1.135,0.687-2.554,1.027-3.844c0.34-1.29,1.366-2.644,2.69-2.482
				c1.248,0.152,2.01,1.56,3.233,1.849c1.421,0.335,2.651-0.921,3.765-1.864c1.114-0.942,3.063-1.531,3.831-0.289
				c0.46,0.743,0.184,1.779,0.662,2.511c0.828,1.268,2.79,0.481,4.009-0.418c1.219-0.899,3.16-1.714,4.017-0.465
				c0.263,0.382,0.32,0.864,0.472,1.303c0.576,1.664,2.375,2.492,3.776,3.559c1.401,1.067,2.51,3.189,1.325,4.491
				c-0.585,0.643-1.613,0.903-1.904,1.721c-0.363,1.023,0.682,1.939,1.509,2.643c1.377,1.171,1.626,4.675-0.194,5.633
				c-0.764,0.402-1.885,0.526-2.072,1.369c-0.168,0.754,0.597,1.34,1.105,1.921c1.396,1.596,0.805,4.469-1.107,5.385
				c-0.437,0.209-0.974,0.381-1.136,0.838c-0.116,0.327,0.011,0.683,0.104,1.017c0.177,0.632,0.237,1.297,0.175,1.95
				c-0.021,0.224-0.067,0.466-0.237,0.612c-0.154,0.133-0.373,0.153-0.577,0.162c-2.629,0.117-3.896-0.813-5.501,1.474
				c-0.154,0.22-0.316,0.446-0.548,0.581c-0.217,0.126-0.475,0.16-0.725,0.181c-1.807,0.149-2.988-0.979-4.639-1.189
				c-2.291-0.292-2.777,0.889-4.795,1.838C75.019,209.344,73.48,208.424,72.884,206.261z"/>
			<path style="fill:#EBEBEB;" d="M103.155,202.99c-0.152-0.551-0.243-1.182-0.284-1.878c-0.231-3.894-3.949-3.277-7.112-3.806
				c-2.471-0.413,4.072-6.655-0.91-8.669c-0.925-0.374-1.931-0.797-2.404-1.676c-0.626-1.162,0.007-2.692,1.085-3.455
				c1.078-0.762,2.463-0.924,3.783-0.948c0.813-0.988,0.152-2.475-0.635-3.484s-1.75-2.157-1.452-3.401
				c0.45-1.878,3.075-1.946,4.972-1.581c0.701-1.135,0.687-2.554,1.027-3.844c0.34-1.29,1.366-2.644,2.69-2.482
				c1.247,0.152,2.01,1.56,3.233,1.849c1.421,0.335,2.651-0.922,3.765-1.864c1.114-0.943,3.063-1.531,3.831-0.289
				c0.46,0.743,0.184,1.779,0.662,2.511c0.828,1.268,2.791,0.481,4.009-0.418c1.219-0.899,3.16-1.714,4.017-0.465
				c0.263,0.382,0.32,0.864,0.472,1.303c0.576,1.664,2.375,2.492,3.775,3.559c1.401,1.067,2.51,3.189,1.325,4.491
				c-0.585,0.642-1.613,0.902-1.904,1.721c-0.363,1.023,0.682,1.94,1.509,2.643c1.377,1.171,1.626,4.675-0.194,5.633
				c-0.764,0.402-1.885,0.526-2.072,1.369c-0.168,0.754,0.597,1.34,1.105,1.921c1.396,1.596,0.805,4.469-1.107,5.386
				c-0.437,0.209-0.974,0.381-1.136,0.838c-0.116,0.327,0.011,0.683,0.104,1.017c0.177,0.632,0.237,1.297,0.175,1.95
				c-0.021,0.223-0.067,0.466-0.237,0.612c-0.155,0.133-0.373,0.153-0.577,0.162c-2.628,0.117-3.896-0.813-5.501,1.474
				c-0.154,0.22-0.316,0.446-0.547,0.581c-0.217,0.127-0.475,0.16-0.725,0.181c-1.807,0.149-2.988-0.979-4.639-1.189
				c-2.291-0.292-2.776,0.889-4.795,1.838C105.29,206.073,103.751,205.153,103.155,202.99z"/>
			<path style="fill:#EBEBEB;" d="M106.072,183.712c-0.152-0.551-0.243-1.182-0.284-1.878c-0.231-3.894-3.949-3.277-7.112-3.806
				c-2.471-0.413,4.072-6.655-0.91-8.669c-0.925-0.374-1.931-0.797-2.404-1.676c-0.626-1.162,0.007-2.692,1.085-3.454
				c1.078-0.762,2.463-0.924,3.783-0.949c0.813-0.988,0.152-2.475-0.635-3.484c-0.786-1.009-1.75-2.157-1.452-3.401
				c0.45-1.879,3.075-1.946,4.972-1.581c0.701-1.135,0.687-2.554,1.027-3.844c0.34-1.29,1.366-2.644,2.69-2.482
				c1.247,0.152,2.01,1.561,3.233,1.849c1.421,0.335,2.651-0.922,3.765-1.864c1.114-0.943,3.063-1.531,3.831-0.289
				c0.459,0.743,0.184,1.779,0.662,2.511c0.828,1.268,2.791,0.481,4.009-0.418c1.219-0.899,3.16-1.714,4.017-0.465
				c0.263,0.382,0.32,0.864,0.472,1.303c0.576,1.664,2.375,2.492,3.775,3.559c1.4,1.067,2.51,3.189,1.325,4.491
				c-0.585,0.642-1.613,0.902-1.904,1.721c-0.363,1.023,0.682,1.939,1.509,2.643c1.377,1.171,1.626,4.675-0.194,5.633
				c-0.764,0.402-1.885,0.526-2.072,1.369c-0.168,0.754,0.597,1.34,1.105,1.921c1.396,1.596,0.805,4.469-1.107,5.386
				c-0.437,0.209-0.974,0.381-1.136,0.838c-0.116,0.327,0.011,0.683,0.104,1.017c0.177,0.632,0.237,1.297,0.175,1.95
				c-0.021,0.223-0.067,0.466-0.237,0.612c-0.155,0.133-0.373,0.153-0.577,0.162c-2.628,0.117-3.896-0.813-5.501,1.474
				c-0.154,0.22-0.315,0.446-0.547,0.581c-0.217,0.127-0.475,0.16-0.725,0.181c-1.807,0.149-2.988-0.979-4.639-1.189
				c-2.291-0.292-2.777,0.889-4.795,1.838C108.207,186.795,106.668,185.875,106.072,183.712z"/>
			<path style="fill:#EBEBEB;" d="M126.012,193.314c-0.152-0.551-0.243-1.182-0.284-1.878c-0.231-3.895-3.949-3.277-7.112-3.806
				c-2.471-0.413,4.072-6.655-0.91-8.669c-0.925-0.374-1.931-0.797-2.404-1.676c-0.626-1.162,0.007-2.692,1.085-3.454
				c1.078-0.762,2.463-0.924,3.783-0.948c0.813-0.988,0.152-2.475-0.635-3.484c-0.786-1.009-1.75-2.157-1.452-3.401
				c0.45-1.879,3.075-1.946,4.972-1.581c0.701-1.135,0.687-2.554,1.027-3.844c0.34-1.29,1.366-2.644,2.69-2.482
				c1.247,0.152,2.01,1.561,3.233,1.849c1.421,0.335,2.651-0.922,3.765-1.864c1.114-0.943,3.063-1.531,3.831-0.289
				c0.46,0.743,0.184,1.779,0.662,2.511c0.828,1.268,2.79,0.481,4.009-0.418c1.219-0.899,3.16-1.714,4.017-0.465
				c0.263,0.382,0.32,0.864,0.472,1.303c0.576,1.664,2.375,2.492,3.775,3.559c1.401,1.067,2.51,3.189,1.325,4.491
				c-0.585,0.642-1.613,0.903-1.904,1.721c-0.363,1.023,0.682,1.94,1.509,2.643c1.377,1.171,1.626,4.675-0.194,5.633
				c-0.764,0.402-1.885,0.526-2.072,1.369c-0.168,0.754,0.597,1.34,1.105,1.921c1.396,1.596,0.805,4.469-1.107,5.385
				c-0.437,0.209-0.974,0.381-1.136,0.838c-0.116,0.327,0.011,0.683,0.104,1.017c0.177,0.632,0.237,1.297,0.175,1.95
				c-0.021,0.224-0.067,0.466-0.237,0.612c-0.155,0.133-0.373,0.153-0.577,0.162c-2.628,0.117-3.896-0.813-5.501,1.474
				c-0.154,0.22-0.316,0.446-0.547,0.581c-0.217,0.126-0.475,0.16-0.725,0.181c-1.807,0.149-2.988-0.979-4.639-1.189
				c-2.291-0.292-2.777,0.889-4.795,1.838C128.148,196.397,126.609,195.477,126.012,193.314z"/>
			<path style="fill:#EBEBEB;" d="M146.166,188.88c-0.152-0.551-0.243-1.182-0.284-1.878c-0.231-3.895-3.949-3.277-7.112-3.806
				c-2.471-0.413,4.072-6.655-0.91-8.669c-0.925-0.374-1.931-0.797-2.404-1.676c-0.626-1.162,0.007-2.692,1.085-3.454
				c1.078-0.762,2.463-0.924,3.783-0.948c0.813-0.988,0.152-2.475-0.635-3.484c-0.786-1.009-1.75-2.157-1.452-3.401
				c0.45-1.879,3.075-1.946,4.972-1.581c0.701-1.135,0.687-2.554,1.027-3.844c0.34-1.29,1.366-2.644,2.69-2.482
				c1.247,0.152,2.01,1.561,3.233,1.849c1.421,0.335,2.651-0.922,3.765-1.864c1.114-0.942,3.063-1.531,3.831-0.289
				c0.46,0.743,0.184,1.779,0.662,2.511c0.828,1.268,2.79,0.481,4.009-0.418c1.219-0.899,3.16-1.714,4.017-0.465
				c0.263,0.382,0.32,0.864,0.472,1.303c0.577,1.664,2.375,2.492,3.775,3.559c1.401,1.067,2.51,3.189,1.325,4.491
				c-0.585,0.642-1.613,0.903-1.904,1.721c-0.363,1.023,0.682,1.94,1.509,2.643c1.377,1.171,1.626,4.675-0.194,5.633
				c-0.764,0.402-1.885,0.526-2.072,1.369c-0.168,0.754,0.597,1.34,1.105,1.921c1.395,1.596,0.805,4.469-1.107,5.385
				c-0.437,0.209-0.974,0.381-1.136,0.838c-0.116,0.327,0.011,0.683,0.104,1.017c0.177,0.632,0.237,1.297,0.175,1.95
				c-0.021,0.224-0.067,0.466-0.237,0.612c-0.154,0.133-0.373,0.153-0.577,0.162c-2.629,0.117-3.896-0.813-5.501,1.474
				c-0.154,0.22-0.316,0.446-0.548,0.581c-0.217,0.127-0.475,0.16-0.725,0.181c-1.807,0.149-2.988-0.979-4.639-1.189
				c-2.291-0.292-2.777,0.889-4.795,1.838C148.301,191.962,146.762,191.042,146.166,188.88z"/>
			<path style="fill:#EBEBEB;" d="M146.429,210.437c-0.12-0.434-0.191-0.931-0.223-1.478c-0.182-3.066-3.11-2.581-5.6-2.997
				c-1.946-0.325,3.206-5.24-0.717-6.826c-0.729-0.295-1.521-0.628-1.893-1.32c-0.493-0.915,0.006-2.12,0.854-2.72
				c0.849-0.6,1.939-0.727,2.979-0.747c0.64-0.778,0.119-1.949-0.5-2.743c-0.619-0.795-1.378-1.699-1.143-2.678
				c0.354-1.479,2.422-1.532,3.915-1.245c0.552-0.894,0.541-2.011,0.809-3.027c0.268-1.016,1.076-2.082,2.118-1.955
				c0.982,0.12,1.583,1.229,2.546,1.456c1.119,0.264,2.087-0.726,2.965-1.468c0.877-0.742,2.412-1.205,3.016-0.228
				c0.362,0.585,0.145,1.401,0.521,1.977c0.652,0.999,2.197,0.379,3.157-0.329c0.96-0.708,2.488-1.35,3.163-0.367
				c0.207,0.301,0.252,0.681,0.372,1.026c0.454,1.31,1.87,1.963,2.973,2.803c1.103,0.84,1.977,2.511,1.043,3.536
				c-0.46,0.506-1.27,0.711-1.499,1.355c-0.286,0.805,0.537,1.527,1.188,2.081c1.084,0.922,1.281,3.681-0.153,4.435
				c-0.602,0.317-1.484,0.414-1.632,1.078c-0.132,0.593,0.47,1.055,0.87,1.513c1.099,1.257,0.634,3.519-0.872,4.241
				c-0.344,0.165-0.767,0.3-0.894,0.66c-0.091,0.257,0.008,0.538,0.082,0.801c0.14,0.498,0.187,1.021,0.138,1.536
				c-0.017,0.176-0.053,0.367-0.187,0.482c-0.122,0.105-0.294,0.121-0.454,0.128c-2.07,0.092-3.068-0.64-4.331,1.161
				c-0.121,0.173-0.248,0.351-0.431,0.458c-0.171,0.1-0.374,0.126-0.571,0.142c-1.423,0.117-2.353-0.771-3.653-0.936
				c-1.804-0.23-2.186,0.7-3.775,1.447C148.11,212.865,146.898,212.14,146.429,210.437z"/>
			<path style="fill:#EBEBEB;" d="M157.721,202.99c-0.152-0.551-0.243-1.182-0.284-1.878c-0.231-3.894-3.949-3.277-7.112-3.806
				c-2.471-0.413,4.072-6.655-0.91-8.669c-0.925-0.374-1.931-0.797-2.404-1.676c-0.626-1.162,0.007-2.692,1.085-3.455
				c1.078-0.762,2.463-0.924,3.783-0.948c0.813-0.988,0.152-2.475-0.635-3.484c-0.786-1.009-1.75-2.157-1.451-3.401
				c0.45-1.878,3.075-1.946,4.972-1.581c0.701-1.135,0.687-2.554,1.027-3.844c0.34-1.29,1.366-2.644,2.69-2.482
				c1.248,0.152,2.01,1.56,3.233,1.849c1.421,0.335,2.651-0.922,3.765-1.864c1.114-0.943,3.063-1.531,3.831-0.289
				c0.46,0.743,0.184,1.779,0.662,2.511c0.828,1.268,2.79,0.481,4.009-0.418c1.219-0.899,3.16-1.714,4.017-0.465
				c0.263,0.382,0.32,0.864,0.472,1.303c0.577,1.664,2.375,2.492,3.776,3.559c1.401,1.067,2.51,3.189,1.325,4.491
				c-0.585,0.642-1.613,0.902-1.904,1.721c-0.363,1.023,0.682,1.94,1.509,2.643c1.377,1.171,1.626,4.675-0.194,5.633
				c-0.764,0.402-1.885,0.526-2.072,1.369c-0.168,0.754,0.597,1.34,1.105,1.921c1.395,1.596,0.805,4.469-1.107,5.386
				c-0.437,0.209-0.974,0.381-1.136,0.838c-0.116,0.327,0.011,0.683,0.104,1.017c0.178,0.632,0.237,1.297,0.175,1.95
				c-0.021,0.223-0.067,0.466-0.237,0.612c-0.155,0.133-0.373,0.153-0.577,0.162c-2.629,0.117-3.896-0.813-5.501,1.474
				c-0.154,0.22-0.315,0.446-0.547,0.581c-0.217,0.127-0.475,0.16-0.725,0.181c-1.807,0.149-2.988-0.979-4.639-1.189
				c-2.291-0.292-2.777,0.889-4.795,1.838C159.856,206.073,158.317,205.153,157.721,202.99z"/>
			<path style="fill:#EBEBEB;" d="M126.012,169.602c-0.152-0.551-0.243-1.182-0.284-1.878c-0.231-3.894-3.949-3.277-7.112-3.806
				c-2.471-0.413,4.072-6.655-0.91-8.669c-0.925-0.374-1.931-0.797-2.404-1.676c-0.626-1.162,0.007-2.692,1.085-3.455
				c1.078-0.762,2.463-0.924,3.783-0.948c0.813-0.988,0.152-2.475-0.635-3.484c-0.786-1.009-1.75-2.157-1.452-3.401
				c0.45-1.879,3.075-1.946,4.972-1.581c0.701-1.135,0.687-2.554,1.027-3.844c0.34-1.29,1.366-2.644,2.69-2.482
				c1.247,0.152,2.01,1.561,3.233,1.849c1.421,0.335,2.651-0.921,3.765-1.864c1.114-0.942,3.063-1.531,3.831-0.289
				c0.46,0.743,0.184,1.779,0.662,2.511c0.828,1.268,2.79,0.481,4.009-0.418c1.219-0.899,3.16-1.714,4.017-0.465
				c0.263,0.382,0.32,0.864,0.472,1.303c0.576,1.664,2.375,2.492,3.775,3.559c1.401,1.067,2.51,3.189,1.325,4.491
				c-0.585,0.642-1.613,0.903-1.904,1.721c-0.363,1.023,0.682,1.94,1.509,2.643c1.377,1.171,1.626,4.675-0.194,5.633
				c-0.764,0.402-1.885,0.526-2.072,1.369c-0.168,0.754,0.597,1.34,1.105,1.921c1.396,1.596,0.805,4.469-1.107,5.385
				c-0.437,0.209-0.974,0.381-1.136,0.838c-0.116,0.327,0.011,0.683,0.104,1.017c0.177,0.632,0.237,1.297,0.175,1.95
				c-0.021,0.224-0.067,0.466-0.237,0.612c-0.155,0.133-0.373,0.153-0.577,0.162c-2.628,0.117-3.896-0.813-5.501,1.474
				c-0.154,0.22-0.316,0.446-0.547,0.581c-0.217,0.126-0.475,0.16-0.725,0.181c-1.807,0.149-2.988-0.979-4.639-1.189
				c-2.291-0.292-2.777,0.889-4.795,1.838C128.148,172.684,126.609,171.765,126.012,169.602z"/>
			<path style="fill:#EBEBEB;" d="M100.122,170.926c-0.152-0.551-0.243-1.182-0.284-1.878c-0.231-3.894-3.949-3.277-7.112-3.806
				c-2.471-0.413,4.072-6.655-0.91-8.669c-0.925-0.374-1.931-0.797-2.404-1.676c-0.626-1.162,0.007-2.692,1.085-3.454
				c1.078-0.762,2.463-0.924,3.783-0.949c0.813-0.988,0.152-2.475-0.635-3.484c-0.786-1.009-1.75-2.157-1.452-3.401
				c0.45-1.878,3.075-1.946,4.972-1.581c0.701-1.135,0.687-2.554,1.027-3.844c0.34-1.29,1.366-2.644,2.69-2.482
				c1.248,0.152,2.01,1.561,3.233,1.849c1.421,0.335,2.651-0.921,3.765-1.864c1.114-0.943,3.063-1.531,3.831-0.289
				c0.46,0.743,0.184,1.779,0.662,2.511c0.828,1.268,2.79,0.481,4.009-0.418c1.219-0.899,3.16-1.714,4.017-0.465
				c0.263,0.382,0.32,0.864,0.472,1.303c0.576,1.663,2.375,2.492,3.776,3.559c1.401,1.067,2.51,3.189,1.325,4.491
				c-0.585,0.642-1.613,0.903-1.904,1.721c-0.363,1.023,0.682,1.939,1.509,2.643c1.377,1.171,1.626,4.675-0.194,5.633
				c-0.764,0.402-1.885,0.526-2.072,1.369c-0.168,0.754,0.597,1.34,1.105,1.921c1.396,1.596,0.805,4.47-1.107,5.386
				c-0.437,0.209-0.974,0.381-1.136,0.838c-0.116,0.327,0.011,0.683,0.104,1.017c0.177,0.632,0.237,1.297,0.175,1.95
				c-0.021,0.223-0.067,0.466-0.237,0.612c-0.154,0.133-0.373,0.153-0.577,0.163c-2.629,0.117-3.896-0.813-5.501,1.474
				c-0.154,0.22-0.316,0.446-0.548,0.581c-0.217,0.126-0.475,0.16-0.725,0.181c-1.807,0.149-2.988-0.979-4.639-1.189
				c-2.291-0.292-2.777,0.889-4.795,1.838C102.258,174.008,100.719,173.089,100.122,170.926z"/>
			<path style="fill:#EBEBEB;" d="M84.397,181.521c-0.152-0.551-0.243-1.182-0.284-1.878c-0.231-3.894-3.949-3.277-7.112-3.806
				c-2.471-0.413,4.072-6.655-0.91-8.669c-0.925-0.374-1.931-0.797-2.404-1.676c-0.626-1.162,0.007-2.692,1.085-3.454
				c1.078-0.762,2.463-0.924,3.783-0.949c0.813-0.988,0.152-2.475-0.635-3.484c-0.786-1.009-1.75-2.157-1.452-3.401
				c0.45-1.879,3.075-1.946,4.972-1.581c0.701-1.135,0.687-2.554,1.027-3.844c0.34-1.29,1.366-2.644,2.69-2.482
				c1.247,0.152,2.01,1.561,3.233,1.849c1.421,0.335,2.651-0.921,3.765-1.864c1.114-0.942,3.063-1.531,3.831-0.289
				c0.46,0.743,0.184,1.779,0.662,2.511c0.828,1.268,2.79,0.481,4.009-0.418c1.219-0.899,3.16-1.714,4.017-0.465
				c0.263,0.382,0.32,0.864,0.472,1.303c0.576,1.664,2.375,2.492,3.776,3.559c1.401,1.067,2.51,3.189,1.325,4.491
				c-0.585,0.642-1.613,0.903-1.904,1.721c-0.363,1.023,0.682,1.939,1.509,2.643c1.377,1.171,1.626,4.675-0.194,5.633
				c-0.764,0.402-1.885,0.526-2.072,1.369c-0.168,0.754,0.597,1.34,1.105,1.921c1.396,1.596,0.805,4.47-1.107,5.386
				c-0.437,0.209-0.974,0.381-1.136,0.838c-0.116,0.327,0.011,0.683,0.104,1.017c0.177,0.632,0.237,1.297,0.175,1.95
				c-0.021,0.223-0.067,0.466-0.237,0.612c-0.154,0.133-0.373,0.153-0.577,0.163c-2.629,0.117-3.896-0.813-5.501,1.474
				c-0.154,0.22-0.315,0.446-0.548,0.581c-0.217,0.126-0.475,0.16-0.725,0.181c-1.807,0.149-2.988-0.979-4.639-1.189
				c-2.291-0.292-2.777,0.889-4.795,1.838C86.532,184.604,84.993,183.684,84.397,181.521z"/>
			<path style="fill:#E6E6E6;" d="M89.164,194.912c0,0,6.577,9.298,8.845,12.246c2.268,2.948,13.607,21.318,15.15,33.467
				c0.165,1.297,0.327,2.413,0.485,3.389c-4.877,32.193-4.112,91.091-3.94,101.175h15.452c0.142-11.37,1.455-115.31,1.94-118.484
				c0.512-3.357,6.972-16.146,16.95-21.4c9.978-5.254,18.601-22.64,18.601-22.64h-3.18c0,0-5.896,10.659-14.287,16.555
				c-1.219,0.856-2.48,1.569-3.775,2.238c0.301-9.605-3.337-18.793-3.337-18.793l-1.717,1.587
				c2.318,9.493,2.013,15.573,1.312,19.066c-2.816,1.411-5.738,3.045-8.676,5.806c-8.704-11.318-13.598-37.202-13.598-37.202
				l-2.229,1.217c0,0,0.725,7.03,2.878,15.875c1.631,6.699,6.43,19.313,8.663,25.04c-2.219,3.082-4.424,7.067-6.575,12.342
				c-0.244-0.375-0.519-0.717-0.84-1.007c-5.67-5.126-16.328-29.345-16.328-29.345c-2.578-5.631,1.361-20.41,1.361-20.41h-2.975
				l-1.333,12.926l-7.484-8.164l-1.361,1.134l7.937,10.205l4.082,12.93l-10.659-11.796L89.164,194.912z"/>
		</g>
		<g>
			<path style="fill:#EBEBEB;" d="M419.97,240.94c0.117-0.423,0.186-0.907,0.218-1.441c0.178-2.988,3.03-2.515,5.457-2.92
				c1.896-0.317-3.124-5.106,0.699-6.651c0.71-0.287,1.482-0.611,1.845-1.286c0.48-0.892-0.006-2.066-0.833-2.651
				c-0.827-0.585-1.89-0.709-2.902-0.728c-0.623-0.758-0.116-1.899,0.487-2.673c0.603-0.774,1.342-1.655,1.114-2.609
				c-0.345-1.441-2.359-1.493-3.815-1.213c-0.538-0.871-0.527-1.96-0.788-2.95c-0.261-0.99-1.048-2.028-2.064-1.905
				c-0.957,0.117-1.542,1.197-2.48,1.419c-1.09,0.257-2.034-0.707-2.889-1.43c-0.855-0.723-2.35-1.174-2.939-0.222
				c-0.353,0.57-0.141,1.365-0.508,1.927c-0.635,0.973-2.141,0.369-3.076-0.321c-0.935-0.69-2.424-1.315-3.082-0.357
				c-0.202,0.293-0.246,0.663-0.362,0.999c-0.442,1.277-1.822,1.912-2.897,2.731c-1.075,0.819-1.926,2.447-1.017,3.446
				c0.449,0.493,1.238,0.693,1.461,1.321c0.279,0.785-0.523,1.488-1.158,2.028c-1.056,0.898-1.248,3.587,0.149,4.322
				c0.586,0.309,1.446,0.404,1.59,1.05c0.129,0.578-0.458,1.028-0.848,1.474c-1.071,1.225-0.618,3.429,0.85,4.132
				c0.335,0.161,0.747,0.292,0.871,0.643c0.089,0.251-0.008,0.524-0.08,0.78c-0.136,0.485-0.182,0.995-0.135,1.497
				c0.016,0.172,0.052,0.357,0.182,0.47c0.119,0.102,0.286,0.118,0.443,0.125c2.017,0.09,2.99-0.624,4.22,1.131
				c0.118,0.169,0.242,0.342,0.42,0.446c0.167,0.097,0.364,0.123,0.556,0.139c1.386,0.114,2.293-0.751,3.559-0.912
				c1.758-0.224,2.13,0.682,3.679,1.41C418.332,243.305,419.513,242.599,419.97,240.94z"/>
			<path style="fill:#EBEBEB;" d="M396.744,238.43c0.117-0.423,0.186-0.907,0.218-1.441c0.177-2.988,3.03-2.515,5.457-2.92
				c1.896-0.317-3.124-5.106,0.698-6.651c0.71-0.287,1.482-0.611,1.845-1.286c0.48-0.892-0.006-2.066-0.832-2.65
				c-0.827-0.585-1.89-0.709-2.902-0.728c-0.624-0.758-0.116-1.899,0.487-2.673c0.603-0.774,1.342-1.655,1.114-2.609
				c-0.345-1.441-2.36-1.493-3.815-1.213c-0.538-0.871-0.527-1.96-0.788-2.949c-0.261-0.99-1.048-2.029-2.064-1.905
				c-0.957,0.117-1.542,1.197-2.481,1.419c-1.09,0.257-2.034-0.707-2.889-1.43c-0.855-0.723-2.35-1.174-2.939-0.222
				c-0.353,0.57-0.141,1.365-0.508,1.926c-0.635,0.973-2.141,0.369-3.076-0.321s-2.424-1.315-3.082-0.357
				c-0.201,0.294-0.246,0.663-0.362,0.999c-0.442,1.277-1.822,1.912-2.897,2.731c-1.075,0.819-1.926,2.447-1.017,3.446
				c0.449,0.493,1.238,0.692,1.461,1.321c0.279,0.785-0.523,1.488-1.158,2.028c-1.056,0.898-1.248,3.587,0.149,4.322
				c0.586,0.309,1.446,0.403,1.59,1.05c0.129,0.578-0.458,1.028-0.848,1.474c-1.071,1.225-0.617,3.429,0.85,4.132
				c0.335,0.161,0.747,0.292,0.871,0.643c0.089,0.251-0.008,0.524-0.08,0.78c-0.136,0.485-0.182,0.995-0.134,1.496
				c0.016,0.172,0.051,0.357,0.182,0.47c0.119,0.102,0.286,0.118,0.443,0.125c2.017,0.09,2.99-0.624,4.22,1.131
				c0.118,0.169,0.242,0.342,0.42,0.446c0.167,0.097,0.364,0.123,0.556,0.139c1.386,0.114,2.293-0.751,3.559-0.912
				c1.758-0.224,2.13,0.682,3.679,1.41C395.106,240.795,396.287,240.089,396.744,238.43z"/>
			<path style="fill:#EBEBEB;" d="M394.506,223.639c0.116-0.423,0.186-0.907,0.218-1.44c0.178-2.988,3.03-2.515,5.457-2.92
				c1.896-0.317-3.124-5.106,0.699-6.651c0.71-0.287,1.482-0.611,1.845-1.286c0.48-0.892-0.006-2.066-0.833-2.651
				c-0.827-0.585-1.89-0.709-2.902-0.728c-0.624-0.758-0.116-1.899,0.487-2.673c0.603-0.774,1.342-1.655,1.114-2.609
				c-0.345-1.441-2.36-1.493-3.815-1.213c-0.538-0.871-0.527-1.96-0.788-2.95c-0.261-0.99-1.048-2.028-2.064-1.905
				c-0.957,0.117-1.542,1.197-2.48,1.419c-1.09,0.257-2.034-0.707-2.889-1.43c-0.855-0.723-2.35-1.174-2.939-0.222
				c-0.353,0.57-0.142,1.365-0.508,1.926c-0.635,0.973-2.141,0.369-3.076-0.321s-2.424-1.315-3.082-0.357
				c-0.202,0.293-0.246,0.663-0.362,0.999c-0.442,1.276-1.822,1.912-2.897,2.731c-1.075,0.819-1.926,2.447-1.017,3.446
				c0.449,0.493,1.238,0.692,1.461,1.321c0.279,0.785-0.523,1.488-1.158,2.028c-1.056,0.898-1.248,3.587,0.149,4.322
				c0.586,0.309,1.446,0.403,1.59,1.05c0.129,0.578-0.458,1.028-0.848,1.474c-1.071,1.225-0.618,3.429,0.85,4.132
				c0.335,0.161,0.747,0.292,0.871,0.643c0.089,0.251-0.008,0.524-0.08,0.78c-0.136,0.485-0.182,0.995-0.134,1.496
				c0.016,0.172,0.051,0.357,0.182,0.47c0.118,0.102,0.286,0.118,0.443,0.125c2.017,0.09,2.99-0.624,4.22,1.131
				c0.118,0.169,0.242,0.342,0.42,0.446c0.167,0.097,0.364,0.123,0.556,0.139c1.386,0.114,2.293-0.751,3.559-0.913
				c1.758-0.224,2.13,0.682,3.679,1.41C392.868,226.004,394.049,225.298,394.506,223.639z"/>
			<path style="fill:#EBEBEB;" d="M379.206,231.006c0.117-0.423,0.186-0.907,0.218-1.441c0.177-2.988,3.03-2.514,5.457-2.92
				c1.896-0.317-3.124-5.106,0.698-6.651c0.71-0.287,1.482-0.611,1.845-1.286c0.48-0.892-0.006-2.066-0.833-2.65
				c-0.827-0.585-1.89-0.709-2.902-0.728c-0.624-0.758-0.116-1.899,0.487-2.673c0.603-0.774,1.342-1.655,1.114-2.609
				c-0.345-1.441-2.36-1.493-3.815-1.213c-0.538-0.871-0.527-1.96-0.788-2.95c-0.261-0.99-1.048-2.029-2.064-1.905
				c-0.957,0.117-1.542,1.197-2.48,1.419c-1.09,0.257-2.034-0.707-2.889-1.43c-0.855-0.723-2.35-1.174-2.939-0.222
				c-0.353,0.57-0.141,1.365-0.508,1.926c-0.635,0.973-2.141,0.369-3.076-0.321c-0.935-0.69-2.424-1.315-3.082-0.357
				c-0.202,0.294-0.246,0.663-0.362,0.999c-0.442,1.277-1.822,1.912-2.897,2.731c-1.075,0.818-1.926,2.447-1.017,3.445
				c0.449,0.493,1.238,0.693,1.461,1.321c0.279,0.785-0.523,1.488-1.158,2.028c-1.056,0.898-1.248,3.587,0.149,4.322
				c0.586,0.309,1.446,0.403,1.59,1.05c0.129,0.578-0.458,1.028-0.848,1.474c-1.071,1.225-0.617,3.429,0.85,4.132
				c0.335,0.161,0.747,0.292,0.872,0.643c0.089,0.251-0.008,0.524-0.08,0.78c-0.136,0.485-0.182,0.995-0.134,1.497
				c0.016,0.171,0.051,0.357,0.182,0.47c0.119,0.102,0.286,0.118,0.443,0.124c2.017,0.09,2.99-0.624,4.221,1.131
				c0.118,0.169,0.242,0.342,0.42,0.446c0.167,0.097,0.364,0.123,0.557,0.139c1.386,0.114,2.292-0.751,3.559-0.912
				c1.758-0.224,2.13,0.682,3.679,1.41C377.568,233.372,378.749,232.666,379.206,231.006z"/>
			<path style="fill:#EBEBEB;" d="M363.743,227.603c0.117-0.423,0.186-0.907,0.218-1.441c0.178-2.988,3.03-2.515,5.457-2.92
				c1.896-0.317-3.124-5.106,0.698-6.651c0.71-0.287,1.482-0.611,1.845-1.286c0.48-0.892-0.006-2.066-0.833-2.65
				c-0.827-0.585-1.89-0.709-2.902-0.728c-0.623-0.758-0.116-1.899,0.487-2.673c0.603-0.774,1.342-1.655,1.114-2.609
				c-0.345-1.441-2.359-1.493-3.815-1.213c-0.538-0.871-0.527-1.96-0.788-2.95s-1.048-2.029-2.064-1.905
				c-0.957,0.117-1.542,1.197-2.48,1.419c-1.09,0.257-2.034-0.707-2.889-1.43c-0.855-0.723-2.35-1.174-2.939-0.222
				c-0.353,0.57-0.141,1.365-0.508,1.927c-0.635,0.973-2.141,0.369-3.076-0.321c-0.935-0.69-2.425-1.315-3.082-0.357
				c-0.202,0.293-0.246,0.663-0.362,0.999c-0.442,1.277-1.822,1.912-2.897,2.731c-1.075,0.819-1.926,2.447-1.017,3.446
				c0.449,0.493,1.238,0.693,1.461,1.321c0.279,0.785-0.523,1.488-1.158,2.028c-1.056,0.898-1.248,3.587,0.149,4.322
				c0.586,0.309,1.446,0.403,1.59,1.05c0.129,0.578-0.458,1.028-0.848,1.474c-1.071,1.225-0.617,3.429,0.85,4.132
				c0.335,0.161,0.747,0.292,0.871,0.643c0.089,0.251-0.008,0.524-0.08,0.781c-0.136,0.485-0.182,0.995-0.135,1.497
				c0.016,0.171,0.052,0.357,0.182,0.47c0.119,0.102,0.287,0.118,0.443,0.125c2.017,0.09,2.99-0.624,4.22,1.131
				c0.118,0.169,0.242,0.342,0.42,0.446c0.167,0.097,0.364,0.123,0.556,0.139c1.386,0.114,2.293-0.751,3.559-0.912
				c1.758-0.224,2.13,0.682,3.679,1.41C362.105,229.969,363.286,229.263,363.743,227.603z"/>
			<path style="fill:#EBEBEB;" d="M363.542,244.144c0.092-0.333,0.147-0.714,0.171-1.134c0.14-2.353,2.386-1.98,4.297-2.299
				c1.493-0.249-2.46-4.021,0.55-5.237c0.559-0.226,1.167-0.481,1.452-1.012c0.378-0.702-0.004-1.626-0.656-2.087
				c-0.651-0.46-1.488-0.558-2.285-0.573c-0.491-0.597-0.092-1.495,0.383-2.105c0.475-0.61,1.057-1.303,0.877-2.055
				c-0.272-1.135-1.858-1.176-3.004-0.955c-0.423-0.686-0.415-1.543-0.621-2.322c-0.205-0.779-0.825-1.597-1.625-1.5
				c-0.754,0.092-1.214,0.943-1.953,1.117c-0.858,0.202-1.601-0.557-2.275-1.126s-1.851-0.925-2.314-0.175
				c-0.278,0.449-0.111,1.075-0.4,1.517c-0.5,0.766-1.686,0.291-2.422-0.253c-0.736-0.543-1.909-1.035-2.427-0.281
				c-0.159,0.231-0.194,0.522-0.285,0.787c-0.348,1.005-1.435,1.506-2.281,2.15c-0.846,0.645-1.517,1.927-0.801,2.713
				c0.353,0.388,0.975,0.545,1.15,1.04c0.219,0.618-0.412,1.172-0.912,1.597c-0.832,0.708-0.983,2.824,0.117,3.403
				c0.462,0.243,1.139,0.318,1.252,0.827c0.101,0.455-0.361,0.81-0.668,1.161c-0.843,0.964-0.486,2.7,0.669,3.253
				c0.264,0.127,0.588,0.23,0.686,0.506c0.07,0.197-0.006,0.413-0.063,0.614c-0.107,0.382-0.143,0.783-0.106,1.178
				c0.013,0.135,0.041,0.281,0.143,0.37c0.093,0.08,0.226,0.093,0.349,0.098c1.588,0.071,2.354-0.491,3.323,0.891
				c0.093,0.133,0.191,0.27,0.331,0.351c0.131,0.076,0.287,0.097,0.438,0.109c1.092,0.09,1.805-0.591,2.803-0.718
				c1.384-0.176,1.677,0.537,2.897,1.11C362.252,246.006,363.181,245.451,363.542,244.144z"/>
			<path style="fill:#EBEBEB;" d="M354.877,238.43c0.117-0.423,0.186-0.907,0.218-1.441c0.178-2.988,3.03-2.515,5.457-2.92
				c1.896-0.317-3.124-5.106,0.698-6.651c0.71-0.287,1.482-0.611,1.845-1.286c0.48-0.892-0.006-2.066-0.833-2.65
				c-0.827-0.585-1.89-0.709-2.902-0.728c-0.624-0.758-0.116-1.899,0.487-2.673c0.603-0.774,1.342-1.655,1.114-2.609
				c-0.345-1.441-2.359-1.493-3.815-1.213c-0.538-0.871-0.527-1.96-0.788-2.949c-0.261-0.99-1.048-2.029-2.064-1.905
				c-0.957,0.117-1.542,1.197-2.481,1.419c-1.09,0.257-2.034-0.707-2.889-1.43c-0.855-0.723-2.35-1.174-2.939-0.222
				c-0.353,0.57-0.141,1.365-0.508,1.926c-0.635,0.973-2.141,0.369-3.076-0.321c-0.935-0.69-2.424-1.315-3.083-0.357
				c-0.201,0.294-0.246,0.663-0.362,0.999c-0.442,1.277-1.822,1.912-2.897,2.731c-1.075,0.819-1.926,2.447-1.017,3.446
				c0.449,0.493,1.238,0.692,1.461,1.321c0.279,0.785-0.524,1.488-1.158,2.028c-1.056,0.898-1.248,3.587,0.149,4.322
				c0.586,0.309,1.446,0.403,1.59,1.05c0.129,0.578-0.458,1.028-0.848,1.474c-1.071,1.225-0.617,3.429,0.85,4.132
				c0.335,0.161,0.747,0.292,0.871,0.643c0.089,0.251-0.008,0.524-0.08,0.78c-0.136,0.485-0.182,0.995-0.135,1.496
				c0.016,0.172,0.052,0.357,0.182,0.47c0.119,0.102,0.286,0.118,0.443,0.125c2.017,0.09,2.99-0.624,4.22,1.131
				c0.118,0.169,0.242,0.342,0.42,0.446c0.167,0.097,0.364,0.123,0.556,0.139c1.386,0.114,2.293-0.751,3.559-0.912
				c1.758-0.224,2.13,0.682,3.679,1.41C353.239,240.795,354.42,240.089,354.877,238.43z"/>
			<path style="fill:#EBEBEB;" d="M379.206,212.812c0.117-0.423,0.186-0.907,0.218-1.441c0.177-2.988,3.03-2.515,5.457-2.92
				c1.896-0.317-3.124-5.106,0.698-6.651c0.71-0.287,1.482-0.611,1.845-1.286c0.48-0.892-0.006-2.066-0.833-2.651
				c-0.827-0.585-1.89-0.709-2.902-0.728c-0.624-0.758-0.116-1.899,0.487-2.673c0.603-0.774,1.342-1.655,1.114-2.609
				c-0.345-1.441-2.36-1.493-3.815-1.213c-0.538-0.871-0.527-1.96-0.788-2.95c-0.261-0.99-1.048-2.028-2.064-1.905
				c-0.957,0.117-1.542,1.197-2.48,1.419c-1.09,0.257-2.034-0.707-2.889-1.43c-0.855-0.723-2.35-1.174-2.939-0.222
				c-0.353,0.57-0.141,1.365-0.508,1.927c-0.635,0.973-2.141,0.369-3.076-0.321c-0.935-0.69-2.424-1.315-3.082-0.357
				c-0.202,0.293-0.246,0.663-0.362,0.999c-0.442,1.276-1.822,1.912-2.897,2.731c-1.075,0.819-1.926,2.447-1.017,3.446
				c0.449,0.493,1.238,0.693,1.461,1.321c0.279,0.785-0.523,1.488-1.158,2.028c-1.056,0.898-1.248,3.587,0.149,4.322
				c0.586,0.309,1.446,0.403,1.59,1.05c0.129,0.578-0.458,1.028-0.848,1.474c-1.071,1.225-0.617,3.429,0.85,4.132
				c0.335,0.161,0.747,0.292,0.872,0.643c0.089,0.251-0.008,0.524-0.08,0.78c-0.136,0.485-0.182,0.995-0.134,1.496
				c0.016,0.172,0.051,0.357,0.182,0.47c0.119,0.102,0.286,0.118,0.443,0.125c2.017,0.09,2.99-0.624,4.221,1.131
				c0.118,0.169,0.242,0.342,0.42,0.446c0.167,0.097,0.364,0.123,0.557,0.139c1.386,0.114,2.292-0.751,3.559-0.912
				c1.758-0.224,2.13,0.682,3.679,1.41C377.568,215.177,378.749,214.472,379.206,212.812z"/>
			<path style="fill:#EBEBEB;" d="M399.071,213.828c0.116-0.423,0.186-0.907,0.218-1.441c0.177-2.988,3.03-2.515,5.457-2.92
				c1.896-0.317-3.124-5.106,0.698-6.651c0.71-0.287,1.482-0.611,1.845-1.286c0.48-0.892-0.006-2.066-0.833-2.65
				c-0.827-0.585-1.89-0.709-2.902-0.728c-0.624-0.758-0.117-1.899,0.487-2.673c0.603-0.774,1.342-1.655,1.114-2.609
				c-0.345-1.441-2.36-1.493-3.815-1.213c-0.538-0.871-0.527-1.96-0.788-2.949c-0.261-0.99-1.048-2.029-2.064-1.905
				c-0.957,0.117-1.542,1.197-2.48,1.419c-1.09,0.257-2.034-0.707-2.889-1.43c-0.855-0.723-2.35-1.174-2.939-0.222
				c-0.353,0.57-0.141,1.365-0.508,1.926c-0.635,0.973-2.141,0.369-3.076-0.321s-2.424-1.315-3.082-0.357
				c-0.202,0.293-0.246,0.663-0.362,0.999c-0.442,1.277-1.822,1.912-2.897,2.731c-1.075,0.819-1.926,2.447-1.017,3.446
				c0.449,0.493,1.238,0.693,1.461,1.321c0.279,0.785-0.523,1.488-1.158,2.028c-1.056,0.898-1.248,3.587,0.149,4.322
				c0.586,0.309,1.446,0.403,1.59,1.05c0.129,0.578-0.458,1.028-0.848,1.474c-1.071,1.225-0.618,3.429,0.85,4.132
				c0.335,0.161,0.747,0.292,0.872,0.643c0.089,0.251-0.008,0.524-0.08,0.78c-0.136,0.485-0.182,0.995-0.134,1.497
				c0.016,0.171,0.051,0.357,0.182,0.47c0.119,0.102,0.286,0.118,0.443,0.125c2.017,0.09,2.99-0.624,4.221,1.131
				c0.118,0.169,0.242,0.342,0.42,0.446c0.167,0.097,0.364,0.123,0.557,0.139c1.386,0.114,2.292-0.751,3.559-0.913
				c1.758-0.224,2.13,0.682,3.679,1.41C397.432,216.193,398.613,215.488,399.071,213.828z"/>
			<path style="fill:#EBEBEB;" d="M411.137,221.957c0.117-0.423,0.186-0.907,0.218-1.441c0.177-2.988,3.03-2.515,5.457-2.92
				c1.896-0.317-3.124-5.106,0.698-6.651c0.71-0.287,1.482-0.611,1.845-1.286c0.48-0.892-0.006-2.066-0.833-2.65
				c-0.827-0.585-1.89-0.709-2.902-0.728c-0.624-0.758-0.116-1.899,0.487-2.673c0.604-0.774,1.342-1.655,1.114-2.61
				c-0.345-1.441-2.36-1.493-3.815-1.213c-0.538-0.871-0.527-1.96-0.788-2.95c-0.261-0.99-1.048-2.028-2.064-1.905
				c-0.957,0.117-1.542,1.197-2.48,1.419c-1.09,0.257-2.034-0.707-2.889-1.43c-0.855-0.723-2.35-1.174-2.939-0.222
				c-0.353,0.57-0.142,1.365-0.508,1.926c-0.635,0.973-2.141,0.369-3.076-0.321c-0.935-0.69-2.424-1.315-3.082-0.357
				c-0.201,0.294-0.246,0.663-0.362,1c-0.442,1.276-1.822,1.912-2.897,2.731c-1.075,0.819-1.926,2.447-1.017,3.446
				c0.449,0.493,1.238,0.693,1.461,1.321c0.279,0.785-0.524,1.488-1.158,2.028c-1.056,0.898-1.248,3.587,0.149,4.322
				c0.586,0.309,1.446,0.403,1.59,1.05c0.129,0.578-0.458,1.028-0.848,1.474c-1.071,1.225-0.617,3.429,0.85,4.132
				c0.335,0.161,0.747,0.292,0.871,0.643c0.089,0.251-0.008,0.524-0.08,0.78c-0.136,0.485-0.182,0.995-0.134,1.496
				c0.016,0.172,0.051,0.357,0.182,0.47c0.118,0.102,0.286,0.118,0.443,0.124c2.017,0.09,2.99-0.624,4.221,1.131
				c0.118,0.169,0.242,0.342,0.42,0.446c0.167,0.097,0.364,0.123,0.556,0.139c1.386,0.114,2.293-0.751,3.559-0.913
				c1.758-0.224,2.13,0.682,3.679,1.41C409.498,224.322,410.679,223.617,411.137,221.957z"/>
			<path style="fill:#E6E6E6;" d="M407.478,232.232c0,0-5.046,7.134-6.786,9.396c-1.74,2.262-10.44,16.356-11.624,25.678
				c-0.126,0.995-0.251,1.851-0.372,2.6c3.742,24.701,3.155,69.892,3.023,77.629h-11.856c-0.109-8.724-1.117-88.474-1.488-90.909
				c-0.393-2.576-5.349-12.388-13.005-16.419c-7.656-4.031-14.272-17.371-14.272-17.371h2.44c0,0,4.524,8.178,10.962,12.702
				c0.935,0.657,1.903,1.204,2.897,1.717c-0.231-7.37,2.56-14.419,2.56-14.419l1.317,1.218c-1.779,7.284-1.545,11.949-1.006,14.629
				c2.161,1.083,4.402,2.336,6.657,4.455c6.678-8.684,10.433-28.544,10.433-28.544l1.71,0.934c0,0-0.556,5.394-2.208,12.18
				c-1.251,5.14-4.934,14.818-6.647,19.212c1.703,2.365,3.394,5.422,5.045,9.469c0.187-0.288,0.398-0.55,0.644-0.772
				c4.35-3.933,12.528-22.515,12.528-22.515c1.978-4.32-1.044-15.66-1.044-15.66h2.283l1.023,9.918l5.742-6.264l1.044,0.87
				l-6.09,7.83l-3.132,9.92l8.178-9.05L407.478,232.232z"/>
		</g>
		<path style="fill:#E0E0E0;" d="M443.128,361.506H50.519c-4.371,0-7.915,3.544-7.915,7.915v11.922h408.44v-11.922
			C451.043,365.05,447.499,361.506,443.128,361.506z"/>
	</g>
</g>
<g id="Background_Simple" style="display:none;">
	<g style="display:inline;">
		<path style="fill:#407BFF;" d="M91.042,111.87c27.919-59.449,127.059-51.062,165.317-9.255
			c38.258,41.806,50.696,68.599,85.208,52.983c34.512-15.616,78.518-11.44,81.043,38.164s-37.913,108.263-102.09,125.615
			c-64.177,17.352-64.161,78.759-149.1,66.368c-46.31-6.756-47.365-56.86-40.825-98.301
			C137.135,246.003,58.664,180.814,91.042,111.87z"/>
		<path style="opacity:0.9;fill:#FFFFFF;" d="M91.042,111.87c27.919-59.449,127.059-51.062,165.317-9.255
			c38.258,41.806,50.696,68.599,85.208,52.983c34.512-15.616,78.518-11.44,81.043,38.164s-37.913,108.263-102.09,125.615
			c-64.177,17.352-64.161,78.759-149.1,66.368c-46.31-6.756-47.365-56.86-40.825-98.301
			C137.135,246.003,58.664,180.814,91.042,111.87z"/>
	</g>
</g>
<g id="Shadow_1_">
	<ellipse id="_x3C_Path_x3E__359_" style="fill:#F5F5F5;" cx="250" cy="416.238" rx="193.889" ry="11.323"/>
</g>
<g id="Rain">
	<g>
		<g>
			<g>
				<path style="fill:#407BFF;" d="M108.075,126.411c-0.105,0-0.2-0.075-0.221-0.183l-2.866-14.81l0.442-0.086l2.866,14.81
					c0.024,0.123-0.056,0.241-0.178,0.264C108.104,126.409,108.089,126.411,108.075,126.411z"/>
			</g>
			<g>
				<path style="fill:#407BFF;" d="M117.621,174.767c-0.105,0-0.2-0.075-0.221-0.183l-7.2-37.208
					c-0.024-0.123,0.056-0.241,0.178-0.264c0.125-0.026,0.241,0.057,0.264,0.178l7.2,37.209c0.024,0.123-0.056,0.241-0.178,0.264
					C117.65,174.766,117.636,174.767,117.621,174.767z"/>
			</g>
			<g>
				<path style="fill:#407BFF;" d="M135.507,259.049c-0.106,0-0.201-0.075-0.221-0.183l-13.454-69.529
					c-0.024-0.122,0.056-0.241,0.178-0.264c0.123-0.026,0.241,0.057,0.264,0.178l13.454,69.529c0.024,0.122-0.056,0.24-0.178,0.265
					C135.536,259.048,135.521,259.049,135.507,259.049z"/>
			</g>
			<g>
				<path style="fill:#407BFF;" d="M151.343,345.124c-0.105,0-0.2-0.075-0.221-0.183l-15.608-80.665
					c-0.024-0.122,0.056-0.24,0.178-0.265c0.119-0.023,0.241,0.056,0.264,0.179l15.608,80.665c0.024,0.122-0.056,0.24-0.178,0.265
					C151.372,345.123,151.357,345.124,151.343,345.124z"/>
			</g>
			<g>
				<path style="fill:#407BFF;" d="M161.578,396.059c-0.106,0-0.201-0.075-0.221-0.183l-6.561-33.905
					c-0.024-0.122,0.056-0.24,0.178-0.265c0.119-0.022,0.241,0.057,0.264,0.179l6.561,33.905c0.024,0.122-0.056,0.24-0.178,0.265
					C161.606,396.058,161.592,396.059,161.578,396.059z"/>
			</g>
			<g>
				<path style="fill:#407BFF;" d="M89.802,233.085c-0.106,0-0.2-0.075-0.221-0.183l-10.596-54.758l0.442-0.086l10.596,54.758
					c0.024,0.122-0.056,0.24-0.178,0.265C89.831,233.084,89.816,233.085,89.802,233.085z"/>
			</g>
			<g>
				<path style="fill:#407BFF;" d="M104.513,276.189c-0.106,0-0.201-0.075-0.221-0.183l-10.501-54.265
					c-0.024-0.123,0.056-0.241,0.178-0.264c0.121-0.026,0.241,0.056,0.264,0.178l10.5,54.265c0.024,0.122-0.056,0.24-0.178,0.265
					C104.541,276.188,104.527,276.189,104.513,276.189z"/>
			</g>
			<g>
				<path style="fill:#407BFF;" d="M126.823,400.934c-0.106,0-0.201-0.075-0.221-0.183l-10.844-56.04
					c-0.024-0.122,0.056-0.24,0.178-0.265c0.124-0.026,0.241,0.058,0.264,0.179l10.844,56.04c0.024,0.122-0.056,0.24-0.178,0.265
					C126.851,400.933,126.837,400.934,126.823,400.934z"/>
			</g>
			<g>
				<path style="fill:#407BFF;" d="M81.778,316.454c-0.106,0-0.201-0.075-0.221-0.183l-9.307-48.096
					c-0.024-0.122,0.056-0.24,0.178-0.265c0.121-0.023,0.241,0.057,0.264,0.179l9.307,48.096c0.024,0.122-0.056,0.24-0.178,0.265
					C81.807,316.453,81.793,316.454,81.778,316.454z"/>
			</g>
			<g>
				<path style="fill:#407BFF;" d="M95.5,354.448c-0.105,0-0.2-0.075-0.221-0.183l-7.234-37.384
					c-0.024-0.122,0.056-0.24,0.178-0.265c0.119-0.025,0.241,0.057,0.264,0.179l7.234,37.384c0.024,0.122-0.056,0.24-0.178,0.265
					C95.529,354.447,95.515,354.448,95.5,354.448z"/>
			</g>
			<g>
				<path style="fill:#407BFF;" d="M142.055,180.441c-0.105,0-0.2-0.075-0.221-0.183l-11.792-60.943
					c-0.024-0.123,0.056-0.241,0.178-0.264c0.121-0.025,0.241,0.056,0.264,0.178l11.792,60.943c0.024,0.122-0.056,0.241-0.178,0.264
					C142.084,180.44,142.07,180.441,142.055,180.441z"/>
			</g>
			<g>
				<path style="fill:#407BFF;" d="M155.743,236.835c-0.105,0-0.2-0.075-0.221-0.183l-9.65-49.872
					c-0.024-0.123,0.056-0.241,0.178-0.264c0.121-0.023,0.241,0.056,0.264,0.178l9.65,49.873c0.024,0.122-0.056,0.24-0.178,0.265
					C155.772,236.834,155.758,236.835,155.743,236.835z"/>
			</g>
			<g>
				<path style="fill:#407BFF;" d="M178.242,288.241c-0.105,0-0.2-0.075-0.221-0.183l-10.372-53.6
					c-0.024-0.122,0.056-0.24,0.178-0.265c0.121-0.023,0.241,0.057,0.264,0.179l10.372,53.6c0.024,0.122-0.056,0.24-0.178,0.265
					C178.27,288.24,178.256,288.241,178.242,288.241z"/>
			</g>
			<g>
				<path style="fill:#407BFF;" d="M201.666,400.164c-0.106,0-0.201-0.075-0.221-0.183l-12.943-66.887
					c-0.024-0.122,0.056-0.24,0.178-0.265c0.125-0.024,0.241,0.057,0.264,0.179l12.943,66.887c0.024,0.122-0.056,0.24-0.178,0.265
					C201.694,400.163,201.68,400.164,201.666,400.164z"/>
			</g>
			<g>
				<path style="fill:#407BFF;" d="M166.91,106.797c-0.106,0-0.201-0.075-0.221-0.183l-2.465-12.74
					c-0.024-0.122,0.056-0.241,0.178-0.264c0.12-0.024,0.241,0.056,0.264,0.178l2.465,12.74c0.024,0.123-0.056,0.241-0.178,0.264
					C166.938,106.795,166.924,106.797,166.91,106.797z"/>
			</g>
			<g>
				<path style="fill:#407BFF;" d="M183.947,155.733c-0.105,0-0.2-0.075-0.221-0.183l-7.024-36.297
					c-0.024-0.122,0.056-0.241,0.178-0.264c0.121-0.022,0.241,0.056,0.264,0.178l7.024,36.297c0.024,0.122-0.056,0.241-0.178,0.264
					C183.976,155.731,183.962,155.733,183.947,155.733z"/>
			</g>
			<g>
				<path style="fill:#407BFF;" d="M192.48,211.232c-0.106,0-0.201-0.075-0.221-0.183l-9.329-48.21
					c-0.024-0.122,0.056-0.241,0.178-0.264c0.124-0.025,0.241,0.057,0.264,0.178l9.329,48.209c0.024,0.123-0.056,0.241-0.178,0.264
					C192.508,211.23,192.494,211.232,192.48,211.232z"/>
			</g>
			<g>
				<path style="fill:#407BFF;" d="M211.492,332.304c-0.105,0-0.2-0.075-0.221-0.183l-17.837-92.181
					c-0.024-0.122,0.056-0.24,0.178-0.265c0.119-0.023,0.241,0.056,0.264,0.179l17.837,92.181c0.024,0.122-0.056,0.24-0.178,0.265
					C211.52,332.303,211.506,332.304,211.492,332.304z"/>
			</g>
			<g>
				<path style="fill:#407BFF;" d="M229.446,385.953l-9.91-51.216c-0.024-0.122,0.056-0.24,0.178-0.265
					c0.123-0.026,0.241,0.058,0.264,0.179l9.91,51.216L229.446,385.953z"/>
			</g>
			<g>
				<path style="fill:#407BFF;" d="M240.119,97.586c-0.106,0-0.201-0.075-0.221-0.183l-1.297-6.704
					c-0.024-0.123,0.056-0.241,0.178-0.264c0.124-0.026,0.241,0.057,0.264,0.178l1.297,6.704c0.024,0.122-0.056,0.241-0.178,0.264
					C240.148,97.585,240.133,97.586,240.119,97.586z"/>
			</g>
			<g>
				<path style="fill:#407BFF;" d="M266.124,260.988c-0.105,0-0.2-0.075-0.221-0.183l-23.79-122.95
					c-0.024-0.123,0.056-0.241,0.178-0.264c0.122-0.022,0.241,0.056,0.264,0.178l23.79,122.95c0.024,0.122-0.056,0.24-0.178,0.265
					C266.153,260.987,266.139,260.988,266.124,260.988z"/>
			</g>
			<g>
				<path style="fill:#407BFF;" d="M275.568,301.645c-0.105,0-0.2-0.075-0.221-0.183l-13.162-68.021
					c-0.024-0.122,0.056-0.24,0.178-0.265c0.121-0.023,0.241,0.057,0.264,0.179l13.162,68.021c0.024,0.122-0.056,0.24-0.178,0.265
					C275.597,301.644,275.583,301.645,275.568,301.645z"/>
			</g>
			<g>
				<path style="fill:#407BFF;" d="M288.163,353.349l-9.275-47.936c-0.024-0.122,0.056-0.24,0.178-0.265
					c0.119-0.023,0.241,0.057,0.264,0.179l9.275,47.936L288.163,353.349z"/>
			</g>
			<g>
				<path style="fill:#407BFF;" d="M282.414,175.024c-0.106,0-0.201-0.075-0.221-0.183L270.1,112.347
					c-0.024-0.123,0.056-0.241,0.178-0.264c0.124-0.023,0.241,0.056,0.264,0.178l12.093,62.495c0.024,0.122-0.056,0.241-0.178,0.264
					C282.442,175.023,282.428,175.024,282.414,175.024z"/>
			</g>
			<g>
				<path style="fill:#407BFF;" d="M300.817,292.946c-0.106,0-0.201-0.075-0.221-0.183l-19.382-100.167
					c-0.024-0.123,0.056-0.241,0.178-0.264c0.123-0.022,0.241,0.057,0.264,0.178l19.382,100.167c0.024,0.122-0.056,0.24-0.178,0.265
					C300.846,292.945,300.832,292.946,300.817,292.946z"/>
			</g>
			<g>
				<path style="fill:#407BFF;" d="M312.24,331.444c-0.106,0-0.201-0.075-0.221-0.183l-12.711-65.69
					c-0.024-0.122,0.056-0.24,0.178-0.265c0.119-0.025,0.241,0.057,0.264,0.179l12.711,65.69c0.024,0.122-0.056,0.24-0.178,0.265
					C312.269,331.443,312.254,331.444,312.24,331.444z"/>
			</g>
			<g>
				<path style="fill:#407BFF;" d="M322.712,358.834c-0.105,0-0.2-0.075-0.221-0.183l-4.138-21.384
					c-0.024-0.122,0.056-0.24,0.178-0.265c0.12-0.023,0.241,0.056,0.264,0.179l4.138,21.384c0.024,0.122-0.056,0.24-0.178,0.265
					C322.741,358.833,322.727,358.834,322.712,358.834z"/>
			</g>
			<g>
				<path style="fill:#407BFF;" d="M339.103,144.325c-0.105,0-0.2-0.075-0.221-0.183l-7.402-38.253
					c-0.024-0.123,0.056-0.241,0.178-0.264s0.241,0.056,0.264,0.178l7.402,38.253c0.024,0.123-0.056,0.241-0.178,0.264
					C339.131,144.324,339.117,144.325,339.103,144.325z"/>
			</g>
			<g>
				<path style="fill:#407BFF;" d="M355.808,203.927c-0.105,0-0.2-0.075-0.221-0.183l-11.295-58.372
					c-0.024-0.122,0.056-0.241,0.178-0.264c0.119-0.025,0.241,0.056,0.264,0.178l11.295,58.372c0.024,0.123-0.056,0.241-0.178,0.264
					C355.836,203.926,355.822,203.927,355.808,203.927z"/>
			</g>
			<g>
				<path style="fill:#407BFF;" d="M366.698,321.159c-0.105,0-0.2-0.075-0.221-0.183l-18.317-94.664
					c-0.024-0.123,0.056-0.241,0.178-0.264c0.118-0.026,0.241,0.056,0.264,0.178l18.317,94.663c0.024,0.122-0.056,0.24-0.178,0.265
					C366.727,321.158,366.713,321.159,366.698,321.159z"/>
			</g>
			<g>
				<path style="fill:#407BFF;" d="M384.243,378.885l-9.571-49.465c-0.024-0.122,0.056-0.24,0.178-0.265
					c0.121-0.023,0.241,0.056,0.264,0.179l9.571,49.465L384.243,378.885z"/>
			</g>
			<g>
				<path style="fill:#407BFF;" d="M366.296,119.93c-0.105,0-0.2-0.075-0.221-0.183l-2.754-14.235l0.442-0.086l2.754,14.235
					c0.024,0.123-0.056,0.241-0.178,0.264C366.325,119.929,366.311,119.93,366.296,119.93z"/>
			</g>
			<g>
				<path style="fill:#407BFF;" d="M380.3,234.675c-0.105,0-0.2-0.075-0.221-0.183l-16.004-82.709
					c-0.024-0.123,0.056-0.241,0.178-0.264c0.118-0.024,0.241,0.056,0.264,0.178l16.004,82.709c0.024,0.122-0.056,0.24-0.178,0.265
					C380.329,234.674,380.315,234.675,380.3,234.675z"/>
			</g>
			<g>
				<path style="fill:#407BFF;" d="M390.408,253.986c-0.106,0-0.2-0.075-0.221-0.183l-6.701-34.632
					c-0.024-0.123,0.056-0.241,0.178-0.264c0.125-0.022,0.241,0.056,0.264,0.178l6.701,34.632c0.024,0.122-0.056,0.24-0.178,0.265
					C390.436,253.985,390.422,253.986,390.408,253.986z"/>
			</g>
			<g>
				<path style="fill:#407BFF;" d="M402.042,356.479c-0.106,0-0.201-0.075-0.221-0.183l-15.21-78.604
					c-0.024-0.122,0.056-0.24,0.178-0.265c0.122-0.025,0.241,0.058,0.264,0.179l15.21,78.604c0.024,0.122-0.056,0.24-0.178,0.265
					C402.07,356.478,402.056,356.479,402.042,356.479z"/>
			</g>
			<g>
				<path style="fill:#407BFF;" d="M425.515,394.325l-3.564-18.418c-0.024-0.122,0.056-0.24,0.178-0.265
					c0.119-0.025,0.241,0.057,0.264,0.179l3.564,18.418L425.515,394.325z"/>
			</g>
			<g>
				<path style="fill:#407BFF;" d="M403.182,138.451c-0.106,0-0.201-0.075-0.221-0.183l-2.732-14.119l0.442-0.086l2.732,14.119
					c0.024,0.123-0.056,0.241-0.178,0.264C403.21,138.449,403.196,138.451,403.182,138.451z"/>
			</g>
			<g>
				<path style="fill:#407BFF;" d="M413.476,190.669c-0.105,0-0.2-0.075-0.221-0.183l-8.561-44.242
					c-0.024-0.122,0.056-0.241,0.178-0.264c0.12-0.024,0.241,0.056,0.264,0.178l8.561,44.242c0.024,0.123-0.056,0.241-0.178,0.264
					C413.504,190.668,413.49,190.669,413.476,190.669z"/>
			</g>
			<g>
				<path style="fill:#407BFF;" d="M421.651,256.712c-0.105,0-0.2-0.075-0.221-0.183l-10.153-52.469
					c-0.024-0.122,0.056-0.241,0.178-0.264c0.119-0.023,0.241,0.056,0.264,0.178l10.153,52.469c0.024,0.122-0.056,0.24-0.178,0.265
					C421.68,256.711,421.665,256.712,421.651,256.712z"/>
			</g>
			<g>
				<path style="fill:#407BFF;" d="M411.836,298.295c-0.105,0-0.2-0.075-0.221-0.183l-6.89-35.607
					c-0.024-0.122,0.056-0.24,0.178-0.265c0.12-0.025,0.241,0.057,0.264,0.179l6.89,35.607c0.024,0.122-0.056,0.24-0.178,0.265
					C411.865,298.294,411.851,298.295,411.836,298.295z"/>
			</g>
			<g>
				<path style="fill:#407BFF;" d="M301.16,101.763c-0.105,0-0.2-0.075-0.221-0.183l-5.311-27.443l0.442-0.086l5.311,27.443
					c0.024,0.123-0.056,0.241-0.178,0.264C301.189,101.761,301.175,101.763,301.16,101.763z"/>
			</g>
			<g>
				<path style="fill:#407BFF;" d="M321.212,222.011c-0.105,0-0.2-0.075-0.221-0.183l-15.897-82.154
					c-0.024-0.123,0.056-0.241,0.178-0.264c0.125-0.026,0.241,0.057,0.264,0.178l15.897,82.154c0.024,0.122-0.056,0.241-0.178,0.264
					C321.241,222.01,321.227,222.011,321.212,222.011z"/>
			</g>
			<g>
				<path style="fill:#407BFF;" d="M334.908,290.834c-0.106,0-0.201-0.075-0.221-0.183l-13.771-71.17
					c-0.024-0.122,0.056-0.241,0.178-0.264c0.12-0.025,0.241,0.056,0.264,0.178l13.771,71.17c0.024,0.122-0.056,0.24-0.178,0.265
					C334.936,290.833,334.922,290.834,334.908,290.834z"/>
			</g>
			<g>
				<path style="fill:#407BFF;" d="M348.806,355.466l-12.492-64.557c-0.024-0.122,0.056-0.24,0.178-0.265
					c0.12-0.022,0.241,0.057,0.264,0.179l12.492,64.557L348.806,355.466z"/>
			</g>
			<g>
				<path style="fill:#407BFF;" d="M212.288,118.685c-0.106,0-0.201-0.075-0.221-0.183l-4.669-24.13l0.442-0.086l4.669,24.13
					c0.024,0.123-0.056,0.241-0.178,0.264C212.316,118.684,212.302,118.685,212.288,118.685z"/>
			</g>
			<g>
				<path style="fill:#407BFF;" d="M222.478,188.946c-0.106,0-0.201-0.075-0.221-0.183l-10.291-53.181
					c-0.024-0.122,0.056-0.241,0.178-0.264c0.12-0.024,0.241,0.056,0.264,0.178l10.291,53.181c0.024,0.123-0.056,0.241-0.178,0.264
					C222.506,188.945,222.492,188.946,222.478,188.946z"/>
			</g>
			<g>
				<path style="fill:#407BFF;" d="M239.494,256.351c-0.106,0-0.201-0.075-0.221-0.183l-14.806-76.518
					c-0.024-0.123,0.056-0.241,0.178-0.264c0.125-0.023,0.241,0.056,0.264,0.178l14.806,76.518c0.024,0.122-0.056,0.24-0.178,0.265
					C239.523,256.35,239.508,256.351,239.494,256.351z"/>
			</g>
			<g>
				<path style="fill:#407BFF;" d="M254.321,349.598c-0.105,0-0.2-0.075-0.221-0.183l-14.943-77.225
					c-0.024-0.122,0.056-0.24,0.178-0.265c0.126-0.022,0.241,0.057,0.264,0.179l14.943,77.226c0.024,0.122-0.056,0.24-0.178,0.265
					C254.35,349.597,254.336,349.598,254.321,349.598z"/>
			</g>
			<g>
				<path style="fill:#407BFF;" d="M263.218,351.228l-3.662-18.923c-0.024-0.122,0.056-0.24,0.178-0.265
					c0.119-0.025,0.241,0.057,0.264,0.179l3.662,18.923L263.218,351.228z"/>
			</g>
		</g>
		<g style="opacity:0.6;">
			<g>
				<path style="fill:#FFFFFF;" d="M108.075,126.411c-0.105,0-0.2-0.075-0.221-0.183l-2.866-14.81l0.442-0.086l2.866,14.81
					c0.024,0.123-0.056,0.241-0.178,0.264C108.104,126.409,108.089,126.411,108.075,126.411z"/>
			</g>
			<g>
				<path style="fill:#FFFFFF;" d="M117.621,174.767c-0.105,0-0.2-0.075-0.221-0.183l-7.2-37.208
					c-0.024-0.123,0.056-0.241,0.178-0.264c0.125-0.026,0.241,0.057,0.264,0.178l7.2,37.209c0.024,0.123-0.056,0.241-0.178,0.264
					C117.65,174.766,117.636,174.767,117.621,174.767z"/>
			</g>
			<g>
				<path style="fill:#FFFFFF;" d="M135.507,259.049c-0.106,0-0.201-0.075-0.221-0.183l-13.454-69.529
					c-0.024-0.122,0.056-0.241,0.178-0.264c0.123-0.026,0.241,0.057,0.264,0.178l13.454,69.529c0.024,0.122-0.056,0.24-0.178,0.265
					C135.536,259.048,135.521,259.049,135.507,259.049z"/>
			</g>
			<g>
				<path style="fill:#FFFFFF;" d="M151.343,345.124c-0.105,0-0.2-0.075-0.221-0.183l-15.608-80.665
					c-0.024-0.122,0.056-0.24,0.178-0.265c0.119-0.023,0.241,0.056,0.264,0.179l15.608,80.665c0.024,0.122-0.056,0.24-0.178,0.265
					C151.372,345.123,151.357,345.124,151.343,345.124z"/>
			</g>
			<g>
				<path style="fill:#FFFFFF;" d="M161.578,396.059c-0.106,0-0.201-0.075-0.221-0.183l-6.561-33.905
					c-0.024-0.122,0.056-0.24,0.178-0.265c0.119-0.022,0.241,0.057,0.264,0.179l6.561,33.905c0.024,0.122-0.056,0.24-0.178,0.265
					C161.606,396.058,161.592,396.059,161.578,396.059z"/>
			</g>
			<g>
				<path style="fill:#FFFFFF;" d="M89.802,233.085c-0.106,0-0.2-0.075-0.221-0.183l-10.596-54.758l0.442-0.086l10.596,54.758
					c0.024,0.122-0.056,0.24-0.178,0.265C89.831,233.084,89.816,233.085,89.802,233.085z"/>
			</g>
			<g>
				<path style="fill:#FFFFFF;" d="M104.513,276.189c-0.106,0-0.201-0.075-0.221-0.183l-10.501-54.265
					c-0.024-0.123,0.056-0.241,0.178-0.264c0.121-0.026,0.241,0.056,0.264,0.178l10.5,54.265c0.024,0.122-0.056,0.24-0.178,0.265
					C104.541,276.188,104.527,276.189,104.513,276.189z"/>
			</g>
			<g>
				<path style="fill:#FFFFFF;" d="M126.823,400.934c-0.106,0-0.201-0.075-0.221-0.183l-10.844-56.04
					c-0.024-0.122,0.056-0.24,0.178-0.265c0.124-0.026,0.241,0.058,0.264,0.179l10.844,56.04c0.024,0.122-0.056,0.24-0.178,0.265
					C126.851,400.933,126.837,400.934,126.823,400.934z"/>
			</g>
			<g>
				<path style="fill:#FFFFFF;" d="M81.778,316.454c-0.106,0-0.201-0.075-0.221-0.183l-9.307-48.096
					c-0.024-0.122,0.056-0.24,0.178-0.265c0.121-0.023,0.241,0.057,0.264,0.179l9.307,48.096c0.024,0.122-0.056,0.24-0.178,0.265
					C81.807,316.453,81.793,316.454,81.778,316.454z"/>
			</g>
			<g>
				<path style="fill:#FFFFFF;" d="M95.5,354.448c-0.105,0-0.2-0.075-0.221-0.183l-7.234-37.384
					c-0.024-0.122,0.056-0.24,0.178-0.265c0.119-0.025,0.241,0.057,0.264,0.179l7.234,37.384c0.024,0.122-0.056,0.24-0.178,0.265
					C95.529,354.447,95.515,354.448,95.5,354.448z"/>
			</g>
			<g>
				<path style="fill:#FFFFFF;" d="M142.055,180.441c-0.105,0-0.2-0.075-0.221-0.183l-11.792-60.943
					c-0.024-0.123,0.056-0.241,0.178-0.264c0.121-0.025,0.241,0.056,0.264,0.178l11.792,60.943c0.024,0.122-0.056,0.241-0.178,0.264
					C142.084,180.44,142.07,180.441,142.055,180.441z"/>
			</g>
			<g>
				<path style="fill:#FFFFFF;" d="M155.743,236.835c-0.105,0-0.2-0.075-0.221-0.183l-9.65-49.872
					c-0.024-0.123,0.056-0.241,0.178-0.264c0.121-0.023,0.241,0.056,0.264,0.178l9.65,49.873c0.024,0.122-0.056,0.24-0.178,0.265
					C155.772,236.834,155.758,236.835,155.743,236.835z"/>
			</g>
			<g>
				<path style="fill:#FFFFFF;" d="M178.242,288.241c-0.105,0-0.2-0.075-0.221-0.183l-10.372-53.6
					c-0.024-0.122,0.056-0.24,0.178-0.265c0.121-0.023,0.241,0.057,0.264,0.179l10.372,53.6c0.024,0.122-0.056,0.24-0.178,0.265
					C178.27,288.24,178.256,288.241,178.242,288.241z"/>
			</g>
			<g>
				<path style="fill:#FFFFFF;" d="M201.666,400.164c-0.106,0-0.201-0.075-0.221-0.183l-12.943-66.887
					c-0.024-0.122,0.056-0.24,0.178-0.265c0.125-0.024,0.241,0.057,0.264,0.179l12.943,66.887c0.024,0.122-0.056,0.24-0.178,0.265
					C201.694,400.163,201.68,400.164,201.666,400.164z"/>
			</g>
			<g>
				<path style="fill:#FFFFFF;" d="M166.91,106.797c-0.106,0-0.201-0.075-0.221-0.183l-2.465-12.74
					c-0.024-0.122,0.056-0.241,0.178-0.264c0.12-0.024,0.241,0.056,0.264,0.178l2.465,12.74c0.024,0.123-0.056,0.241-0.178,0.264
					C166.938,106.795,166.924,106.797,166.91,106.797z"/>
			</g>
			<g>
				<path style="fill:#FFFFFF;" d="M183.947,155.733c-0.105,0-0.2-0.075-0.221-0.183l-7.024-36.297
					c-0.024-0.122,0.056-0.241,0.178-0.264c0.121-0.022,0.241,0.056,0.264,0.178l7.024,36.297c0.024,0.122-0.056,0.241-0.178,0.264
					C183.976,155.731,183.962,155.733,183.947,155.733z"/>
			</g>
			<g>
				<path style="fill:#FFFFFF;" d="M192.48,211.232c-0.106,0-0.201-0.075-0.221-0.183l-9.329-48.21
					c-0.024-0.122,0.056-0.241,0.178-0.264c0.124-0.025,0.241,0.057,0.264,0.178l9.329,48.209c0.024,0.123-0.056,0.241-0.178,0.264
					C192.508,211.23,192.494,211.232,192.48,211.232z"/>
			</g>
			<g>
				<path style="fill:#FFFFFF;" d="M211.492,332.304c-0.105,0-0.2-0.075-0.221-0.183l-17.837-92.181
					c-0.024-0.122,0.056-0.24,0.178-0.265c0.119-0.023,0.241,0.056,0.264,0.179l17.837,92.181c0.024,0.122-0.056,0.24-0.178,0.265
					C211.52,332.303,211.506,332.304,211.492,332.304z"/>
			</g>
			<g>
				<path style="fill:#FFFFFF;" d="M229.446,385.953l-9.91-51.216c-0.024-0.122,0.056-0.24,0.178-0.265
					c0.123-0.026,0.241,0.058,0.264,0.179l9.91,51.216L229.446,385.953z"/>
			</g>
			<g>
				<path style="fill:#FFFFFF;" d="M240.119,97.586c-0.106,0-0.201-0.075-0.221-0.183l-1.297-6.704
					c-0.024-0.123,0.056-0.241,0.178-0.264c0.124-0.026,0.241,0.057,0.264,0.178l1.297,6.704c0.024,0.122-0.056,0.241-0.178,0.264
					C240.148,97.585,240.133,97.586,240.119,97.586z"/>
			</g>
			<g>
				<path style="fill:#FFFFFF;" d="M266.124,260.988c-0.105,0-0.2-0.075-0.221-0.183l-23.79-122.95
					c-0.024-0.123,0.056-0.241,0.178-0.264c0.122-0.022,0.241,0.056,0.264,0.178l23.79,122.95c0.024,0.122-0.056,0.24-0.178,0.265
					C266.153,260.987,266.139,260.988,266.124,260.988z"/>
			</g>
			<g>
				<path style="fill:#FFFFFF;" d="M275.568,301.645c-0.105,0-0.2-0.075-0.221-0.183l-13.162-68.021
					c-0.024-0.122,0.056-0.24,0.178-0.265c0.121-0.023,0.241,0.057,0.264,0.179l13.162,68.021c0.024,0.122-0.056,0.24-0.178,0.265
					C275.597,301.644,275.583,301.645,275.568,301.645z"/>
			</g>
			<g>
				<path style="fill:#FFFFFF;" d="M288.163,353.349l-9.275-47.936c-0.024-0.122,0.056-0.24,0.178-0.265
					c0.119-0.023,0.241,0.057,0.264,0.179l9.275,47.936L288.163,353.349z"/>
			</g>
			<g>
				<path style="fill:#FFFFFF;" d="M282.414,175.024c-0.106,0-0.201-0.075-0.221-0.183L270.1,112.347
					c-0.024-0.123,0.056-0.241,0.178-0.264c0.124-0.023,0.241,0.056,0.264,0.178l12.093,62.495c0.024,0.122-0.056,0.241-0.178,0.264
					C282.442,175.023,282.428,175.024,282.414,175.024z"/>
			</g>
			<g>
				<path style="fill:#FFFFFF;" d="M300.817,292.946c-0.106,0-0.201-0.075-0.221-0.183l-19.382-100.167
					c-0.024-0.123,0.056-0.241,0.178-0.264c0.123-0.022,0.241,0.057,0.264,0.178l19.382,100.167c0.024,0.122-0.056,0.24-0.178,0.265
					C300.846,292.945,300.832,292.946,300.817,292.946z"/>
			</g>
			<g>
				<path style="fill:#FFFFFF;" d="M312.24,331.444c-0.106,0-0.201-0.075-0.221-0.183l-12.711-65.69
					c-0.024-0.122,0.056-0.24,0.178-0.265c0.119-0.025,0.241,0.057,0.264,0.179l12.711,65.69c0.024,0.122-0.056,0.24-0.178,0.265
					C312.269,331.443,312.254,331.444,312.24,331.444z"/>
			</g>
			<g>
				<path style="fill:#FFFFFF;" d="M322.712,358.834c-0.105,0-0.2-0.075-0.221-0.183l-4.138-21.384
					c-0.024-0.122,0.056-0.24,0.178-0.265c0.12-0.023,0.241,0.056,0.264,0.179l4.138,21.384c0.024,0.122-0.056,0.24-0.178,0.265
					C322.741,358.833,322.727,358.834,322.712,358.834z"/>
			</g>
			<g>
				<path style="fill:#FFFFFF;" d="M339.103,144.325c-0.105,0-0.2-0.075-0.221-0.183l-7.402-38.253
					c-0.024-0.123,0.056-0.241,0.178-0.264s0.241,0.056,0.264,0.178l7.402,38.253c0.024,0.123-0.056,0.241-0.178,0.264
					C339.131,144.324,339.117,144.325,339.103,144.325z"/>
			</g>
			<g>
				<path style="fill:#FFFFFF;" d="M355.808,203.927c-0.105,0-0.2-0.075-0.221-0.183l-11.295-58.372
					c-0.024-0.122,0.056-0.241,0.178-0.264c0.119-0.025,0.241,0.056,0.264,0.178l11.295,58.372c0.024,0.123-0.056,0.241-0.178,0.264
					C355.836,203.926,355.822,203.927,355.808,203.927z"/>
			</g>
			<g>
				<path style="fill:#FFFFFF;" d="M366.698,321.159c-0.105,0-0.2-0.075-0.221-0.183l-18.317-94.664
					c-0.024-0.123,0.056-0.241,0.178-0.264c0.118-0.026,0.241,0.056,0.264,0.178l18.317,94.663c0.024,0.122-0.056,0.24-0.178,0.265
					C366.727,321.158,366.713,321.159,366.698,321.159z"/>
			</g>
			<g>
				<path style="fill:#FFFFFF;" d="M384.243,378.885l-9.571-49.465c-0.024-0.122,0.056-0.24,0.178-0.265
					c0.121-0.023,0.241,0.056,0.264,0.179l9.571,49.465L384.243,378.885z"/>
			</g>
			<g>
				<path style="fill:#FFFFFF;" d="M366.296,119.93c-0.105,0-0.2-0.075-0.221-0.183l-2.754-14.235l0.442-0.086l2.754,14.235
					c0.024,0.123-0.056,0.241-0.178,0.264C366.325,119.929,366.311,119.93,366.296,119.93z"/>
			</g>
			<g>
				<path style="fill:#FFFFFF;" d="M380.3,234.675c-0.105,0-0.2-0.075-0.221-0.183l-16.004-82.709
					c-0.024-0.123,0.056-0.241,0.178-0.264c0.118-0.024,0.241,0.056,0.264,0.178l16.004,82.709c0.024,0.122-0.056,0.24-0.178,0.265
					C380.329,234.674,380.315,234.675,380.3,234.675z"/>
			</g>
			<g>
				<path style="fill:#FFFFFF;" d="M390.408,253.986c-0.106,0-0.2-0.075-0.221-0.183l-6.701-34.632
					c-0.024-0.123,0.056-0.241,0.178-0.264c0.125-0.022,0.241,0.056,0.264,0.178l6.701,34.632c0.024,0.122-0.056,0.24-0.178,0.265
					C390.436,253.985,390.422,253.986,390.408,253.986z"/>
			</g>
			<g>
				<path style="fill:#FFFFFF;" d="M402.042,356.479c-0.106,0-0.201-0.075-0.221-0.183l-15.21-78.604
					c-0.024-0.122,0.056-0.24,0.178-0.265c0.122-0.025,0.241,0.058,0.264,0.179l15.21,78.604c0.024,0.122-0.056,0.24-0.178,0.265
					C402.07,356.478,402.056,356.479,402.042,356.479z"/>
			</g>
			<g>
				<path style="fill:#FFFFFF;" d="M425.515,394.325l-3.564-18.418c-0.024-0.122,0.056-0.24,0.178-0.265
					c0.119-0.025,0.241,0.057,0.264,0.179l3.564,18.418L425.515,394.325z"/>
			</g>
			<g>
				<path style="fill:#FFFFFF;" d="M403.182,138.451c-0.106,0-0.201-0.075-0.221-0.183l-2.732-14.119l0.442-0.086l2.732,14.119
					c0.024,0.123-0.056,0.241-0.178,0.264C403.21,138.449,403.196,138.451,403.182,138.451z"/>
			</g>
			<g>
				<path style="fill:#FFFFFF;" d="M413.476,190.669c-0.105,0-0.2-0.075-0.221-0.183l-8.561-44.242
					c-0.024-0.122,0.056-0.241,0.178-0.264c0.12-0.024,0.241,0.056,0.264,0.178l8.561,44.242c0.024,0.123-0.056,0.241-0.178,0.264
					C413.504,190.668,413.49,190.669,413.476,190.669z"/>
			</g>
			<g>
				<path style="fill:#FFFFFF;" d="M421.651,256.712c-0.105,0-0.2-0.075-0.221-0.183l-10.153-52.469
					c-0.024-0.122,0.056-0.241,0.178-0.264c0.119-0.023,0.241,0.056,0.264,0.178l10.153,52.469c0.024,0.122-0.056,0.24-0.178,0.265
					C421.68,256.711,421.665,256.712,421.651,256.712z"/>
			</g>
			<g>
				<path style="fill:#FFFFFF;" d="M411.836,298.295c-0.105,0-0.2-0.075-0.221-0.183l-6.89-35.607
					c-0.024-0.122,0.056-0.24,0.178-0.265c0.12-0.025,0.241,0.057,0.264,0.179l6.89,35.607c0.024,0.122-0.056,0.24-0.178,0.265
					C411.865,298.294,411.851,298.295,411.836,298.295z"/>
			</g>
			<g>
				<path style="fill:#FFFFFF;" d="M301.16,101.763c-0.105,0-0.2-0.075-0.221-0.183l-5.311-27.443l0.442-0.086l5.311,27.443
					c0.024,0.123-0.056,0.241-0.178,0.264C301.189,101.761,301.175,101.763,301.16,101.763z"/>
			</g>
			<g>
				<path style="fill:#FFFFFF;" d="M321.212,222.011c-0.105,0-0.2-0.075-0.221-0.183l-15.897-82.154
					c-0.024-0.123,0.056-0.241,0.178-0.264c0.125-0.026,0.241,0.057,0.264,0.178l15.897,82.154c0.024,0.122-0.056,0.241-0.178,0.264
					C321.241,222.01,321.227,222.011,321.212,222.011z"/>
			</g>
			<g>
				<path style="fill:#FFFFFF;" d="M334.908,290.834c-0.106,0-0.201-0.075-0.221-0.183l-13.771-71.17
					c-0.024-0.122,0.056-0.241,0.178-0.264c0.12-0.025,0.241,0.056,0.264,0.178l13.771,71.17c0.024,0.122-0.056,0.24-0.178,0.265
					C334.936,290.833,334.922,290.834,334.908,290.834z"/>
			</g>
			<g>
				<path style="fill:#FFFFFF;" d="M348.806,355.466l-12.492-64.557c-0.024-0.122,0.056-0.24,0.178-0.265
					c0.12-0.022,0.241,0.057,0.264,0.179l12.492,64.557L348.806,355.466z"/>
			</g>
			<g>
				<path style="fill:#FFFFFF;" d="M212.288,118.685c-0.106,0-0.201-0.075-0.221-0.183l-4.669-24.13l0.442-0.086l4.669,24.13
					c0.024,0.123-0.056,0.241-0.178,0.264C212.316,118.684,212.302,118.685,212.288,118.685z"/>
			</g>
			<g>
				<path style="fill:#FFFFFF;" d="M222.478,188.946c-0.106,0-0.201-0.075-0.221-0.183l-10.291-53.181
					c-0.024-0.122,0.056-0.241,0.178-0.264c0.12-0.024,0.241,0.056,0.264,0.178l10.291,53.181c0.024,0.123-0.056,0.241-0.178,0.264
					C222.506,188.945,222.492,188.946,222.478,188.946z"/>
			</g>
			<g>
				<path style="fill:#FFFFFF;" d="M239.494,256.351c-0.106,0-0.201-0.075-0.221-0.183l-14.806-76.518
					c-0.024-0.123,0.056-0.241,0.178-0.264c0.125-0.023,0.241,0.056,0.264,0.178l14.806,76.518c0.024,0.122-0.056,0.24-0.178,0.265
					C239.523,256.35,239.508,256.351,239.494,256.351z"/>
			</g>
			<g>
				<path style="fill:#FFFFFF;" d="M254.321,349.598c-0.105,0-0.2-0.075-0.221-0.183l-14.943-77.225
					c-0.024-0.122,0.056-0.24,0.178-0.265c0.126-0.022,0.241,0.057,0.264,0.179l14.943,77.226c0.024,0.122-0.056,0.24-0.178,0.265
					C254.35,349.597,254.336,349.598,254.321,349.598z"/>
			</g>
			<g>
				<path style="fill:#FFFFFF;" d="M263.218,351.228l-3.662-18.923c-0.024-0.122,0.056-0.24,0.178-0.265
					c0.119-0.025,0.241,0.057,0.264,0.179l3.662,18.923L263.218,351.228z"/>
			</g>
		</g>
	</g>
</g>
<g id="Street_lamp">
	<g>
		<rect x="401.307" y="170.747" style="fill:#263238;" width="5.028" height="242.93"/>
		<rect x="401.31" y="170.75" style="opacity:0.3;fill:#FFFFFF;" width="5.03" height="242.93"/>
		<polygon style="opacity:0.2;" points="406.34,170.75 406.34,203.98 401.31,198.95 401.31,170.75 		"/>
		<polygon style="fill:#263238;" points="407.372,144.67 389.966,144.67 393.968,175.264 405.371,175.264 412.252,175.264 
			417.131,144.67 		"/>
		<polygon style="opacity:0.5;fill:#FFFFFF;" points="407.372,144.67 389.966,144.67 393.968,175.264 405.371,175.264 
			412.252,175.264 417.131,144.67 		"/>
		<polygon style="opacity:0.2;fill:#FFFFFF;" points="407.731,173.264 409.255,146.67 414.787,146.67 410.545,173.264 		"/>
		<polygon style="opacity:0.5;fill:#FFFFFF;" points="405.371,175.264 393.968,175.264 389.966,144.67 407.372,144.67 		"/>
		<polygon style="opacity:0.5;fill:#FFFFFF;" points="395.724,173.264 392.245,146.67 405.237,146.67 403.498,173.264 		"/>
		<polygon style="fill:#263238;" points="383.151,146.171 404.711,126.852 424.491,146.171 		"/>
		<polygon style="opacity:0.3;fill:#FFFFFF;" points="383.151,146.171 404.711,126.852 424.491,146.171 		"/>
		<polygon style="opacity:0.2;fill:#FFFFFF;" points="404.711,126.852 409.901,146.171 383.151,146.171 		"/>
		<polygon style="fill:#263238;" points="380.824,142.758 427.703,142.758 425.527,146.171 382.209,146.171 		"/>
		<polygon style="opacity:0.2;fill:#FFFFFF;" points="427.7,142.76 425.53,146.17 382.21,146.17 380.82,142.76 		"/>
		<polygon style="opacity:0.2;fill:#FFFFFF;" points="409.69,142.76 408.19,146.17 382.21,146.17 380.82,142.76 		"/>
	</g>
</g>
<g id="Trash_bin">
	<g>
		<path style="fill:#407BFF;" d="M349.527,338.302l47.69,0l-1.16-6.88c-0.49-2.88-2.98-4.99-5.9-4.99l-33.58,0
			c-2.92,0-5.41,2.11-5.89,4.99L349.527,338.302z"/>
		<path style="opacity:0.2;fill:#FFFFFF;" d="M349.527,338.302l36.69,0l-1.16-6.88c-0.49-2.88-2.98-4.99-5.9-4.99l-22.58,0
			c-2.92,0-5.41,2.11-5.89,4.99L349.527,338.302z"/>
		<path style="opacity:0.2;fill:#FFFFFF;" d="M349.527,338.302l47.69,0l-1.16-6.88c-0.49-2.88-2.98-4.99-5.9-4.99l-33.58,0
			c-2.92,0-5.41,2.11-5.89,4.99L349.527,338.302z"/>
		<path style="opacity:0.2;enable-background:new    ;" d="M356.359,330.345l21.73,0c0.806,0,1.5,0.57,1.657,1.361l0.731,3.696
			l-26.506,0l0.731-3.696C354.859,330.915,355.553,330.345,356.359,330.345z"/>
		<polygon style="fill:#407BFF;" points="349.057,338.402 354.057,413.011 393.677,413.012 397.677,338.402 		"/>
		<polygon style="opacity:0.2;fill:#FFFFFF;" points="349.057,338.402 354.057,413.011 382.677,413.012 386.677,338.402 		"/>
		<polygon style="opacity:0.2;fill:#FFFFFF;" points="349.057,338.402 354.057,413.011 393.677,413.012 397.677,338.402 		"/>
		<path style="fill:#407BFF;" d="M347.737,336.682v4.66c0,0.71,0.57,1.28,1.28,1.28l48.7,0c0.71,0,1.28-0.57,1.28-1.28v-4.66
			c0-0.71-0.57-1.28-1.28-1.28l-48.7,0C348.307,335.402,347.737,335.972,347.737,336.682z"/>
		<path style="opacity:0.2;fill:#FFFFFF;" d="M347.737,336.682v4.66c0,0.71,0.57,1.28,1.28,1.28l37.7,0c0.71,0,1.28-0.57,1.28-1.28
			v-4.66c0-0.71-0.57-1.28-1.28-1.28l-37.7,0C348.307,335.402,347.737,335.972,347.737,336.682z"/>
	</g>
</g>
<g id="Bench">
	<g>
		<polygon style="fill:#263238;" points="238.36,413.677 242.481,413.677 234.056,366.125 229.935,366.125 		"/>
		<polygon style="fill:#263238;" points="110.301,413.677 114.422,413.677 105.997,366.125 101.876,366.125 		"/>
		<polygon style="opacity:0.3;fill:#FFFFFF;" points="238.36,413.677 242.481,413.677 234.056,366.125 229.935,366.125 		"/>
		<polygon style="opacity:0.3;fill:#FFFFFF;" points="110.301,413.677 114.422,413.677 105.997,366.125 101.876,366.125 		"/>
		
			<rect x="74.45" y="389.901" transform="matrix(-1 -1.224647e-16 1.224647e-16 -1 310.6578 783.9754)" style="fill:#263238;" width="161.759" height="4.174"/>
		
			<rect x="74.45" y="389.901" transform="matrix(-1 -1.224647e-16 1.224647e-16 -1 310.6578 783.9754)" style="opacity:0.5;fill:#FFFFFF;" width="161.759" height="4.174"/>
		<polygon style="fill:#263238;" points="200.357,413.677 196.235,413.677 204.66,366.125 208.782,366.125 		"/>
		<polygon style="fill:#263238;" points="72.298,413.677 68.176,413.677 76.601,366.125 80.723,366.125 		"/>
		<polygon style="opacity:0.3;fill:#FFFFFF;" points="200.357,413.677 196.235,413.677 204.66,366.125 208.782,366.125 		"/>
		<polygon style="opacity:0.3;fill:#FFFFFF;" points="72.298,413.677 68.176,413.677 76.601,366.125 80.723,366.125 		"/>
		<polygon style="fill:#263238;" points="109.67,364.277 113.771,364.277 120.636,326.114 116.535,326.114 		"/>
		<polygon style="opacity:0.3;fill:#FFFFFF;" points="109.67,364.277 113.771,364.277 120.636,326.114 116.535,326.114 		"/>
		<polygon style="fill:#263238;" points="228.574,364.277 232.675,364.277 239.539,326.114 235.438,326.114 		"/>
		<polygon style="fill:#263238;" points="169.122,364.277 173.223,364.277 180.087,326.114 175.986,326.114 		"/>
		<polygon style="opacity:0.3;fill:#FFFFFF;" points="228.574,364.277 232.675,364.277 239.539,326.114 235.438,326.114 		"/>
		<polygon style="opacity:0.3;fill:#FFFFFF;" points="169.122,364.277 173.223,364.277 180.087,326.114 175.986,326.114 		"/>
		<polygon style="fill:#263238;" points="102.587,328.72 247.755,328.72 249.04,321.578 103.871,321.578 		"/>
		<polygon style="fill:#263238;" points="100.263,341.64 245.431,341.64 246.716,334.498 101.547,334.498 		"/>
		<polygon style="fill:#263238;" points="97.939,354.561 243.107,354.561 244.392,347.418 99.223,347.418 		"/>
		
			<rect x="67.316" y="363.152" transform="matrix(-1 -1.224647e-16 1.224647e-16 -1 309.3559 731.2453)" style="fill:#263238;" width="174.725" height="4.941"/>
		<polygon style="opacity:0.5;fill:#FFFFFF;" points="102.587,328.72 247.755,328.72 249.04,321.578 103.871,321.578 		"/>
		<polygon style="opacity:0.5;fill:#FFFFFF;" points="100.263,341.64 245.431,341.64 246.716,334.498 101.547,334.498 		"/>
		<polygon style="opacity:0.5;fill:#FFFFFF;" points="97.939,354.561 243.107,354.561 244.392,347.418 99.223,347.418 		"/>
		
			<rect x="67.316" y="363.152" transform="matrix(-1 -1.224647e-16 1.224647e-16 -1 309.3559 731.2453)" style="opacity:0.5;fill:#FFFFFF;" width="174.725" height="4.941"/>
		
			<rect x="67.316" y="363.152" transform="matrix(-1 -1.224647e-16 1.224647e-16 -1 275.6562 731.2453)" style="opacity:0.2;fill:#FFFFFF;" width="141.025" height="4.941"/>
	</g>
</g>
<g id="Character">
	<g>
		<g>
			<path style="fill:#EEC1BB;" d="M241.964,220.958c0.015,0.027-0.076,0.161-0.167,0.481c-0.089,0.276-0.202,0.644-0.298,1.033
				c-0.198,0.786-0.371,1.688-0.526,2.617c-0.296,1.871-0.584,3.862-0.848,5.891c-0.291,2.029-0.558,4.107-0.929,6.233
				c-0.396,2.144-0.76,4.288-1.588,6.73l-0.352,0.946c-0.145,0.339-0.281,0.664-0.452,1.016c-0.197,0.375-0.348,0.703-0.626,1.124
				c-0.135,0.206-0.241,0.385-0.409,0.606c-0.175,0.225-0.356,0.445-0.542,0.66c-0.452,0.489-1.463,1.524-3.289,1.825
				c-0.883,0.137-1.816,0.008-2.471-0.233c-0.337-0.117-0.655-0.264-0.876-0.395l-0.363-0.218l-0.279-0.201
				c-0.715-0.552-1.088-1.022-1.386-1.425c-0.287-0.401-0.511-0.772-0.688-1.105c-0.708-1.342-1.071-2.445-1.43-3.558
				c-0.343-1.104-0.601-2.18-0.846-3.244c-0.939-4.258-1.443-8.402-1.674-12.667l4.805-0.934c1.405,3.811,2.77,7.705,4.227,11.335
				c0.362,0.905,0.752,1.786,1.139,2.609c0.375,0.81,0.806,1.618,1.147,2.052c0.083,0.112,0.149,0.167,0.174,0.176
				c0.017,0.004-0.003-0.085-0.304-0.329l-0.123-0.087c-0.062-0.045-0.127-0.086-0.194-0.124c-0.112-0.061-0.309-0.163-0.525-0.238
				c-0.413-0.151-1.083-0.261-1.712-0.156c-1.312,0.211-1.895,0.904-2.019,1.004c-0.027,0.012-0.049,0.03-0.063,0.053
				c-0.012,0.017,0.001-0.035,0.005-0.046c0.009-0.007,0.054-0.159,0.092-0.242l0.136-0.413l0.141-0.518
				c0.376-1.504,0.658-3.447,0.874-5.374l0.62-6.033c0.229-2.062,0.431-4.164,0.809-6.36c0.188-1.103,0.398-2.227,0.706-3.439
				c0.335-1.231,0.658-2.484,1.703-4.252L241.964,220.958z"/>
		</g>
		<g>
			<path style="fill:#407BFF;" d="M239.305,210.5c-2.848,0.81-6.761,2.559-10.365,18.36l9.758,7.769L239.305,210.5z"/>
			<path style="opacity:0.7;fill:#FFFFFF;" d="M239.302,210.503l-0.6,26.13l-1.18-0.94l-6.3-5.02l-2.28-1.81
				C232.542,213.063,236.452,211.313,239.302,210.503z"/>
			<path style="opacity:0.1;" d="M237.522,235.693l-6.3-5.02c1.74-5.34,5.04-9.71,5.04-9.71
				C238.302,225.842,238.382,231.372,237.522,235.693z"/>
		</g>
		<path style="fill:#EEC1BB;" d="M226.567,227.134c0,0,1.846-6.33,1.451-7.912c-0.396-1.582-3.692-6.164-3.692-6.164l-5.802,4.054
			c0,0,0.743,8.931,3.824,11.747L226.567,227.134z"/>
		<path style="fill:#407BFF;" d="M259.362,265.802l-3.08,21.99l-0.38,2.71l-6.91,26.24l-6.13,23.27
			c-1.38,20.18-12.85,69.62-12.85,69.62l-10.29-0.59c0,0,6.79-62.58,7.66-70.47c0.49-4.39,8.53-58.11,8.53-58.11l0.314-17.196
			L259.362,265.802z"/>
		<path style="opacity:0.2;" d="M256.282,287.793l-0.38,2.71l-6.91,26.24c-3.568-9.564,1.772-25.388,1.772-25.388
			C253.374,291.294,253.952,287.253,256.282,287.793z"/>
		<path style="fill:#263238;" d="M249.195,415.741c0,0,10.367-3.056,11.126-7.138c0.074-0.401,0.41-0.667,0.837-0.595l7.529,1.259
			c0.352,0.059,0.659,0.328,0.767,0.672l2.297,7.326l-2.13,0.067l-0.788-1.051l-0.893,1.103
			c-11.558,0.361-16.556,0.394-18.867-0.255C248.711,416.117,249.195,415.741,249.195,415.741z"/>
		<path style="fill:#263238;" d="M209.17,415.741c0,0,10.367-3.056,11.126-7.138c0.074-0.401,0.41-0.667,0.837-0.595l7.529,1.259
			c0.351,0.059,0.659,0.328,0.767,0.672l2.297,7.326l-2.13,0.067l-0.788-1.051l-0.893,1.103
			c-11.558,0.361-16.556,0.394-18.867-0.255C208.686,416.117,209.17,415.741,209.17,415.741z"/>
		<path style="fill:#407BFF;" d="M270.149,261.585c0,0,2.008,17.276,2.034,24.262c0.04,10.647-3.023,48.188-3.023,48.188
			s1.336,58.447,0.191,75.555h-9.432l-5.928-62.069l-3.425-51.221l-7.111-32.95L270.149,261.585z"/>
		<g>
			<path style="fill:#EEC1BB;" d="M280.632,221.144c1.149,5.176,2.18,10.356,3.116,15.574c0.473,2.607,0.919,5.222,1.335,7.851
				c0.429,2.635,0.812,5.254,1.138,8.014c0.33,3.072,0.271,5.742,0.213,8.467c-0.064,2.705-0.232,5.38-0.413,8.043
				c-0.391,5.328-0.971,10.603-1.757,15.89l-4.889-0.237c-0.304-5.254-0.554-10.528-0.795-15.751
				c-0.109-2.613-0.273-5.215-0.427-7.785c-0.166-2.547-0.385-5.164-0.765-7.323c-0.967-4.958-2.16-10.153-3.244-15.27
				c-1.113-5.134-2.185-10.295-3.185-15.45L280.632,221.144z"/>
		</g>
		<g>
			<path style="fill:#407BFF;" d="M270.712,266.233c0.043-3.774-0.078-10.155,0.224-17.956c0.168-4.373,0.471-9.195,1.017-14.248
				c0.75-6.907,1.932-14.248,3.842-21.459c0,0-4.115-1.118-8.784-1.858c-0.917-0.144-1.86-0.276-2.793-0.383
				c-4.435-0.504-10.866-1.069-14.804-0.97c-0.609,0.015-1.208,0.038-1.797,0.078c-4.472,0.279-8.313,1.063-8.313,1.063
				s-8.698,18.984-3.582,55.734H270.712z"/>
			<path style="opacity:0.7;fill:#FFFFFF;" d="M275.8,212.57c-1.2,4.53-2.12,9.11-2.82,13.6c-0.41,2.66-0.75,5.29-1.03,7.86
				c-0.3,2.81-0.53,5.54-0.69,8.17c-0.14,2.1-0.24,4.13-0.32,6.08c-0.31,7.8-0.19,14.18-0.23,17.95h-34.99
				c-5.11-36.75,3.58-55.73,3.58-55.73s3.85-0.78,8.32-1.06c0.59-0.04,1.19-0.07,1.79-0.08c3.94-0.1,10.37,0.46,14.81,0.97
				c0.93,0.11,1.87,0.24,2.79,0.38C271.68,211.45,275.8,212.57,275.8,212.57z"/>
		</g>
		<path style="fill:#263238;" d="M251.083,216.224c-1.009,2.551-4.76,26.198-4.982,34.376l2.207,4.31l2.814-4.012
			c-0.292-11.17,0.263-31.273,1.349-34.537L251.083,216.224z"/>
		<polygon style="fill:#263238;" points="251.041,218.326 250.029,214.983 252.445,214.106 254.145,215.299 		"/>
		<path style="fill:#EEC1BB;" d="M263.679,193.58c-1.199,4.697-2.617,13.355,0.538,16.749c-2.583,2.353-6.321,4.254-11.665,3.787
			c-4.093-0.358-4.139-3.233-3.137-4.759c5.382-0.918,5.464-4.864,4.745-8.623L263.679,193.58z"/>
		<g>
			<path style="fill:#FFFFFF;" d="M252.445,214.106c0,0,1.42,2.085,3.109,4.167c2.794-1.231,9.377-4.591,9.391-8.153
				c-0.275-1.058-1.596-1.786-1.596-1.786S259.088,211.823,252.445,214.106z"/>
		</g>
		<g>
			<path style="fill:#FFFFFF;" d="M252.445,214.106c0,0-2.238,1.561-3.788,3.643c-1.839-1.497-0.25-8.007,0.536-8.681
				c1.642-0.875,2.697-0.683,2.697-0.683S249.41,213.11,252.445,214.106z"/>
		</g>
		<path style="opacity:0.2;" d="M259.798,196.499l-5.634,4.231c0.173,0.89,0.296,1.788,0.31,2.655c2.045-0.16,4.957-2.202,5.29-4.31
			C259.931,198.024,259.943,197.004,259.798,196.499z"/>
		<g>
			<path style="fill:#263238;" d="M249.742,179.04c-1.501,2.161-2.621,7.212,1.225,6.655
				C254.812,185.139,252.321,175.326,249.742,179.04z"/>
			<path style="fill:#EEC1BB;" d="M265.997,187.658c-1.551,6.273-2.14,10.026-5.941,12.666c-5.718,3.97-13.019-0.451-13.374-7.08
				c-0.32-5.967,2.271-15.223,8.944-16.549C262.202,175.389,267.548,181.386,265.997,187.658z"/>
			<path style="fill:#263238;" d="M256.047,187.573c-0.095,0.517-0.445,0.883-0.783,0.818c-0.338-0.065-0.535-0.537-0.44-1.054
				c0.094-0.517,0.445-0.883,0.783-0.818C255.944,186.585,256.142,187.056,256.047,187.573z"/>
			<path style="fill:#263238;" d="M250.207,186.445c-0.094,0.517-0.445,0.883-0.783,0.818c-0.338-0.065-0.535-0.537-0.44-1.054
				c0.095-0.517,0.445-0.883,0.783-0.818C250.104,185.456,250.301,185.928,250.207,186.445z"/>
			<path style="fill:#D4827D;" d="M252.016,187.061c0,0-1.729,2.638-3.29,3.78c0.754,0.982,2.38,0.89,2.38,0.89L252.016,187.061z"/>
			<path style="fill:#263238;" d="M253.513,194.243c-0.217-0.012-0.444-0.04-0.681-0.086c-0.084-0.016-0.139-0.097-0.124-0.181
				c0.015-0.085,0.098-0.139,0.179-0.122c2.27,0.436,3.617-0.942,3.63-0.956c0.059-0.061,0.156-0.062,0.218-0.004
				c0.062,0.059,0.065,0.157,0.006,0.219C256.689,193.169,255.527,194.357,253.513,194.243z"/>
			<path style="fill:#263238;" d="M258.193,186.034c-0.108-0.006-0.209-0.068-0.261-0.173c-0.619-1.237-1.747-1.388-1.758-1.389
				c-0.169-0.021-0.291-0.175-0.273-0.344c0.019-0.169,0.172-0.29,0.341-0.269c0.06,0.007,1.473,0.195,2.241,1.73
				c0.077,0.153,0.016,0.339-0.137,0.414C258.297,186.028,258.244,186.037,258.193,186.034z"/>
			<path style="fill:#263238;" d="M248.058,183.949c-0.059-0.003-0.117-0.023-0.168-0.061c-0.137-0.102-0.167-0.296-0.066-0.433
				c1.011-1.371,2.429-1.283,2.493-1.288c0.17,0.011,0.3,0.158,0.291,0.329c-0.01,0.17-0.154,0.298-0.323,0.288
				c-0.059-0.006-1.152-0.059-1.964,1.041C248.258,183.912,248.157,183.955,248.058,183.949z"/>
			<path style="fill:#263238;" d="M250.372,180.119c0,0-0.976-0.438-0.372-3.339c0.604-2.901,3.306-4.525,8.516-4.01
				c5.21,0.515,7.752,6.713,7.752,6.713s2.271,2.417,2.931,4.373c0.659,1.956-3.758,8.953-3.758,8.953l-3.165,0.04
				c0,0-1.385-7.533-0.066-10.088c1.319-2.554-4.708-3.741-7.464-2.357C251.989,181.791,250.372,180.119,250.372,180.119z"/>
			<path style="fill:#EEC1BB;" d="M267.478,193.395c-0.806,1.54-2.25,2.557-3.624,2.952c-2.065,0.594-3.132-1.26-2.587-3.225
				c0.491-1.77,2.157-4.211,4.243-3.941C267.567,189.448,268.399,191.634,267.478,193.395z"/>
		</g>
		<g>
			<rect x="235.884" y="266.932" style="fill:#263238;" width="2.864" height="3.347"/>
			<rect x="259.118" y="266.932" style="fill:#263238;" width="12.02" height="3.347"/>
			<rect x="240.145" y="266.932" style="fill:#263238;" width="17.475" height="3.347"/>
			<rect x="245.893" y="266.973" style="fill:#E0E0E0;" width="5.979" height="3.264"/>
		</g>
		<g>
			<path style="fill:none;stroke:#263238;stroke-width:2;stroke-miterlimit:10;" d="M271.599,297.387c0,0,3.718-6.672,10.599-6.672
				c6.313,0,9.577,6.079,9.577,6.079"/>
			<path style="fill:#263238;" d="M302.557,298.675v29.79c0,1.58-1.29,2.86-2.87,2.86h-37.19c-1.58,0-2.87-1.28-2.87-2.86v-29.79
				c0-1.59,1.29-2.87,2.87-2.87h37.19C301.267,295.805,302.557,297.085,302.557,298.675z"/>
			<path style="opacity:0.1;fill:#FFFFFF;" d="M302.557,298.675v29.79c0,1.58-1.29,2.86-2.87,2.86h-36.02
				c1.58,0,2.87-1.28,2.87-2.86v-29.79c0-1.59-1.29-2.87-2.87-2.87h36.02C301.267,295.805,302.557,297.085,302.557,298.675z"/>
			<path style="fill:#263238;" d="M265.787,298.763v14.563c0,0.939,0.761,1.7,1.7,1.7h34.37c0.939,0,1.7-0.761,1.7-1.7v-14.651
				c0-1.585-1.285-2.87-2.87-2.87h-37.19C264.846,296.154,265.787,297.371,265.787,298.763z"/>
			<path style="opacity:0.2;fill:#FFFFFF;" d="M265.787,298.763v14.563c0,0.939,0.761,1.7,1.7,1.7h34.37c0.939,0,1.7-0.761,1.7-1.7
				v-14.651c0-1.585-1.285-2.87-2.87-2.87h-37.19C264.846,296.154,265.787,297.371,265.787,298.763z"/>
			<path style="fill:#263238;" d="M287.645,321.839L287.645,321.839c-0.874,0-1.582-0.708-1.582-1.582v-7.371h3.165v7.371
				C289.228,321.13,288.519,321.839,287.645,321.839z"/>
			<path style="fill:#FFFFFF;" d="M289.233,319.013h-3.175c-0.107,0-0.193-0.086-0.193-0.193v-2.267
				c0-0.106,0.086-0.193,0.193-0.193h3.175c0.107,0,0.193,0.086,0.193,0.193v2.267C289.426,318.927,289.339,319.013,289.233,319.013
				z"/>
		</g>
		<g>
			<path style="fill:#EEC1BB;" d="M284.347,283.596l2.415,6.153l-8.348-0.529c0,0-0.886-5.685,2.096-6.47L284.347,283.596z"/>
			<polygon style="fill:#EEC1BB;" points="285.221,294.945 278.34,294.187 278.414,289.22 286.763,289.75 			"/>
		</g>
		<g>
			<g>
				<path style="fill:#263238;" d="M259.765,116.81c-0.228,2.731-1.129,5.236-1.969,7.761l-2.516,7.578l-5.032,15.156l-10.08,30.307
					l-10.166,30.279l-5.136,15.122l-0.643,1.89l-0.322,0.945l-0.164,0.479c-0.079,0.192-0.143,0.39-0.24,0.574
					c-0.717,1.511-2.182,2.613-3.816,2.905c-0.814,0.153-1.666,0.097-2.455-0.137c-0.395-0.115-0.652-0.217-0.985-0.326
					c-0.367-0.127-0.761-0.301-1.109-0.514c-1.419-0.861-2.364-2.413-2.495-4.057c-0.045-0.551,0.365-1.033,0.915-1.078
					c0.547-0.045,1.027,0.362,1.077,0.906c0.092,1.015,0.69,1.971,1.561,2.486c0.222,0.131,0.44,0.225,0.702,0.315
					c0.3,0.095,0.667,0.228,0.913,0.293c0.486,0.137,0.999,0.168,1.493,0.07c0.993-0.189,1.871-0.867,2.289-1.777
					c0.059-0.11,0.091-0.233,0.142-0.348l0.156-0.467l0.313-0.948l0.626-1.895l5.017-15.161l10.139-30.288l10.225-30.259
					l5.12-15.127l2.56-7.563c0.852-2.521,1.643-5.064,3.107-7.38c0.124-0.196,0.383-0.254,0.578-0.13
					C259.708,116.507,259.778,116.66,259.765,116.81z"/>
			</g>
			<g>
				<path style="fill:#407BFF;" d="M258.496,119.232c0,0-47.737-9.05-91.979,14.227c0,0,6.677-3.325,21.512,7.212
					c0,0,18.486-0.757,32.579,10.922l0,0c0,0,0,0,0,0c0,0,16.812,1.464,25.564,4.398c8.752,2.934,23.049,11.9,23.049,11.9
					c18.285-0.824,32.579,10.922,32.579,10.922c18.188,0.534,21.512,7.212,21.512,7.212
					C302.041,140.784,258.496,119.232,258.496,119.232z"/>
				<path style="opacity:0.1;" d="M301.8,178.813c0,0-14.289-11.741-32.578-10.922c6.844-26.298-9.999-47.755-10.703-48.645
					C259.524,119.773,291.942,137.18,301.8,178.813z"/>
				<path style="opacity:0.1;" d="M258.462,119.227c-1.098,0.286-27.461,7.258-37.851,32.367
					c-14.099-11.677-32.578-10.922-32.578-10.922C220.984,113.392,257.343,119.042,258.462,119.227z"/>
				<path style="opacity:0.2;" d="M323.275,185.949c-0.438-0.738-4.419-6.639-21.475-7.136
					c-9.475-40.038-39.815-57.666-43.028-59.44C262.525,121.296,302.994,142.879,323.275,185.949z"/>
				<path style="opacity:0.2;" d="M258.184,119.176c-3.632-0.522-38.467-4.743-70.151,21.497c-13.91-9.884-20.643-7.574-21.437-7.25
					C208.739,111.28,254.03,118.448,258.184,119.176z"/>
			</g>
		</g>
		<path style="opacity:0.1;" d="M272.98,226.17c-0.41,2.66-0.75,5.29-1.03,7.86c-0.3,2.81-0.53,5.54-0.69,8.17
			c-5.72-8.31-1.9-20.05-1.9-20.05S270.86,223.75,272.98,226.17z"/>
		<g>
			<path style="fill:#407BFF;" d="M277.665,213.275c5.549,2.879,9.709,21.052,9.709,21.052l-15.47,4.032
				c0,0-3.018-7.915-4.277-15.898C266.256,213.767,270.944,209.788,277.665,213.275z"/>
			<path style="opacity:0.7;fill:#FFFFFF;" d="M277.665,213.275c5.549,2.879,9.709,21.052,9.709,21.052l-15.47,4.032
				c0,0-3.018-7.915-4.277-15.898C266.256,213.767,270.944,209.788,277.665,213.275z"/>
		</g>
	</g>
</g>
</svg>
