<?xml version="1.0" encoding="utf-8"?>
<!-- Generator: Adobe Illustrator 27.5.0, SVG Export Plug-In . SVG Version: 6.00 Build 0)  -->
<svg version="1.1" id="BACKGROUND2" xmlns="http://www.w3.org/2000/svg" xmlns:xlink="http://www.w3.org/1999/xlink" x="0px"
	 y="0px" viewBox="0 0 750 500" style="enable-background:new 0 0 750 500;" xml:space="preserve">
<g>
	<g>
		<rect x="-0.17" y="-0.108" style="fill:#87D7E7;" width="750.341" height="499.999"/>
		<path style="opacity:0.2;fill:#DCFAFF;" d="M750-0.504H-0.17v72.143c48.292,12.233,106.283,16.633,151.926,6.412
			c68.293-15.296,139.386-46.074,212.094-34.513c61.027,9.703,110.349,47.65,170.815,57.55
			C597.7,111.41,665.223,83.866,729.199,82.2c6.752-0.175,13.725,0.135,20.801,0.652V-0.504z"/>
		<g>
			<defs>
				<rect id="SVGID_1_" x="-0.17" y="-0.108" width="750.341" height="499.999"/>
			</defs>
			<clipPath id="SVGID_00000070823609061712665410000009931608399238072705_">
				<use xlink:href="#SVGID_1_"  style="overflow:visible;"/>
			</clipPath>
			<g style="clip-path:url(#SVGID_00000070823609061712665410000009931608399238072705_);">
				<path style="fill:#9DE4F8;" d="M458.794,323.072c0.845-11.26,1.291-22.814,1.291-34.602
					c0-116.227-63.932-210.445-95.406-210.445c-35.652,0-95.403,94.218-95.403,210.445c0,11.787,0.446,23.342,1.291,34.602H458.794z
					"/>
				<g>
					<polygon style="fill:#87D7E7;" points="350.233,258.883 358.385,106.309 371.07,250.705 					"/>
					<polygon style="fill:#87D7E7;" points="356.452,201.71 322.291,153.365 356.452,215.39 					"/>
					<polygon style="fill:#87D7E7;" points="361.723,184.377 388.034,126.224 361.723,198.317 					"/>
					<polygon style="fill:#87D7E7;" points="353.611,234.821 313.706,198.317 353.611,246.846 					"/>
					<path style="fill:#87D7E7;" d="M361.723,234.821c0,0,43.714-62.797,41.781-61.1c-1.934,1.696-38.027,70.424-38.027,70.424
						L361.723,234.821z"/>
				</g>
				<path style="fill:#9DE4F8;" d="M193.968,289.18c0.844-11.26,1.291-22.814,1.291-34.603c0-116.225-63.932-210.443-95.406-210.443
					c-35.652,0-95.403,94.218-95.403,210.443c0,11.789,0.446,23.344,1.291,34.603H193.968z"/>
				<path style="fill:#C7F4FF;" d="M286.649,282.965c0.677-9,1.033-18.236,1.033-27.662c0-92.9-58.662-168.21-76.261-168.21
					c-20.76,0-76.26,75.311-76.26,168.21c0,9.426,0.358,18.662,1.034,27.662H286.649z"/>
				<path style="fill:#C7F4FF;" d="M499.401,277.893c0.674-9,1.031-18.236,1.031-27.658c0-92.902-58.663-168.213-76.26-168.213
					c-20.761,0-76.259,75.311-76.259,168.213c0,9.422,0.356,18.658,1.031,27.658H499.401z"/>
				<path style="fill:#9DE4F8;" d="M743.805,254.59c0.473-6.3,0.723-12.767,0.723-19.363c0-65.045-41.072-117.773-53.393-117.773
					c-14.533,0-53.39,52.728-53.39,117.773c0,6.596,0.249,13.063,0.722,19.363H743.805z"/>
				<path style="fill:#C7F4FF;" d="M655.215,274.035c0.677-9.002,1.032-18.238,1.032-27.66c0-92.902-34.143-168.213-76.261-168.213
					c-42.116,0-76.259,75.311-76.259,168.213c0,9.421,0.357,18.658,1.034,27.66H655.215z"/>
				<g>
					<polygon style="fill:#87D7E7;" points="81.896,216.676 90.881,83.659 104.86,209.547 					"/>
					<polygon style="fill:#87D7E7;" points="88.75,166.831 51.101,124.684 88.75,178.758 					"/>
					<polygon style="fill:#87D7E7;" points="94.559,151.721 123.557,101.021 94.559,163.874 					"/>
					<polygon style="fill:#87D7E7;" points="85.62,195.698 41.64,163.874 85.62,206.182 					"/>
					<path style="fill:#87D7E7;" d="M94.559,195.698c0,0,48.177-54.747,46.047-53.268c-2.132,1.479-41.91,61.398-41.91,61.398
						L94.559,195.698z"/>
				</g>
				<g>
					<polygon style="fill:#87D7E7;" points="412.179,261.522 421.163,128.505 435.143,254.393 					"/>
					<polygon style="fill:#87D7E7;" points="419.032,211.677 381.385,169.529 419.032,223.604 					"/>
					<polygon style="fill:#87D7E7;" points="424.841,196.567 453.839,145.867 424.841,208.72 					"/>
					<polygon style="fill:#87D7E7;" points="415.902,240.544 371.923,208.72 415.902,251.027 					"/>
					<path style="fill:#87D7E7;" d="M424.841,240.544c0,0,48.177-54.747,46.047-53.268c-2.132,1.479-41.909,61.398-41.909,61.398
						L424.841,240.544z"/>
				</g>
				<g>
					<polygon style="fill:#87D7E7;" points="199.969,258.883 208.12,106.309 220.806,250.705 					"/>
					<polygon style="fill:#87D7E7;" points="206.188,201.71 172.026,153.365 206.188,215.39 					"/>
					<polygon style="fill:#87D7E7;" points="211.457,184.377 237.769,126.224 211.457,198.317 					"/>
					<polygon style="fill:#87D7E7;" points="203.347,234.821 163.441,198.317 203.347,246.846 					"/>
					<path style="fill:#87D7E7;" d="M211.457,234.821c0,0,43.714-62.797,41.782-61.1c-1.935,1.696-38.028,70.424-38.028,70.424
						L211.457,234.821z"/>
				</g>
				<g>
					<polygon style="fill:#87D7E7;" points="683.423,252.338 689.501,138.557 698.962,246.241 					"/>
					<polygon style="fill:#87D7E7;" points="688.062,209.702 662.585,173.648 688.062,219.904 					"/>
					<polygon style="fill:#87D7E7;" points="691.99,196.776 711.612,153.408 691.99,207.172 					"/>
					<polygon style="fill:#87D7E7;" points="685.942,234.394 656.183,207.172 685.942,243.362 					"/>
					<path style="fill:#9DE4F8;" d="M691.99,234.394c0,0,32.601-46.83,31.159-45.565c-1.442,1.265-28.359,52.519-28.359,52.519
						L691.99,234.394z"/>
				</g>
				<g>
					<polygon style="fill:#9DE4F8;" points="572.4,258.883 580.552,106.309 593.238,250.705 					"/>
					<polygon style="fill:#9DE4F8;" points="578.618,201.71 544.458,153.365 578.618,215.39 					"/>
					<polygon style="fill:#9DE4F8;" points="583.889,184.377 610.2,126.224 583.889,198.317 					"/>
					<polygon style="fill:#9DE4F8;" points="575.778,234.821 535.873,198.317 575.778,246.846 					"/>
					<path style="fill:#9DE4F8;" d="M583.889,234.821c0,0,43.714-62.797,41.782-61.1c-1.935,1.696-38.027,70.424-38.027,70.424
						L583.889,234.821z"/>
				</g>
				<path style="fill:#C7F4FF;" d="M104.86,104.262c0.51-2.336,8.936-40.392,17.079-28.135c2.456,3.696-3.928,11.759-5.696,14.846
					C114.441,94.118,104.86,104.262,104.86,104.262z"/>
				<path style="fill:#C7F4FF;" d="M339.244,148.77c-1.176-2.082-20.252-36.067-6.015-32.362c4.293,1.117,4.906,11.385,5.646,14.865
					C339.627,134.819,339.244,148.77,339.244,148.77z"/>
				<path style="fill:#87D7E7;" d="M677.071,164.506c-0.658-1.165-11.336-20.188-3.367-18.114c2.403,0.626,2.747,6.373,3.16,8.32
					C677.285,156.698,677.071,164.506,677.071,164.506z"/>
				<path style="fill:#87D7E7;" d="M697.977,150.77c-0.183-1.326-3.118-22.944,3.529-18.083c2.005,1.466,0.212,6.937-0.12,8.9
					C701.048,143.588,697.977,150.77,697.977,150.77z"/>
				<path style="fill:#87D7E7;" d="M681.593,150.77c-0.184-1.326-3.118-22.944,3.529-18.083c2.004,1.466,0.211,6.937-0.121,8.9
					C684.663,143.588,681.593,150.77,681.593,150.77z"/>
				<path style="fill:#C7F4FF;" d="M346.346,114.915c-0.286-1.203-4.899-20.821,1.646-16.94c1.972,1.17,0.807,6.359,0.677,8.194
					C348.533,108.04,346.346,114.915,346.346,114.915z"/>
				<path style="fill:#C7F4FF;" d="M370.602,127.751c-0.286-1.203-4.898-20.821,1.646-16.94c1.973,1.17,0.809,6.359,0.678,8.194
					C372.789,120.876,370.602,127.751,370.602,127.751z"/>
				<path style="fill:#9DE4F8;" d="M217.981,133.922c0.409-1.879,7.186-32.482,13.733-22.625c1.976,2.972-3.159,9.457-4.58,11.938
					C225.686,125.764,217.981,133.922,217.981,133.922z"/>
				<path style="fill:#9DE4F8;" d="M200.255,149.127c-1.275-1.439-21.993-24.951-10.174-24.435c3.563,0.155,5.774,8.127,6.94,10.738
					C198.21,138.092,200.255,149.127,200.255,149.127z"/>
				<path style="fill:#9DE4F8;" d="M403.714,165.282c-1.687-1.902-29.072-32.982-13.449-32.3c4.711,0.205,7.633,10.742,9.175,14.194
					C401.009,150.695,403.714,165.282,403.714,165.282z"/>
				<path style="fill:#9DE4F8;" d="M408.5,143.266c-0.629-2-10.764-34.618,0.76-28.837c3.476,1.743,2.125,10.656,2.122,13.773
					C411.379,131.379,408.5,143.266,408.5,143.266z"/>
				<path style="fill:#9DE4F8;" d="M435.979,157.442c-0.068-2.096-1.074-36.238,8.474-27.573c2.88,2.612-0.814,10.835-1.653,13.837
					C441.943,146.765,435.979,157.442,435.979,157.442z"/>
				<path style="fill:#9DE4F8;" d="M420.096,124.794c-0.07-2.096-1.074-36.238,8.474-27.573c2.879,2.612-0.814,10.835-1.654,13.836
					C426.059,114.116,420.096,124.794,420.096,124.794z"/>
				<path style="fill:#9DE4F8;" d="M611.166,176.442c0.556-2.022,9.726-34.924,16.272-23.814c1.975,3.35-3.992,10.105-5.685,12.722
					C620.029,168.017,611.166,176.442,611.166,176.442z"/>
				<path style="fill:#9DE4F8;" d="M561.579,159.028c-1.527-1.497-26.313-25.984-13.166-26.32c3.965-0.102,7.031,8.569,8.525,11.376
					C558.461,146.944,561.579,159.028,561.579,159.028z"/>
				<path style="fill:#9DE4F8;" d="M565.089,130.773c-1.058-1.859-18.183-32.207-5.448-28.923
					c3.842,0.989,4.413,10.169,5.081,13.278C565.402,118.297,565.089,130.773,565.089,130.773z"/>
				<path style="fill:#9DE4F8;" d="M214.469,115.283c-0.407-1.21-6.981-20.936,0.104-17.56c2.138,1.017,1.426,6.459,1.463,8.356
					C216.072,108.012,214.469,115.283,214.469,115.283z"/>
				<path style="fill:#C7F4FF;" d="M92.945,79.098c-0.042-1.533-0.657-26.526,6.302-20.15c2.099,1.922-0.635,7.927-1.261,10.121
					C97.348,71.306,92.945,79.098,92.945,79.098z"/>
				<path style="fill:#C7F4FF;" d="M73.186,125.859c-1.48-1.878-25.538-32.537-10.901-31.058c4.414,0.446,6.594,10.499,7.856,13.824
					C71.426,112.014,73.186,125.859,73.186,125.859z"/>
				<polygon style="fill:#C7F4FF;" points="672.513,252.732 728.935,101.569 754.507,257.551 				"/>
				<polygon style="fill:#C7F4FF;" points="-12.241,262.428 14.938,141.569 50.392,256.922 				"/>
				<polygon style="fill:#BFEFFF;" points="254.911,277.105 282.091,156.247 317.544,271.6 				"/>
				<polygon style="fill:#9DE4F8;" points="465.184,234.03 503.403,101.569 540.161,229.724 				"/>
				<g>
					<path style="fill:#DCFAFF;" d="M684.341,234.664c-51.752-5.469-104.429-40.439-156.318-32.282
						c-49.774,7.825-92.621,48.033-142.833,55.601c-59.825,9.02-115.155-29.813-169.382-50.956
						c-45.129-17.597-107.503-10.607-151.581,8.554c-33.437,14.535-56.235,27.092-93.144,24.805V399.01
						c0.063,0.008,0.123,0.018,0.185,0.025v114.566h816.526V260.81C764.798,219.479,720.03,238.434,684.341,234.664z"/>
					<path style="fill:#FFFFFF;" d="M787.794,511.629V301.492c-15.717,0.717-31.599,1.986-46.24,0.729
						c-63.674-5.469-128.487-40.439-192.329-32.281c-61.243,7.824-114.758,56.017-176.539,63.586
						c-73.607,9.022-150.53-10.631-220.209-50.172c-50.662-28.75-119.665-19.377-173.899-0.217c-2.516,0.889-4.979,1.77-7.401,2.641
						v225.852H787.794z"/>
					<path style="fill:#DCFAFF;" d="M788.868,511.629V328.164c-20.122,2.881-40.859,8.514-60.183,9.527
						c-63.847,3.344-133.628-22.326-195.423-5.486c-59.277,16.154-104.851,63.152-164.704,79.127
						c-71.31,19.035-144.947-10.004-214.358-21.742c-57.768-9.766-132.508,7.691-183.012,34.09
						c-0.005,0.002-0.009,0.006-0.013,0.008v87.941H788.868z"/>
				</g>
			</g>
		</g>
	</g>
	<g>
		<g>
			<path style="fill:#B3E7EF;" d="M52.64,375.462c-3.951,1.203-7.877,1.324-12.002,1.313c-5.228-0.012-16.328,1.053-17.925-5.773
				c-1.446-6.188,4.546-4.41,8.227-5.775c5.503-2.035,3.196-4.66,2.075-9.141c-1.805-7.215,2.871-8.197,8-3.484
				c2.928,2.691,7.944,10.24,12.218,10.822c7.501,1.021,1.957-6.639,4.826-9.766c4.274-4.658,9.272,4.262,12.049,6.279
				c4.558,3.311,3.55,1.684,6.99-1.471c2.526-2.314,4.484-3.951,7.07-1.318c1.367,1.393,0.259,4.41,2.535,5.602
				c1.803,0.941,4.002-0.672,5.708-0.768c4.397-0.246,7.085,2.633,4.857,7.959c-3.046,7.291-13.394,4.598-19.296,3.947
				c-3.833-0.42-12.021-2.744-15.509-0.904C60.228,374.165,52.64,375.462,52.64,375.462z"/>
			<path style="fill:#9DE4F8;" d="M547.333,355.085c-3.451,1.051-6.883,1.156-10.485,1.146c-4.566-0.012-14.265,0.92-15.659-5.045
				c-1.265-5.404,3.971-3.853,7.187-5.045c4.808-1.777,2.792-4.07,1.813-7.986c-1.576-6.303,2.509-7.16,6.989-3.043
				c2.559,2.352,6.939,8.945,10.675,9.453c6.552,0.893,1.708-5.799,4.215-8.529c3.735-4.07,8.101,3.723,10.525,5.484
				c3.983,2.893,3.102,1.471,6.108-1.285c2.207-2.022,3.917-3.451,6.176-1.152c1.195,1.217,0.227,3.853,2.216,4.895
				c1.574,0.824,3.496-0.588,4.985-0.672c3.842-0.215,6.19,2.301,4.244,6.955c-2.66,6.369-11.7,4.016-16.857,3.447
				c-3.348-0.365-10.502-2.398-13.549-0.789C553.961,353.952,547.333,355.085,547.333,355.085z"/>
			<path style="fill:#9DE4F8;" d="M320.19,393.726c-4.329,1.795-8.526,1.758-12.92,1.486c-5.569-0.344-17.505,0.779-18.527-10.891
				c-0.928-10.574,5.281-7.195,9.34-9.279c6.065-3.113,3.868-7.703,3.118-15.367c-1.207-12.34,3.875-13.719,8.872-5.414
				c2.854,4.742,7.448,17.844,11.946,19.094c7.891,2.191,2.743-11.133,6.111-16.254c5.02-7.633,9.458,7.793,12.215,11.381
				c4.531,5.891,3.618,3.072,7.598-2.061c2.922-3.77,5.171-6.422,7.665-1.801c1.319,2.445-0.16,7.49,2.146,9.648
				c1.827,1.709,4.332-0.891,6.158-0.949c4.713-0.146,7.29,4.896,4.387,13.791c-3.97,12.17-14.729,6.967-20.955,5.504
				c-4.042-0.949-12.538-5.393-16.436-2.486C328.404,391.993,320.19,393.726,320.19,393.726z"/>
			<path style="fill:#B3E7EF;" d="M722.433,380.974c-5.131-0.365-9.066,3.211-13.514,3.228c-0.291-5.732-0.107-9.285-7.502-7.748
				c-5.729,1.189-10.623,4.703-12.41,10.244c-4.515-3.182-12.266-20.217-20.717-15.084c-5.261,3.193-0.219,12.707,2.75,15.896
				c-2.004-1.213-4.627-0.713-6.913-1.281c-2.406-0.6-4.808-2.186-7.12-3.094c-4.332-1.699-17.721-5.811-20.926-0.43
				c-4.242,7.125,16.561,13.545,20.494,15.564c-0.8,0.605-1.236,1.242-1.236,1.904c0,3.793,14.14,6.869,31.585,6.869
				c0.166,0,0.33-0.002,0.496-0.002c0.137,0.002,0.276,0,0.419-0.002c16.563-0.104,29.93-2.979,30.637-6.566
				c3.305-2.398,6.328-5.463,8.09-8.006C730.317,387.054,729.792,381.497,722.433,380.974z"/>
			<path style="fill:#B3E7EF;" d="M400.742,285.66c-2.334-0.166-4.124,1.459-6.145,1.467c-0.132-2.605-0.049-4.221-3.411-3.524
				c-2.604,0.541-4.83,2.141-5.642,4.66c-2.054-1.447-5.578-9.193-9.421-6.859c-2.393,1.451-0.1,5.777,1.25,7.229
				c-0.911-0.553-2.103-0.324-3.144-0.584c-1.094-0.271-2.185-0.992-3.237-1.406c-1.97-0.772-8.058-2.643-9.515-0.195
				c-1.929,3.24,7.53,6.158,9.318,7.076c-0.363,0.275-0.561,0.566-0.561,0.867c0,1.725,6.43,3.123,14.361,3.123
				c0.076,0,0.15,0,0.226,0c0.063,0,0.126,0,0.19-0.002c7.532-0.047,13.609-1.353,13.932-2.986c1.502-1.09,2.877-2.482,3.678-3.639
				C404.326,288.424,404.088,285.898,400.742,285.66z"/>
			<path style="fill:#9DE4F8;" d="M581.888,225.817c-2.32-0.153-3.921,2.758-5.914,2.888c-0.396-4.493-0.479-7.285-3.725-5.886
				c-2.515,1.083-4.547,3.969-5.093,8.364c-2.173-2.381-6.44-15.549-9.993-11.3c-2.212,2.645,0.492,9.98,1.971,12.407
				c-0.955-0.901-2.109-0.44-3.161-0.827c-1.108-0.407-2.259-1.589-3.336-2.241c-2.023-1.22-8.219-4.099-9.409,0.208
				c-1.572,5.703,8.058,10.201,9.915,11.681c-0.33,0.496-0.496,1.008-0.467,1.527c0.176,2.979,6.663,5.025,14.488,4.57
				c0.075-0.006,0.147-0.012,0.223-0.018c0.063-0.002,0.124-0.006,0.189-0.012c7.424-0.514,13.288-3.117,13.438-5.953
				c1.373-1.969,2.587-4.453,3.26-6.494C585.706,230.384,585.213,226.038,581.888,225.817z"/>
			<path style="fill:#9DE4F8;" d="M181.352,318.844c-1.612-0.201-2.851,1.767-4.248,1.777c-0.091-3.152-0.033-5.105-2.357-4.262
				c-1.801,0.654-3.339,2.586-3.901,5.635c-1.418-1.75-3.855-11.119-6.511-8.297c-1.653,1.758-0.068,6.988,0.863,8.744
				c-0.63-0.668-1.454-0.393-2.173-0.707c-0.756-0.33-1.511-1.201-2.236-1.699c-1.362-0.936-5.57-3.197-6.578-0.236
				c-1.333,3.916,5.206,7.447,6.441,8.557c-0.252,0.334-0.389,0.685-0.389,1.049c0,2.086,4.445,3.777,9.929,3.777
				c0.051,0,0.102,0,0.155-0.002c0.043,0.002,0.087,0.002,0.132,0c5.206-0.059,9.406-1.639,9.629-3.611
				c1.039-1.318,1.99-3.004,2.543-4.402C183.829,322.188,183.665,319.133,181.352,318.844z"/>
			<path style="fill:#B3E7EF;" d="M716.928,264.179c-1.033-0.129-1.825,1.133-2.722,1.139c-0.059-2.02-0.022-3.272-1.51-2.73
				c-1.154,0.418-2.139,1.656-2.499,3.609c-0.908-1.121-2.47-7.123-4.171-5.314c-1.061,1.125-0.045,4.477,0.553,5.6
				c-0.403-0.428-0.931-0.25-1.392-0.451c-0.484-0.211-0.968-0.77-1.433-1.09c-0.873-0.598-3.568-2.047-4.214-0.15
				c-0.854,2.51,3.334,4.771,4.126,5.482c-0.161,0.213-0.249,0.438-0.249,0.67c0,1.338,2.848,2.42,6.359,2.42
				c0.034,0,0.067,0,0.101,0c0.027,0,0.056,0,0.085,0c3.334-0.037,6.024-1.051,6.168-2.314c0.666-0.844,1.274-1.924,1.628-2.82
				C718.515,266.321,718.409,264.364,716.928,264.179z"/>
			<path style="fill:#9DE4F8;" d="M718.051,464.79c-2.022-0.25-3.573,2.217-5.326,2.229c-0.115-3.953-0.043-6.402-2.955-5.342
				c-2.259,0.818-4.188,3.242-4.892,7.063c-1.778-2.195-4.833-13.939-8.164-10.4c-2.074,2.201-0.086,8.76,1.083,10.961
				c-0.79-0.838-1.823-0.492-2.725-0.885c-0.947-0.414-1.896-1.506-2.805-2.133c-1.708-1.172-6.984-4.006-8.248-0.295
				c-1.672,4.912,6.527,9.338,8.077,10.73c-0.316,0.416-0.487,0.857-0.487,1.313c0,2.617,5.572,4.736,12.447,4.736
				c0.066,0,0.129,0,0.197-0.002c0.054,0.002,0.107,0.002,0.165,0c6.526-0.072,11.793-2.055,12.072-4.527
				c1.305-1.654,2.494-3.768,3.189-5.522C721.157,468.983,720.95,465.153,718.051,464.79z"/>
			<path style="fill:#87D7E7;" d="M384.724,435.419c-1.939-0.24-3.425,2.125-5.104,2.137c-0.111-3.789-0.042-6.137-2.833-5.119
				c-2.165,0.783-4.013,3.105-4.689,6.768c-1.703-2.104-4.631-13.359-7.822-9.967c-1.987,2.111-0.083,8.395,1.037,10.504
				c-0.756-0.803-1.745-0.471-2.609-0.848c-0.908-0.396-1.816-1.443-2.688-2.043c-1.638-1.123-6.693-3.84-7.904-0.285
				c-1.602,4.707,6.254,8.949,7.739,10.283c-0.303,0.4-0.466,0.822-0.466,1.258c0,2.508,5.34,4.539,11.928,4.539
				c0.061,0,0.123,0,0.188-0.002c0.052,0.002,0.103,0.002,0.159,0c6.253-0.068,11.3-1.969,11.567-4.338
				c1.25-1.586,2.391-3.611,3.055-5.291C387.7,439.439,387.501,435.767,384.724,435.419z"/>
			<path style="fill:#C7F4FF;" d="M35.276,300.186c-1.163-0.145-2.054,1.275-3.062,1.281c-0.066-2.272-0.024-3.682-1.698-3.07
				c-1.299,0.469-2.407,1.863-2.813,4.059c-1.021-1.262-2.778-8.014-4.692-5.979c-1.193,1.266-0.051,5.037,0.622,6.301
				c-0.454-0.48-1.048-0.283-1.566-0.508c-0.544-0.238-1.089-0.865-1.611-1.227c-0.983-0.674-4.015-2.303-4.741-0.17
				c-0.962,2.824,3.751,5.369,4.643,6.168c-0.183,0.24-0.28,0.494-0.28,0.756c0,1.504,3.203,2.723,7.155,2.723
				c0.037,0,0.074,0,0.113-0.002c0.03,0.002,0.062,0.002,0.095,0c3.751-0.041,6.778-1.182,6.94-2.604
				c0.749-0.949,1.434-2.164,1.832-3.172C37.063,302.597,36.943,300.396,35.276,300.186z"/>
			<path style="fill:#B3E7EF;" d="M343.62,471.581c-1.033-0.127-1.825,1.133-2.721,1.139c-0.06-2.02-0.022-3.271-1.51-2.728
				c-1.154,0.418-2.14,1.656-2.5,3.607c-0.908-1.121-2.469-7.121-4.171-5.313c-1.06,1.125-0.044,4.475,0.554,5.6
				c-0.404-0.428-0.932-0.252-1.393-0.451c-0.483-0.213-0.968-0.77-1.433-1.09c-0.873-0.6-3.568-2.047-4.214-0.152
				c-0.854,2.51,3.334,4.771,4.127,5.482c-0.162,0.213-0.249,0.439-0.249,0.672c0,1.336,2.847,2.42,6.359,2.42
				c0.033,0,0.065,0,0.101-0.002c0.027,0.002,0.055,0.002,0.084,0c3.335-0.037,6.025-1.049,6.168-2.313
				c0.666-0.846,1.274-1.926,1.629-2.82C345.208,473.724,345.102,471.767,343.62,471.581z"/>
			<path style="fill:#87D7E7;" d="M343.62,315.54c-1.033-0.127-1.825,1.133-2.721,1.139c-0.06-2.02-0.022-3.272-1.51-2.729
				c-1.154,0.418-2.14,1.656-2.5,3.607c-0.908-1.121-2.469-7.121-4.171-5.313c-1.06,1.125-0.044,4.475,0.554,5.6
				c-0.404-0.428-0.932-0.252-1.393-0.451c-0.483-0.213-0.968-0.77-1.433-1.09c-0.873-0.6-3.568-2.047-4.214-0.152
				c-0.854,2.51,3.334,4.772,4.127,5.482c-0.162,0.213-0.249,0.439-0.249,0.672c0,1.336,2.847,2.42,6.359,2.42
				c0.033,0,0.065,0,0.101-0.002c0.027,0.002,0.055,0.002,0.084,0c3.335-0.037,6.025-1.049,6.168-2.313
				c0.666-0.846,1.274-1.926,1.629-2.82C345.208,317.683,345.102,315.726,343.62,315.54z"/>
			<path style="fill:#9DE4F8;" d="M70.478,425.864c-2.748-0.342-4.855,3.01-7.237,3.025c-0.154-5.369-0.056-8.697-4.015-7.258
				c-3.068,1.115-5.688,4.404-6.646,9.596c-2.416-2.98-6.566-18.938-11.09-14.129c-2.818,2.99-0.117,11.904,1.472,14.891
				c-1.072-1.137-2.477-0.668-3.702-1.201c-1.287-0.563-2.573-2.047-3.811-2.896c-2.32-1.592-9.488-5.443-11.205-0.404
				c-2.271,6.674,8.868,12.689,10.974,14.578c-0.429,0.568-0.662,1.166-0.662,1.785c0,3.553,7.571,6.436,16.909,6.436
				c0.09,0,0.177-0.002,0.267-0.004c0.074,0.002,0.149,0.002,0.225-0.002c8.867-0.098,16.023-2.787,16.402-6.15
				c1.77-2.246,3.387-5.115,4.33-7.498C74.698,431.56,74.417,426.356,70.478,425.864z"/>
			<path style="fill:#B3E7EF;" d="M174.145,228.576c-1.897-0.236-3.352,2.078-4.995,2.089c-0.108-3.707-0.04-6.004-2.773-5.011
				c-2.117,0.77-3.926,3.042-4.587,6.626c-1.669-2.058-4.533-13.075-7.656-9.755c-1.944,2.066-0.081,8.218,1.016,10.28
				c-0.74-0.785-1.711-0.461-2.556-0.829c-0.889-0.388-1.776-1.413-2.631-2c-1.603-1.099-6.551-3.757-7.735-0.278
				c-1.566,4.607,6.122,8.76,7.576,10.064c-0.297,0.392-0.458,0.805-0.458,1.232c0,2.452,5.227,4.443,11.674,4.443
				c0.063,0,0.122-0.001,0.185-0.003c0.051,0.002,0.102,0.002,0.154-0.001c6.122-0.067,11.062-1.925,11.324-4.246
				c1.221-1.551,2.338-3.532,2.989-5.177C177.059,232.507,176.864,228.915,174.145,228.576z"/>
			<g>
				<g>
					<path style="fill:#B3E7EF;" d="M646.86,450.546c0.007,0.844-2.322,1.551-5.203,1.582c-2.88,0.031-5.22-0.631-5.23-1.473
						c-0.009-0.846,2.318-1.553,5.198-1.582C644.506,449.042,646.849,449.7,646.86,450.546z"/>
					<path style="fill:#B3E7EF;" d="M641.563,443.155c0.01,1.018-2.619,1.865-5.874,1.9c-3.253,0.035-5.9-0.762-5.91-1.775
						c-0.012-1.016,2.617-1.867,5.871-1.902C638.906,441.343,641.552,442.14,641.563,443.155z"/>
				</g>
				<g>
					<path style="fill:#B3E7EF;" d="M667.588,442.61c0.116,0.838-2.101,1.838-4.953,2.236c-2.854,0.395-5.262,0.037-5.38-0.799
						c-0.116-0.834,2.1-1.832,4.951-2.229C665.062,441.423,667.469,441.778,667.588,442.61z"/>
					<path style="fill:#B3E7EF;" d="M661.38,435.956c0.143,1.008-2.353,2.188-5.578,2.635c-3.224,0.447-5.95-0.004-6.092-1.01
						c-0.142-1.008,2.356-2.186,5.577-2.631C658.512,434.501,661.238,434.952,661.38,435.956z"/>
				</g>
				<g>
					<path style="fill:#B3E7EF;" d="M684.69,436.44c0.117,0.838-2.1,1.838-4.953,2.234c-2.852,0.396-5.261,0.039-5.38-0.795
						c-0.115-0.838,2.101-1.834,4.953-2.232C682.161,435.251,684.569,435.608,684.69,436.44z"/>
					<path style="fill:#B3E7EF;" d="M678.481,429.786c0.143,1.01-2.353,2.188-5.578,2.633c-3.221,0.449-5.949-0.004-6.091-1.01
						c-0.143-1.006,2.356-2.184,5.576-2.631C675.613,428.331,678.34,428.782,678.481,429.786z"/>
				</g>
			</g>
		</g>
		<g>
			<g>
				<path style="fill:#DCFAFF;" d="M146.257,341.734c-0.815,5.654-17.863,7.876-38.08,4.964
					c-20.217-2.912-35.945-9.856-35.131-15.511c0.814-5.652,17.863-7.876,38.081-4.963
					C131.343,329.137,147.071,336.082,146.257,341.734z"/>
				<g>
					<g>
						<g>
							<path style="fill:#931871;" d="M137.5,334.552c0,0-0.491-6.482-1.451-14.477c-1.077-8.975-7.024-21.773-7.024-21.773
								l-11.637,1.398c0,0,0.959,5.723,8.922,14.859c4.768,5.473,8.669,20.297,8.669,20.297L137.5,334.552z"/>
							<path style="fill:#931871;" d="M99.595,333.495c0,0,3.482-5.49,7.495-12.471c4.506-7.834,7.394-21.648,7.394-21.648
								l-10.16-5.84c0,0-2.653,5.16-1.736,17.244c0.547,7.238-5.193,21.449-5.193,21.449L99.595,333.495z"/>
							<g>
								<path style="fill:#00A6D4;" d="M103.803,340.579c-1.183,0.697-2.435,0.715-3.663,0.359c-0.04-0.318-0.078-0.635-0.084-0.957
									c-0.003-0.223,0.034-0.443,0.069-0.664c0.007-0.016,0.026-0.02,0.028-0.039c0.032-0.674,0.149-1.283,0.411-1.91
									c0.122-0.289-0.333-0.488-0.444-0.197c-0.051,0.137-0.087,0.283-0.13,0.428c-0.044,0.016-0.085,0.043-0.122,0.092
									c-0.074,0.109-0.133,0.23-0.182,0.359c-0.321,0.268-0.31,0.848-0.37,1.24c-0.065,0.439-0.09,0.877-0.084,1.318
									c-1.034-0.451-2.034-1.131-2.946-1.861c0.098-0.471,0.216-0.932,0.395-1.387c0.139-0.35,0.586-0.858,0.397-1.23
									c-0.007-0.014-0.022-0.022-0.029-0.033c0.078-0.244,0.12-0.492,0.017-0.68c-0.046-0.08-0.158-0.082-0.229-0.039
									c-0.235,0.147-0.318,0.561-0.385,0.9c-0.198,0.281-0.309,0.703-0.402,0.955c-0.133,0.361-0.201,0.736-0.241,1.115
									c-0.732-0.619-1.402-1.254-1.966-1.801c-0.148-0.145-0.334,0.074-0.247,0.228c1.067,1.887,3.315,3.867,5.721,4.732
									c0.061-0.002,0.12-0.004,0.189,0.023c0.228,0.094,0.46,0.174,0.693,0.252c1.414,0.338,2.839,0.246,4.078-0.531
									C104.734,340.968,104.256,340.311,103.803,340.579z"/>
								<path style="fill:#BFEFFF;" d="M101.938,332.811c0,0-0.987,0.592-1.052,1.826c-0.063,1.232,3.762,3.242,3.367,3.943
									c-0.395,0.699-0.984,0.73-2.864-0.168c-1.882-0.895-5.839-2.061-5.834-3.352c0.005-1.295,2.355-5.49,2.355-5.49
									L101.938,332.811z"/>
								<path style="fill:#3596D3;" d="M101.143,333.925c-0.167,0.029-0.329,0.121-0.486,0.232c-0.152-0.281-0.308-0.56-0.448-0.846
									c-0.039-0.082-0.191-0.064-0.168,0.041c0.079,0.346,0.22,0.666,0.374,0.982c-0.22,0.186-0.425,0.396-0.608,0.547
									c-0.095,0.078,0.005,0.217,0.109,0.156c0.187-0.113,0.432-0.238,0.66-0.383c0.135,0.256,0.269,0.514,0.386,0.779
									c0.079,0.18,0.364,0.076,0.284-0.105c-0.126-0.293-0.274-0.574-0.426-0.855c0.17-0.135,0.322-0.285,0.381-0.467
									C101.213,333.968,101.19,333.917,101.143,333.925z"/>
							</g>
							<g>
								<path style="fill:#00A6D4;" d="M144.636,337.382c-0.498,1.279-1.469,2.07-2.656,2.549c-0.228-0.223-0.452-0.449-0.656-0.701
									c-0.142-0.17-0.25-0.365-0.357-0.561c-0.003-0.016,0.011-0.031-0.002-0.051c-0.391-0.551-0.678-1.1-0.858-1.754
									c-0.084-0.305-0.566-0.178-0.472,0.119c0.045,0.139,0.108,0.277,0.162,0.418c-0.022,0.039-0.039,0.084-0.037,0.147
									c0.006,0.133,0.037,0.264,0.078,0.395c-0.086,0.406,0.284,0.859,0.478,1.203c0.22,0.387,0.474,0.746,0.75,1.09
									c-1.092,0.283-2.299,0.369-3.466,0.361c-0.215-0.432-0.408-0.867-0.547-1.334c-0.109-0.361-0.074-1.039-0.453-1.213
									c-0.015-0.006-0.028-0.004-0.042-0.01c-0.092-0.238-0.21-0.461-0.409-0.543c-0.084-0.033-0.175,0.035-0.201,0.111
									c-0.094,0.262,0.096,0.635,0.254,0.945c0.02,0.344,0.193,0.744,0.276,1c0.118,0.363,0.297,0.703,0.501,1.025
									c-0.96-0.035-1.877-0.117-2.66-0.199c-0.205-0.022-0.217,0.266-0.052,0.334c2.005,0.82,4.997,0.982,7.423,0.174
									c0.045-0.037,0.091-0.076,0.163-0.096c0.235-0.068,0.468-0.15,0.699-0.232c1.32-0.611,2.383-1.568,2.876-2.941
									C145.608,337.11,144.826,336.894,144.636,337.382z"/>
								<path style="fill:#BFEFFF;" d="M138.362,332.436c0,0-0.407,1.076,0.306,2.084c0.714,1.006,4.962,0.219,5.083,1.014
									c0.123,0.793-0.318,1.182-2.352,1.641c-2.033,0.463-5.861,1.996-6.656,0.98c-0.799-1.02-1.55-5.772-1.55-5.772
									L138.362,332.436z"/>
								<path style="fill:#3596D3;" d="M138.429,333.8c-0.116,0.127-0.183,0.299-0.24,0.484c-0.292-0.125-0.586-0.25-0.874-0.385
									c-0.081-0.041-0.191,0.066-0.108,0.133c0.281,0.225,0.587,0.391,0.902,0.543c-0.056,0.281-0.087,0.572-0.139,0.805
									c-0.025,0.121,0.138,0.168,0.182,0.053c0.078-0.203,0.193-0.451,0.283-0.703c0.264,0.117,0.528,0.234,0.785,0.369
									c0.173,0.094,0.332-0.164,0.159-0.258c-0.281-0.152-0.571-0.279-0.864-0.406c0.047-0.215,0.073-0.422,0.01-0.604
									C138.511,333.794,138.46,333.767,138.429,333.8z"/>
							</g>
						</g>
						<g>
							<path style="fill:#FFBC00;" d="M77.704,277.919l-1.33-1.725l-3.221,0.9c0,0-3.778,0.332-3.773,0.904
								c0.005,0.572,1.694,1.016,1.694,1.016s-2.89,2.174-3.038,2.633c-0.15,0.463,0.017,1.688,1.246,2.135
								c1.229,0.445,7.662-3.455,8.252-3.838C78.126,279.561,77.704,277.919,77.704,277.919z"/>
							<path style="fill:#FFBC00;" d="M149.327,269.034l-0.566,1.713l2.109,1.797c0,0,1.979,2.443,2.373,2.176
								c0.392-0.271-0.089-1.639-0.089-1.639s2.832,0.979,3.219,0.867c0.386-0.109,1.151-0.791,0.887-1.844
								c-0.262-1.053-5.926-3.664-6.461-3.893C150.261,267.985,149.327,269.034,149.327,269.034z"/>
							<g>
								<path style="fill:#FF6332;" d="M103.368,251.952c-1.098,0.412-7.671,7.355-9.294,18.131
									c-1.158,7.684-0.584,22.721,0.862,29.941c1.133,5.648,0.537,3.375,3.201,10.6c1.183,3.215,2.848,0.729,13.556-1.984
									c17.781-4.502,22.486-4.791,24.481-8.072c1.997-3.281-2.47-11.059-5.67-21.658c-3.199-10.602-4.319-13.654-7.276-18.539
									c-2.957-4.891-5.549-11.461-11.718-10.111C108.913,250.829,107.108,250.556,103.368,251.952z"/>
								<path style="fill:#FF6332;" d="M114.957,252.417c0,0,1.601,3.695,4.013,6.82c2.411,3.125,1.973,5.373,6.015,7.359
									c4.044,1.986,24.595,5.576,24.595,5.576l1.936-4.344c0,0-19.576-9.873-23.587-12.33c-4.009-2.459-10.175-3.859-11.604-4.502
									C114.894,250.351,114.957,252.417,114.957,252.417z"/>
								<path style="fill:#FF6332;" d="M86.302,268.718c-6.812,5.938-5.655,5.707-10.858,7.879l1.694,4.063
									c0,0,12.896-3.529,18.575-7.611c5.679-4.088,8.129-7.566,7.789-11.131c-0.341-3.566-0.711-5.936-0.711-5.936l0.049-3.674
									C102.841,252.308,93.749,262.224,86.302,268.718z"/>
							</g>
							<g>
								<path style="fill:#FFDFDE;" d="M110.979,246.001c1.121,2.685,0.33,5.576-1.769,6.451c-2.097,0.875-4.706-0.596-5.828-3.281
									c-1.12-2.687-0.33-5.576,1.768-6.451C107.247,241.845,109.856,243.314,110.979,246.001z"/>
								<path style="fill:#FFBC00;" d="M103.511,240.402c-1.549,1.533,0.739,5.152-2.184,5.637c-1.294,0.213-2.535-0.16-3.787-0.438
									c-0.452-0.1-1.141-0.171-1.588,0.033c-0.569,0.254-0.919,0.643-1.336,1.098c-0.813,0.889-1.775,0.93-2.896,0.691
									c-1.257-0.266-2.692-0.684-3.891,0.01c-1.277,0.736-2.167,1.792-2.811,3.117c-0.976,2.006-1.015,4.703,1.542,5.357
									c1.169,0.301,2.944-0.01,3.895,0.758c0.916,0.746,1.449,1.887,2.415,2.574c1.125,0.801,2.417,0.742,3.702,0.359
									c1.619-0.482,2.086-2.32,4.063-1.738c1.224,0.363,2.234,0.629,3.402-0.041c0.871-0.498,1.403-1.609,1.605-2.553
									c0.271-1.281,0.263-2.521-0.049-3.789c-0.303-1.219-0.597-2.351,0.639-3.152c0.431-0.279,0.867-0.59,1.187-0.998
									c1.569-2.016,0.538-4.43-0.654-6.366c-0.004-0.038-0.017-0.077-0.043-0.118
									C105.961,239.621,104.563,239.359,103.511,240.402z"/>
								<path style="fill:#931871;" d="M102.693,248.638c0,0-1.602-2.005-0.948-4.798c0.656-2.793,0.975-3.907,4.007-4.482
									c0.967-0.185,3.048,0.279,4.087,2.083c1.376,2.386,1.264,3.127,1.633,4.011
									C111.842,246.337,102.693,248.638,102.693,248.638z"/>
							</g>
						</g>
					</g>
					<path style="fill:#00A6D4;" d="M97.054,259.985c0,0,0.502-3.221,1.251-5.234c0.749-2.016,1.522-2.674,1.522-2.674
						s3.848,0.467,6.787,0c2.939-0.467,4.386-1.596,4.386-1.596l1.429-0.943c0,0,3.781,2.213,4.578,4.268
						c0.797,2.055,0.27,5.691-4.791,7.307c-7.383,2.355-12.51-0.383-13.148-0.504C98.429,260.485,97.054,259.985,97.054,259.985z"/>
				</g>
			</g>
			<g>
				<path style="fill:#9DE4F8;" d="M168.032,470.542c-0.356,4.629-14.523,7.315-31.645,6.001
					c-17.123-1.315-30.717-6.131-30.361-10.76c0.355-4.627,14.524-7.314,31.647-6C154.795,461.098,168.388,465.916,168.032,470.542z
					"/>
				<path style="fill:#9DE4F8;" d="M228.918,472.075c-0.566,4.607-14.062,6.741-30.145,4.767s-28.663-7.309-28.098-11.917
					c0.566-4.605,14.063-6.741,30.146-4.767C216.906,462.133,229.485,467.47,228.918,472.075z"/>
				<path style="fill:#9DE4F8;" d="M288.984,476.226c-0.566,4.607-17.545,6.314-37.926,3.813
					c-20.381-2.503-36.444-8.265-35.879-12.873c0.566-4.605,17.546-6.313,37.927-3.811
					C273.488,465.856,289.552,471.62,288.984,476.226z"/>
				<g>
					<g>
						<g>
							<path style="fill:#B3E7EF;" d="M105.05,474.978c0.047,0.842-2.23,1.65-5.086,1.805c-2.854,0.154-5.206-0.404-5.249-1.248
								c-0.048-0.842,2.229-1.65,5.083-1.805C102.652,473.575,105.006,474.134,105.05,474.978z"/>
							<path style="fill:#B3E7EF;" d="M99.479,467.821c0.055,1.014-2.515,1.977-5.738,2.15c-3.227,0.174-5.884-0.506-5.939-1.52
								c-0.053-1.016,2.516-1.977,5.74-2.15C96.768,466.128,99.425,466.808,99.479,467.821z"/>
						</g>
						<g>
							<path style="fill:#B3E7EF;" d="M89.241,475.829c0.047,0.844-2.231,1.652-5.086,1.805c-2.853,0.156-5.203-0.402-5.249-1.246
								c-0.047-0.842,2.231-1.652,5.085-1.803C86.845,474.429,89.196,474.987,89.241,475.829z"/>
							<path style="fill:#B3E7EF;" d="M83.672,468.673c0.055,1.016-2.516,1.978-5.739,2.152c-3.225,0.176-5.883-0.506-5.938-1.52
								c-0.054-1.016,2.515-1.977,5.74-2.148C80.958,466.981,83.616,467.661,83.672,468.673z"/>
						</g>
						<g>
							<path style="fill:#B3E7EF;" d="M69.583,477.493c0.045,0.844-2.233,1.652-5.087,1.807c-2.854,0.152-5.205-0.404-5.251-1.248
								c-0.044-0.842,2.232-1.648,5.086-1.805C67.187,476.095,69.537,476.651,69.583,477.493z"/>
							<path style="fill:#B3E7EF;" d="M64.013,470.341c0.054,1.014-2.516,1.977-5.739,2.15c-3.225,0.174-5.884-0.508-5.938-1.522
								c-0.055-1.014,2.514-1.977,5.738-2.152C61.3,468.644,63.958,469.325,64.013,470.341z"/>
						</g>
						<g>
							<path style="fill:#B3E7EF;" d="M49.35,480.94c0.044,0.842-2.231,1.652-5.087,1.805c-2.854,0.154-5.205-0.404-5.249-1.246
								c-0.046-0.844,2.229-1.65,5.086-1.805C46.953,479.54,49.304,480.099,49.35,480.94z"/>
							<path style="fill:#B3E7EF;" d="M43.78,473.786c0.054,1.014-2.514,1.975-5.74,2.15c-3.225,0.174-5.882-0.508-5.938-1.52
								c-0.054-1.016,2.516-1.978,5.739-2.152C41.066,472.091,43.724,472.771,43.78,473.786z"/>
						</g>
					</g>
					<g>
						<g>
							<path style="fill:#B3E7EF;" d="M314.398,460.76c0.419,0.732-1.252,2.479-3.731,3.9c-2.479,1.424-4.829,1.98-5.249,1.25
								c-0.42-0.734,1.25-2.479,3.729-3.9C311.626,460.588,313.978,460.027,314.398,460.76z"/>
							<path style="fill:#B3E7EF;" d="M306.203,456.877c0.506,0.881-1.356,2.896-4.157,4.504c-2.801,1.607-5.48,2.193-5.985,1.313
								c-0.507-0.879,1.355-2.896,4.155-4.504C303.018,456.582,305.698,455.996,306.203,456.877z"/>
						</g>
						<g>
							<path style="fill:#B3E7EF;" d="M328.475,443.791c0.51,0.676-0.923,2.621-3.198,4.352c-2.278,1.727-4.538,2.582-5.048,1.91
								c-0.509-0.672,0.923-2.617,3.198-4.346C325.706,443.978,327.965,443.123,328.475,443.791z"/>
							<path style="fill:#B3E7EF;" d="M319.85,440.992c0.615,0.811-0.972,3.049-3.545,5.002c-2.572,1.951-5.154,2.879-5.769,2.07
								c-0.614-0.811,0.974-3.049,3.546-5C316.654,441.111,319.236,440.185,319.85,440.992z"/>
						</g>
						<g>
							<path style="fill:#B3E7EF;" d="M340.272,430.121c0.51,0.674-0.922,2.621-3.199,4.35c-2.276,1.728-4.536,2.582-5.047,1.912
								c-0.509-0.674,0.924-2.619,3.199-4.348C337.501,430.309,339.761,429.451,340.272,430.121z"/>
							<path style="fill:#B3E7EF;" d="M331.647,427.322c0.615,0.811-0.972,3.047-3.545,5c-2.571,1.951-5.154,2.879-5.769,2.07
								c-0.614-0.809,0.974-3.047,3.545-5C328.45,427.441,331.033,426.514,331.647,427.322z"/>
						</g>
					</g>
					<g>
						<g>
							<path style="fill:#BFEFFF;" d="M188.543,397.887c-0.486,12.328,9.113,22.717,21.438,23.203
								c12.329,0.488,22.717-9.111,23.204-21.439c0.486-12.326-9.111-22.715-21.439-23.201
								C199.42,375.963,189.031,385.559,188.543,397.887z"/>
							<path style="fill:#BFEFFF;" d="M198.474,363.387c-0.355,8.984,6.643,16.557,15.628,16.91
								c8.983,0.355,16.556-6.641,16.91-15.625c0.355-8.982-6.641-16.557-15.626-16.91
								C206.4,347.406,198.829,354.404,198.474,363.387z"/>
							<path style="fill:#BFEFFF;" d="M170.688,434.607c-0.755,19.166,14.164,35.318,33.332,36.074
								c19.165,0.758,35.316-14.166,36.074-33.332c0.758-19.166-14.166-35.316-33.333-36.072
								C187.594,400.52,171.444,415.441,170.688,434.607z"/>
							<path style="fill:#F0732E;" d="M210.509,356.631l-22.93-2.93l20.323,8.09c0,0,1.236,0.824,2.497-2.408
								C210.74,358.51,210.509,356.631,210.509,356.631z"/>
							<path style="fill:#F0732E;" d="M208.782,387.685c0.023,1.188-0.92,2.164-2.104,2.186c-1.186,0.022-2.163-0.92-2.185-2.105
								c-0.021-1.184,0.92-2.16,2.105-2.184C207.783,385.563,208.761,386.502,208.782,387.685z"/>
							<path style="fill:#F0732E;" d="M203.088,414.228c0.022,1.184-0.92,2.164-2.105,2.184c-1.184,0.023-2.162-0.92-2.185-2.104
								c-0.02-1.184,0.921-2.162,2.105-2.184C202.088,412.102,203.065,413.045,203.088,414.228z"/>
							<path style="fill:#F0732E;" d="M199.797,438.982c0.022,1.186-0.92,2.162-2.104,2.184c-1.186,0.022-2.162-0.918-2.185-2.105
								c-0.023-1.183,0.92-2.16,2.104-2.183C198.797,436.855,199.775,437.799,199.797,438.982z"/>
						</g>
						<g>
							<path style="fill:#00A6D4;" d="M129.152,452.566c0.876-7.092-0.714-20.926-1.477-25.174
								c-0.765-4.248,2.295-9.938,2.295-9.938l12.58,3.266c0,0-0.98,10.445-1.385,16.646c-0.407,6.201-2.906,15.469-4.352,19.205
								c-1.445,3.738-4.1,10.775-4.1,10.775l-3.522-1.217L129.152,452.566z"/>
							<path style="fill:#00A6D4;" d="M145.195,421.465c0,0-5.042,5.748-2.31,11.115c2.733,5.367,4.781,12.191,6.066,15.904
								c1.001,2.887,1.191,8.482,1.976,12.064c0.784,3.582,1.301,5.061,1.301,5.061l3.441,0.102c0,0,0.94-9.219,2.693-15.838
								c1.754-6.619,0.759-10.6-0.456-14.639c-1.214-4.039-3.996-15.184-3.996-15.184L145.195,421.465z"/>
							<path style="fill:#931871;" d="M134.548,466.33c0,0-0.938,1.078-0.539,2.559c0.398,1.48,5.681,2.389,5.483,3.367
								c-0.197,0.975-0.883,1.24-3.444,0.9c-2.564-0.338-7.68-0.197-8.167-1.725c-0.492-1.527,0.675-7.383,0.675-7.383
								L134.548,466.33z"/>
							<path style="fill:#931871;" d="M157.06,464.152c0,0-0.672,1.26,0.05,2.613c0.72,1.354,6.076,1.051,6.098,2.047
								c0.027,0.996-0.581,1.406-3.152,1.654c-2.575,0.246-7.527,1.533-8.347,0.152c-0.821-1.377-1.001-7.342-1.001-7.342
								L157.06,464.152z"/>
							<path style="fill:#931871;" d="M174.556,430.279l1.331-1.461l2.848,1.055c0,0,3.395,0.58,3.345,1.096
								c-0.045,0.521-1.607,0.797-1.607,0.797s2.453,2.178,2.555,2.607c0.101,0.428-0.141,1.524-1.288,1.838
								c-1.144,0.313-6.672-3.699-7.179-4.086C174.053,431.734,174.556,430.279,174.556,430.279z"/>
							<path style="fill:#FFBC00;" d="M126.529,427.961c0,0-0.158-17.168,5.183-24.77c5.341-7.604,6.536-10.459,17.118-14.814
								c10.58-4.358,19.86-2.947,20.014-0.748c0.414,5.967,4.208,8.805,4.208,8.805s-1.174,6.846-5.541,11.607
								c-4.366,4.762-6.229,10.279-6.151,15.176c0.076,4.891,1.08,16.043,1.08,16.043s-23.955-2.023-29.279-2.414
								c-5.326-0.395-6.917-0.209-6.917-0.209L126.529,427.961z"/>
							<path style="fill:#FFBC00;" d="M155.174,408.922c1.695,7.523,8.344,13.395,12.155,17.289
								c3.811,3.893,7.839,6.844,7.839,6.844l3.399-4.313c0,0-7.094-8.537-8.12-11.457c-1.025-2.922-2.785-7.299-2.453-13.514
								c0.332-6.217,2.029-9.553-1.212-12.762c-3.24-3.209-5.762-0.938-7.388,0.254C157.024,393.004,153.48,401.4,155.174,408.922z"
								/>
							<g>
								<path style="fill:#FFDFDE;" d="M170.504,388.355c-2.189,2.557-2.346,6.022-0.348,7.732c2,1.711,5.396,1.02,7.586-1.541
									c2.192-2.559,2.349-6.022,0.35-7.73C176.093,385.103,172.696,385.793,170.504,388.355z"/>
								<g>
									<path style="fill:#931871;" d="M181.712,381.139c0.352,1.355-0.459,2.736-1.814,3.09c-1.358,0.354-2.739-0.461-3.093-1.816
										c-0.352-1.357,0.461-2.736,1.816-3.09C179.977,378.969,181.359,379.781,181.712,381.139z"/>
									<path style="fill:#FF6332;" d="M178.267,395.275c0,0,2.479-1.635,2.753-4.945c0.273-3.309,0.316-4.648-2.817-6.365
										c-1.001-0.545-3.454-0.773-5.243,0.844c-2.364,2.137-2.504,2.992-3.225,3.838
										C169.012,389.486,178.267,395.275,178.267,395.275z"/>
									<path style="fill:#FF6332;" d="M172.845,387.768c0,0-3.772,8.602-2.791,13.715c0.821,4.266,1.862,6.158,3.096,6.385
										c-0.02,0.533,0.066,1.174,0.072,1.379c0.019,1.004-0.026,2.045,0.102,3.041c0.002,0.004,0.001,0.004,0,0.006
										c-0.001,0.022,0.006,0.039,0.007,0.057c0,0.004,0,0.008,0.001,0.012c0,0.002,0,0.002,0,0.002
										c0.005,0.029,0.015,0.057,0.028,0.076c0.055,0.113,0.178,0.142,0.29,0.105c0.108-0.025,0.203-0.105,0.215-0.246
										c0.056-0.672,0.024-1.361-0.017-2.047c0.082,0.252,0.159,0.506,0.254,0.754c0.104,0.271,0.655,1.211,0.975,0.553
										c0.076-0.154-0.046-0.385-0.237-0.332c-0.063-0.105-0.121-0.213-0.174-0.324c-0.139-0.305-0.232-0.631-0.335-0.945
										c-0.172-0.535-0.324-1.084-0.553-1.602v-0.006c0.537,1.182,1.24,2.336,2.381,2.967c0.205,0.111,0.455-0.184,0.258-0.34
										c-0.909-0.721-1.524-1.598-2.077-2.547c0.113,0.135,0.233,0.27,0.361,0.391c0.396,0.377,1.198,1.063,1.78,0.867
										c0.085-0.023,0.153-0.131,0.093-0.215c-0.161-0.223-0.369-0.287-0.616-0.402c-0.33-0.152-0.628-0.371-0.9-0.609
										c-0.298-0.254-0.561-0.541-0.798-0.846c0.973-0.826-0.172-3.426-0.531-6.236c-0.398-3.088,2.548-10.176,2.888-11.943
										C176.951,387.666,172.845,387.768,172.845,387.768z"/>
								</g>
							</g>
						</g>
					</g>
					<g>
						<path style="fill:#FF6332;" d="M244.602,471.891c0,0-0.036-9.221,0.415-20.627c0.505-12.809,7.461-31.576,7.461-31.576
							l16.61,0.656c0,0-0.711,8.201-10.93,22.017c-6.121,8.277-9.953,29.672-9.953,29.672L244.602,471.891z"/>
						<path style="fill:#931871;" d="M242.659,466.215c0,0,0.791,1.559-0.125,3.199c-0.919,1.639-7.468,1.135-7.525,2.354
							c-0.056,1.219,0.68,1.732,3.823,2.102c3.148,0.369,9.179,2.072,10.22,0.404c1.039-1.666,1.41-8.971,1.41-8.971
							L242.659,466.215z"/>
						<path style="fill:#FF6332;" d="M288.071,468.838c0,0-6.364-6.672-13.881-15.266c-8.438-9.648-16.287-28.059-16.287-28.059
							l12.514-10.943c0,0,5.121,6.445,7.199,23.504c1.243,10.217,13.17,28.391,13.17,28.391L288.071,468.838z"/>
						<path style="fill:#931871;" d="M284.022,466.693c0,0,1.354,0.484,1.73,1.98c0.379,1.496-3.815,4.895-3.162,5.652
							c0.656,0.762,1.387,0.654,3.47-0.902c2.086-1.559,6.647-3.949,6.326-5.531c-0.321-1.582-4.225-6.15-4.225-6.15
							L284.022,466.693z"/>
						<path style="fill:#00A6D4;" d="M244.501,401.727c-0.587,7.391-2.15,21.705-2.15,21.705l34.303,2.16
							c0,0-3.941-10.719-6.227-18.824c-2.285-8.107-3.615-14.061-5.413-20.258c-1.345-4.631-5.607-5.936-9.234-5.477
							c-3.627,0.457-5.005,0.943-5.801,1.865C248.276,384.861,245.191,393.049,244.501,401.727z"/>
						<path style="fill:#FFBC00;" d="M227.392,369.688l1.047-0.703l-0.194-2.699c0,0-0.061-2.875-0.493-2.9
							c-0.434-0.025-0.858,1.58-0.858,1.58s-1.495-2.643-1.836-2.777c-0.343-0.137-1.329-0.094-1.676,0.836
							c-0.662,1.773,2.23,5.969,2.489,6.434C226.129,369.922,227.392,369.688,227.392,369.688z"/>
						<path style="fill:#00A6D4;" d="M256.583,384.69c-1.131-2.514-13.534-2.957-17.964-5.578c-1.936-1.146-9.08-11.287-9.08-11.287
							l-4.727,0.756c0,0,4.321,12.603,7.667,16.52c3.196,3.742,16.181,10.305,19.864,9.303
							C256.026,393.404,258.605,389.193,256.583,384.69z"/>
						<g>
							<path style="fill:#FFB583;" d="M257.62,379.102c-0.765,2.662-3.072,4.338-5.151,3.74c-2.076-0.596-3.144-3.24-2.38-5.9
								c0.768-2.666,3.07-4.338,5.15-3.742C257.318,373.795,258.383,376.44,257.62,379.102z"/>
							<path style="fill:#00A6D4;" d="M250.289,375.537c0,0,0.823-2.299,3.411-3.166c2.587-0.863,3.651-1.164,5.633,1.004
								c0.634,0.691,1.295,2.607,0.355,4.35c-1.244,2.311-1.9,2.588-2.433,3.328C256.723,381.795,250.289,375.537,250.289,375.537z"
								/>
							<polygon style="fill:#FFBC00;" points="258.401,379.74 252.322,373.008 253.7,372.371 259.364,378.301 							"/>
						</g>
						<path style="fill:#FF6332;" d="M251.14,382.805c0,0,3.409-3.277,4.097-4.008c0.689-0.734,3.099-3.479,3.81-3.883
							c0.713-0.4,1.818-1.25,1.818-1.25s1.553,2.184,1.975,4.99c0.419,2.805,0.166,3.563,0.072,3.916
							c-0.094,0.353-6.038,0.99-8.018,0.9C252.914,383.377,251.14,382.805,251.14,382.805z"/>
					</g>
				</g>
			</g>
			<g>
				<path style="fill:#9DE4F8;" d="M343.338,289.833c0.805,4.302-23.846,12.532-55.061,18.384
					c-31.221,5.851-57.181,7.108-57.987,2.805c-0.803-4.299,23.847-12.531,55.064-18.382
					C316.573,286.789,342.536,285.533,343.338,289.833z"/>
				<g>
					<polygon style="fill:#FFBC00;" points="251.701,248.658 271.725,293.269 272.499,292.886 252.322,248.351 					"/>
					<path style="fill:#FFBC00;" d="M278.413,291.237c0.382,0.824-1.851,2.674-4.988,4.133c-3.135,1.459-5.99,1.977-6.375,1.15
						c-0.381-0.822,1.852-2.674,4.989-4.133C275.177,290.929,278.029,290.413,278.413,291.237z"/>
					<g>
						<polygon style="fill:#F0903C;" points="350.968,285.479 274.315,298.448 267.897,296.835 272.299,293.759 350.332,282.058 
													"/>
						<path style="fill:#00A6D4;" d="M277.831,258.575c0,0,7.738,14.732,10.961,16.945c3.222,2.215,10.901,3.391,15.697,4.609
							c4.794,1.219,13.166,3.217,13.166,3.217l1.712-2.424c0,0-4.272-3.287-9.656-5.803c-5.386-2.518-9.725-2.728-12.923-6.703
							c-3.196-3.978-1.199-15.945-1.199-15.945L277.831,258.575z"/>
						<path style="fill:#931871;" d="M315.184,283.54c0,0,1.237,0.086,1.9,1.24c0.662,1.154-2.029,4.957-1.309,5.434
							c0.719,0.477,1.302,0.221,2.67-1.559c1.369-1.781,4.602-4.828,3.967-6.068c-0.636-1.238-4.943-4.123-4.943-4.123
							L315.184,283.54z"/>
					</g>
					<g>
						<polygon style="fill:#F0903C;" points="326.432,295.913 249.761,308.774 243.346,307.151 247.751,304.081 325.801,292.487 
													"/>
						<g>
							<path style="fill:#00A6D4;" d="M290.837,296.579c0,0-1.777-7.75-3.56-17.438c-2-10.875,0.299-27.986,0.299-27.986
								l14.103-2.593c0,0,0.954,7.035-5.027,20.599c-3.583,8.125-2.755,26.859-2.755,26.859L290.837,296.579z"/>
							<path style="fill:#931871;" d="M289.129,294.587c0,0,0.79,0.955,0.409,2.234c-0.381,1.273-4.986,1.945-4.836,2.797
								c0.15,0.852,0.737,1.094,2.97,0.861c2.232-0.24,6.67,0,7.129-1.311c0.461-1.318-0.42-6.426-0.42-6.426L289.129,294.587z"/>
						</g>
					</g>
					<path style="fill:#00A6D4;" d="M254.896,245.806c0,0-4.484,0.033-4.407,1.398c0.076,1.366-0.057,2.105,1.666,2.759
						c1.724,0.652,3.491-0.111,3.491-0.111L254.896,245.806z"/>
					<path style="fill:#931871;" d="M254.896,245.806l0.75,4.046c0,0,11.826,0.65,17.8-3.298c1.825-1.208,3.997-4.225,3.731-6.635
						c-0.265-2.41-1.247-9.536-1.89-10.193c-1.208-1.234-5.718-1.399-7.248,1.167c-0.707,1.189-0.279,6.553-0.462,9.047
						c-0.185,2.494-7.038,4.09-7.038,4.09L254.896,245.806z"/>
					<path style="fill:#931871;" d="M268.268,226.283c0,0,0.277,9.086,1.613,15.34c1.336,6.254,5.652,17.228,7.503,20.574
						c1.852,3.348,1.427,2.584,1.427,2.584l26.023-10.715c0,0-5.358-8.264-8.828-14.649c-3.468-6.386-4.855-13.86-8.415-16.011
						c-3.563-2.153-5.695-2.284-8.658-1.208c-2.963,1.077-5.845,3.543-6.833,3.903C271.111,226.46,268.268,226.283,268.268,226.283z
						"/>
					<path style="fill:#FF6332;" d="M266.777,222.545c0.27,0.873,0.804,2.108,0.38,4.471c-0.425,2.364,0.692,3.738,0.692,3.738
						s4.982-0.221,9.648-3.018c1.809-1.085,5.075-2.874,5.692-5.273c0.618-2.398-5.052-6.442-5.284-6.751
						c-0.234-0.309-0.617,0.465-3.083,2.328c-2.466,1.864-3.456,2.781-5.161,2.961C267.953,221.18,266.497,221.64,266.777,222.545z"
						/>
					<g>
						<path style="fill:#FFDFDE;" d="M275.519,217.117c0.501,2.71-0.806,5.225-2.922,5.618c-2.115,0.392-4.237-1.487-4.741-4.197
							c-0.503-2.711,0.808-5.227,2.92-5.619C272.894,212.526,275.015,214.406,275.519,217.117z"/>
						<path style="fill:#FFBC00;" d="M266.525,217.939c0,0-0.283-2.208,0.879-4.662c1.162-2.454,2.758-3.424,2.758-3.424l2.85-0.528
							c0,0-0.155,1.376,1.441,3.438c1.593,2.064,1.466,3.05,1.631,3.943C276.25,217.598,266.525,217.939,266.525,217.939z"/>
						<path style="fill:#F0732E;" d="M273.782,208.214c0.22,1.182-0.56,2.316-1.742,2.535c-1.183,0.218-2.313-0.56-2.534-1.742
							c-0.219-1.181,0.561-2.314,1.741-2.533C272.428,206.254,273.561,207.033,273.782,208.214z"/>
					</g>
					<path style="fill:#931871;" d="M283.662,225.011c-1.035,0.807-2.101,2.849-1.522,5.027c0.58,2.176,3.852,12.282,2.456,13.247
						c-1.393,0.965-8.44,5.172-8.44,5.172l2.088,3.214c0,0,5.705-1.316,9.796-3.045c4.433-1.876,6.179-4.625,5.165-10.095
						c-1.016-5.472-1.914-8.432-3.765-11.779C287.59,223.405,284.853,224.084,283.662,225.011z"/>
					<polygon style="fill:#FFBC00;" points="275.633,252.29 324.631,302.966 326.166,302.683 276.021,251.642 					"/>
					<path style="fill:#FFBC00;" d="M330.345,299.452c0.512,0.75-1.388,2.94-4.242,4.897c-2.855,1.955-5.587,2.93-6.1,2.182
						c-0.512-0.748,1.387-2.941,4.24-4.897C327.101,299.679,329.83,298.702,330.345,299.452z"/>
					<path style="fill:#00A6D4;" d="M276.156,248.456c0,0-4.154,0.604-3.509,2.376c0.646,1.773,1.815,1.982,2.468,2.016
						c0.652,0.031,3.699-1.754,3.699-1.754L276.156,248.456z"/>
				</g>
			</g>
			<g>
				<path style="fill:#DCFAFF;" d="M450.916,337.968c-15.806-2.09-29.277,0.423-30.092,5.607c-0.039,0.246-0.039,0.495-0.02,0.744
					c-19.573-2.386-35.83-0.324-36.625,4.735c-0.814,5.186,14.914,11.555,35.131,14.226c20.217,2.671,37.265,0.633,38.08-4.553
					c0.065-0.414,0.013-0.837-0.127-1.264c11.477,0.231,20.144-2.199,20.793-6.326C478.871,345.954,466.72,340.056,450.916,337.968z
					"/>
				<path style="fill:#DCFAFF;" d="M532.327,317.604c0.265,5.707-12.449,10.933-28.399,11.675
					c-15.951,0.741-29.096-3.283-29.361-8.99c-0.265-5.704,12.449-10.933,28.401-11.673
					C518.917,307.875,532.063,311.9,532.327,317.604z"/>
				<g>
					<g>
						<path style="fill:#931871;" d="M443.135,355.49c0,0-0.591-7.811-1.74-17.438c-1.292-10.813-8.447-26.236-8.447-26.236
							l-14.021,1.676c0,0,1.156,6.897,10.738,17.906c5.743,6.598,10.431,24.457,10.431,24.457L443.135,355.49z"/>
						<path style="fill:#FFBC00;" d="M444.159,353.117c0,0-0.464,1.131,0.266,2.221c0.729,1.088,5.259,0.375,5.366,1.221
							c0.107,0.844-0.374,1.244-2.542,1.674c-2.168,0.432-6.272,1.951-7.09,0.848c-0.815-1.102-1.478-6.164-1.478-6.164
							L444.159,353.117z"/>
						<path style="fill:#931871;" d="M406.119,355.838c0,0,4.941-6.08,10.725-13.863c6.495-8.738,11.902-24.859,11.902-24.859
							l-11.336-8.422c0,0-3.9,5.801-4.509,20.387c-0.366,8.74-9.241,24.93-9.241,24.93L406.119,355.838z"/>
						<path style="fill:#FFBC00;" d="M408.495,354.818c0,0-1.113,0.502-1.333,1.793c-0.218,1.293,3.561,3.887,3.059,4.576
							c-0.503,0.685-1.129,0.647-2.999-0.533c-1.87-1.178-5.896-2.896-5.73-4.256c0.163-1.363,3.164-5.492,3.164-5.492
							L408.495,354.818z"/>
						<path style="fill:#00A6D4;" d="M438.289,283.25c2.7,0.31,5.379,9.17,6.589,12.748c0.709,2.102,14.209,14.358,14.209,14.358
							l-0.915,1.564c0,0-9.295-4.418-13.959-6.43c-4.352-1.877-11.605-15.223-10.846-18.91
							C434.127,282.891,436.811,283.08,438.289,283.25z"/>
						<path style="fill:#BFEFFF;" d="M492.901,325.504c1.682,14.064-8.358,26.828-22.424,28.51
							c-14.065,1.68-26.828-8.359-28.509-22.426c-1.682-14.063,8.358-26.828,22.422-28.508
							C478.457,301.4,491.221,311.438,492.901,325.504z"/>
						<path style="fill:#00A6D4;" d="M439.105,281.609c0,0,2.4,8.623,2.979,14.895c0.578,6.271-0.266,17.852-1.024,21.541
							c-0.759,3.69-0.585,2.844-0.585,2.844l-27.603-2.443c0,0,2.616-9.34,4.005-16.359c1.39-7.02,0.5-14.453,3.22-17.52
							c2.716-3.064,4.685-3.814,7.786-3.672c3.101,0.145,6.531,1.619,7.566,1.666C436.482,282.609,439.105,281.609,439.105,281.609z
							"/>
						<path style="fill:#00A6D4;" d="M424.258,284.926c2.701,0.31,5.382,9.17,6.589,12.748c0.711,2.102,14.21,14.358,14.21,14.358
							l-0.558,3.219c0,0-9.652-6.072-14.316-8.082c-4.351-1.879-11.604-15.223-10.845-18.912
							C420.097,284.566,422.782,284.758,424.258,284.926z"/>
						<g>
							<path style="fill:#00A6D4;" d="M426.014,284.424c0,0,0.573-2.469,0.62-3.746c0.05-1.279-2.314-6.49-1.347-9.439
								c0.965-2.951,2.402-5.242,4.986-5.855c2.584-0.613,6.043,0.088,7.939,2.578c1.898,2.49,2.981,9.57,1.534,12.006
								c-1.444,2.436-1.942,4.869-1.942,4.869l-3.499,3.531L426.014,284.424z"/>
							<path style="fill:#FFDFDE;" d="M431.331,276.195c-0.097,2.602,1.467,4.775,3.501,4.852c2.028,0.076,3.756-1.969,3.855-4.57
								c0.098-2.604-1.467-4.773-3.498-4.852C433.157,271.547,431.432,273.594,431.331,276.195z"/>
							<path style="fill:#931871;" d="M439.094,275.813c0,0,0.718-2.18-0.704-4.313c-1.421-2.137-2.036-2.971-4.759-2.504
								c-0.866,0.148-2.462,1.186-2.77,3.023c-0.406,2.428-0.08,3.014-0.113,3.871C430.714,276.746,439.094,275.813,439.094,275.813
								z"/>
						</g>
						<path style="fill:#FFBC00;" d="M444.142,313.598l0.915-1.566l2.756,0.4c0,0,3.159-0.133,3.217,0.344
							c0.056,0.473-1.293,1.02-1.293,1.02s2.619,1.486,2.792,1.852c0.171,0.365,0.167,1.393-0.802,1.894
							c-0.969,0.502-6.698-2.035-7.228-2.291C443.969,314.998,444.142,313.598,444.142,313.598z"/>
					</g>
					<g>
						<g>
							<g>
								<path style="fill:#C7F4FF;" d="M600.93,287.316c0.326,0.68-1.332,2.094-3.711,3.156c-2.377,1.064-4.571,1.375-4.898,0.693
									c-0.33-0.678,1.334-2.096,3.712-3.156C598.408,286.945,600.602,286.637,600.93,287.316z"/>
								<path style="fill:#C7F4FF;" d="M593.731,283.238c0.395,0.82-1.463,2.457-4.147,3.658c-2.686,1.201-5.184,1.512-5.579,0.693
									c-0.394-0.818,1.464-2.457,4.148-3.658C590.84,282.73,593.334,282.422,593.731,283.238z"/>
							</g>
							<g>
								<path style="fill:#C7F4FF;" d="M621.808,274.594c0.328,0.678-1.332,2.094-3.71,3.156c-2.377,1.065-4.571,1.373-4.898,0.693
									c-0.331-0.68,1.332-2.094,3.709-3.158C619.285,274.223,621.479,273.912,621.808,274.594z"/>
								<path style="fill:#C7F4FF;" d="M608.415,274.109c0.396,0.818-1.463,2.457-4.147,3.656c-2.686,1.201-5.185,1.512-5.578,0.693
									c-0.396-0.82,1.463-2.455,4.15-3.658C605.523,273.602,608.021,273.291,608.415,274.109z"/>
							</g>
							<g>
								<path style="fill:#C7F4FF;" d="M586.698,296.744c0.382,0.652-1.159,2.188-3.44,3.432c-2.283,1.24-4.442,1.719-4.826,1.064
									c-0.381-0.654,1.16-2.191,3.441-3.434C584.154,296.568,586.315,296.09,586.698,296.744z"/>
								<path style="fill:#C7F4FF;" d="M579.191,293.227c0.461,0.787-1.256,2.561-3.836,3.965c-2.579,1.402-5.04,1.902-5.501,1.115
									c-0.46-0.785,1.258-2.563,3.836-3.963C576.269,292.94,578.731,292.441,579.191,293.227z"/>
							</g>
							<g>
								<path style="fill:#C7F4FF;" d="M571.782,305.853c0.285,0.695-1.46,2.014-3.9,2.936c-2.439,0.924-4.648,1.105-4.934,0.41
									c-0.286-0.699,1.461-2.014,3.9-2.935C569.288,305.338,571.496,305.154,571.782,305.853z"/>
								<path style="fill:#C7F4FF;" d="M564.845,301.369c0.345,0.84-1.611,2.365-4.367,3.408c-2.756,1.045-5.267,1.211-5.611,0.371
									c-0.344-0.84,1.613-2.367,4.366-3.41C561.989,300.695,564.502,300.529,564.845,301.369z"/>
							</g>
							<g>
								<path style="fill:#C7F4FF;" d="M552.845,313.387c0.062,0.748-2.008,1.51-4.624,1.703c-2.617,0.193-4.786-0.258-4.849-1.002
									c-0.063-0.75,2.008-1.51,4.622-1.703C550.609,312.191,552.781,312.643,552.845,313.387z"/>
								<path style="fill:#C7F4FF;" d="M547.555,307.147c0.074,0.9-2.259,1.803-5.215,2.021c-2.954,0.217-5.41-0.334-5.484-1.233
									c-0.077-0.898,2.258-1.805,5.211-2.021C545.021,305.693,547.479,306.248,547.555,307.147z"/>
							</g>
						</g>
						<g>
							<path style="fill:#931871;" d="M506.163,317.973c0,0-1.267-7.73-2.418-17.359c-1.292-10.813,2.028-27.486,2.028-27.486
								l14.02-1.676c0,0,0.503,6.975-6.217,19.932c-4.026,7.766-4.373,26.227-4.373,26.227L506.163,317.973z"/>
							<path style="fill:#931871;" d="M528.79,315.084c0,0-7.379-7.348-10.787-16.428c-4.009-10.676-8.234-23.025-8.234-23.025
								l13.08-3.826c0,0,9.344,1.844,2.623,14.805c-4.024,7.764,6.163,27.535,6.163,27.535L528.79,315.084z"/>
							<path style="fill:#FF6332;" d="M503.454,310.26c0,0,2.007,6.795,1.555,8.025c-0.452,1.232-5.021,1.605-4.927,2.449
								c0.096,0.848,0.657,1.123,2.865,1.029c2.21-0.092,6.556,0.418,7.088-0.846c0.534-1.264,0.233-11.473,0.233-11.473
								L503.454,310.26z"/>
							<path style="fill:#FF6332;" d="M521.063,307.826c0,0,5.686,6.613,5.552,7.918c-0.135,1.305-4.472,2.793-4.171,3.588
								c0.301,0.797,0.914,0.928,3.031,0.291c2.116-0.633,6.455-1.213,6.661-2.568c0.205-1.353-3.549-12.211-3.549-12.211
								L521.063,307.826z"/>
							<path style="fill:#FFBC00;" d="M495.466,245.823c-1.241,2.143-2.067,6.152-3.077,9.413c-1.014,3.262-1.027,5.754-2.152,8.068
								c-1.125,2.316-5.844,9.73-5.844,9.73l2.307,2.369c0,0,1.943-0.678,5.549-4.389c3.605-3.711,7.138-8.023,8.457-12.617
								c1.32-4.598,1.578-6.342,0.427-9.474c-1.155-3.131-1.896-4.131-3.027-4.465C496.975,244.127,495.839,245.18,495.466,245.823z
								"/>
							<path style="fill:#FFBC00;" d="M496.581,244.139c-0.467,0.4-1.386,2.738-0.765,5.063c0.619,2.324,0.78,3.675,2.863,12.509
								c2.084,8.832,1.609,20.197,1.92,28.041c0.313,7.844,0.109,10.438,0.109,10.438s7.404,0.314,16.217-1.938
								c8.814-2.252,11.281-1.688,17.633-5.873c6.354-4.189,6.602-7.84,7.486-9.047c0.883-1.209-1.876-5.652-9.108-14.568
								c-7.235-8.912-10.858-17.732-12.613-20.949c-1.756-3.217-2.366-6.057-4.988-7.629c-2.622-1.571-5.573-1.881-9.09-1.215
								c-3.518,0.666-7.462,2.088-7.462,2.088L496.581,244.139z"/>
							<path style="fill:#F0903C;" d="M484.393,273.035c0,0-3.439,1.189-3.537,1.666c-0.1,0.48,0.373,1.826,0.932,1.291
								c0.561-0.533-2.528,0.98-2.422,1.875c0.107,0.895,0.479,2.717,1.672,2.264c1.191-0.455,5.662-4.727,5.662-4.727
								L484.393,273.035z"/>
							<path style="fill:#87D7E7;" d="M493.68,275.469c0.457,3.822-2.273,7.289-6.099,7.746c-3.824,0.459-7.298-2.27-7.754-6.092
								c-0.456-3.82,2.275-7.291,6.101-7.748C489.754,268.918,493.224,271.647,493.68,275.469z"/>
							<path style="fill:#F0903C;" d="M495.183,275.371c0,0-3.438,1.189-3.537,1.67c-0.099,0.479,0.374,1.822,0.934,1.289
								c0.559-0.535-2.53,0.98-2.424,1.875c0.107,0.893,0.48,2.715,1.672,2.262c1.191-0.453,5.664-4.723,5.664-4.723
								L495.183,275.371z"/>
							<path style="fill:#FFBC00;" d="M509.752,248.235c-1.445,6.542-6.11,16.507-8.289,19.525c-2.18,3.02-6.813,7.498-6.813,7.498
								l1.023,2.832l0.701,1.576c0,0,6.442-4.871,10.838-9.68c4.394-4.81,7.261-8.066,8.661-13.545
								c1.402-5.479,3.32-8.064,1.844-11.832c-1.479-3.764-3.43-2.885-3.43-2.885S511.199,241.693,509.752,248.235z"/>
							<g>
								<path style="fill:#FFB583;" d="M498.307,235.138c0.33,2.757,2.34,4.784,4.493,4.526c2.151-0.258,3.629-2.701,3.3-5.457
									c-0.329-2.759-2.341-4.786-4.492-4.529C499.453,229.936,497.977,232.38,498.307,235.138z"/>
								<path style="fill:#931871;" d="M506.42,233.44c0,0,0.391-2.414-1.463-4.427c-1.853-2.012-2.641-2.787-5.429-1.844
									c-0.888,0.3-2.396,1.661-2.413,3.647c-0.025,2.625,0.416,3.188,0.524,4.096C497.747,235.82,506.42,233.44,506.42,233.44z"/>
								<path style="fill:#FF6332;" d="M502.964,224.319c0.2,1.686-1.003,3.216-2.689,3.418c-1.686,0.201-3.216-1.002-3.418-2.689
									c-0.201-1.686,1.004-3.216,2.688-3.417C501.233,221.43,502.762,222.632,502.964,224.319z"/>
							</g>
							<g>
								<g>
									<path style="fill:#FF6332;" d="M497.163,238.246c0,0-0.063,5.464,0.941,6.214c1.003,0.75,5.508-0.07,8.561-1.15
										c3.053-1.08,5.981-2.297,6.307-3.184c0.327-0.887-1.169-4.828-2.304-5.721c-1.135-0.893-3.622,2.488-6.665,3.365
										C500.962,238.649,497.163,238.246,497.163,238.246z"/>
									<path style="fill:#FF6332;" d="M500.029,258.008c0,0-1.354-3.635-1.449-7.352c-0.094-3.718,0.893-6.767,0.893-6.767
										l4.498-0.971c0,0-0.905,7.46-0.089,9.701c0.816,2.242,1.733,4.063,1.733,4.063L500.029,258.008z"/>
									<polygon style="fill:#FF6332;" points="504.901,251.875 502.689,243.294 506.592,241.877 509.889,249.742 									"/>
								</g>
							</g>
						</g>
					</g>
				</g>
			</g>
			<g>
				<path style="fill:#9DE4F8;" d="M692.893,335.03c1.742,6.251-15.584,16.546-38.704,22.995c-23.12,6.452-43.276,6.617-45.02,0.367
					c-1.742-6.248,15.587-16.544,38.706-22.994C670.994,328.946,691.15,328.784,692.893,335.03z"/>
				<g>
					<g>
						<path style="fill:#00A6D4;" d="M709.393,327l-0.244-2.1l-0.658,0.031c-0.548,0.023-1.605,0.559-1.605,0.559
							c-2.878,0.988-5.937,2.803-8.701,4.443c-0.299,0.178-0.582,0.344-0.872,0.514l-5.564-10.344l-1.863,1.004l5.595,10.398
							c-0.027,0.014-0.059,0.033-0.085,0.049c-5.449,3.01-11.278,5.725-16.915,8.352l-1.174,0.549
							c-1.681,0.781-3.342,1.621-4.984,2.471l-6.077-11.299l-1.864,1.004l6.067,11.275c-0.597,0.314-1.19,0.629-1.778,0.941
							c-3.575,1.896-7.273,3.857-11.047,5.461c-2.532,1.076-6.4,1.857-9.338,1.178c-0.725-0.166-1.779-1.076-2.709-1.879
							c-1.477-1.271-2.876-2.477-4.243-1.975c0,0-1.873,0.906,0.655,2.002c0.365,0.158,1.529,0.994,2.206,1.576
							c1.17,1.01,2.382,2.055,3.615,2.338c1.161,0.268,2.436,0.344,3.728,0.277c2.491-0.125,5.038-0.773,6.912-1.57
							c3.861-1.639,7.599-3.623,11.212-5.541c2.777-1.471,5.647-2.994,8.539-4.342l1.175-0.549
							c5.669-2.641,11.53-5.371,17.043-8.418c0.534-0.295,1.107-0.627,1.696-0.975l0.208-0.111l-0.004-0.008
							c0.313-0.184,0.623-0.367,0.947-0.559C702.568,329.795,706.313,327.572,709.393,327z"/>
						<polygon style="fill:#931871;" points="634.371,332.228 656.546,338.232 704.781,315.027 677.356,309.684 						"/>
					</g>
					<g>
						<path style="fill:#931871;" d="M684.102,257.41l-0.197-4.928c0,0-0.069-3.664,0.481-3.716c0.553-0.055,1.15,1.523,1.15,1.523
							s1.79-2.998,2.217-3.187c0.429-0.191,1.621-0.156,2.176,0.979c0.559,1.135-2.533,7.712-2.84,8.32
							C686.784,257.006,684.102,257.41,684.102,257.41z"/>
						<path style="fill:#931871;" d="M641.586,313.586c0,0-3.464,4.904-4.029,4.912c-0.567,0.008-0.17-1.404,0.558-1.924
							c0.729-0.521-1.664,2.666-2.659,2.352c-0.997-0.315-2.992-1.137-2.216-2.397c0.774-1.258,6.613-5.422,6.613-5.422
							L641.586,313.586z"/>
						<path style="fill:#00A6D4;" d="M681.208,302.063c-4.317-0.615-9.497,3.613-16.75,7.977
							c-4.167,2.508-9.841,7.799-17.203,15.672c-7.213,7.713-11.62,19.734-11.62,19.734l2.861,2.17c0,0,6.113-7.408,13.907-13.117
							c7.794-5.711,8.575-4.127,19.36-10.303c10.783-6.178,14.058-6.082,14.821-11.004c0.765-4.92,0.26-2.902-0.896-7.647
							C684.842,302.063,683.313,302.363,681.208,302.063z"/>
						<path style="fill:#00A6D4;" d="M656.546,306.848c-3.985,2.945-9.302,6.426-18.045,14.055
							c-8.342,7.277-12.697,14.537-12.697,14.537l3.555,3.183c0,0,7.778-7.674,17.598-12.754c5.521-2.857,13.32-9.246,19.335-10.842
							c4.667-1.238,9.144-4.17,7.333-9.572C671.93,300.408,664.335,301.092,656.546,306.848z"/>
						<path style="fill:#FF6332;" d="M651.813,300.268c-1.185,12.43-1.746,11.365-1.746,11.365s13.264,6.342,22.142,5.156
							c8.877-1.184,13.748-4.725,14.637-6.5c0.888-1.775-3.666-19.49-7.513-26.889c-3.848-7.396-7.979-7.285-9.756-8.469
							c-1.775-1.184-11.58,1.566-13.03,4.822C653.364,286.898,652.994,287.84,651.813,300.268z"/>
						<path style="fill:#FF6332;" d="M668.185,274.652c0,0,5.82,2.512,9.963-1.631c4.143-4.143,3.399-5.897,4.764-10.629
							c1.365-4.736,0.046-6.482,0.046-6.482l5.5-1.195c0,0-0.333,2.055,0.555,8.564s0.888,11.836-1.775,15.092
							c-2.664,3.254-11.752,9.174-11.752,9.174L668.185,274.652z"/>
						<path style="fill:#FF6332;" d="M662.627,277.629c0,0-5.457-3.223-8.545,7.244c-2.938,9.963-6.992,15.791-16.758,27.332
							l3.904,2.822c0,0,4.886-4.852,7.478-6.904c5.613-4.445,7.694-8.162,10.078-14.375c1.294-3.373,2.067-7.166,2.507-10.125
							C661.732,280.662,662.627,277.629,662.627,277.629z"/>
						<path style="fill:#FFBC00;" d="M634.563,341.31c0,0-0.077,1.801-1.73,2.811c-1.653,1.008-6.363-2.891-7.029-1.824
							c-0.666,1.064-0.987,2.822,1.654,4.742c2.641,1.92,6.995,5.713,8.773,4.742c1.777-0.971,5.804-7.344,5.804-7.344
							L634.563,341.31z"/>
						<path style="fill:#FFBC00;" d="M624.916,333.18c0,0-0.638,1.688-2.523,2.127c-1.885,0.439-6.052-4.896-7.018-4.096
							c-0.967,0.805-0.856,1.723,1.053,4.371c1.906,2.65,4.799,8.428,6.792,8.065c1.992-0.367,7.811-5.158,7.811-5.158
							L624.916,333.18z"/>
						<path style="fill:#931871;" d="M660.028,275.705c0,0-2.207,0.81-2.056,2.613c0.151,1.805-0.433,1.805,2.401,2.805
							c2.834,1,5.287,1.416,7.811,0.332c2.523-1.082,3.439-1.916,3.939-3.25c0.5-1.332,0.313-1.744-0.166-2.5
							c-0.366-0.578-1.084-1.916-1.834-2.332c-0.75-0.418-2.171-0.045-2.171-0.045s-0.815,0.27-2.697,1.324
							C663.374,275.705,660.028,275.705,660.028,275.705z"/>
						<polyline style="fill:#931871;" points="663.532,280.705 661.292,302.873 668.512,302.004 666.958,280.705 663.532,280.373 
													"/>
						<polygon style="fill:#931871;" points="673.528,298.873 664.374,280.705 667.624,278.272 678.291,294.873 						"/>
						<g>
							<path style="fill:#FFDFDE;" d="M660.096,274.459c0.398,2.777,2.485,4.777,4.653,4.465c2.169-0.313,3.604-2.818,3.204-5.596
								c-0.402-2.781-2.486-4.781-4.654-4.469C661.128,269.172,659.695,271.68,660.096,274.459z"/>
							<path style="fill:#00A6D4;" d="M668.256,272.543c0,0,0.337-2.449-1.586-4.44c-1.921-1.986-2.737-2.752-5.532-1.73
								c-0.892,0.326-2.381,1.738-2.352,3.746c0.04,2.656,0.497,3.211,0.631,4.129C659.547,275.16,668.256,272.543,668.256,272.543z
								"/>
							<path style="fill:#FBCB30;" d="M669.812,271.129c0,1.256-0.802,2.273-1.792,2.273c-0.989,0-1.791-1.018-1.791-2.273
								c0-1.254,0.802-2.272,1.791-2.272C669.01,268.857,669.812,269.875,669.812,271.129z"/>
							<path style="fill:#FBCB30;" d="M658.845,270.18c0.386-1.504,2.839-3.064,4.687-3.064c1.846,0,3.433,1.561,3.818,3.064h0.869
								c-0.07-2.203-2.136-3.975-4.687-3.975C660.981,266.205,658.914,267.977,658.845,270.18L658.845,270.18z"/>
						</g>
					</g>
				</g>
			</g>
			<g>
				<path style="fill:#9DE4F8;" d="M506.454,479.976c-1.095,4.512-23.171,3.031-49.315-3.308
					c-26.142-6.339-46.448-15.133-45.355-19.645c1.095-4.51,23.174-3.03,49.315,3.309
					C487.244,466.671,507.551,475.467,506.454,479.976z"/>
				<path style="fill:#9DE4F8;" d="M616.539,465.582c0.661,4.596-20.385,11.425-47.012,15.255
					c-26.625,3.83-48.745,3.212-49.407-1.383c-0.66-4.594,20.388-11.425,47.013-15.255
					C593.761,460.369,615.882,460.988,616.539,465.582z"/>
				<g>
					<g>
						<path style="fill:#FF6332;" d="M571.577,473.195c0,0-2.51-8.963-5.13-20.186c-2.941-12.6-1.205-32.727-1.205-32.727
							l16.34-3.816c0,0,1.508,8.17-4.732,24.355c-3.737,9.697-1.729,31.547-1.729,31.547L571.577,473.195z"/>
						<path style="fill:#00A6D4;" d="M569.469,470.959c0,0,0.977,1.074,0.604,2.588c-0.372,1.512-5.721,2.551-5.497,3.539
							c0.223,0.986,0.922,1.238,3.519,0.84c2.597-0.4,7.797-0.367,8.261-1.93c0.466-1.563-0.848-7.484-0.848-7.484L569.469,470.959z
							"/>
						<path style="fill:#FF6332;" d="M618.375,446.092c0,0-17.791,5.635-27.409-0.715c-10.799-7.125-18.881-20.881-18.881-20.881
							l9.241-14.004c0,0,6.703,3.135,14.57,23.061c3.816,9.668,23.439,7.465,23.439,7.465L618.375,446.092z"/>
						<path style="fill:#00A6D4;" d="M617.362,446.752c0,0,1.37-0.477,2.616,0.457c1.245,0.935,0.112,6.264,1.109,6.443
							c0.994,0.182,1.5-0.365,2.148-2.91c0.646-2.547,2.71-7.32,1.453-8.355c-1.256-1.039-7.219-2.146-7.219-2.146L617.362,446.752z
							"/>
						<path style="fill:#FBCB30;" d="M540.146,427.307l-1.546-1.135l-2.509,1.549c0,0-3.117,1.199-2.975,1.682
							c0.143,0.486,1.683,0.447,1.683,0.447s-1.917,2.545-1.932,2.971c-0.013,0.428,0.425,1.422,1.573,1.502
							c1.151,0.08,5.646-4.791,6.054-5.262C540.903,428.596,540.146,427.307,540.146,427.307z"/>
						<path style="fill:#BFEFFF;" d="M509.397,380.822c0.881,3.777,4.655,6.123,8.433,5.242c3.775-0.883,6.123-4.658,5.24-8.434
							c-0.882-3.777-4.658-6.123-8.433-5.242C510.859,373.272,508.515,377.047,509.397,380.822z"/>
						<path style="fill:#931871;" d="M548.894,388.906c-2.892,1.443-2.29,12.424-2.19,16.912c0.06,2.635-10.93,21.346-10.93,21.346
							l4.32,3.314c0,0,6.811-10.189,11.202-14.328c4.1-3.863,6.786-21.709,4.444-25.52
							C553.398,386.816,550.476,388.119,548.894,388.906z"/>
						<path style="fill:#931871;" d="M546.113,389.041c0,0,0.814,10.606,2.713,17.842c1.899,7.24,7.537,19.834,9.881,23.645
							c2.346,3.813,1.807,2.939,1.807,2.939l29.838-13.924c0,0-6.71-9.371-11.108-16.646c-4.399-7.277-5.039-11.395-9.056-16.115
							c-3.155-3.707-8.424-4.51-11.831-3.09c-3.405,1.418-6.639,4.455-7.773,4.93C549.448,389.092,546.113,389.041,546.113,389.041z
							"/>
						<path style="fill:#FFB583;" d="M557.834,379.123c0.742,3.178-0.668,6.227-3.151,6.807c-2.481,0.58-5.098-1.529-5.84-4.709
							c-0.743-3.18,0.668-6.23,3.15-6.811C554.477,373.83,557.091,375.941,557.834,379.123z"/>
						<path style="fill:#00A6D4;" d="M548.137,380.315c0,0-1.387-2.453-0.131-5.363c1.253-2.908,1.818-4.061,5.275-4.152
							c1.104-0.029,3.308,0.838,4.114,2.975c1.065,2.826,0.801,3.607,1.039,4.633C558.674,379.43,548.137,380.315,548.137,380.315z"
							/>
						<path style="fill:#FFBC00;" d="M562.445,385.449c-0.09-2.435-2.228-6.473-3.949-5.484c-1.285,0.734,0.28,2.639-3.598,3.703
							c-3.877,1.063-6.909-1.133-7.657-0.424c-1.165,1.105-1.966,5.361-1.069,6.605c0.897,1.244,5.795,2.152,10.214,0.188
							C560.805,388.072,562.549,388.25,562.445,385.449z"/>
						<path style="fill:#FFBC00;" d="M559.072,380.326c0,0,15.853-10.922,17.349-12.647c1.492-1.727,1.492-1.727,1.492-1.727
							l4.511,5.777l-22.182,13.207L559.072,380.326z"/>
						<polygon style="fill:#FFBC00;" points="585.977,377.148 558.326,381.432 558.799,384.822 584.633,384.744 						"/>
						<path style="fill:#FBCB30;" d="M527.701,386.078l0.158-2.146l-2.971-1.465c0,0-3.003-2.254-3.378-1.83
							c-0.376,0.428,0.578,1.869,0.578,1.869s-3.566-0.307-3.98-0.066c-0.415,0.244-1.102,1.254-0.491,2.396
							c0.61,1.145,7.93,2.516,8.619,2.623C526.927,387.568,527.701,386.078,527.701,386.078z"/>
						<path style="fill:#931871;" d="M566.764,386.103c-2.025-2.518-12.626,0.399-16.991,1.453
							c-2.563,0.615-23.434-5.193-23.434-5.193l-2.324,5.156c0,0,12.381,7.447,18.442,9.129c5.427,1.504,20.85-0.391,24.076-3.488
							C569.764,390.059,567.869,387.48,566.764,386.103z"/>
					</g>
					<g>
						<path style="fill:#9DE4F8;" d="M480.007,380.945c0,2.584,2.094,4.678,4.677,4.678s4.677-2.094,4.677-4.678
							c0-2.582-2.094-4.676-4.677-4.676S480.007,378.363,480.007,380.945z"/>
						<g>
							<path style="fill:#00A6D4;" d="M518.477,447.693c0,0-9.84-1.863-22.109-3.641c-13.779-1.994-35.194,1.719-35.194,1.719
								l-2.581,17.865c0,0,8.893,0.863,25.669-7.313c10.048-4.9,33.656-4.754,33.656-4.754L518.477,447.693z"/>
							<path style="fill:#FBCB30;" d="M412.294,458.047l-1.472-0.963l-2.222,1.541c0,0-2.796,1.252-2.642,1.688
								c0.156,0.438,1.563,0.328,1.563,0.328s-1.629,2.424-1.622,2.815c0.009,0.393,0.459,1.283,1.515,1.297
								c1.059,0.017,4.936-4.664,5.286-5.115C413.051,459.191,412.294,458.047,412.294,458.047z"/>
							<path style="fill:#FBCB30;" d="M477.797,397.926l-1.029-1.426l1.434-2.291c0,0,1.12-2.852,1.562-2.717
								c0.445,0.135,0.401,1.545,0.401,1.545s2.346-1.74,2.735-1.752c0.393-0.01,1.303,0.398,1.367,1.451
								c0.066,1.057-4.428,5.148-4.862,5.522C478.976,398.629,477.797,397.926,477.797,397.926z"/>
							<path style="fill:#00A6D4;" d="M446.704,458.082c0.166,0.5,0.151,9.334,5.818,12.334c5.667,3,8.744,1.666,16.463-1
								c7.719-2.668,18.052-7.334,18.052-7.334l3.667-1.355c0,0,2,1.855,4.333,6.189c2.333,4.332,6,8.832,6,8.832l4.055-1.17
								c0,0-3.076-13.496-6.315-18.662c-3.239-5.168-2.34-7.096-5.239-8.049c-5.879-1.93-23.271,7.383-24.552,7.215
								c-1.281-0.166-4.677-5.408-4.677-5.408L446.704,458.082z"/>
							<path style="fill:#FF6332;" d="M442.382,415.658c0.72-3.268,12.143-3.201,16.675-4.232
								c2.659-0.605,18.087-15.59,18.087-15.59l3.375,1.545c0,0-6.886,10.592-9.933,16.047c-2.842,5.086-17.721,15.23-22.14,13.84
								C444.028,425.881,441.99,417.441,442.382,415.658z"/>
							<path style="fill:#FF6332;" d="M435.229,418.525c-1.99,0.928-5.177,9.162-3.643,19.842c1.093,7.613,5.38,13.199,8.811,19.633
								c2.685,5.035,2.704,7.715,8.863,13.049c4.305,3.727,4.305-9.701,13.362-15.828c10.484-7.092,12.147-10.084,10.876-13.666
								c-1.813-5.109-12.845-16.922-17.043-20.713c-4.197-3.791-8.527-9.283-13.99-6.242
								C440.164,415.879,438.813,416.857,435.229,418.525z"/>
							<path style="fill:#FFB583;" d="M442.044,410.832c2.085,2.541,2.17,5.92,0.186,7.549c-1.983,1.629-5.283,0.889-7.369-1.65
								c-2.088-2.543-2.169-5.924-0.188-7.551C436.655,407.551,439.955,408.291,442.044,410.832z"/>
							<path style="fill:#931871;" d="M433.843,416.002c0,0-2.386-1.647-2.585-4.877c-0.2-3.232-0.22-4.543,2.872-6.154
								c0.985-0.512,3.384-0.686,5.097,0.926c2.265,2.131,2.383,2.969,3.07,3.807C442.984,410.539,433.843,416.002,433.843,416.002z
								"/>
							<path style="fill:#FF6332;" d="M434.456,419.453c0,0-4.914,5.582-9.211,12.908c-4.297,7.328-16.53,25.031-16.53,25.031
								l3.769,2.377c0,0,16.305-11.963,20.524-17.453c4.218-5.494,6.679-10.877,5.341-14.158c-1.341-3.285-2.367-5.426-2.367-5.426
								L434.456,419.453z"/>
							<path style="fill:#FFBC00;" d="M517.418,446.484c0,0,1.057,0.676,2.289,0.137c1.231-0.535,1.336-5.238,2.207-5.191
								c0.872,0.045,1.188,0.605,1.23,2.869c0.036,2.268,0.822,6.684-0.436,7.309c-1.261,0.623-6.489,0.369-6.489,0.369
								L517.418,446.484z"/>
							<path style="fill:#FFBC00;" d="M505.363,472.068c0,0,0.064,1.465,1.405,2.281c1.34,0.816,5.905-2.24,6.444-1.377
								c0.544,0.863,0.221,1.543-1.914,3.102c-2.145,1.559-5.838,5.275-7.279,4.492c-1.441-0.787-4.711-5.955-4.711-5.955
								L505.363,472.068z"/>
							<path style="fill:#FF6332;" d="M434.829,402.365c-0.011-0.277-0.46-0.334-0.494-0.045c-0.019,0.158-0.049,0.314-0.07,0.471
								c-0.002-0.127-0.011-0.254-0.028-0.379c-0.025-0.182-0.298-0.234-0.339-0.029c-0.05,0.25-0.08,0.512-0.096,0.779
								c-0.026-0.16-0.063-0.318-0.125-0.469c-0.061-0.143-0.292-0.168-0.324,0.012c-0.098,0.525,0.005,1.07,0.046,1.598
								c0.016,0.205,0.061,0.402,0.092,0.604c-0.029,0.029-0.056,0.06-0.068,0.113c-0.003,0.014-0.006,0.025-0.009,0.041
								c-0.073-0.351-0.149-0.701-0.185-1.06c-0.044-0.434-0.003-0.863-0.227-1.242c-0.049-0.082-0.201-0.092-0.238,0.008
								c-0.176,0.479-0.027,0.99,0.053,1.484c0.048,0.297,0.112,0.59,0.189,0.879c-0.107-0.242-0.198-0.492-0.29-0.748
								c-0.153-0.43-0.202-0.91-0.525-1.246c-0.066-0.066-0.208-0.029-0.22,0.07c-0.06,0.51,0.208,1.029,0.387,1.5
								c0.033,0.088,0.088,0.162,0.129,0.246c-0.098-0.109-0.197-0.213-0.286-0.33c-0.239-0.316-0.34-0.748-0.634-1.006
								c-0.072-0.064-0.212-0.037-0.227,0.07c-0.055,0.406,0.235,0.777,0.48,1.092c-0.059-0.018-0.12-0.02-0.172,0.002
								c-0.007,0.004-0.012,0.008-0.018,0.01c-0.069-0.076-0.136-0.152-0.207-0.23c-0.132-0.143-0.399,0.022-0.326,0.205
								c0.061,0.15,0.149,0.289,0.249,0.42c-0.262-0.252-0.492-0.609-0.855-0.637c-0.074-0.006-0.142,0.064-0.156,0.131
								c-0.091,0.396,0.318,0.709,0.627,0.92c-0.144-0.029-0.285-0.045-0.419-0.01c-0.106,0.029-0.135,0.148-0.09,0.238
								c0.186,0.367,0.74,0.398,1.109,0.451c0.298,0.041,0.599,0.061,0.898,0.076c0.024,0.01,0.047,0.022,0.07,0.031
								c0.062,0.023,0.114,0.01,0.157-0.016c0.13,0.008,0.26,0.014,0.389,0.027c0.075,0.006,0.133-0.024,0.177-0.065
								c0.053,0.029,0.112,0.043,0.181,0.016c0.162-0.064,0.286-0.16,0.395-0.266c0.084,0.002,0.168-0.047,0.156-0.147
								c-0.001-0.01-0.001-0.02-0.002-0.027c0.059-0.09,0.104-0.191,0.138-0.297c0.063-0.017,0.112-0.066,0.107-0.154
								c-0.009-0.148-0.001-0.295-0.006-0.443C434.586,404.176,434.862,403.297,434.829,402.365z"/>
						</g>
					</g>
				</g>
			</g>
		</g>
	</g>
</g>
</svg>
